<?xml version="1.0" encoding="utf-8"?>
<!-- Generator: Adobe Illustrator 27.3.1, SVG Export Plug-In . SVG Version: 6.00 Build 0)  -->
<svg version="1.1" id="Ñëîé_1" xmlns="http://www.w3.org/2000/svg" xmlns:xlink="http://www.w3.org/1999/xlink" x="0px" y="0px"
	 viewBox="0 0 600 450" style="enable-background:new 0 0 600 450;" xml:space="preserve">
<style type="text/css">
	.st0{fill:url(#SVGID_1_);}
	.st1{fill:url(#SVGID_00000110441877821311985790000009196246443678678712_);}
	.st2{fill:url(#SVGID_00000117646594199468833610000003052710148553805986_);}
	.st3{fill:url(#SVGID_00000013915297544787129620000004312431888160589953_);}
	.st4{opacity:0.6;fill:#020230;enable-background:new    ;}
	.st5{fill:url(#SVGID_00000126321848263238748660000017740806206114122399_);}
	.st6{fill:url(#SVGID_00000114777847750356966860000006140723144878377662_);}
	.st7{fill:url(#SVGID_00000013873192604798834620000003943033732382181808_);}
	.st8{fill:url(#SVGID_00000082349136541252910060000000530748317160495516_);}
	.st9{fill:#FFFFFF;}
	.st10{opacity:0.4;}
	.st11{fill:#06033E;}
	.st12{fill:url(#SVGID_00000066517415403680961120000001567437301420766879_);}
	.st13{fill:url(#SVGID_00000158010140654117407140000016499287113556731048_);}
	.st14{opacity:0.4;fill:#06033E;enable-background:new    ;}
	.st15{opacity:0.5;fill:#06033E;enable-background:new    ;}
	.st16{fill:url(#SVGID_00000176020919099383692840000013443561085005404331_);}
	.st17{opacity:0.5;}
	.st18{fill:#E8975B;}
	.st19{fill:#F8359E;}
	.st20{fill:url(#SVGID_00000010306689584400799080000006704157879295527871_);}
	.st21{fill:url(#SVGID_00000171693176724045055430000009517458805597569157_);}
	.st22{fill:url(#SVGID_00000152963828942928376290000013311898924869794239_);}
	.st23{fill:url(#SVGID_00000101797107570835723230000009260959878134824588_);}
	.st24{fill:url(#SVGID_00000163780440040008435550000003992403034208356007_);}
	.st25{fill:url(#SVGID_00000182529683931925040180000010161535608557196203_);}
	.st26{fill:url(#SVGID_00000100361374805775329460000004300291615363512240_);}
	.st27{fill:#0C0A78;}
	.st28{fill:url(#SVGID_00000033345819812076742920000017484363021458169508_);}
	.st29{opacity:0.5;fill:#FFFFFF;enable-background:new    ;}
</style>
<radialGradient id="SVGID_1_" cx="141.2147" cy="329.5393" r="733.4801" gradientTransform="matrix(1.0858 0 0 -1.088 -87.1425 256.3987)" gradientUnits="userSpaceOnUse">
	<stop  offset="3.968250e-03" style="stop-color:#04071D"/>
	<stop  offset="0.3288" style="stop-color:#040721"/>
	<stop  offset="0.6165" style="stop-color:#05062B"/>
	<stop  offset="0.8893" style="stop-color:#06053D"/>
	<stop  offset="1" style="stop-color:#060447"/>
</radialGradient>
<rect class="st0" width="600" height="450"/>
<linearGradient id="SVGID_00000106148332665364235420000001355584176020730813_" gradientUnits="userSpaceOnUse" x1="478.79" y1="147.3194" x2="510.99" y2="147.3194" gradientTransform="matrix(1 0 0 -1 0 452)">
	<stop  offset="0" style="stop-color:#6323EF"/>
	<stop  offset="1" style="stop-color:#00093F"/>
</linearGradient>
<path style="fill:url(#SVGID_00000106148332665364235420000001355584176020730813_);" d="M494.89,314.15
	c-1.19,0-2.38-0.31-3.44-0.92l-11.59-6.69c-0.67-0.39-1.07-1.08-1.07-1.86s0.4-1.47,1.07-1.86l11.59-6.69
	c2.12-1.22,4.76-1.23,6.88,0l11.59,6.69c0.67,0.39,1.07,1.08,1.07,1.86s-0.4,1.47-1.07,1.86l-11.59,6.69
	C497.27,313.84,496.08,314.15,494.89,314.15z M494.89,297.04c-0.87,0-1.74,0.22-2.52,0.67l-11.59,6.69
	c-0.13,0.08-0.15,0.2-0.15,0.27c0,0.07,0.02,0.19,0.15,0.27l11.59,6.69l0,0c1.55,0.9,3.48,0.9,5.04,0l11.59-6.69
	c0.13-0.08,0.15-0.2,0.15-0.27c0-0.07-0.02-0.19-0.15-0.27l-11.59-6.69C496.64,297.26,495.77,297.04,494.89,297.04z"/>
<linearGradient id="SVGID_00000105415124539455700060000001719302706562330244_" gradientUnits="userSpaceOnUse" x1="434.68" y1="191.4812" x2="488.79" y2="191.4812" gradientTransform="matrix(1 0 0 -1 0 452)">
	<stop  offset="0" style="stop-color:#6323EF"/>
	<stop  offset="1" style="stop-color:#00093F"/>
</linearGradient>
<path style="fill:url(#SVGID_00000105415124539455700060000001719302706562330244_);" d="M461.74,276.16c-1.93,0-3.86-0.5-5.59-1.49
	l-19.95-11.52c-0.95-0.55-1.52-1.53-1.52-2.63s0.57-2.08,1.52-2.63l19.95-11.52c3.44-1.99,7.73-1.99,11.17,0l19.95,11.52
	c0.95,0.55,1.52,1.53,1.52,2.62c0,1.1-0.57,2.08-1.52,2.63l-19.95,11.52C465.6,275.67,463.67,276.16,461.74,276.16z M457.07,273.08
	c2.88,1.66,6.46,1.66,9.34,0l19.95-11.52c0.54-0.31,0.6-0.83,0.6-1.04c0-0.21-0.06-0.72-0.6-1.03l-19.95-11.52
	c-2.88-1.66-6.46-1.66-9.34,0l-19.95,11.52c-0.54,0.31-0.6,0.83-0.6,1.03c0,0.21,0.06,0.72,0.6,1.03L457.07,273.08z"/>
<linearGradient id="SVGID_00000180327899775702353180000005686316255284085637_" gradientUnits="userSpaceOnUse" x1="77.85" y1="173.3462" x2="131.96" y2="173.3462" gradientTransform="matrix(1 0 0 -1 0 452)">
	<stop  offset="0" style="stop-color:#6323EF"/>
	<stop  offset="1" style="stop-color:#00093F"/>
</linearGradient>
<path style="fill:url(#SVGID_00000180327899775702353180000005686316255284085637_);" d="M104.91,294.29c-1.93,0-3.86-0.5-5.59-1.49
	l-19.95-11.52c-0.95-0.55-1.52-1.53-1.52-2.63s0.57-2.08,1.52-2.62l19.95-11.52c3.44-1.99,7.73-1.99,11.17,0l19.95,11.52
	c0.95,0.55,1.52,1.53,1.52,2.63s-0.57,2.08-1.52,2.63L110.5,292.8C108.77,293.79,106.84,294.29,104.91,294.29z M104.91,264.85
	c-1.61,0-3.23,0.42-4.67,1.25l-19.95,11.52c-0.54,0.31-0.6,0.83-0.6,1.03c0,0.21,0.06,0.72,0.6,1.04l19.95,11.52l0,0
	c2.88,1.66,6.46,1.66,9.34,0l19.95-11.52c0.54-0.31,0.6-0.83,0.6-1.03c0-0.21-0.06-0.72-0.6-1.03l-19.95-11.52
	C108.14,265.27,106.52,264.85,104.91,264.85z"/>
<g>
	<path class="st4" d="M306.97,344.55L164.3,262.18c-2.08-1.2-1.82-3.3,0.58-4.68l91.57-52.87c2.4-1.39,6.03-1.54,8.11-0.34
		l142.67,82.37c2.08,1.2,1.82,3.3-0.58,4.68l-91.57,52.87C312.68,345.6,309.05,345.75,306.97,344.55z"/>
	
		<linearGradient id="SVGID_00000012432906256302511760000010725730927836786081_" gradientUnits="userSpaceOnUse" x1="140.85" y1="176.8157" x2="429.65" y2="176.8157" gradientTransform="matrix(1 0 0 -1 0 452)">
		<stop  offset="0" style="stop-color:#6323EF"/>
		<stop  offset="1" style="stop-color:#00093F"/>
	</linearGradient>
	<path style="fill:url(#SVGID_00000012432906256302511760000010725730927836786081_);" d="M310.23,359.42
		c-1.67,0-3.27-0.35-4.49-1.05l0,0l-162.83-94.01c-1.33-0.77-2.06-1.87-2.06-3.12c0-1.43,0.99-2.82,2.73-3.82l111-65.03
		c3.04-1.76,7.52-1.93,10.18-0.39l162.83,94.01c1.33,0.77,2.06,1.87,2.06,3.12c0,1.43-0.99,2.82-2.73,3.82l-111,65.03
		C314.28,358.93,312.21,359.42,310.23,359.42z M260.29,192.79c-1.67,0-3.44,0.4-4.79,1.18L144.5,259c-1.14,0.66-1.81,1.49-1.81,2.23
		c0,0.72,0.62,1.23,1.14,1.53l162.83,94.01l0,0c2.08,1.2,5.9,1.03,8.34-0.38l111-65.03c1.14-0.66,1.81-1.49,1.81-2.23
		c0-0.71-0.62-1.22-1.14-1.53l-162.83-94.01C262.91,193.06,261.63,192.79,260.29,192.79z"/>
	
		<radialGradient id="SVGID_00000167354759346264126170000003370971039695914669_" cx="300.3726" cy="390.6376" r="220.5786" gradientTransform="matrix(1 0 0 -1 0 452)" gradientUnits="userSpaceOnUse">
		<stop  offset="0" style="stop-color:#B07FFF"/>
		<stop  offset="0.4742" style="stop-color:#A92FFB"/>
		<stop  offset="0.5947" style="stop-color:#891CFB"/>
		<stop  offset="0.7421" style="stop-color:#6507FA"/>
		<stop  offset="0.8016" style="stop-color:#0D0C6F"/>
	</radialGradient>
	<path style="fill:url(#SVGID_00000167354759346264126170000003370971039695914669_);" d="M445.13,148.56L303.02,66.51
		c-0.98-0.56-2-0.68-2.9-0.42l0,0l0,0h-0.01l-2.63,0.92l0.93,0.22c-0.37,0.44-0.67,0.99-0.87,1.63L265.4,173.21
		c-0.8,2.59,0.37,5.73,2.61,7.02l142.11,82.05c0.35,0.2,0.7,0.34,1.05,0.43l-0.35,0.77l2.51-0.88h-0.01
		c1.03-0.41,1.88-1.33,2.29-2.66l32.14-104.35C448.53,153,447.37,149.85,445.13,148.56z"/>
	
		<linearGradient id="SVGID_00000161592089409291654240000018037747305229890981_" gradientUnits="userSpaceOnUse" x1="162.94" y1="197.175" x2="408.61" y2="197.175" gradientTransform="matrix(1 0 0 -1 0 452)">
		<stop  offset="0" style="stop-color:#6323EF"/>
		<stop  offset="1" style="stop-color:#00093F"/>
	</linearGradient>
	<path style="fill:url(#SVGID_00000161592089409291654240000018037747305229890981_);" d="M405.03,266.17l0.05,0.06l-140.37-81.04
		c-2.06-1.19-5.67-1.04-8.06,0.33l-90.69,52.36l-3.02-1.15l0.85,4.24l0,0c0.11,0.64,0.56,1.24,1.36,1.7l141.67,81.79
		c2.06,1.19,5.67,1.04,8.06-0.33l90.92-52.49c1.12-0.65,1.77-1.45,1.93-2.25l0.01,0.01l0.87-4.13L405.03,266.17z"/>
	
		<linearGradient id="SVGID_00000121271816505659837060000013293751149234825626_" gradientUnits="userSpaceOnUse" x1="162.8952" y1="201.4" x2="408.6347" y2="201.4" gradientTransform="matrix(1 0 0 -1 0 452)">
		<stop  offset="0" style="stop-color:#6323EF"/>
		<stop  offset="1" style="stop-color:#00093F"/>
	</linearGradient>
	<path style="fill:url(#SVGID_00000121271816505659837060000013293751149234825626_);" d="M306.97,320.73L164.3,238.36
		c-2.08-1.2-1.82-3.3,0.58-4.68l91.57-52.87c2.4-1.39,6.03-1.54,8.11-0.34l142.67,82.37c2.08,1.2,1.82,3.3-0.58,4.68l-91.57,52.87
		C312.68,321.78,309.05,321.93,306.97,320.73z"/>
	<path class="st9" d="M406.65,266.42l-91.57,52.87c-2.4,1.39-6.03,1.54-8.11,0.34L164.3,237.26c-0.71-0.41-1.12-0.93-1.3-1.48
		c-0.28,0.96,0.13,1.92,1.3,2.59l142.67,82.37c2.08,1.2,5.71,1.05,8.11-0.34l91.57-52.87c1.58-0.91,2.21-2.13,1.88-3.2
		C408.31,265.07,407.7,265.81,406.65,266.42z"/>
	<g class="st10">
		<path class="st11" d="M232.35,224.99l-4.82-2.78c-0.39-0.22-0.34-0.61,0.11-0.87l5.69-3.28c0.45-0.26,1.12-0.29,1.51-0.06
			l4.82,2.78c0.39,0.22,0.34,0.61-0.11,0.87l-5.69,3.28C233.41,225.19,232.73,225.21,232.35,224.99z"/>
		<path class="st11" d="M239.78,229.29l-4.82-2.78c-0.39-0.22-0.34-0.61,0.11-0.87l5.69-3.28c0.45-0.26,1.12-0.29,1.51-0.06
			l4.82,2.78c0.39,0.22,0.34,0.61-0.11,0.87l-5.69,3.28C240.85,229.48,240.17,229.51,239.78,229.29z"/>
		<path class="st11" d="M247.22,233.58l-4.82-2.78c-0.39-0.22-0.34-0.61,0.11-0.87l5.69-3.28c0.45-0.26,1.12-0.29,1.51-0.06
			l4.82,2.78c0.39,0.22,0.34,0.61-0.11,0.87l-5.69,3.28C248.29,233.78,247.61,233.8,247.22,233.58z"/>
		<path class="st11" d="M257.51,230.03l-4.82-2.78c-0.39-0.22-0.34-0.61,0.11-0.87l4.77-2.76c0.45-0.26,1.12-0.29,1.51-0.06
			l4.82,2.78c0.39,0.22,0.34,0.61-0.11,0.87l-4.77,2.76C258.57,230.23,257.9,230.26,257.51,230.03z"/>
		<path class="st11" d="M264.95,234.33l-4.82-2.78c-0.39-0.22-0.34-0.61,0.11-0.87l4.77-2.76c0.45-0.26,1.12-0.29,1.51-0.06
			l4.82,2.78c0.39,0.22,0.34,0.61-0.11,0.87l-4.77,2.76C266.01,234.52,265.34,234.55,264.95,234.33z"/>
		<path class="st11" d="M272.39,238.62l-4.82-2.78c-0.39-0.22-0.34-0.61,0.11-0.87l4.77-2.76c0.45-0.26,1.12-0.29,1.51-0.06
			l4.82,2.78c0.39,0.22,0.34,0.61-0.11,0.87l-4.77,2.76C273.45,238.82,272.78,238.85,272.39,238.62z"/>
		<path class="st11" d="M279.83,242.92l-4.82-2.78c-0.39-0.22-0.34-0.61,0.11-0.87l4.77-2.76c0.45-0.26,1.12-0.29,1.51-0.06
			l4.82,2.78c0.39,0.22,0.34,0.61-0.11,0.87l-4.77,2.76C280.89,243.11,280.21,243.14,279.83,242.92z"/>
		<path class="st11" d="M287.27,247.21l-4.82-2.78c-0.39-0.22-0.34-0.61,0.11-0.87l4.77-2.76c0.45-0.26,1.12-0.29,1.51-0.06
			l4.82,2.78c0.39,0.22,0.34,0.61-0.11,0.87l-4.77,2.76C288.33,247.41,287.65,247.44,287.27,247.21z"/>
		<path class="st11" d="M294.7,251.51l-4.82-2.78c-0.39-0.22-0.34-0.61,0.11-0.87l4.77-2.76c0.45-0.26,1.12-0.29,1.51-0.06
			l4.82,2.78c0.39,0.22,0.34,0.61-0.11,0.87l-4.77,2.76C295.77,251.7,295.09,251.73,294.7,251.51z"/>
		<path class="st11" d="M302.14,255.8l-4.82-2.78c-0.39-0.22-0.34-0.61,0.11-0.87l4.77-2.76c0.45-0.26,1.12-0.29,1.51-0.06
			l4.82,2.78c0.39,0.22,0.34,0.61-0.11,0.87l-4.77,2.76C303.21,256,302.53,256.02,302.14,255.8z"/>
		<path class="st11" d="M309.58,260.1l-4.82-2.78c-0.39-0.22-0.34-0.61,0.11-0.87l4.77-2.76c0.45-0.26,1.12-0.29,1.51-0.06
			l4.82,2.78c0.39,0.22,0.34,0.61-0.11,0.87l-4.77,2.76C310.64,260.29,309.97,260.32,309.58,260.1z"/>
		<path class="st11" d="M317.02,264.39l-4.82-2.78c-0.39-0.22-0.34-0.61,0.11-0.87l4.77-2.76c0.45-0.26,1.12-0.29,1.51-0.06
			l4.82,2.78c0.39,0.22,0.34,0.61-0.11,0.87l-4.77,2.76C318.08,264.59,317.41,264.61,317.02,264.39z"/>
		<path class="st11" d="M324.46,268.69l-4.82-2.78c-0.39-0.22-0.34-0.61,0.11-0.87l4.77-2.76c0.45-0.26,1.12-0.29,1.51-0.06
			l4.82,2.78c0.39,0.22,0.34,0.61-0.11,0.87l-4.77,2.76C325.52,268.88,324.85,268.91,324.46,268.69z"/>
		<path class="st11" d="M268.47,228l-4.82-2.78c-0.39-0.22-0.34-0.61,0.11-0.87l4.77-2.76c0.45-0.26,1.12-0.29,1.51-0.06l4.82,2.78
			c0.39,0.22,0.34,0.61-0.11,0.87l-4.77,2.76C269.53,228.2,268.86,228.22,268.47,228z"/>
		<path class="st11" d="M260.92,223.64l-4.82-2.78c-0.39-0.22-0.34-0.61,0.11-0.87l4.77-2.76c0.45-0.26,1.12-0.29,1.51-0.06
			l4.82,2.78c0.39,0.22,0.34,0.61-0.11,0.87l-4.77,2.76C261.98,223.84,261.31,223.86,260.92,223.64z"/>
		<path class="st11" d="M253.36,219.28l-10.37-5.99c-0.39-0.22-0.34-0.61,0.11-0.87l4.77-2.76c0.45-0.26,1.12-0.29,1.51-0.06
			l10.37,5.99c0.39,0.22,0.34,0.61-0.11,0.87l-4.77,2.76C254.42,219.47,253.75,219.5,253.36,219.28z"/>
		<path class="st11" d="M258.65,213.97l-8.42-4.86c-0.39-0.22-0.34-0.61,0.11-0.87l4.77-2.76c0.45-0.26,1.12-0.29,1.51-0.06
			l8.42,4.86c0.39,0.22,0.34,0.61-0.11,0.87l-4.77,2.76C259.71,214.16,259.03,214.19,258.65,213.97z"/>
		<path class="st11" d="M275.91,232.29l-4.82-2.78c-0.39-0.22-0.34-0.61,0.11-0.87l4.77-2.76c0.45-0.26,1.12-0.29,1.51-0.06
			l4.82,2.78c0.39,0.22,0.34,0.61-0.11,0.87l-4.77,2.76C276.97,232.49,276.3,232.52,275.91,232.29z"/>
		<path class="st11" d="M283.35,236.59l-4.82-2.78c-0.39-0.22-0.34-0.61,0.11-0.87l4.77-2.76c0.45-0.26,1.12-0.29,1.51-0.06
			l4.82,2.78c0.39,0.22,0.34,0.61-0.11,0.87l-4.77,2.76C284.41,236.78,283.74,236.81,283.35,236.59z"/>
		<path class="st11" d="M290.79,240.88l-4.82-2.78c-0.39-0.22-0.34-0.61,0.11-0.87l4.77-2.76c0.45-0.26,1.12-0.29,1.51-0.06
			l4.82,2.78c0.39,0.22,0.34,0.61-0.11,0.87l-4.77,2.76C291.85,241.08,291.17,241.11,290.79,240.88z"/>
		<path class="st11" d="M298.23,245.18l-4.82-2.78c-0.39-0.22-0.34-0.61,0.11-0.87l4.77-2.76c0.45-0.26,1.12-0.29,1.51-0.06
			l4.82,2.78c0.39,0.22,0.34,0.61-0.11,0.87l-4.77,2.76C299.29,245.37,298.61,245.4,298.23,245.18z"/>
		<path class="st11" d="M305.66,249.47l-4.82-2.78c-0.39-0.22-0.34-0.61,0.11-0.87l4.77-2.76c0.45-0.26,1.12-0.29,1.51-0.06
			l4.82,2.78c0.39,0.22,0.34,0.61-0.11,0.87l-4.77,2.76C306.73,249.67,306.05,249.7,305.66,249.47z"/>
		<path class="st11" d="M313.1,253.77l-4.82-2.78c-0.39-0.22-0.34-0.61,0.11-0.87l4.77-2.76c0.45-0.26,1.12-0.29,1.51-0.06
			l4.82,2.78c0.39,0.22,0.34,0.61-0.11,0.87l-4.77,2.76C314.17,253.96,313.49,253.99,313.1,253.77z"/>
		<path class="st11" d="M320.54,258.06l-4.82-2.78c-0.39-0.22-0.34-0.61,0.11-0.87l4.77-2.76c0.45-0.26,1.12-0.29,1.51-0.06
			l4.82,2.78c0.39,0.22,0.34,0.61-0.11,0.87l-4.77,2.76C321.6,258.26,320.93,258.29,320.54,258.06z"/>
		<path class="st11" d="M327.98,262.36l-4.82-2.78c-0.39-0.22-0.34-0.61,0.11-0.87l4.77-2.76c0.45-0.26,1.12-0.29,1.51-0.06
			l4.82,2.78c0.39,0.22,0.34,0.61-0.11,0.87l-4.77,2.76C329.04,262.55,328.37,262.58,327.98,262.36z"/>
		<path class="st11" d="M335.42,266.65l-4.82-2.78c-0.39-0.22-0.34-0.61,0.11-0.87l4.77-2.76c0.45-0.26,1.12-0.29,1.51-0.06
			l4.82,2.78c0.39,0.22,0.34,0.61-0.11,0.87l-4.77,2.76C336.48,266.85,335.81,266.88,335.42,266.65z"/>
		<path class="st11" d="M348.64,274.29l-10.51-6.07c-0.39-0.22-0.34-0.61,0.11-0.87l4.77-2.76c0.45-0.26,1.12-0.29,1.51-0.06
			l10.51,6.07c0.39,0.22,0.34,0.61-0.11,0.87l-4.77,2.76C349.71,274.48,349.03,274.51,348.64,274.29z"/>
		<path class="st11" d="M363.13,265.93l-8.87-5.12c-0.39-0.22-0.34-0.61,0.11-0.87l4.77-2.76c0.45-0.26,1.12-0.29,1.51-0.06
			l8.87,5.12c0.39,0.22,0.34,0.61-0.11,0.87l-4.77,2.76C364.19,266.12,363.51,266.15,363.13,265.93z"/>
		<path class="st11" d="M288.94,231.45l-4.82-2.78c-0.39-0.22-0.34-0.61,0.11-0.87l4.77-2.76c0.45-0.26,1.12-0.29,1.51-0.06
			l4.82,2.78c0.39,0.22,0.34,0.61-0.11,0.87l-4.77,2.76C290,231.65,289.32,231.68,288.94,231.45z"/>
		<path class="st11" d="M281.31,227.05l-4.82-2.78c-0.39-0.22-0.34-0.61,0.11-0.87l4.77-2.76c0.45-0.26,1.12-0.29,1.51-0.06
			l4.82,2.78c0.39,0.22,0.34,0.61-0.11,0.87l-4.77,2.76C282.38,227.25,281.7,227.28,281.31,227.05z"/>
		<path class="st11" d="M273.69,222.65l-4.82-2.78c-0.39-0.22-0.34-0.61,0.11-0.87l4.77-2.76c0.45-0.26,1.12-0.29,1.51-0.06
			l4.82,2.78c0.39,0.22,0.34,0.61-0.11,0.87l-4.77,2.76C274.75,222.85,274.08,222.87,273.69,222.65z"/>
		<path class="st11" d="M266.07,218.25l-4.82-2.78c-0.39-0.22-0.34-0.61,0.11-0.87l4.77-2.76c0.45-0.26,1.12-0.29,1.51-0.06
			l4.82,2.78c0.39,0.22,0.34,0.61-0.11,0.87l-4.77,2.76C267.13,218.44,266.45,218.47,266.07,218.25z"/>
		<path class="st11" d="M296.38,235.75l-4.82-2.78c-0.39-0.22-0.34-0.61,0.11-0.87l4.77-2.76c0.45-0.26,1.12-0.29,1.51-0.06
			l4.82,2.78c0.39,0.22,0.34,0.61-0.11,0.87l-4.77,2.76C297.44,235.94,296.76,235.97,296.38,235.75z"/>
		<path class="st11" d="M303.81,240.04l-4.82-2.78c-0.39-0.22-0.34-0.61,0.11-0.87l4.77-2.76c0.45-0.26,1.12-0.29,1.51-0.06
			l4.82,2.78c0.39,0.22,0.34,0.61-0.11,0.87l-4.77,2.76C304.88,240.24,304.2,240.27,303.81,240.04z"/>
		<path class="st11" d="M311.25,244.34l-4.82-2.78c-0.39-0.22-0.34-0.61,0.11-0.87l4.77-2.76c0.45-0.26,1.12-0.29,1.51-0.06
			l4.82,2.78c0.39,0.22,0.34,0.61-0.11,0.87l-4.77,2.76C312.32,244.53,311.64,244.56,311.25,244.34z"/>
		<path class="st11" d="M318.69,248.63l-4.82-2.78c-0.39-0.22-0.34-0.61,0.11-0.87l4.77-2.76c0.45-0.26,1.12-0.29,1.51-0.06
			l4.82,2.78c0.39,0.22,0.34,0.61-0.11,0.87l-4.77,2.76C319.75,248.83,319.08,248.86,318.69,248.63z"/>
		<path class="st11" d="M326.13,252.93l-4.82-2.78c-0.39-0.22-0.34-0.61,0.11-0.87l4.77-2.76c0.45-0.26,1.12-0.29,1.51-0.06
			l4.82,2.78c0.39,0.22,0.34,0.61-0.11,0.87l-4.77,2.76C327.19,253.12,326.52,253.15,326.13,252.93z"/>
		<path class="st11" d="M333.57,257.22l-4.82-2.78c-0.39-0.22-0.34-0.61,0.11-0.87l4.77-2.76c0.45-0.26,1.12-0.29,1.51-0.06
			l4.82,2.78c0.39,0.22,0.34,0.61-0.11,0.87l-4.77,2.76C334.63,257.42,333.96,257.45,333.57,257.22z"/>
		<path class="st11" d="M341.01,261.52l-4.82-2.78c-0.39-0.22-0.34-0.61,0.11-0.87l4.77-2.76c0.45-0.26,1.12-0.29,1.51-0.06
			l4.82,2.78c0.39,0.22,0.34,0.61-0.11,0.87l-4.77,2.76C342.07,261.71,341.39,261.74,341.01,261.52z"/>
		<path class="st11" d="M348.45,265.81l-4.82-2.78c-0.39-0.22-0.34-0.61,0.11-0.87l4.77-2.76c0.45-0.26,1.12-0.29,1.51-0.06
			l4.82,2.78c0.39,0.22,0.34,0.61-0.11,0.87l-4.77,2.76C349.51,266.01,348.83,266.04,348.45,265.81z"/>
		<path class="st11" d="M355.88,270.11l-4.82-2.78c-0.39-0.22-0.34-0.61,0.11-0.87l4.77-2.76c0.45-0.26,1.12-0.29,1.51-0.06
			l4.82,2.78c0.39,0.22,0.34,0.61-0.11,0.87l-4.77,2.76C356.95,270.3,356.27,270.33,355.88,270.11z"/>
		<path class="st11" d="M285.02,220.83l-4.82-2.78c-0.39-0.22-0.34-0.61,0.11-0.87l4.77-2.76c0.45-0.26,1.12-0.29,1.51-0.06
			l4.82,2.78c0.39,0.22,0.34,0.61-0.11,0.87l-4.77,2.76C286.08,221.03,285.41,221.05,285.02,220.83z"/>
		<path class="st11" d="M277.62,216.56l-4.82-2.78c-0.39-0.22-0.34-0.61,0.11-0.87l4.77-2.76c0.45-0.26,1.12-0.29,1.51-0.06
			l4.82,2.78c0.39,0.22,0.34,0.61-0.11,0.87l-4.77,2.76C278.68,216.75,278.01,216.78,277.62,216.56z"/>
		<path class="st11" d="M270.22,212.28l-4.82-2.78c-0.39-0.22-0.34-0.61,0.11-0.87l4.77-2.76c0.45-0.26,1.12-0.29,1.51-0.06
			l4.82,2.78c0.39,0.22,0.34,0.61-0.11,0.87l-4.77,2.76C271.28,212.48,270.6,212.51,270.22,212.28z"/>
		<path class="st11" d="M262.82,208.01l-4.82-2.78c-0.39-0.22-0.34-0.61,0.11-0.87l4.77-2.76c0.45-0.26,1.12-0.29,1.51-0.06
			l4.82,2.78c0.39,0.22,0.34,0.61-0.11,0.87l-4.77,2.76C263.88,208.21,263.2,208.23,262.82,208.01z"/>
		<path class="st11" d="M270.43,203.62l-4.82-2.78c-0.39-0.22-0.34-0.61,0.11-0.87l1.58-0.91c0.45-0.26,1.12-0.29,1.51-0.06
			l4.82,2.78c0.39,0.22,0.34,0.61-0.11,0.87l-1.58,0.91C271.49,203.81,270.81,203.84,270.43,203.62z"/>
		<path class="st11" d="M280.09,209.19l-4.82-2.78c-0.39-0.22-0.34-0.61,0.11-0.87l1.58-0.91c0.45-0.26,1.12-0.29,1.51-0.06
			l4.82,2.78c0.39,0.22,0.34,0.61-0.11,0.87l-1.58,0.91C281.15,209.39,280.47,209.42,280.09,209.19z"/>
		<path class="st11" d="M287.46,213.45l-4.82-2.78c-0.39-0.22-0.34-0.61,0.11-0.87l1.58-0.91c0.45-0.26,1.12-0.29,1.51-0.06
			l4.82,2.78c0.39,0.22,0.34,0.61-0.11,0.87l-1.58,0.91C288.52,213.64,287.84,213.67,287.46,213.45z"/>
		<path class="st11" d="M294.83,217.71l-4.82-2.78c-0.39-0.22-0.34-0.61,0.11-0.87l1.58-0.91c0.45-0.26,1.12-0.29,1.51-0.06
			l4.82,2.78c0.39,0.22,0.34,0.61-0.11,0.87l-1.58,0.91C295.89,217.9,295.21,217.93,294.83,217.71z"/>
		<path class="st11" d="M302.2,221.96l-4.82-2.78c-0.39-0.22-0.34-0.61,0.11-0.87l1.58-0.91c0.45-0.26,1.12-0.29,1.51-0.06
			l4.82,2.78c0.39,0.22,0.34,0.61-0.11,0.87l-1.58,0.91C303.26,222.16,302.58,222.18,302.2,221.96z"/>
		<path class="st11" d="M343.35,245.72l-4.82-2.78c-0.39-0.22-0.34-0.61,0.11-0.87l1.58-0.91c0.45-0.26,1.12-0.29,1.51-0.06
			l4.82,2.78c0.39,0.22,0.34,0.61-0.11,0.87l-1.58,0.91C344.41,245.91,343.73,245.94,343.35,245.72z"/>
		<path class="st11" d="M350.72,249.97l-4.82-2.78c-0.39-0.22-0.34-0.61,0.11-0.87l1.58-0.91c0.45-0.26,1.12-0.29,1.51-0.06
			l4.82,2.78c0.39,0.22,0.34,0.61-0.11,0.87l-1.58,0.91C351.78,250.17,351.11,250.2,350.72,249.97z"/>
		<path class="st11" d="M358.09,254.23l-4.82-2.78c-0.39-0.22-0.34-0.61,0.11-0.87l1.58-0.91c0.45-0.26,1.12-0.29,1.51-0.06
			l4.82,2.78c0.39,0.22,0.34,0.61-0.11,0.87l-1.58,0.91C359.15,254.42,358.48,254.45,358.09,254.23z"/>
		<path class="st11" d="M365.46,258.49l-4.82-2.78c-0.39-0.22-0.34-0.61,0.11-0.87l1.58-0.91c0.45-0.26,1.12-0.29,1.51-0.06
			l4.82,2.78c0.39,0.22,0.34,0.61-0.11,0.87l-1.58,0.91C366.52,258.68,365.85,258.71,365.46,258.49z"/>
		<path class="st11" d="M292.46,225.13l-4.82-2.78c-0.39-0.22-0.34-0.61,0.11-0.87l4.77-2.76c0.45-0.26,1.12-0.29,1.51-0.06
			l4.82,2.78c0.39,0.22,0.34,0.61-0.11,0.87l-4.77,2.76C293.52,225.32,292.85,225.35,292.46,225.13z"/>
		<path class="st11" d="M299.9,229.42l-4.82-2.78c-0.39-0.22-0.34-0.61,0.11-0.87l4.77-2.76c0.45-0.26,1.12-0.29,1.51-0.06
			l4.82,2.78c0.39,0.22,0.34,0.61-0.11,0.87l-4.77,2.76C300.96,229.62,300.28,229.64,299.9,229.42z"/>
		<path class="st11" d="M307.34,233.72l-4.82-2.78c-0.39-0.22-0.34-0.61,0.11-0.87l4.77-2.76c0.45-0.26,1.12-0.29,1.51-0.06
			l4.82,2.78c0.39,0.22,0.34,0.61-0.11,0.87l-4.77,2.76C308.4,233.91,307.72,233.94,307.34,233.72z"/>
		<path class="st11" d="M314.77,238.01l-4.82-2.78c-0.39-0.22-0.34-0.61,0.11-0.87l4.77-2.76c0.45-0.26,1.12-0.29,1.51-0.06
			l4.82,2.78c0.39,0.22,0.34,0.61-0.11,0.87l-4.77,2.76C315.84,238.21,315.16,238.23,314.77,238.01z"/>
		<path class="st11" d="M322.21,242.31l-4.82-2.78c-0.39-0.22-0.34-0.61,0.11-0.87l4.77-2.76c0.45-0.26,1.12-0.29,1.51-0.06
			l4.82,2.78c0.39,0.22,0.34,0.61-0.11,0.87l-4.77,2.76C323.28,242.5,322.6,242.53,322.21,242.31z"/>
		<path class="st11" d="M329.65,246.6l-4.82-2.78c-0.39-0.22-0.34-0.61,0.11-0.87l4.77-2.76c0.45-0.26,1.12-0.29,1.51-0.06
			l4.82,2.78c0.39,0.22,0.34,0.61-0.11,0.87l-4.77,2.76C330.71,246.8,330.04,246.82,329.65,246.6z"/>
		<path class="st11" d="M337.09,250.89l-4.82-2.78c-0.39-0.22-0.34-0.61,0.11-0.87l4.77-2.76c0.45-0.26,1.12-0.29,1.51-0.06
			l4.82,2.78c0.39,0.22,0.34,0.61-0.11,0.87l-4.77,2.76C338.15,251.09,337.48,251.12,337.09,250.89z"/>
		<path class="st11" d="M344.53,255.19l-4.82-2.78c-0.39-0.22-0.34-0.61,0.11-0.87l4.77-2.76c0.45-0.26,1.12-0.29,1.51-0.06
			l4.82,2.78c0.39,0.22,0.34,0.61-0.11,0.87l-4.77,2.76C345.59,255.38,344.92,255.41,344.53,255.19z"/>
		<path class="st11" d="M351.97,259.48l-4.82-2.78c-0.39-0.22-0.34-0.61,0.11-0.87l4.77-2.76c0.45-0.26,1.12-0.29,1.51-0.06
			l4.82,2.78c0.39,0.22,0.34,0.61-0.11,0.87l-4.77,2.76C353.03,259.68,352.35,259.71,351.97,259.48z"/>
		<path class="st11" d="M249.93,225.66l-14.19-8.19c-0.39-0.22-0.34-0.61,0.11-0.87l4.77-2.76c0.45-0.26,1.12-0.29,1.51-0.06
			l14.19,8.19c0.39,0.22,0.34,0.61-0.11,0.87l-4.77,2.76C250.99,225.85,250.32,225.88,249.93,225.66z"/>
		<path class="st11" d="M341.32,278.42l-14.19-8.19c-0.39-0.22-0.34-0.61,0.11-0.87l4.77-2.76c0.45-0.26,1.12-0.29,1.51-0.06
			l14.19,8.19c0.39,0.22,0.34,0.61-0.11,0.87l-4.77,2.76C342.38,278.61,341.7,278.64,341.32,278.42z"/>
		<path class="st11" d="M311.57,270.73l-4.82-2.78c-0.39-0.22-0.34-0.61,0.11-0.87l5.69-3.28c0.45-0.26,1.12-0.29,1.51-0.06
			l4.82,2.78c0.39,0.22,0.34,0.61-0.11,0.87l-5.69,3.28C312.63,270.92,311.95,270.95,311.57,270.73z"/>
		<path class="st11" d="M257.55,239.54l-7.7-4.45c-0.39-0.22-0.34-0.61,0.11-0.87l5.69-3.28c0.45-0.26,1.12-0.29,1.51-0.06l7.7,4.45
			c0.39,0.22,0.34,0.61-0.11,0.87l-5.69,3.28C258.61,239.74,257.94,239.76,257.55,239.54z"/>
		<path class="st11" d="M304.4,266.59l-7.7-4.45c-0.39-0.22-0.34-0.61,0.11-0.87l5.69-3.28c0.45-0.26,1.12-0.29,1.51-0.06l7.7,4.45
			c0.39,0.22,0.34,0.61-0.11,0.87l-5.69,3.28C305.46,266.79,304.79,266.81,304.4,266.59z"/>
		<path class="st11" d="M268.28,245.74l-7.7-4.45c-0.39-0.22-0.34-0.61,0.11-0.87l5.69-3.28c0.45-0.26,1.12-0.29,1.51-0.06l7.7,4.45
			c0.39,0.22,0.34,0.61-0.11,0.87l-5.69,3.28C269.34,245.93,268.67,245.96,268.28,245.74z"/>
		<path class="st11" d="M267.93,237.1l33.49,19.34c0.42,0.24,0.42,0.63,0,0.87l-5.8,3.35c-0.42,0.24-1.09,0.24-1.5,0l-33.49-19.34
			L267.93,237.1z"/>
		<path class="st11" d="M332.36,278.52l5.37,3.1c0.32,0.18,0.28,0.5-0.09,0.71l-2.33,1.34c-0.37,0.21-0.92,0.23-1.24,0.05l-5.37-3.1
			c-0.32-0.18-0.28-0.5,0.09-0.71l2.33-1.34C331.49,278.36,332.04,278.33,332.36,278.52z"/>
		<path class="st11" d="M324.86,274.19l5.37,3.1c0.32,0.18,0.28,0.5-0.09,0.71l-2.33,1.34c-0.37,0.21-0.92,0.23-1.24,0.05l-5.37-3.1
			c-0.32-0.18-0.28-0.5,0.09-0.71l2.33-1.34C323.99,274.03,324.54,274,324.86,274.19z"/>
		<path class="st11" d="M317.42,269.89l5.37,3.1c0.32,0.18,0.28,0.5-0.09,0.71l-2.33,1.34c-0.37,0.21-0.92,0.23-1.24,0.05l-5.37-3.1
			c-0.32-0.18-0.28-0.5,0.09-0.71l2.33-1.34C316.55,269.73,317.1,269.71,317.42,269.89z"/>
		<path class="st11" d="M328.97,271.81l5.37,3.1c0.32,0.18,0.28,0.5-0.09,0.71l-2.33,1.34c-0.37,0.21-0.92,0.23-1.24,0.05l-5.37-3.1
			c-0.32-0.18-0.28-0.5,0.09-0.71l2.33-1.34C328.09,271.65,328.65,271.63,328.97,271.81z"/>
	</g>
	<g class="st10">
		<path class="st11" d="M232.35,224.99l-4.82-2.78c-0.39-0.22-0.34-0.61,0.11-0.87l5.69-3.28c0.45-0.26,1.12-0.29,1.51-0.06
			l4.82,2.78c0.39,0.22,0.34,0.61-0.11,0.87l-5.69,3.28C233.41,225.19,232.73,225.21,232.35,224.99z"/>
		<path class="st11" d="M239.78,229.29l-4.82-2.78c-0.39-0.22-0.34-0.61,0.11-0.87l5.69-3.28c0.45-0.26,1.12-0.29,1.51-0.06
			l4.82,2.78c0.39,0.22,0.34,0.61-0.11,0.87l-5.69,3.28C240.85,229.48,240.17,229.51,239.78,229.29z"/>
		<path class="st11" d="M247.22,233.58l-4.82-2.78c-0.39-0.22-0.34-0.61,0.11-0.87l5.69-3.28c0.45-0.26,1.12-0.29,1.51-0.06
			l4.82,2.78c0.39,0.22,0.34,0.61-0.11,0.87l-5.69,3.28C248.29,233.78,247.61,233.8,247.22,233.58z"/>
		<path class="st11" d="M257.51,230.03l-4.82-2.78c-0.39-0.22-0.34-0.61,0.11-0.87l4.77-2.76c0.45-0.26,1.12-0.29,1.51-0.06
			l4.82,2.78c0.39,0.22,0.34,0.61-0.11,0.87l-4.77,2.76C258.57,230.23,257.9,230.26,257.51,230.03z"/>
		<path class="st11" d="M264.95,234.33l-4.82-2.78c-0.39-0.22-0.34-0.61,0.11-0.87l4.77-2.76c0.45-0.26,1.12-0.29,1.51-0.06
			l4.82,2.78c0.39,0.22,0.34,0.61-0.11,0.87l-4.77,2.76C266.01,234.52,265.34,234.55,264.95,234.33z"/>
		<path class="st11" d="M272.39,238.62l-4.82-2.78c-0.39-0.22-0.34-0.61,0.11-0.87l4.77-2.76c0.45-0.26,1.12-0.29,1.51-0.06
			l4.82,2.78c0.39,0.22,0.34,0.61-0.11,0.87l-4.77,2.76C273.45,238.82,272.78,238.85,272.39,238.62z"/>
		<path class="st11" d="M279.83,242.92l-4.82-2.78c-0.39-0.22-0.34-0.61,0.11-0.87l4.77-2.76c0.45-0.26,1.12-0.29,1.51-0.06
			l4.82,2.78c0.39,0.22,0.34,0.61-0.11,0.87l-4.77,2.76C280.89,243.11,280.21,243.14,279.83,242.92z"/>
		<path class="st11" d="M287.27,247.21l-4.82-2.78c-0.39-0.22-0.34-0.61,0.11-0.87l4.77-2.76c0.45-0.26,1.12-0.29,1.51-0.06
			l4.82,2.78c0.39,0.22,0.34,0.61-0.11,0.87l-4.77,2.76C288.33,247.41,287.65,247.44,287.27,247.21z"/>
		<path class="st11" d="M294.7,251.51l-4.82-2.78c-0.39-0.22-0.34-0.61,0.11-0.87l4.77-2.76c0.45-0.26,1.12-0.29,1.51-0.06
			l4.82,2.78c0.39,0.22,0.34,0.61-0.11,0.87l-4.77,2.76C295.77,251.7,295.09,251.73,294.7,251.51z"/>
		<path class="st11" d="M302.14,255.8l-4.82-2.78c-0.39-0.22-0.34-0.61,0.11-0.87l4.77-2.76c0.45-0.26,1.12-0.29,1.51-0.06
			l4.82,2.78c0.39,0.22,0.34,0.61-0.11,0.87l-4.77,2.76C303.21,256,302.53,256.02,302.14,255.8z"/>
		<path class="st11" d="M309.58,260.1l-4.82-2.78c-0.39-0.22-0.34-0.61,0.11-0.87l4.77-2.76c0.45-0.26,1.12-0.29,1.51-0.06
			l4.82,2.78c0.39,0.22,0.34,0.61-0.11,0.87l-4.77,2.76C310.64,260.29,309.97,260.32,309.58,260.1z"/>
		<path class="st11" d="M317.02,264.39l-4.82-2.78c-0.39-0.22-0.34-0.61,0.11-0.87l4.77-2.76c0.45-0.26,1.12-0.29,1.51-0.06
			l4.82,2.78c0.39,0.22,0.34,0.61-0.11,0.87l-4.77,2.76C318.08,264.59,317.41,264.61,317.02,264.39z"/>
		<path class="st11" d="M324.46,268.69l-4.82-2.78c-0.39-0.22-0.34-0.61,0.11-0.87l4.77-2.76c0.45-0.26,1.12-0.29,1.51-0.06
			l4.82,2.78c0.39,0.22,0.34,0.61-0.11,0.87l-4.77,2.76C325.52,268.88,324.85,268.91,324.46,268.69z"/>
		<path class="st11" d="M268.47,228l-4.82-2.78c-0.39-0.22-0.34-0.61,0.11-0.87l4.77-2.76c0.45-0.26,1.12-0.29,1.51-0.06l4.82,2.78
			c0.39,0.22,0.34,0.61-0.11,0.87l-4.77,2.76C269.53,228.2,268.86,228.22,268.47,228z"/>
		<path class="st11" d="M260.92,223.64l-4.82-2.78c-0.39-0.22-0.34-0.61,0.11-0.87l4.77-2.76c0.45-0.26,1.12-0.29,1.51-0.06
			l4.82,2.78c0.39,0.22,0.34,0.61-0.11,0.87l-4.77,2.76C261.98,223.84,261.31,223.86,260.92,223.64z"/>
		<path class="st11" d="M253.36,219.28l-10.37-5.99c-0.39-0.22-0.34-0.61,0.11-0.87l4.77-2.76c0.45-0.26,1.12-0.29,1.51-0.06
			l10.37,5.99c0.39,0.22,0.34,0.61-0.11,0.87l-4.77,2.76C254.42,219.47,253.75,219.5,253.36,219.28z"/>
		<path class="st11" d="M258.65,213.97l-8.42-4.86c-0.39-0.22-0.34-0.61,0.11-0.87l4.77-2.76c0.45-0.26,1.12-0.29,1.51-0.06
			l8.42,4.86c0.39,0.22,0.34,0.61-0.11,0.87l-4.77,2.76C259.71,214.16,259.03,214.19,258.65,213.97z"/>
		<path class="st11" d="M275.91,232.29l-4.82-2.78c-0.39-0.22-0.34-0.61,0.11-0.87l4.77-2.76c0.45-0.26,1.12-0.29,1.51-0.06
			l4.82,2.78c0.39,0.22,0.34,0.61-0.11,0.87l-4.77,2.76C276.97,232.49,276.3,232.52,275.91,232.29z"/>
		<path class="st11" d="M283.35,236.59l-4.82-2.78c-0.39-0.22-0.34-0.61,0.11-0.87l4.77-2.76c0.45-0.26,1.12-0.29,1.51-0.06
			l4.82,2.78c0.39,0.22,0.34,0.61-0.11,0.87l-4.77,2.76C284.41,236.78,283.74,236.81,283.35,236.59z"/>
		<path class="st11" d="M290.79,240.88l-4.82-2.78c-0.39-0.22-0.34-0.61,0.11-0.87l4.77-2.76c0.45-0.26,1.12-0.29,1.51-0.06
			l4.82,2.78c0.39,0.22,0.34,0.61-0.11,0.87l-4.77,2.76C291.85,241.08,291.17,241.11,290.79,240.88z"/>
		<path class="st11" d="M298.23,245.18l-4.82-2.78c-0.39-0.22-0.34-0.61,0.11-0.87l4.77-2.76c0.45-0.26,1.12-0.29,1.51-0.06
			l4.82,2.78c0.39,0.22,0.34,0.61-0.11,0.87l-4.77,2.76C299.29,245.37,298.61,245.4,298.23,245.18z"/>
		<path class="st11" d="M305.66,249.47l-4.82-2.78c-0.39-0.22-0.34-0.61,0.11-0.87l4.77-2.76c0.45-0.26,1.12-0.29,1.51-0.06
			l4.82,2.78c0.39,0.22,0.34,0.61-0.11,0.87l-4.77,2.76C306.73,249.67,306.05,249.7,305.66,249.47z"/>
		<path class="st11" d="M313.1,253.77l-4.82-2.78c-0.39-0.22-0.34-0.61,0.11-0.87l4.77-2.76c0.45-0.26,1.12-0.29,1.51-0.06
			l4.82,2.78c0.39,0.22,0.34,0.61-0.11,0.87l-4.77,2.76C314.17,253.96,313.49,253.99,313.1,253.77z"/>
		<path class="st11" d="M320.54,258.06l-4.82-2.78c-0.39-0.22-0.34-0.61,0.11-0.87l4.77-2.76c0.45-0.26,1.12-0.29,1.51-0.06
			l4.82,2.78c0.39,0.22,0.34,0.61-0.11,0.87l-4.77,2.76C321.6,258.26,320.93,258.29,320.54,258.06z"/>
		<path class="st11" d="M327.98,262.36l-4.82-2.78c-0.39-0.22-0.34-0.61,0.11-0.87l4.77-2.76c0.45-0.26,1.12-0.29,1.51-0.06
			l4.82,2.78c0.39,0.22,0.34,0.61-0.11,0.87l-4.77,2.76C329.04,262.55,328.37,262.58,327.98,262.36z"/>
		<path class="st11" d="M335.42,266.65l-4.82-2.78c-0.39-0.22-0.34-0.61,0.11-0.87l4.77-2.76c0.45-0.26,1.12-0.29,1.51-0.06
			l4.82,2.78c0.39,0.22,0.34,0.61-0.11,0.87l-4.77,2.76C336.48,266.85,335.81,266.88,335.42,266.65z"/>
		<path class="st11" d="M348.64,274.29l-10.51-6.07c-0.39-0.22-0.34-0.61,0.11-0.87l4.77-2.76c0.45-0.26,1.12-0.29,1.51-0.06
			l10.51,6.07c0.39,0.22,0.34,0.61-0.11,0.87l-4.77,2.76C349.71,274.48,349.03,274.51,348.64,274.29z"/>
		<path class="st11" d="M363.13,265.93l-8.87-5.12c-0.39-0.22-0.34-0.61,0.11-0.87l4.77-2.76c0.45-0.26,1.12-0.29,1.51-0.06
			l8.87,5.12c0.39,0.22,0.34,0.61-0.11,0.87l-4.77,2.76C364.19,266.12,363.51,266.15,363.13,265.93z"/>
		<path class="st11" d="M288.94,231.45l-4.82-2.78c-0.39-0.22-0.34-0.61,0.11-0.87l4.77-2.76c0.45-0.26,1.12-0.29,1.51-0.06
			l4.82,2.78c0.39,0.22,0.34,0.61-0.11,0.87l-4.77,2.76C290,231.65,289.32,231.68,288.94,231.45z"/>
		<path class="st11" d="M281.31,227.05l-4.82-2.78c-0.39-0.22-0.34-0.61,0.11-0.87l4.77-2.76c0.45-0.26,1.12-0.29,1.51-0.06
			l4.82,2.78c0.39,0.22,0.34,0.61-0.11,0.87l-4.77,2.76C282.38,227.25,281.7,227.28,281.31,227.05z"/>
		<path class="st11" d="M273.69,222.65l-4.82-2.78c-0.39-0.22-0.34-0.61,0.11-0.87l4.77-2.76c0.45-0.26,1.12-0.29,1.51-0.06
			l4.82,2.78c0.39,0.22,0.34,0.61-0.11,0.87l-4.77,2.76C274.75,222.85,274.08,222.87,273.69,222.65z"/>
		<path class="st11" d="M266.07,218.25l-4.82-2.78c-0.39-0.22-0.34-0.61,0.11-0.87l4.77-2.76c0.45-0.26,1.12-0.29,1.51-0.06
			l4.82,2.78c0.39,0.22,0.34,0.61-0.11,0.87l-4.77,2.76C267.13,218.44,266.45,218.47,266.07,218.25z"/>
		<path class="st11" d="M296.38,235.75l-4.82-2.78c-0.39-0.22-0.34-0.61,0.11-0.87l4.77-2.76c0.45-0.26,1.12-0.29,1.51-0.06
			l4.82,2.78c0.39,0.22,0.34,0.61-0.11,0.87l-4.77,2.76C297.44,235.94,296.76,235.97,296.38,235.75z"/>
		<path class="st11" d="M303.81,240.04l-4.82-2.78c-0.39-0.22-0.34-0.61,0.11-0.87l4.77-2.76c0.45-0.26,1.12-0.29,1.51-0.06
			l4.82,2.78c0.39,0.22,0.34,0.61-0.11,0.87l-4.77,2.76C304.88,240.24,304.2,240.27,303.81,240.04z"/>
		<path class="st11" d="M311.25,244.34l-4.82-2.78c-0.39-0.22-0.34-0.61,0.11-0.87l4.77-2.76c0.45-0.26,1.12-0.29,1.51-0.06
			l4.82,2.78c0.39,0.22,0.34,0.61-0.11,0.87l-4.77,2.76C312.32,244.53,311.64,244.56,311.25,244.34z"/>
		<path class="st11" d="M318.69,248.63l-4.82-2.78c-0.39-0.22-0.34-0.61,0.11-0.87l4.77-2.76c0.45-0.26,1.12-0.29,1.51-0.06
			l4.82,2.78c0.39,0.22,0.34,0.61-0.11,0.87l-4.77,2.76C319.75,248.83,319.08,248.86,318.69,248.63z"/>
		<path class="st11" d="M326.13,252.93l-4.82-2.78c-0.39-0.22-0.34-0.61,0.11-0.87l4.77-2.76c0.45-0.26,1.12-0.29,1.51-0.06
			l4.82,2.78c0.39,0.22,0.34,0.61-0.11,0.87l-4.77,2.76C327.19,253.12,326.52,253.15,326.13,252.93z"/>
		<path class="st11" d="M333.57,257.22l-4.82-2.78c-0.39-0.22-0.34-0.61,0.11-0.87l4.77-2.76c0.45-0.26,1.12-0.29,1.51-0.06
			l4.82,2.78c0.39,0.22,0.34,0.61-0.11,0.87l-4.77,2.76C334.63,257.42,333.96,257.45,333.57,257.22z"/>
		<path class="st11" d="M341.01,261.52l-4.82-2.78c-0.39-0.22-0.34-0.61,0.11-0.87l4.77-2.76c0.45-0.26,1.12-0.29,1.51-0.06
			l4.82,2.78c0.39,0.22,0.34,0.61-0.11,0.87l-4.77,2.76C342.07,261.71,341.39,261.74,341.01,261.52z"/>
		<path class="st11" d="M348.45,265.81l-4.82-2.78c-0.39-0.22-0.34-0.61,0.11-0.87l4.77-2.76c0.45-0.26,1.12-0.29,1.51-0.06
			l4.82,2.78c0.39,0.22,0.34,0.61-0.11,0.87l-4.77,2.76C349.51,266.01,348.83,266.04,348.45,265.81z"/>
		<path class="st11" d="M355.88,270.11l-4.82-2.78c-0.39-0.22-0.34-0.61,0.11-0.87l4.77-2.76c0.45-0.26,1.12-0.29,1.51-0.06
			l4.82,2.78c0.39,0.22,0.34,0.61-0.11,0.87l-4.77,2.76C356.95,270.3,356.27,270.33,355.88,270.11z"/>
		<path class="st11" d="M285.02,220.83l-4.82-2.78c-0.39-0.22-0.34-0.61,0.11-0.87l4.77-2.76c0.45-0.26,1.12-0.29,1.51-0.06
			l4.82,2.78c0.39,0.22,0.34,0.61-0.11,0.87l-4.77,2.76C286.08,221.03,285.41,221.05,285.02,220.83z"/>
		<path class="st11" d="M277.62,216.56l-4.82-2.78c-0.39-0.22-0.34-0.61,0.11-0.87l4.77-2.76c0.45-0.26,1.12-0.29,1.51-0.06
			l4.82,2.78c0.39,0.22,0.34,0.61-0.11,0.87l-4.77,2.76C278.68,216.75,278.01,216.78,277.62,216.56z"/>
		<path class="st11" d="M270.22,212.28l-4.82-2.78c-0.39-0.22-0.34-0.61,0.11-0.87l4.77-2.76c0.45-0.26,1.12-0.29,1.51-0.06
			l4.82,2.78c0.39,0.22,0.34,0.61-0.11,0.87l-4.77,2.76C271.28,212.48,270.6,212.51,270.22,212.28z"/>
		<path class="st11" d="M262.82,208.01l-4.82-2.78c-0.39-0.22-0.34-0.61,0.11-0.87l4.77-2.76c0.45-0.26,1.12-0.29,1.51-0.06
			l4.82,2.78c0.39,0.22,0.34,0.61-0.11,0.87l-4.77,2.76C263.88,208.21,263.2,208.23,262.82,208.01z"/>
		<path class="st11" d="M270.43,203.62l-4.82-2.78c-0.39-0.22-0.34-0.61,0.11-0.87l1.58-0.91c0.45-0.26,1.12-0.29,1.51-0.06
			l4.82,2.78c0.39,0.22,0.34,0.61-0.11,0.87l-1.58,0.91C271.49,203.81,270.81,203.84,270.43,203.62z"/>
		<path class="st11" d="M280.09,209.19l-4.82-2.78c-0.39-0.22-0.34-0.61,0.11-0.87l1.58-0.91c0.45-0.26,1.12-0.29,1.51-0.06
			l4.82,2.78c0.39,0.22,0.34,0.61-0.11,0.87l-1.58,0.91C281.15,209.39,280.47,209.42,280.09,209.19z"/>
		<path class="st11" d="M287.46,213.45l-4.82-2.78c-0.39-0.22-0.34-0.61,0.11-0.87l1.58-0.91c0.45-0.26,1.12-0.29,1.51-0.06
			l4.82,2.78c0.39,0.22,0.34,0.61-0.11,0.87l-1.58,0.91C288.52,213.64,287.84,213.67,287.46,213.45z"/>
		<path class="st11" d="M294.83,217.71l-4.82-2.78c-0.39-0.22-0.34-0.61,0.11-0.87l1.58-0.91c0.45-0.26,1.12-0.29,1.51-0.06
			l4.82,2.78c0.39,0.22,0.34,0.61-0.11,0.87l-1.58,0.91C295.89,217.9,295.21,217.93,294.83,217.71z"/>
		<path class="st11" d="M302.2,221.96l-4.82-2.78c-0.39-0.22-0.34-0.61,0.11-0.87l1.58-0.91c0.45-0.26,1.12-0.29,1.51-0.06
			l4.82,2.78c0.39,0.22,0.34,0.61-0.11,0.87l-1.58,0.91C303.26,222.16,302.58,222.18,302.2,221.96z"/>
		<path class="st11" d="M343.35,245.72l-4.82-2.78c-0.39-0.22-0.34-0.61,0.11-0.87l1.58-0.91c0.45-0.26,1.12-0.29,1.51-0.06
			l4.82,2.78c0.39,0.22,0.34,0.61-0.11,0.87l-1.58,0.91C344.41,245.91,343.73,245.94,343.35,245.72z"/>
		<path class="st11" d="M350.72,249.97l-4.82-2.78c-0.39-0.22-0.34-0.61,0.11-0.87l1.58-0.91c0.45-0.26,1.12-0.29,1.51-0.06
			l4.82,2.78c0.39,0.22,0.34,0.61-0.11,0.87l-1.58,0.91C351.78,250.17,351.11,250.2,350.72,249.97z"/>
		<path class="st11" d="M358.09,254.23l-4.82-2.78c-0.39-0.22-0.34-0.61,0.11-0.87l1.58-0.91c0.45-0.26,1.12-0.29,1.51-0.06
			l4.82,2.78c0.39,0.22,0.34,0.61-0.11,0.87l-1.58,0.91C359.15,254.42,358.48,254.45,358.09,254.23z"/>
		<path class="st11" d="M365.46,258.49l-4.82-2.78c-0.39-0.22-0.34-0.61,0.11-0.87l1.58-0.91c0.45-0.26,1.12-0.29,1.51-0.06
			l4.82,2.78c0.39,0.22,0.34,0.61-0.11,0.87l-1.58,0.91C366.52,258.68,365.85,258.71,365.46,258.49z"/>
		<path class="st11" d="M292.46,225.13l-4.82-2.78c-0.39-0.22-0.34-0.61,0.11-0.87l4.77-2.76c0.45-0.26,1.12-0.29,1.51-0.06
			l4.82,2.78c0.39,0.22,0.34,0.61-0.11,0.87l-4.77,2.76C293.52,225.32,292.85,225.35,292.46,225.13z"/>
		<path class="st11" d="M299.9,229.42l-4.82-2.78c-0.39-0.22-0.34-0.61,0.11-0.87l4.77-2.76c0.45-0.26,1.12-0.29,1.51-0.06
			l4.82,2.78c0.39,0.22,0.34,0.61-0.11,0.87l-4.77,2.76C300.96,229.62,300.28,229.64,299.9,229.42z"/>
		<path class="st11" d="M307.34,233.72l-4.82-2.78c-0.39-0.22-0.34-0.61,0.11-0.87l4.77-2.76c0.45-0.26,1.12-0.29,1.51-0.06
			l4.82,2.78c0.39,0.22,0.34,0.61-0.11,0.87l-4.77,2.76C308.4,233.91,307.72,233.94,307.34,233.72z"/>
		<path class="st11" d="M314.77,238.01l-4.82-2.78c-0.39-0.22-0.34-0.61,0.11-0.87l4.77-2.76c0.45-0.26,1.12-0.29,1.51-0.06
			l4.82,2.78c0.39,0.22,0.34,0.61-0.11,0.87l-4.77,2.76C315.84,238.21,315.16,238.23,314.77,238.01z"/>
		<path class="st11" d="M322.21,242.31l-4.82-2.78c-0.39-0.22-0.34-0.61,0.11-0.87l4.77-2.76c0.45-0.26,1.12-0.29,1.51-0.06
			l4.82,2.78c0.39,0.22,0.34,0.61-0.11,0.87l-4.77,2.76C323.28,242.5,322.6,242.53,322.21,242.31z"/>
		<path class="st11" d="M329.65,246.6l-4.82-2.78c-0.39-0.22-0.34-0.61,0.11-0.87l4.77-2.76c0.45-0.26,1.12-0.29,1.51-0.06
			l4.82,2.78c0.39,0.22,0.34,0.61-0.11,0.87l-4.77,2.76C330.71,246.8,330.04,246.82,329.65,246.6z"/>
		<path class="st11" d="M337.09,250.89l-4.82-2.78c-0.39-0.22-0.34-0.61,0.11-0.87l4.77-2.76c0.45-0.26,1.12-0.29,1.51-0.06
			l4.82,2.78c0.39,0.22,0.34,0.61-0.11,0.87l-4.77,2.76C338.15,251.09,337.48,251.12,337.09,250.89z"/>
		<path class="st11" d="M344.53,255.19l-4.82-2.78c-0.39-0.22-0.34-0.61,0.11-0.87l4.77-2.76c0.45-0.26,1.12-0.29,1.51-0.06
			l4.82,2.78c0.39,0.22,0.34,0.61-0.11,0.87l-4.77,2.76C345.59,255.38,344.92,255.41,344.53,255.19z"/>
		<path class="st11" d="M351.97,259.48l-4.82-2.78c-0.39-0.22-0.34-0.61,0.11-0.87l4.77-2.76c0.45-0.26,1.12-0.29,1.51-0.06
			l4.82,2.78c0.39,0.22,0.34,0.61-0.11,0.87l-4.77,2.76C353.03,259.68,352.35,259.71,351.97,259.48z"/>
		<path class="st11" d="M249.93,225.66l-14.19-8.19c-0.39-0.22-0.34-0.61,0.11-0.87l4.77-2.76c0.45-0.26,1.12-0.29,1.51-0.06
			l14.19,8.19c0.39,0.22,0.34,0.61-0.11,0.87l-4.77,2.76C250.99,225.85,250.32,225.88,249.93,225.66z"/>
		<path class="st11" d="M341.32,278.42l-14.19-8.19c-0.39-0.22-0.34-0.61,0.11-0.87l4.77-2.76c0.45-0.26,1.12-0.29,1.51-0.06
			l14.19,8.19c0.39,0.22,0.34,0.61-0.11,0.87l-4.77,2.76C342.38,278.61,341.7,278.64,341.32,278.42z"/>
		<path class="st11" d="M311.57,270.73l-4.82-2.78c-0.39-0.22-0.34-0.61,0.11-0.87l5.69-3.28c0.45-0.26,1.12-0.29,1.51-0.06
			l4.82,2.78c0.39,0.22,0.34,0.61-0.11,0.87l-5.69,3.28C312.63,270.92,311.95,270.95,311.57,270.73z"/>
		<path class="st11" d="M257.55,239.54l-7.7-4.45c-0.39-0.22-0.34-0.61,0.11-0.87l5.69-3.28c0.45-0.26,1.12-0.29,1.51-0.06l7.7,4.45
			c0.39,0.22,0.34,0.61-0.11,0.87l-5.69,3.28C258.61,239.74,257.94,239.76,257.55,239.54z"/>
		<path class="st11" d="M304.4,266.59l-7.7-4.45c-0.39-0.22-0.34-0.61,0.11-0.87l5.69-3.28c0.45-0.26,1.12-0.29,1.51-0.06l7.7,4.45
			c0.39,0.22,0.34,0.61-0.11,0.87l-5.69,3.28C305.46,266.79,304.79,266.81,304.4,266.59z"/>
		<path class="st11" d="M268.28,245.74l-7.7-4.45c-0.39-0.22-0.34-0.61,0.11-0.87l5.69-3.28c0.45-0.26,1.12-0.29,1.51-0.06l7.7,4.45
			c0.39,0.22,0.34,0.61-0.11,0.87l-5.69,3.28C269.34,245.93,268.67,245.96,268.28,245.74z"/>
		<path class="st11" d="M267.93,237.1l33.49,19.34c0.42,0.24,0.42,0.63,0,0.87l-5.8,3.35c-0.42,0.24-1.09,0.24-1.5,0l-33.49-19.34
			L267.93,237.1z"/>
		<path class="st11" d="M332.36,278.52l5.37,3.1c0.32,0.18,0.28,0.5-0.09,0.71l-2.33,1.34c-0.37,0.21-0.92,0.23-1.24,0.05l-5.37-3.1
			c-0.32-0.18-0.28-0.5,0.09-0.71l2.33-1.34C331.49,278.36,332.04,278.33,332.36,278.52z"/>
		<path class="st11" d="M324.86,274.19l5.37,3.1c0.32,0.18,0.28,0.5-0.09,0.71l-2.33,1.34c-0.37,0.21-0.92,0.23-1.24,0.05l-5.37-3.1
			c-0.32-0.18-0.28-0.5,0.09-0.71l2.33-1.34C323.99,274.03,324.54,274,324.86,274.19z"/>
		<path class="st11" d="M317.42,269.89l5.37,3.1c0.32,0.18,0.28,0.5-0.09,0.71l-2.33,1.34c-0.37,0.21-0.92,0.23-1.24,0.05l-5.37-3.1
			c-0.32-0.18-0.28-0.5,0.09-0.71l2.33-1.34C316.55,269.73,317.1,269.71,317.42,269.89z"/>
		<path class="st11" d="M328.97,271.81l5.37,3.1c0.32,0.18,0.28,0.5-0.09,0.71l-2.33,1.34c-0.37,0.21-0.92,0.23-1.24,0.05l-5.37-3.1
			c-0.32-0.18-0.28-0.5,0.09-0.71l2.33-1.34C328.09,271.65,328.65,271.63,328.97,271.81z"/>
	</g>
	
		<linearGradient id="SVGID_00000119104954970853525260000002753039109224555157_" gradientUnits="userSpaceOnUse" x1="262.7233" y1="286.7559" x2="445.5619" y2="286.7559" gradientTransform="matrix(1 0 0 -1 0 452)">
		<stop  offset="0" style="stop-color:#6323EF"/>
		<stop  offset="1" style="stop-color:#00093F"/>
	</linearGradient>
	<path style="fill:url(#SVGID_00000119104954970853525260000002753039109224555157_);" d="M407.69,263.13l-142.11-82.05
		c-2.23-1.29-3.4-4.43-2.61-7.02l32.14-104.35c0.8-2.59,3.25-3.64,5.49-2.35l142.11,82.05c2.23,1.29,3.4,4.43,2.6,7.02
		l-32.14,104.35C412.38,263.36,409.93,264.42,407.69,263.13z"/>
	
		<linearGradient id="SVGID_00000116930564246669778430000014599415569047204486_" gradientUnits="userSpaceOnUse" x1="265.7808" y1="286.7128" x2="442.5693" y2="286.7128" gradientTransform="matrix(1 0 0 -1 0 452)">
		<stop  offset="0" style="stop-color:#3919BB"/>
		<stop  offset="1" style="stop-color:#6507FA"/>
	</linearGradient>
	<path style="fill:url(#SVGID_00000116930564246669778430000014599415569047204486_);" d="M406.35,259.47l-137.84-79.65
		c-2.14-1.23-3.25-4.24-2.49-6.72l30.73-99.75c0.76-2.48,3.11-3.48,5.25-2.25l137.84,79.65c2.14,1.23,3.25,4.24,2.49,6.72
		l-30.73,99.75C410.84,259.7,408.49,260.71,406.35,259.47z"/>
	<path class="st14" d="M406.35,259.47l-137.84-79.65c-2.14-1.23-3.25-4.24-2.49-6.72l30.73-99.75c0.76-2.48,3.11-3.48,5.25-2.25
		l137.84,79.65c2.14,1.23,3.25,4.24,2.49,6.72l-30.73,99.75C410.84,259.7,408.49,260.71,406.35,259.47z"/>
	<path class="st14" d="M406.35,259.47l-137.84-79.65c-2.14-1.23-3.25-4.24-2.49-6.72l30.73-99.75c0.76-2.48,3.11-3.48,5.25-2.25
		l137.84,79.65c2.14,1.23,3.25,4.24,2.49,6.72l-30.73,99.75C410.84,259.7,408.49,260.71,406.35,259.47z"/>
	<path class="st15" d="M398.95,228.99l-93.31-53.87c-1.47-0.85-2.23-2.91-1.71-4.61l21.1-68.51c0.52-1.7,2.14-2.39,3.6-1.54
		l93.31,53.87c1.47,0.85,2.23,2.91,1.71,4.61l-21.1,68.51C402.03,229.14,400.41,229.83,398.95,228.99z"/>
	<g>
		
			<radialGradient id="SVGID_00000119109282696094312710000005013017029421742271_" cx="160.9901" cy="391.7399" r="343.6143" gradientTransform="matrix(1 0 0 -1 0 452)" gradientUnits="userSpaceOnUse">
			<stop  offset="0" style="stop-color:#E39A65"/>
			<stop  offset="0.4742" style="stop-color:#A92FFB"/>
			<stop  offset="0.5875" style="stop-color:#891CFB"/>
			<stop  offset="0.7262" style="stop-color:#6507FA"/>
			<stop  offset="1" style="stop-color:#3919BB"/>
		</radialGradient>
		<path style="fill:url(#SVGID_00000119109282696094312710000005013017029421742271_);" d="M386.34,230.64l-93.31-53.87
			c-1.47-0.85-2.23-2.91-1.71-4.61l21.1-68.51c0.52-1.7,2.14-2.39,3.6-1.54l93.31,53.87c1.47,0.85,2.23,2.91,1.71,4.61l-21.1,68.51
			C389.42,230.8,387.81,231.49,386.34,230.64z"/>
	</g>
	<g class="st17">
		<path class="st11" d="M386.34,230.64l-93.31-53.87c-1.47-0.85-2.23-2.91-1.71-4.61l21.1-68.51c0.52-1.7,2.14-2.39,3.6-1.54
			l93.31,53.87c1.47,0.85,2.23,2.91,1.71,4.61l-21.1,68.51C389.42,230.8,387.81,231.49,386.34,230.64z"/>
	</g>
	<path class="st9" d="M409.33,155.97l-93.31-53.87c-0.92-0.53-1.9-0.46-2.63,0.09c0.44-0.01,0.9,0.09,1.35,0.35l93.31,53.87
		c1.47,0.85,2.23,2.91,1.71,4.61l-21.1,68.51c-0.2,0.63-0.54,1.13-0.98,1.45c1-0.03,1.89-0.71,2.26-1.89l21.1-68.51
		C411.57,158.89,410.8,156.82,409.33,155.97z"/>
	<path class="st14" d="M268.65,286.59c-1.29,0-2.52-0.27-3.46-0.81l0,0L227.8,264.2c-0.99-0.57-1.54-1.39-1.54-2.3
		c0-1.06,0.75-2.1,2.06-2.86l19.24-11.11c2.35-1.36,5.8-1.49,7.86-0.3l37.38,21.58c0.99,0.57,1.54,1.39,1.54,2.3
		c0,1.06-0.75,2.1-2.06,2.86l-19.24,11.11C271.78,286.21,270.18,286.59,268.65,286.59z M252,247.9c-1.35,0-2.79,0.33-3.88,0.96
		l-19.24,11.11c-0.97,0.56-1.52,1.26-1.52,1.92s0.54,1.11,1,1.37l37.39,21.58c1.7,0.98,4.8,0.84,6.78-0.3l19.24-11.11
		c0.97-0.56,1.52-1.26,1.52-1.92s-0.54-1.11-1-1.37l-37.38-21.58C254.14,248.12,253.1,247.9,252,247.9z"/>
</g>
<g>
	<g>
		<path class="st9" d="M338.75,138.05l-5.77-3.33c-0.54-0.31-0.82-1.05-0.64-1.66l0,0c0.18-0.61,0.76-0.85,1.3-0.54l5.77,3.33
			c0.54,0.31,0.82,1.05,0.64,1.66l0,0C339.87,138.11,339.28,138.36,338.75,138.05z"/>
		<path class="st9" d="M352.49,145.98l-8.51-4.91c-0.54-0.31-0.82-1.05-0.64-1.66l0,0c0.18-0.61,0.76-0.85,1.3-0.54l8.51,4.91
			c0.54,0.31,0.82,1.05,0.64,1.66l0,0C353.61,146.05,353.03,146.29,352.49,145.98z"/>
		<path class="st9" d="M327.12,163.73l-5.77-3.33c-0.54-0.31-0.82-1.05-0.64-1.66l0,0c0.18-0.61,0.76-0.85,1.3-0.54l5.77,3.33
			c0.54,0.31,0.82,1.05,0.64,1.66l0,0C328.23,163.8,327.65,164.04,327.12,163.73z"/>
		<path class="st9" d="M339.36,170.8l-8.51-4.91c-0.54-0.31-0.82-1.05-0.64-1.66l0,0c0.18-0.61,0.76-0.85,1.3-0.54l8.51,4.91
			c0.54,0.31,0.82,1.05,0.64,1.66l0,0C340.48,170.87,339.9,171.11,339.36,170.8z"/>
		<path class="st9" d="M321.47,133.47l-3.6-2.08c-0.54-0.31-0.82-1.05-0.64-1.66l0,0c0.18-0.61,0.76-0.85,1.3-0.54l3.6,2.08
			c0.54,0.31,0.82,1.05,0.64,1.66l0,0C322.58,133.54,322,133.78,321.47,133.47z"/>
		<path class="st9" d="M332.31,145.13l-11.01-6.36c-0.54-0.31-0.82-1.05-0.64-1.66l0,0c0.18-0.61,0.76-0.85,1.3-0.54l11.01,6.36
			c0.54,0.31,0.82,1.05,0.64,1.66l0,0C333.43,145.2,332.85,145.44,332.31,145.13z"/>
		<path class="st9" d="M322.16,150.07l-3.6-2.08c-0.54-0.31-0.82-1.05-0.64-1.66l0,0c0.18-0.61,0.76-0.85,1.3-0.54l3.6,2.08
			c0.54,0.31,0.82,1.05,0.64,1.66l0,0C323.27,150.13,322.69,150.38,322.16,150.07z"/>
		<path class="st9" d="M340.69,182.37l-9.63-5.56c-0.54-0.31-0.82-1.05-0.64-1.66l0,0c0.18-0.61,0.76-0.85,1.3-0.54l9.63,5.56
			c0.54,0.31,0.82,1.05,0.64,1.66l0,0C341.81,182.44,341.23,182.68,340.69,182.37z"/>
		<path class="st9" d="M318.12,158.53l-2.31-1.34c-0.54-0.31-0.82-1.05-0.64-1.66l0,0c0.18-0.61,0.76-0.85,1.3-0.54l2.31,1.34
			c0.54,0.31,0.82,1.05,0.64,1.66l0,0C319.23,158.6,318.65,158.84,318.12,158.53z"/>
		<path class="st9" d="M315.93,168.07l-2.87-1.66c-0.54-0.31-0.82-1.05-0.64-1.66l0,0c0.18-0.61,0.76-0.85,1.3-0.54l2.87,1.66
			c0.54,0.31,0.82,1.05,0.64,1.66l0,0C317.04,168.14,316.46,168.38,315.93,168.07z"/>
		<path class="st9" d="M327.1,174.52l-7.57-4.37c-0.54-0.31-0.82-1.05-0.64-1.66l0,0c0.18-0.61,0.76-0.85,1.3-0.54l7.57,4.37
			c0.54,0.31,0.82,1.05,0.64,1.66l0,0C328.22,174.59,327.64,174.83,327.1,174.52z"/>
		<path class="st9" d="M317.13,174.16l-5.45-3.14c-0.54-0.31-0.82-1.05-0.64-1.66l0,0c0.18-0.61,0.76-0.85,1.3-0.54l5.45,3.14
			c0.54,0.31,0.82,1.05,0.64,1.66l0,0C318.24,174.23,317.66,174.47,317.13,174.16z"/>
		<path class="st9" d="M348.95,187.16l-3.5-2.02c-0.54-0.31-0.82-1.05-0.64-1.66l0,0c0.18-0.61,0.76-0.85,1.3-0.54l3.5,2.02
			c0.54,0.31,0.82,1.05,0.64,1.66l0,0C350.07,187.23,349.49,187.47,348.95,187.16z"/>
		<path class="st9" d="M335.56,157.81l-9.63-5.56c-0.54-0.31-0.82-1.05-0.64-1.66l0,0c0.18-0.61,0.76-0.85,1.3-0.54l9.63,5.56
			c0.54,0.31,0.82,1.05,0.64,1.66l0,0C336.68,157.87,336.1,158.12,335.56,157.81z"/>
	</g>
	<path class="st18" d="M336.7,153.06l-16.78-9.69c-0.54-0.31-0.82-1.05-0.64-1.66l0,0c0.18-0.61,0.76-0.85,1.3-0.54l16.78,9.69
		c0.54,0.31,0.82,1.05,0.64,1.66l0,0C337.82,153.13,337.24,153.37,336.7,153.06z"/>
	<path class="st18" d="M326.8,158.15l-9.63-5.56c-0.54-0.31-0.82-1.05-0.64-1.66l0,0c0.18-0.61,0.76-0.85,1.3-0.54l9.63,5.56
		c0.54,0.31,0.82,1.05,0.64,1.66l0,0C327.92,158.22,327.34,158.46,326.8,158.15z"/>
	<path class="st18" d="M342.86,162.02l-3.5-2.02c-0.54-0.31-0.82-1.05-0.64-1.66l0,0c0.18-0.61,0.76-0.85,1.3-0.54l3.5,2.02
		c0.54,0.31,0.82,1.05,0.64,1.66l0,0C343.98,162.09,343.4,162.33,342.86,162.02z"/>
	<path class="st18" d="M378.44,160.96L357.73,149c-0.54-0.31-0.82-1.05-0.64-1.66l0,0c0.18-0.61,0.76-0.85,1.3-0.54l20.71,11.96
		c0.54,0.31,0.82,1.05,0.64,1.66l0,0C379.55,161.03,378.97,161.27,378.44,160.96z"/>
	<path class="st19" d="M326,168.49l-11.57-6.68c-0.54-0.31-0.82-1.05-0.64-1.66l0,0c0.18-0.61,0.76-0.85,1.3-0.54l11.57,6.68
		c0.54,0.31,0.82,1.05,0.64,1.66l0,0C327.12,168.55,326.54,168.79,326,168.49z"/>
	<path class="st19" d="M327.75,131.69l-8.51-4.91c-0.54-0.31-0.82-1.05-0.64-1.66l0,0c0.18-0.61,0.76-0.85,1.3-0.54l8.51,4.91
		c0.54,0.31,0.82,1.05,0.64,1.66l0,0C328.86,131.76,328.28,132,327.75,131.69z"/>
	<path class="st18" d="M315.35,178.54l-9.85-5.69c-0.54-0.31-0.82-1.05-0.64-1.66l0,0c0.18-0.61,0.76-0.85,1.3-0.54l9.85,5.69
		c0.54,0.31,0.82,1.05,0.64,1.66l0,0C316.46,178.6,315.88,178.84,315.35,178.54z"/>
</g>
<g>
	<path class="st9" d="M380.76,150.31l-4.22-2.43c-0.39-0.23-0.6-0.77-0.47-1.21l0,0c0.13-0.44,0.56-0.62,0.95-0.39l4.22,2.43
		c0.39,0.23,0.6,0.77,0.47,1.21l0,0C381.58,150.36,381.15,150.53,380.76,150.31z"/>
	<path class="st9" d="M388.8,154.95l-4.22-2.43c-0.39-0.23-0.6-0.77-0.47-1.21l0,0c0.13-0.44,0.56-0.62,0.95-0.39l4.22,2.43
		c0.39,0.23,0.6,0.77,0.47,1.21l0,0C389.62,155,389.19,155.18,388.8,154.95z"/>
	<path class="st9" d="M396.85,159.6l-4.22-2.43c-0.39-0.23-0.6-0.77-0.47-1.21l0,0c0.13-0.44,0.56-0.62,0.95-0.39l4.22,2.43
		c0.39,0.23,0.6,0.77,0.47,1.21l0,0C397.66,159.64,397.24,159.82,396.85,159.6z"/>
	<path class="st19" d="M400.8,161.88l-0.13-0.08c-0.39-0.23-0.6-0.77-0.47-1.21l0,0c0.13-0.44,0.56-0.62,0.95-0.39l0.13,0.08
		c0.39,0.23,0.6,0.77,0.47,1.21l0,0C401.62,161.93,401.19,162.11,400.8,161.88z"/>
</g>
<linearGradient id="SVGID_00000004511718599898796020000003138079607288134023_" gradientUnits="userSpaceOnUse" x1="145.24" y1="262.5312" x2="221.1" y2="262.5312" gradientTransform="matrix(1 0 0 -1 0 452)">
	<stop  offset="0" style="stop-color:#6323EF"/>
	<stop  offset="1" style="stop-color:#00093F"/>
</linearGradient>
<path style="fill:url(#SVGID_00000004511718599898796020000003138079607288134023_);" d="M183.17,211.23
	c-2.67,0-5.34-0.69-7.72-2.06l0,0l-28.25-16.31c-1.23-0.71-1.96-1.97-1.96-3.39c0-1.41,0.73-2.68,1.96-3.39l28.25-16.31
	c4.76-2.75,10.68-2.75,15.44,0l28.25,16.31c1.23,0.71,1.96,1.97,1.96,3.39c0,1.41-0.73,2.68-1.96,3.39l-28.25,16.31
	C188.51,210.54,185.84,211.23,183.17,211.23z M176.37,207.57c4.19,2.42,9.4,2.42,13.6,0l28.25-16.31c0.65-0.38,1.04-1.05,1.04-1.8
	s-0.39-1.42-1.04-1.8l-28.25-16.31c-4.2-2.42-9.41-2.42-13.6,0l-28.25,16.31c-0.65,0.38-1.04,1.05-1.04,1.8s0.39,1.42,1.04,1.8
	L176.37,207.57z"/>
<g>
	<path class="st4" d="M196.74,197.78c-7.58,4.37-19.86,4.37-27.44,0s-7.58-11.47,0-15.84s19.86-4.37,27.44,0
		S204.32,193.4,196.74,197.78z"/>
	
		<radialGradient id="SVGID_00000170261816916367983730000001738781289431821991_" cx="151.9713" cy="324.3929" r="163.3367" gradientTransform="matrix(1 0 0 -1 0 452)" gradientUnits="userSpaceOnUse">
		<stop  offset="0" style="stop-color:#6800FF"/>
		<stop  offset="0.1528" style="stop-color:#A92FFB"/>
		<stop  offset="0.4087" style="stop-color:#3919BB"/>
		<stop  offset="0.9311" style="stop-color:#3919BB"/>
	</radialGradient>
	<path style="fill:url(#SVGID_00000170261816916367983730000001738781289431821991_);" d="M211.79,110.02h-55.26l5.14,59.83l0,0
		c0,3.32,2.2,6.65,6.59,9.18c8.78,5.07,23.02,5.07,31.81,0c4.39-2.54,6.59-5.86,6.59-9.18L211.79,110.02z"/>
	<path class="st14" d="M211.79,110.02h-55.26l0.85,9.84c1.27,1.62,2.97,3.18,5.12,4.61c10.56,7,27.98,8.35,39.87,3.31l-1.84,43.76
		c-0.08,1.91-0.74,3.76-1.97,5.22c-1.79,2.11-5.24,4.59-11.87,5.99c4.89-0.32,9.63-1.55,13.38-3.71c4.39-2.54,6.59-5.86,6.59-9.18
		l4.12-47.98l0,0L211.79,110.02z"/>
	<ellipse class="st14" cx="184.15" cy="110.02" rx="27.63" ry="15.95"/>
	<ellipse class="st14" cx="184.15" cy="104.4" rx="23.8" ry="13.74"/>
	
		<linearGradient id="SVGID_00000039114831803311714160000015369996952347088040_" gradientUnits="userSpaceOnUse" x1="154.8585" y1="344.6113" x2="213.4487" y2="344.6113" gradientTransform="matrix(1 0 0 -1 0 452)">
		<stop  offset="0" style="stop-color:#3300BF"/>
		<stop  offset="0.252" style="stop-color:#A92FFB"/>
		<stop  offset="0.5556" style="stop-color:#3919BB"/>
	</linearGradient>
	<path style="fill:url(#SVGID_00000039114831803311714160000015369996952347088040_);" d="M213.42,109.27L213.42,109.27v-0.04
		c0-0.03-0.01-0.05-0.01-0.08l-0.53-5.36l-0.02,0.06c-0.24-4.05-3.03-8.07-8.39-11.16c-11.22-6.48-29.41-6.48-40.63,0
		c-5.5,3.17-8.29,7.31-8.4,11.47l-0.01-0.01l-0.51,4.77c-0.01,0.12-0.03,0.25-0.04,0.37l-0.01,0.08h0.01
		c-0.3,4.54,2.54,9.15,8.55,12.62c11.44,6.61,29.99,6.61,41.43,0C210.92,118.48,213.77,113.84,213.42,109.27z"/>
	
		<linearGradient id="SVGID_00000026157165743099750640000011508068280934555047_" gradientUnits="userSpaceOnUse" x1="160.35" y1="347.6" x2="207.95" y2="347.6" gradientTransform="matrix(1 0 0 -1 0 452)">
		<stop  offset="0" style="stop-color:#4F1FEC"/>
		<stop  offset="1" style="stop-color:#A92FFB"/>
	</linearGradient>
	
		<ellipse style="fill:url(#SVGID_00000026157165743099750640000011508068280934555047_);" cx="184.15" cy="104.4" rx="23.8" ry="13.74"/>
	
		<linearGradient id="SVGID_00000173119498485403911270000010310643181194182842_" gradientUnits="userSpaceOnUse" x1="159.23" y1="347.6" x2="206.83" y2="347.6" gradientTransform="matrix(1 0 0 -1 0 452)">
		<stop  offset="0" style="stop-color:#4F1FEC"/>
		<stop  offset="1" style="stop-color:#A92FFB"/>
	</linearGradient>
	
		<ellipse style="fill:url(#SVGID_00000173119498485403911270000010310643181194182842_);" cx="183.03" cy="104.4" rx="23.8" ry="13.74"/>
	<path class="st14" d="M170.15,96.73c9.29-5.37,24.36-5.37,33.66,0c0.12,0.07,0.22,0.14,0.33,0.21c-0.9-0.8-1.94-1.56-3.16-2.26
		c-9.29-5.37-24.36-5.37-33.66,0c-9.18,5.3-9.27,13.84-0.33,19.22C161.02,108.58,162.07,101.39,170.15,96.73z"/>
	
		<linearGradient id="SVGID_00000132803402866267834610000017805025782219778198_" gradientUnits="userSpaceOnUse" x1="160.3621" y1="353.8888" x2="220.3749" y2="353.8888" gradientTransform="matrix(1 0 0 -1 0 452)">
		<stop  offset="0" style="stop-color:#131060"/>
		<stop  offset="0.1857" style="stop-color:#141062"/>
		<stop  offset="0.2823" style="stop-color:#19106A"/>
		<stop  offset="0.3584" style="stop-color:#221078"/>
		<stop  offset="0.4238" style="stop-color:#2E0F8B"/>
		<stop  offset="0.4823" style="stop-color:#3E0FA3"/>
		<stop  offset="0.5359" style="stop-color:#510EC2"/>
		<stop  offset="0.5847" style="stop-color:#680DE5"/>
		<stop  offset="0.6071" style="stop-color:#740DF8"/>
		<stop  offset="0.6827" style="stop-color:#6F09D6"/>
		<stop  offset="0.7634" style="stop-color:#6B05B9"/>
		<stop  offset="0.844" style="stop-color:#6802A5"/>
		<stop  offset="0.9233" style="stop-color:#670198"/>
		<stop  offset="1" style="stop-color:#660094"/>
	</linearGradient>
	<path style="fill:url(#SVGID_00000132803402866267834610000017805025782219778198_);" d="M167.33,97.06
		c9.29-5.37,24.36-5.37,33.66,0c4.12,2.38,6.41,5.41,6.88,8.52c0.59-3.9-1.7-7.92-6.88-10.91c-9.29-5.37-24.36-5.37-33.66,0
		c-5.17,2.99-7.46,7.01-6.88,10.91C160.92,102.48,163.2,99.44,167.33,97.06z"/>
	
		<radialGradient id="SVGID_00000112604578442463522520000015349409436839963043_" cx="147.5494" cy="361.2029" r="106.8482" gradientTransform="matrix(1 0 0 -1 0 452)" gradientUnits="userSpaceOnUse">
		<stop  offset="0" style="stop-color:#5300AA"/>
		<stop  offset="0.252" style="stop-color:#A92FFB"/>
		<stop  offset="0.7357" style="stop-color:#3919BB"/>
	</radialGradient>
	<path style="fill:url(#SVGID_00000112604578442463522520000015349409436839963043_);" d="M204.64,92.8
		c-11.2-6.6-29.46-6.76-40.77-0.36s-11.41,16.94-0.21,23.54s29.46,6.76,40.77,0.36C215.75,109.94,215.85,99.4,204.64,92.8z
		 M200.98,114.11c-3.1,1.79-6.86,2.97-10.82,3.57l-0.43-1.42c-0.17-0.57-0.7-0.96-1.3-0.96h-8.55c-0.6,0-1.13,0.39-1.3,0.96
		l-0.43,1.42c-3.96-0.59-7.72-1.77-10.82-3.57c-9.29-5.37-9.29-14.07,0-19.43c9.29-5.37,24.36-5.37,33.66,0
		C210.28,100.05,210.28,108.75,200.98,114.11z"/>
	<g>
		<path class="st9" d="M200.98,93.66c-9.29-5.37-24.36-5.37-33.66,0c-4.87,2.81-7.18,6.54-6.95,10.22c0.21-3.34,2.53-6.65,6.95-9.21
			c9.29-5.37,24.36-5.37,33.66,0c4.42,2.55,6.74,5.86,6.95,9.21C208.17,100.2,205.85,96.48,200.98,93.66z"/>
		<path class="st9" d="M204.44,115.33c-11.32,6.4-29.57,6.24-40.77-0.36c-5.33-3.14-8.1-7.17-8.32-11.23
			c-0.22,4.39,2.54,8.84,8.32,12.25c11.2,6.6,29.46,6.76,40.77,0.36c5.93-3.36,8.77-7.85,8.53-12.31
			C212.76,108.16,209.92,112.23,204.44,115.33z"/>
	</g>
	<path class="st27" d="M186.71,118.42h-5.11c-0.36,0-0.65-0.29-0.65-0.65v-0.09c0-0.36,0.29-0.65,0.65-0.65h5.11
		c0.36,0,0.65,0.29,0.65,0.65v0.09C187.35,118.13,187.06,118.42,186.71,118.42z"/>
	
		<linearGradient id="SVGID_00000108285906515120494450000014618833528371526305_" gradientUnits="userSpaceOnUse" x1="180.3876" y1="334.505" x2="188.6899" y2="334.505" gradientTransform="matrix(1 0 0 -1 0 452)">
		<stop  offset="0" style="stop-color:#131060"/>
		<stop  offset="0.1857" style="stop-color:#141062"/>
		<stop  offset="0.2823" style="stop-color:#19106A"/>
		<stop  offset="0.3584" style="stop-color:#221078"/>
		<stop  offset="0.4238" style="stop-color:#2E0F8B"/>
		<stop  offset="0.4823" style="stop-color:#3E0FA3"/>
		<stop  offset="0.5359" style="stop-color:#510EC2"/>
		<stop  offset="0.5847" style="stop-color:#680DE5"/>
		<stop  offset="0.6071" style="stop-color:#740DF8"/>
		<stop  offset="0.6179" style="stop-color:#7A14F0"/>
		<stop  offset="0.6826" style="stop-color:#9B3CC3"/>
		<stop  offset="0.7477" style="stop-color:#B75D9D"/>
		<stop  offset="0.8123" style="stop-color:#CC7680"/>
		<stop  offset="0.8762" style="stop-color:#DC886C"/>
		<stop  offset="0.9391" style="stop-color:#E5935F"/>
		<stop  offset="1" style="stop-color:#E8975B"/>
	</linearGradient>
	<path style="fill:url(#SVGID_00000108285906515120494450000014618833528371526305_);" d="M186.71,117.04h-5.11
		c-0.36,0-0.65,0.29-0.65,0.65v0.09c0,0.06,0.02,0.12,0.03,0.17c0.08-0.27,0.32-0.47,0.61-0.47h5.11c0.3,0,0.53,0.2,0.61,0.47
		c0.02-0.06,0.03-0.11,0.03-0.17v-0.09C187.35,117.33,187.06,117.04,186.71,117.04z"/>
	<g>
		<path class="st9" d="M184.94,163.7c-0.63,2.36-3.04,3.76-5.4,3.13c-2.36-0.63-3.76-3.04-3.13-5.4c0.63-2.36,2.85-3.02,5.21-2.4
			C183.97,159.67,185.56,161.35,184.94,163.7z"/>
		<path class="st9" d="M188.41,159.05c-0.89,0.87-2.03,0.76-2.78-0.02c-0.75-0.77-0.84-1.91,0.05-2.78s2.58-1.3,3.33-0.52
			C189.77,156.51,189.3,158.19,188.41,159.05z"/>
		<path class="st9" d="M183.8,155.36c-0.22,1.22-1.21,1.79-2.27,1.6c-1.06-0.19-1.8-1.07-1.58-2.29c0.22-1.22,1.34-2.55,2.41-2.37
			C183.42,152.5,184.01,154.14,183.8,155.36z"/>
		<path class="st9" d="M178.1,154.8c0.47,1.15-0.06,2.16-1.06,2.57s-2.09,0.06-2.56-1.09s-0.24-2.88,0.76-3.29
			C176.25,152.58,177.63,153.65,178.1,154.8z"/>
	</g>
</g>
<path class="st29" d="M185.96,117.73c0,0,15.45-5.18,9.19-22.93s-18.44-23.16-13.53-37.36c0,0-7.69,11.5-0.5,27.05
	s8.76,13.77,8.68,21.21c-0.1,8.84-7.24,12.04-7.24,12.04h3.4V117.73z"/>
<path class="st29" d="M187.35,59.9c0,0-1.61-10.62,8.35-21.32c0,0-8.81,19.67-5.93,29.39C189.78,67.97,187.45,61.8,187.35,59.9z"/>
</svg>
