<?xml version="1.0" encoding="utf-8"?>
<!-- Generator: Adobe Illustrator 27.3.1, SVG Export Plug-In . SVG Version: 6.00 Build 0)  -->
<svg version="1.1" id="Ñëîé_1" xmlns="http://www.w3.org/2000/svg" xmlns:xlink="http://www.w3.org/1999/xlink" x="0px" y="0px"
	 viewBox="0 0 600 450" style="enable-background:new 0 0 600 450;" xml:space="preserve">
<style type="text/css">
	.st0{opacity:0.68;}
	.st1{fill:#9564F4;}
	.st2{fill:url(#SVGID_1_);}
	.st3{fill:#211B1A;}
	.st4{fill:#181019;}
	.st5{enable-background:new    ;}
	.st6{fill:#D9D3FF;}
	.st7{fill:#9892F2;}
	.st8{fill:#191110;}
	.st9{opacity:0.2;fill:#A064FF;}
	.st10{fill:#6144E5;}
	.st11{fill:#4D32C6;}
	.st12{fill:#6342F2;}
	.st13{fill:url(#SVGID_00000096046077602514538550000015900692270490092979_);}
	.st14{fill:#CEA1FF;}
	.st15{fill:#D5AEFF;}
	.st16{fill:url(#SVGID_00000019656305468485872980000014203863479273245857_);}
	.st17{fill:#9057FF;}
	.st18{fill:url(#SVGID_00000151525065080851526150000005754992852104785300_);}
	.st19{fill:url(#SVGID_00000150065218323234952600000001641670246886188718_);}
	.st20{fill:#FFFFFF;}
	.st21{fill:url(#SVGID_00000028305518749932853990000016103452780008751785_);}
	.st22{fill:url(#SVGID_00000114063235304270098220000016081775111086043791_);}
	.st23{fill:url(#SVGID_00000057111572458446461300000001571305345335313067_);}
	.st24{fill:url(#SVGID_00000150085991429264885270000003331903888935764640_);}
	.st25{fill:url(#SVGID_00000172397877197540748180000005363585516713818288_);}
	.st26{fill:url(#SVGID_00000053520880567413095140000003021381060434676643_);}
	.st27{opacity:0.5;fill:#9373A8;}
	.st28{fill:url(#SVGID_00000122705990357625286900000003395118887286800278_);}
	.st29{fill:#342733;}
	.st30{opacity:0.9;fill:#8648FF;}
	.st31{opacity:0.5;fill:#50089B;}
	.st32{opacity:0.2;fill:url(#SVGID_00000062161402804471826200000017652269400281349283_);}
	.st33{opacity:0.2;fill:#4C089B;}
	.st34{opacity:0.2;fill:url(#SVGID_00000104697361419750607850000005718951055125570470_);}
	.st35{opacity:0.2;fill:url(#SVGID_00000094591911964852781470000003330205926683795099_);}
	.st36{opacity:0.2;fill:url(#SVGID_00000036238600980226485700000004473931590624069544_);}
	.st37{opacity:0.2;fill:url(#SVGID_00000106138024611393140360000017799281342519508642_);}
	.st38{opacity:0.2;fill:url(#SVGID_00000005978550622421502750000010493901894836072103_);}
</style>
<g id="_x33_" class="st0">
	<path class="st1" d="M471.9,165.7c-1.6-0.9-2.9-3-2.9-4.6c0-1.6,1.3-2.2,2.9-1.2c1.6,0.9,2.9,3,2.9,4.6
		C474.8,166,473.5,166.6,471.9,165.7z M545,204.5c0-1.6-1.3-3.6-2.9-4.6c-1.6-0.9-2.9-0.4-2.9,1.2c0,1.6,1.3,3.6,2.9,4.6
		C543.7,206.6,545,206.1,545,204.5z M428.5,74.6c0-2.5-2-5.7-4.5-7.1c-2.5-1.4-4.5-0.6-4.5,1.9s2,5.7,4.5,7.1
		C426.5,77.9,428.5,77.1,428.5,74.6z M418.3,122.7v3.1c0,0.5,0.4,1.2,0.9,1.5l6,3.5c0.5,0.3,0.9,0.1,0.9-0.4v-3.1
		c0-1.2-1-2.8-2.2-3.5c-0.9,0.7-2.6-0.3-3.5-2C419.3,121,418.3,121.5,418.3,122.7z M525.3,123.7v3.1c0,0.5,0.4,1.2,0.9,1.5l6,3.5
		c0.5,0.3,0.9,0.1,0.9-0.4v-3.1c0-1.2-1-2.8-2.2-3.5c-0.9,0.7-2.6-0.3-3.5-2C526.3,122.1,525.3,122.5,525.3,123.7z M532.2,122.3
		c0-1.6-1.3-3.6-2.9-4.6c-1.6-0.9-2.9-0.4-2.9,1.2s1.3,3.6,2.9,4.6C530.9,124.5,532.2,123.9,532.2,122.3z M421.8,113.8l1.2-22.7
		c-7.3-4.7-13.1-14.2-13.1-21.6c0-3.2,1.1-5.5,2.9-6.8l0.5-0.4c2.6-1.5,6.4-1.2,10.7,1.2c5.3,3.1,9.9,8.6,12.3,14.4l29.3,5.6
		c-1.2-2.2-1.9-4.5-1.9-6.6c0-5.1,4.1-6.9,9.2-3.9c5.1,2.9,9.2,9.5,9.2,14.6c0,3-1.5,4.8-3.7,5.2l24.1,45c2.9-1.6,7.2-1.2,12,1.5
		c1.7,1,3.3,2.2,4.9,3.6l5.4-13.1c-2.9-3.2-4.8-7.4-4.8-10.8c0-5.1,4.1-6.9,9.2-3.9c5.1,2.9,9.2,9.5,9.2,14.6s-4.1,6.9-9.2,3.9
		c-1.3-0.8-2.5-1.8-3.7-2.9l-5.4,13c5.9,5.7,10.2,13.8,10.4,20.6l28.1,14.6c-0.1-0.4-0.1-0.9-0.1-1.3c0-5.1,4.1-6.8,9.2-3.9
		c1.7,1,3.2,2.3,4.6,3.9l0.7,0.9c2.4,3,3.9,6.7,3.9,9.8c0,5.1-4.1,6.9-9.2,3.9c-4.4-2.5-8-7.7-9-12.4L530.7,165
		c-0.1,5.8-3.5,9.1-8.4,8.9l13.4,22.1c1.7-0.7,3.9-0.4,6.4,1.1c5.1,2.9,9.2,9.5,9.2,14.6s-4.1,6.8-9.2,3.9
		c-5.1-2.9-9.2-9.5-9.2-14.6c0-2.3,0.9-3.9,2.3-4.7l-13.7-22.5c-2.1-0.2-4.4-1-6.9-2.4c-4.5-2.6-8.6-6.8-11.5-11.5l-23.8,5.2
		c1.2,2.2,1.9,4.5,1.9,6.6c0,5.1-4.1,6.9-9.2,3.9c-5.1-2.9-9.2-9.5-9.2-14.6c0-5.1,4.1-6.9,9.2-3.9c2.7,1.6,5.1,4.2,6.8,7l23.7-5.2
		c-2.5-4.3-4-8.8-4-12.9c0-3.8,1.3-6.5,3.6-8l-24.2-45.2c-1.4,0.1-3.1-0.4-4.9-1.4c-2.7-1.6-5.1-4.1-6.8-7l-29.4-5.6
		c0.9,2.4,1.4,4.7,1.4,6.9c0,2.6-0.7,4.6-2,6l22,25.1c0.9-2.5,3.7-3.2,7.1-1.2c4.1,2.4,7.5,7.7,7.5,11.8c0,4.1-3.3,5.5-7.5,3.2
		c-4.1-2.4-7.5-7.7-7.5-11.8c0-0.4,0.1-0.8,0.1-1.2l-22.2-25.4c-2.5,2.3-6.8,2.3-11.7-0.5c0,0-0.1-0.1-0.1-0.1l-1.2,22.7
		c4.9,3.1,8.8,9.3,8.8,14.3c0,5.1-4.1,6.9-9.2,3.9c-5.1-2.9-9.2-9.5-9.2-14.6C413,112.9,416.9,111.2,421.8,113.8z M529.3,132.6
		c4.6,2.7,8.4,1.1,8.4-3.5c0-4.6-3.8-10.6-8.4-13.2c-4.6-2.7-8.4-1.1-8.4,3.6C520.9,124,524.6,130,529.3,132.6z M567.9,191.2
		c4.6,2.7,8.4,1.1,8.4-3.6c0-4.6-3.8-10.6-8.4-13.2s-8.4-1.1-8.4,3.5C559.5,182.6,563.2,188.6,567.9,191.2z M533.7,201.6
		c0,4.6,3.8,10.6,8.4,13.2c4.6,2.7,8.4,1.1,8.4-3.5c0-4.6-3.8-10.6-8.4-13.2C537.4,195.3,533.7,196.9,533.7,201.6z M471.9,158
		c-4.6-2.7-8.4-1.1-8.4,3.6c0,4.6,3.8,10.6,8.4,13.2c4.6,2.7,8.4,1.1,8.4-3.6C480.3,166.6,476.5,160.6,471.9,158z M499.3,146.5
		c0,8.4,6.8,19.2,15.3,24.1s15.3,2,15.3-6.4c0-8.4-6.8-19.2-15.3-24.1S499.3,138.1,499.3,146.5z M472.9,90.6
		c4.6,2.7,8.4,1.1,8.4-3.6c0-4.6-3.8-10.6-8.4-13.2c-4.6-2.7-8.4-1.1-8.4,3.6C464.5,82,468.3,87.9,472.9,90.6z M465.2,129.7
		c3.6,2.1,6.6,0.9,6.6-2.8s-3-8.3-6.6-10.4c-3.6-2.1-6.6-0.9-6.6,2.8C458.6,123,461.6,127.6,465.2,129.7z M424,90.8
		c7.3,4.2,13.2,1.7,13.2-5.6c0-7.3-5.9-16.7-13.2-20.9c-7.3-4.2-13.2-1.7-13.2,5.6C410.7,77.3,416.7,86.6,424,90.8z M422.2,131.6
		c4.6,2.7,8.4,1.1,8.4-3.5c0-4.6-3.8-10.6-8.4-13.2c-4.6-2.7-8.4-1.1-8.4,3.6C413.8,123,417.6,129,422.2,131.6z M564,182.3v3.1
		c0,0.5,0.4,1.2,0.9,1.5l6,3.5c0.5,0.3,0.9,0.1,0.9-0.4v-3.1c0-1.2-1-2.8-2.2-3.5c-0.9,0.7-2.6-0.3-3.5-2
		C564.9,180.6,564,181.1,564,182.3z M570.8,180.9c0-1.6-1.3-3.6-2.9-4.6c-1.6-0.9-2.9-0.4-2.9,1.2c0,1.6,1.3,3.6,2.9,4.6
		C569.5,183.1,570.8,182.5,570.8,180.9z M538.2,205.8v3.1c0,0.5,0.4,1.2,0.9,1.5l6,3.5c0.5,0.3,0.9,0.1,0.9-0.4v-3.1
		c0-1.2-1-2.8-2.2-3.5c-0.9,0.7-2.6-0.3-3.5-2C539.1,204.2,538.2,204.6,538.2,205.8z M417.9,76.7v4.8c0,0.8,0.7,1.8,1.5,2.3l9.3,5.3
		c0.8,0.5,1.5,0.2,1.5-0.6v-4.8c0-1.9-1.5-4.3-3.4-5.4c-1.3,1-4-0.5-5.3-3.1C419.4,74.2,417.9,74.8,417.9,76.7z M467.5,121.6
		c0-1.3-1-2.9-2.3-3.6c-1.3-0.7-2.3-0.3-2.3,1c0,1.3,1,2.9,2.3,3.6C466.5,123.3,467.5,122.9,467.5,121.6z M469,81.6v3.1
		c0,0.5,0.4,1.2,0.9,1.5l6,3.5c0.5,0.3,0.9,0.1,0.9-0.4v-3.1c0-1.2-1-2.8-2.2-3.5c-0.9,0.7-2.6-0.3-3.5-2C470,80,469,80.4,469,81.6z
		 M475.8,173.4v-3.1c0-1.2-1-2.8-2.2-3.5c-0.9,0.7-2.6-0.3-3.5-2c-1.2-0.7-2.2-0.3-2.2,0.9v3.1c0,0.5,0.4,1.2,0.9,1.5l6,3.5
		C475.4,174.1,475.8,173.9,475.8,173.4z M462.1,122.7v2.5c0,0.4,0.3,0.9,0.7,1.2l4.8,2.8c0.4,0.2,0.7,0.1,0.7-0.3v-2.5
		c0-1-0.8-2.2-1.8-2.8c-0.7,0.5-2.1-0.3-2.8-1.6C462.9,121.4,462.1,121.7,462.1,122.7z M519.7,151.9c0-2.8-2.3-6.5-5.2-8.1
		c-2.8-1.6-5.2-0.7-5.2,2.2c0,2.8,2.3,6.5,5.2,8.1C517.4,155.7,519.7,154.8,519.7,151.9z M475.8,80.3c0-1.6-1.3-3.6-2.9-4.6
		c-1.6-0.9-2.9-0.4-2.9,1.2s1.3,3.6,2.9,4.6C474.5,82.4,475.8,81.9,475.8,80.3z M425.1,121.3c0-1.6-1.3-3.6-2.9-4.6
		c-1.6-0.9-2.9-0.4-2.9,1.2s1.3,3.6,2.9,4.6C423.8,123.5,425.1,122.9,425.1,121.3z M507.6,154.4v5.5c0,0.9,0.7,2.1,1.7,2.6l10.6,6.1
		c0.9,0.5,1.7,0.2,1.7-0.7v-5.5c0-2.2-1.8-4.9-3.9-6.2c-1.5,1.2-4.6-0.6-6.1-3.5C509.3,151.5,507.6,152.2,507.6,154.4z"/>
	<g>
		<path class="st1" d="M255.2,33.2l-6-3.5c-0.5-0.3-0.9-1-0.9-1.5v-3.1c0-1.2,1-1.6,2.2-0.9c0.9,1.7,2.6,2.7,3.5,2
			c1.2,0.7,2.2,2.3,2.2,3.5v3.1C256.1,33.3,255.7,33.5,255.2,33.2z"/>
		<path class="st1" d="M252.2,25.1c-1.6-0.9-2.9-3-2.9-4.6s1.3-2.2,2.9-1.2c1.6,0.9,2.9,3,2.9,4.6C255.1,25.4,253.8,26,252.2,25.1z"
			/>
		<path class="st1" d="M306.8,66.3c0.9,1.7,2.6,2.7,3.5,2c1.2,0.7,2.2,2.3,2.2,3.5v3.1c0,0.5-0.4,0.7-0.9,0.4l-6-3.5
			c-0.5-0.3-0.9-1-0.9-1.5v-3.1C304.6,66,305.6,65.6,306.8,66.3z"/>
		<path class="st1" d="M308.6,67.1c-1.6-0.9-2.9-3-2.9-4.6c0-1.6,1.3-2.1,2.9-1.2c1.6,0.9,2.9,3,2.9,4.6
			C311.4,67.5,310.2,68,308.6,67.1z"/>
		<path class="st1" d="M321.4,149.3c-1.6-0.9-2.9-3-2.9-4.6c0-1.6,1.3-2.1,2.9-1.2c1.6,0.9,2.9,3,2.9,4.6
			C324.3,149.6,323,150.2,321.4,149.3z"/>
		<path class="st1" d="M251.2,109.2c-1.6-0.9-2.9-3-2.9-4.6s1.3-2.1,2.9-1.2c1.6,0.9,2.9,3,2.9,4.6S252.8,110.2,251.2,109.2z"/>
		<path class="st1" d="M249.5,108.4c0.9,1.7,2.6,2.7,3.5,2c1.2,0.7,2.2,2.3,2.2,3.5v3.1c0,0.5-0.4,0.7-0.9,0.4l-6-3.5
			c-0.5-0.3-0.9-1-0.9-1.5v-3.1C247.3,108.2,248.2,107.7,249.5,108.4z"/>
		<path class="st1" d="M241.9,104.6c0,5.1,4.1,11.6,9.2,14.6c5.1,2.9,9.2,1.2,9.2-3.9c0-2.1-0.7-4.4-1.9-6.6l23.8-5.2
			c2.9,4.7,7,8.9,11.5,11.5c2.5,1.4,4.8,2.2,6.9,2.4l13.7,22.5c-1.4,0.8-2.3,2.4-2.3,4.7c0,5.1,4.1,11.6,9.2,14.6
			c5.1,2.9,9.2,1.2,9.2-3.9c0-5.1-4.1-11.6-9.2-14.6c-2.5-1.4-4.8-1.7-6.4-1.1l-13.4-22.1c4.9,0.2,8.3-3,8.4-8.9l26.3,13.7v-0.8
			l-26.3-13.7c-0.2-6.8-4.5-14.9-10.4-20.6l5.4-13c1.1,1.1,2.4,2.1,3.7,2.9c5.1,2.9,9.2,1.2,9.2-3.9c0-5.1-4.1-11.6-9.2-14.6
			c-5.1-2.9-9.2-1.2-9.2,3.9c0,3.5,2,7.6,4.8,10.8l-5.4,13.1c-1.5-1.4-3.2-2.6-4.9-3.6c-4.8-2.7-9-3.1-12-1.5l-24.1-45
			c2.2-0.4,3.7-2.2,3.7-5.2c0-5.1-4.1-11.6-9.2-14.6c-5.1-2.9-9.2-1.2-9.2,3.9c0,5.2,4.4,11.8,9.2,14.6c1.8,1,3.4,1.5,4.9,1.4
			l24.2,45.2c-2.2,1.5-3.6,4.2-3.6,8c0,4.1,1.5,8.6,4,12.9l-23.7,5.2c-1.7-2.8-4.1-5.4-6.8-7C246.1,97.8,241.9,99.5,241.9,104.6z
			 M252.2,34.2c-4.6-2.7-8.4-8.6-8.4-13.2c0-4.6,3.8-6.2,8.4-3.6c4.6,2.7,8.4,8.6,8.4,13.2C260.6,35.2,256.8,36.8,252.2,34.2z
			 M300.2,63c0-4.6,3.8-6.2,8.4-3.6c4.6,2.7,8.4,8.6,8.4,13.2c0,4.6-3.8,6.2-8.4,3.5C303.9,73.5,300.2,67.6,300.2,63z M321.4,141.6
			c4.6,2.7,8.4,8.6,8.4,13.2c0,4.6-3.8,6.2-8.4,3.5c-4.6-2.7-8.4-8.6-8.4-13.2C313,140.5,316.7,138.9,321.4,141.6z M278.6,90.1
			c0-8.4,6.8-11.3,15.3-6.4c8.4,4.9,15.3,15.6,15.3,24.1s-6.8,11.3-15.3,6.4C285.4,109.3,278.6,98.5,278.6,90.1z M242.8,105.1
			c0-4.6,3.8-6.2,8.4-3.6c4.6,2.7,8.4,8.6,8.4,13.2c0,4.6-3.8,6.2-8.4,3.6S242.8,109.7,242.8,105.1z"/>
		<path class="st1" d="M319.6,148.5c0.9,1.7,2.6,2.7,3.5,2c1.2,0.7,2.2,2.3,2.2,3.5v3.1c0,0.5-0.4,0.7-0.9,0.4l-6-3.5
			c-0.5-0.3-0.9-1-0.9-1.5v-3.1C317.4,148.2,318.4,147.8,319.6,148.5z"/>
		<path class="st1" d="M290.8,96.3c1.5,2.9,4.6,4.7,6.1,3.5c2.2,1.2,3.9,4,3.9,6.2v5.5c0,0.9-0.7,1.2-1.7,0.7l-10.6-6.1
			c-0.9-0.5-1.7-1.7-1.7-2.6v-5.5C286.9,95.8,288.6,95,290.8,96.3z"/>
		<path class="st1" d="M293.8,97.7c-2.8-1.6-5.2-5.3-5.2-8.1c0-2.8,2.3-3.8,5.2-2.2c2.8,1.6,5.2,5.3,5.2,8.1S296.7,99.3,293.8,97.7z
			"/>
	</g>
	<g>
		<g>
			<g>
				<g>
					<g>
						<g>
							
								<linearGradient id="SVGID_1_" gradientUnits="userSpaceOnUse" x1="503.3969" y1="335.6339" x2="519.9811" y2="335.6339" gradientTransform="matrix(-0.5 -0.866 0.866 -0.5 370.1786 763.1097)">
								<stop  offset="0" style="stop-color:#8F89F0"/>
								<stop  offset="1" style="stop-color:#D9D3FF"/>
							</linearGradient>
							<path class="st2" d="M447.7,335.7l4.9-2.8c1.4-0.8,2.3-2.6,2.3-5.1v-195c0-5-3.5-11-7.8-13.5l-83.4-47.8
								c-2.1-1.2-4.1-1.3-5.5-0.5l-4.9,2.8L447.7,335.7z"/>
							<g>
								<path class="st3" d="M351.1,78.9c0-5,3.5-7,7.8-4.6l83.4,47.8c4.3,2.5,7.8,8.5,7.8,13.5v195c0,5-3.5,7-7.8,4.6l-83.4-47.8
									c-4.3-2.5-7.8-8.5-7.8-13.5V78.9z"/>
								<path class="st4" d="M445.9,129c1.3,2.2,2,4.6,2,6.6l0,195c0,1.6-0.4,2.8-1.2,3.2c-0.8,0.4-2,0.2-3.3-0.5L360,285.5
									c-1.7-1-3.4-2.8-4.7-5c-1.3-2.2-2-4.6-2-6.6l0-195c0-1.6,0.4-2.8,1.2-3.2c0.8-0.4,2-0.2,3.3,0.5l83.4,47.8
									C442.9,125,444.6,126.8,445.9,129z"/>
							</g>
							<path class="st3" d="M421.7,112.2l-6.4,3.7c-0.9,0.5-2.3,0.3-3.9-0.6l-28.5-16.5c-1.7-1-3.8-3.4-5.5-6.4l-5.2-9L421.7,112.2z
								"/>
							<g>
								<g class="st5">
									<path class="st6" d="M451.5,179.9c-0.2,0.2-0.3,0.5-0.4,0.8c-0.1,0.2-0.1,0.5-0.1,0.7l0,13.5c0,0.4,0.1,0.6,0.4,0.8
										l0.9,0.5c-0.2-0.1-0.4-0.4-0.4-0.8l0-13.5c0-0.2,0-0.4,0.1-0.7c0.1-0.3,0.2-0.5,0.4-0.8c0.2-0.3,0.4-0.5,0.7-0.6l1.3-0.8
										c0.3-0.2,0.6-0.2,0.8-0.1l-0.9-0.5c-0.2-0.1-0.5-0.1-0.8,0.1l-1.3,0.8C451.9,179.4,451.7,179.6,451.5,179.9z"/>
									<path class="st7" d="M451.9,181.9l0,13.5c0,0.8,0.5,1.1,1.2,0.7l1.3-0.8c0.7-0.4,1.2-1.3,1.2-2v-13.5
										c0-0.8-0.5-1.1-1.2-0.7l-1.3,0.8C452.5,180.2,451.9,181.1,451.9,181.9z"/>
								</g>
								<g class="st5">
									<path class="st6" d="M451.5,157.3c-0.2,0.2-0.3,0.5-0.4,0.8c-0.1,0.2-0.1,0.5-0.1,0.7l0,13.5c0,0.4,0.1,0.6,0.4,0.8
										l0.9,0.5c-0.2-0.1-0.4-0.4-0.4-0.8l0-13.5c0-0.2,0-0.4,0.1-0.7c0.1-0.3,0.2-0.5,0.4-0.8c0.2-0.3,0.4-0.5,0.7-0.6l1.3-0.8
										c0.3-0.2,0.6-0.2,0.8-0.1l-0.9-0.5c-0.2-0.1-0.5-0.1-0.8,0.1l-1.3,0.8C451.9,156.8,451.7,157.1,451.5,157.3z"/>
									<path class="st7" d="M451.9,159.3l0,13.5c0,0.8,0.5,1.1,1.2,0.7l1.3-0.8c0.7-0.4,1.2-1.3,1.2-2v-13.5
										c0-0.8-0.5-1.1-1.2-0.7l-1.3,0.8C452.5,157.6,451.9,158.5,451.9,159.3z"/>
								</g>
							</g>
						</g>
						<path class="st8" d="M406.8,107.4c0-0.6-0.4-1.4-1-1.7l-15-8.7c-0.5-0.3-1-0.1-1,0.6s0.4,1.4,1,1.7l15,8.7
							C406.3,108.2,406.8,108,406.8,107.4z"/>
					</g>
				</g>
				<g>
					<polygon class="st9" points="336.9,291.1 428.6,344.1 428.6,146.7 336.9,93.7 					"/>
					<g>
						<polygon class="st10" points="336.9,95.2 428.6,148.2 428.6,137.4 336.9,84.4 						"/>
						<path class="st11" d="M338.9,87.6c0.3-0.2,0.6-0.1,1,0.1l4.8,2.8c0.6,0.4,1.1,1.2,1.1,1.8v4.8c0,0.3-0.1,0.6-0.4,0.7
							c-0.1,0.1-0.2,0.1-0.4,0.1c-0.2,0-0.4-0.1-0.6-0.2l-4.8-2.8c-0.6-0.4-1.1-1.2-1.1-1.8v-4.8C338.5,88,338.7,87.8,338.9,87.6z
							 M347.1,92.4c-0.2,0.1-0.4,0.4-0.4,0.7V98c0,0.6,0.5,1.4,1.1,1.8l4.8,2.8c0.2,0.1,0.4,0.2,0.6,0.2c0.1,0,0.3,0,0.4-0.1
							c0.2-0.1,0.4-0.4,0.4-0.7v-4.8c0-0.6-0.5-1.4-1.1-1.8l-4.8-2.8C347.8,92.3,347.4,92.2,347.1,92.4z M355.4,97.2
							c-0.2,0.1-0.4,0.4-0.4,0.7v4.8c0,0.6,0.5,1.4,1.1,1.8l4.8,2.8c0.2,0.1,0.4,0.2,0.6,0.2c0.1,0,0.3,0,0.4-0.1
							c0.2-0.1,0.4-0.4,0.4-0.7v-4.8c0-0.6-0.5-1.4-1.1-1.8l-4.8-2.8C356,97,355.7,97,355.4,97.2z"/>
						<path class="st12" d="M339,88.4c0-0.1,0-0.3,0.1-0.3c0,0,0.1,0,0.1,0c0.1,0,0.2,0,0.4,0.1l4.8,2.8c0.5,0.3,0.9,0.9,0.9,1.4
							v4.8c0,0.1,0,0.3-0.1,0.3c-0.1,0.1-0.3,0-0.5-0.1l-4.8-2.8c-0.5-0.3-0.9-0.9-0.9-1.4V88.4z M347.2,93.1c0-0.1,0-0.3,0.1-0.3
							c0,0,0.1,0,0.1,0c0.1,0,0.2,0,0.4,0.1l4.8,2.8c0.5,0.3,0.9,0.9,0.9,1.4v4.8c0,0.1,0,0.3-0.1,0.3c-0.1,0.1-0.3,0-0.5-0.1
							l-4.8-2.8c-0.5-0.3-0.9-0.9-0.9-1.4V93.1z M355.5,97.9c0-0.1,0-0.3,0.1-0.3c0,0,0.1,0,0.1,0c0.1,0,0.2,0,0.4,0.1l4.8,2.8
							c0.5,0.3,0.9,0.9,0.9,1.4v4.8c0,0.1,0,0.3-0.1,0.3c-0.1,0.1-0.3,0-0.5-0.1l-4.8-2.8c-0.5-0.3-0.9-0.9-0.9-1.4V97.9z"/>
					</g>
				</g>
			</g>
			<g>
				<g>
					<g>
						
							<linearGradient id="SVGID_00000000208067097040693640000016510609259733443502_" gradientUnits="userSpaceOnUse" x1="388.1342" y1="213.0962" x2="387.3828" y2="214.3977" gradientTransform="matrix(-1 0 0 1 733.2587 0)">
							<stop  offset="0" style="stop-color:#DEC7FF"/>
							<stop  offset="1" style="stop-color:#D5B7FF"/>
						</linearGradient>
						<path style="fill:url(#SVGID_00000000208067097040693640000016510609259733443502_);" d="M345.2,213.1
							c0.7-0.4,1.6-0.3,2.6,0.3l-1.9,1.1c-1-0.6-1.9-0.6-2.6-0.3L345.2,213.1z"/>
						<polygon class="st14" points="400.9,268.1 402.7,267 402.7,273.9 400.9,275 						"/>
						<path class="st14" d="M404.8,266.2l0-13.6l1.9-1.1l0,13.6c0,1.1-0.4,1.9-1.1,2.3l-1.9,1.1
							C404.4,268.1,404.8,267.3,404.8,266.2z"/>
						<polygon class="st15" points="347.7,213.3 403.1,245.3 401.2,246.4 345.8,214.4 						"/>
						
							<linearGradient id="SVGID_00000144317296722356229380000014075695320915795842_" gradientUnits="userSpaceOnUse" x1="330.7395" y1="245.6215" x2="327.1514" y2="251.8363" gradientTransform="matrix(-1 0 0 1 733.2587 0)">
							<stop  offset="0" style="stop-color:#DEC7FF"/>
							<stop  offset="1" style="stop-color:#D5B7FF"/>
						</linearGradient>
						<path style="fill:url(#SVGID_00000144317296722356229380000014075695320915795842_);" d="M403.1,245.3c2,1.1,3.6,3.9,3.6,6.2
							l-1.9,1.1c0-2.3-1.6-5.1-3.6-6.2L403.1,245.3z"/>
						<path class="st17" d="M345.8,214.4c-2-1.1-3.6-0.2-3.6,2.1l0,13.6c0,2.3,1.6,5.1,3.6,6.2l51.3,29.6l3.8,9.1l0-6.9l0.3,0.2
							c2,1.1,3.6,0.2,3.6-2.1l0-13.6c0-2.3-1.6-5.1-3.6-6.2L345.8,214.4z"/>
					</g>
					<g>
						<polygon class="st14" points="325,192.5 326.9,191.4 323.1,196.1 321.2,197.2 						"/>
						
							<linearGradient id="SVGID_00000028307038232670277860000012318416709353824657_" gradientUnits="userSpaceOnUse" x1="412.9872" y1="166.882" x2="412.2382" y2="168.1793" gradientTransform="matrix(-1 0 0 1 733.2587 0)">
							<stop  offset="0" style="stop-color:#DEC7FF"/>
							<stop  offset="1" style="stop-color:#D5B7FF"/>
						</linearGradient>
						<path style="fill:url(#SVGID_00000028307038232670277860000012318416709353824657_);" d="M320.3,166.9
							c0.7-0.4,1.6-0.3,2.6,0.2l-1.9,1.1c-1-0.6-1.9-0.6-2.6-0.2L320.3,166.9z"/>
						<path class="st14" d="M367,212.6l0-13.6l1.9-1.1l0,13.6c0,1.1-0.4,1.9-1,2.3l-1.9,1.1C366.6,214.5,367,213.7,367,212.6z"/>
						<polygon class="st15" points="322.9,167.1 365.3,191.6 363.5,192.7 321,168.2 						"/>
						
							<linearGradient id="SVGID_00000068674958148860164150000014900047551651371442_" gradientUnits="userSpaceOnUse" x1="368.4816" y1="191.9654" x2="364.8935" y2="198.1803" gradientTransform="matrix(-1 0 0 1 733.2587 0)">
							<stop  offset="0" style="stop-color:#DEC7FF"/>
							<stop  offset="1" style="stop-color:#D5B7FF"/>
						</linearGradient>
						<path style="fill:url(#SVGID_00000068674958148860164150000014900047551651371442_);" d="M365.3,191.6c2,1.1,3.6,3.9,3.6,6.2
							l-1.9,1.1c0-2.3-1.6-5.1-3.6-6.2L365.3,191.6z"/>
						<path class="st20" d="M321,168.2c-2-1.1-3.6-0.2-3.6,2.1l0,13.6c0,2.3,1.6,5.1,3.6,6.2l0.3,0.2l0,6.9l3.8-4.7l38.4,22.2
							c2,1.1,3.6,0.2,3.6-2l0-13.6c0-2.3-1.6-5.1-3.6-6.2L321,168.2z"/>
					</g>
					<g>
						<polygon class="st14" points="325,256.3 326.9,255.2 323.1,259.9 321.2,261 						"/>
						
							<linearGradient id="SVGID_00000170963705592986608880000016584156650835943049_" gradientUnits="userSpaceOnUse" x1="412.9872" y1="230.7247" x2="412.2381" y2="232.0221" gradientTransform="matrix(-1 0 0 1 733.2587 0)">
							<stop  offset="0" style="stop-color:#DEC7FF"/>
							<stop  offset="1" style="stop-color:#D5B7FF"/>
						</linearGradient>
						<path style="fill:url(#SVGID_00000170963705592986608880000016584156650835943049_);" d="M320.3,230.7
							c0.7-0.4,1.6-0.3,2.6,0.2L321,232c-1-0.6-1.9-0.6-2.6-0.2L320.3,230.7z"/>
						<path class="st14" d="M353.8,268.8l0-13.6l1.9-1.1l0,13.6c0,1.1-0.4,1.9-1,2.3l-1.9,1.1C353.4,270.7,353.8,269.9,353.8,268.8z
							"/>
						<polygon class="st15" points="322.9,231 352.1,247.8 350.2,248.9 321,232 						"/>
						
							<linearGradient id="SVGID_00000142860510377574192460000001242694345069012137_" gradientUnits="userSpaceOnUse" x1="381.7351" y1="248.1562" x2="378.147" y2="254.3709" gradientTransform="matrix(-1 0 0 1 733.2587 0)">
							<stop  offset="0" style="stop-color:#DEC7FF"/>
							<stop  offset="1" style="stop-color:#D5B7FF"/>
						</linearGradient>
						<path style="fill:url(#SVGID_00000142860510377574192460000001242694345069012137_);" d="M352.1,247.8c2,1.1,3.6,3.9,3.6,6.2
							l-1.9,1.1c0-2.3-1.6-5.1-3.6-6.2L352.1,247.8z"/>
						<path class="st20" d="M321,232c-2-1.1-3.6-0.2-3.6,2.1l0,13.6c0,2.3,1.6,5.1,3.6,6.2l0.3,0.2l0,6.9l3.8-4.7l25.1,14.5
							c2,1.1,3.6,0.2,3.6-2l0-13.6c0-2.3-1.6-5.1-3.6-6.2L321,232z"/>
					</g>
					<g>
						
							<linearGradient id="SVGID_00000110443346399714843900000006094910110334927037_" gradientUnits="userSpaceOnUse" x1="374.9264" y1="156.7483" x2="374.1749" y2="158.05" gradientTransform="matrix(-1 0 0 1 733.2587 0)">
							<stop  offset="0" style="stop-color:#DEC7FF"/>
							<stop  offset="1" style="stop-color:#D5B7FF"/>
						</linearGradient>
						<path style="fill:url(#SVGID_00000110443346399714843900000006094910110334927037_);" d="M358.4,156.7
							c0.7-0.4,1.6-0.3,2.6,0.3l-1.9,1.1c-1-0.6-1.9-0.6-2.6-0.3L358.4,156.7z"/>
						<polygon class="st14" points="400.9,204.1 402.7,203 402.7,210 400.9,211 						"/>
						<path class="st14" d="M404.8,202.2l0-13.6l1.9-1.1l0,13.6c0,1.1-0.4,1.9-1.1,2.3l-1.9,1.1
							C404.4,204.2,404.8,203.4,404.8,202.2z"/>
						<polygon class="st15" points="360.9,157 403.1,181.3 401.2,182.4 359.1,158.1 						"/>
						
							<linearGradient id="SVGID_00000135650599441592088920000001029255415380906901_" gradientUnits="userSpaceOnUse" x1="330.7396" y1="181.6479" x2="327.1514" y2="187.8627" gradientTransform="matrix(-1 0 0 1 733.2587 0)">
							<stop  offset="0" style="stop-color:#DEC7FF"/>
							<stop  offset="1" style="stop-color:#D5B7FF"/>
						</linearGradient>
						<path style="fill:url(#SVGID_00000135650599441592088920000001029255415380906901_);" d="M403.1,181.3c2,1.1,3.6,3.9,3.6,6.2
							l-1.9,1.1c0-2.3-1.6-5.1-3.6-6.2L403.1,181.3z"/>
						<path class="st17" d="M359.1,158.1c-2-1.1-3.6-0.2-3.6,2.1l0,13.6c0,2.3,1.6,5.1,3.6,6.2l38.1,22l3.8,9.1l0-6.9l0.3,0.2
							c2,1.1,3.6,0.2,3.6-2.1l0-13.6c0-2.3-1.6-5.1-3.6-6.2L359.1,158.1z"/>
					</g>
					<g>
						<polygon class="st14" points="325,128.5 326.9,127.4 323.1,132.1 321.2,133.2 						"/>
						
							<linearGradient id="SVGID_00000062180786267682173820000003782520599309979296_" gradientUnits="userSpaceOnUse" x1="412.9872" y1="102.9084" x2="412.2381" y2="104.2058" gradientTransform="matrix(-1 0 0 1 733.2587 0)">
							<stop  offset="0" style="stop-color:#DEC7FF"/>
							<stop  offset="1" style="stop-color:#D5B7FF"/>
						</linearGradient>
						<path style="fill:url(#SVGID_00000062180786267682173820000003782520599309979296_);" d="M320.3,102.9
							c0.7-0.4,1.6-0.3,2.6,0.2l-1.9,1.1c-1-0.6-1.9-0.6-2.6-0.2L320.3,102.9z"/>
						<path class="st14" d="M367,148.6l0-13.6l1.9-1.1l0,13.6c0,1.1-0.4,1.9-1,2.3l-1.9,1.1C366.6,150.5,367,149.7,367,148.6z"/>
						<polygon class="st15" points="322.9,103.1 365.3,127.7 363.5,128.8 321,104.2 						"/>
						
							<linearGradient id="SVGID_00000041274359175940309990000014593635436291417246_" gradientUnits="userSpaceOnUse" x1="368.4816" y1="127.992" x2="364.8935" y2="134.2067" gradientTransform="matrix(-1 0 0 1 733.2587 0)">
							<stop  offset="0" style="stop-color:#DEC7FF"/>
							<stop  offset="1" style="stop-color:#D5B7FF"/>
						</linearGradient>
						<path style="fill:url(#SVGID_00000041274359175940309990000014593635436291417246_);" d="M365.3,127.7c2,1.1,3.6,3.9,3.6,6.2
							l-1.9,1.1c0-2.3-1.6-5.1-3.6-6.2L365.3,127.7z"/>
						<path class="st20" d="M321,104.2c-2-1.1-3.6-0.2-3.6,2.1l0,13.6c0,2.3,1.6,5.1,3.6,6.2l0.3,0.2l0,6.9l3.8-4.7l38.4,22.2
							c2,1.1,3.6,0.2,3.6-2l0-13.6c0-2.3-1.6-5.1-3.6-6.2L321,104.2z"/>
					</g>
				</g>
				<g>
					<path class="st27" d="M350.5,128.3l5.3,3v-1.6l-5.3-3V128.3z M348.4,125.5l-4.1-2.4v1.6l4.1,2.4V125.5z M342.1,121.8l-7.1-4.1
						v1.6l7.1,4.1V121.8z M332.8,116.5l-8.9-5.1v1.6l8.9,5.1V116.5z M345.6,129.9l10.2,5.9v-1.6l-10.2-5.9V129.9z M338.4,125.7
						l5,2.9V127l-5-2.9V125.7z M336.3,122.8l-4.8-2.8v1.6l4.8,2.8V122.8z M329.3,118.8l-5.4-3.1v1.6l5.4,3.1V118.8z M348.4,134.2
						l-4.1-2.4v1.6l4.1,2.4V134.2z M342.1,130.6l-7.1-4.1v1.6l7.1,4.1V130.6z M332.8,125.2l-8.9-5.1v1.6l8.9,5.1V125.2z"/>
					<path class="st27" d="M350.5,192.5l5.3,3v-1.6l-5.3-3V192.5z M348.4,189.7l-4.1-2.4v1.6l4.1,2.4V189.7z M342.1,186l-7.1-4.1
						v1.6l7.1,4.1V186z M332.8,180.7l-8.9-5.1v1.6l8.9,5.1V180.7z M345.6,194l10.2,5.9v-1.6l-10.2-5.9V194z M338.4,189.9l5,2.9v-1.6
						l-5-2.9V189.9z M336.3,187l-4.8-2.8v1.6l4.8,2.8V187z M329.3,183l-5.4-3.1v1.6l5.4,3.1V183z M348.4,198.4l-4.1-2.4v1.6l4.1,2.4
						V198.4z M342.1,194.7l-7.1-4.1v1.6l7.1,4.1V194.7z M332.8,189.4l-8.9-5.1v1.6l8.9,5.1V189.4z"/>
					<path class="st27" d="M343.7,251.2l-8.7-5v1.6l8.7,5V251.2z M332.8,244.9l-8.9-5.1v1.6l8.9,5.1V244.9z M338.4,254.1l5,2.9v-1.6
						l-5-2.9V254.1z M336.3,251.3l-4.8-2.8v1.6l4.8,2.8V251.3z M329.3,247.3l-5.4-3.1v1.6l5.4,3.1V247.3z M338.9,257.1l-3.9-2.3v1.6
						l3.9,2.3V257.1z M332.8,253.6l-8.9-5.1v1.6l8.9,5.1V253.6z"/>
				</g>
			</g>
		</g>
		<g>
			<g class="st5">
				
					<linearGradient id="SVGID_00000080201832671148650640000002475432822827104162_" gradientUnits="userSpaceOnUse" x1="252.7561" y1="381.1346" x2="269.6408" y2="381.1346" gradientTransform="matrix(-1 0 0 1 733.2587 0)">
					<stop  offset="0" style="stop-color:#8F89F0"/>
					<stop  offset="1" style="stop-color:#CEC6FF"/>
				</linearGradient>
				<path style="fill:url(#SVGID_00000080201832671148650640000002475432822827104162_);" d="M527,343.6l0,41c0,1.4-0.9,2.9-2.9,4
					l-49.5,28.6c-3.8,2.2-9.9,2.2-13.6,0l-49.5-28.8c-1.9-1.1-2.8-2.5-2.8-3.9l0-41L527,343.6z"/>
				<path class="st29" d="M411.6,339.5l49.5-28.6c3.8-2.2,9.9-2.2,13.6,0l49.5,28.8c3.8,2.2,3.7,5.7,0,7.9l-49.5,28.6
					c-3.8,2.2-9.9,2.2-13.6,0l-49.5-28.8C407.8,345.2,407.9,341.7,411.6,339.5z"/>
			</g>
			<g>
				<g>
					<polygon class="st30" points="420.4,289.4 432.8,305.9 432.8,319.9 408,305.5 408,291.5 					"/>
					<polygon class="st30" points="420.4,289.4 432.8,305.9 408,291.5 					"/>
					<polygon class="st20" points="420.4,289.4 411.5,290.9 411.5,282.4 430.7,293.5 430.7,303 					"/>
				</g>
			</g>
			<g>
				<g>
					<g>
						<polygon class="st30" points="375.3,381.1 400.2,395.5 400.2,381.5 375.3,367.1 						"/>
						<path class="st31" d="M375.3,380.9l8.3-2.5l-8.3-11.2v-0.1l0.2,0.1l12.2,16.4l12.2-2.3l0.2,0.1v0.1l-8.3,1.6l8.3,12.1v0.2
							l-0.2-0.1l-8.4-12.1l-3.8,0.7c-0.1,0-0.1-0.1-0.1-0.1l-3.8-5.1l-8.4,2.5l-0.2-0.1V380.9z"/>
					</g>
					
						<linearGradient id="SVGID_00000107570620822318795420000008342335732200465849_" gradientUnits="userSpaceOnUse" x1="333.2818" y1="375.4492" x2="357.7704" y2="375.4492" gradientTransform="matrix(-1 0 0 1 733.2587 0)">
						<stop  offset="0" style="stop-color:#3F0ADF"/>
						<stop  offset="0.1536" style="stop-color:#4714E0"/>
						<stop  offset="0.4166" style="stop-color:#5D30E4"/>
						<stop  offset="0.7548" style="stop-color:#7F5CEB"/>
						<stop  offset="1" style="stop-color:#9C80F0"/>
					</linearGradient>
					<polygon style="opacity:0.2;fill:url(#SVGID_00000107570620822318795420000008342335732200465849_);" points="400,381.4 
						387.7,383.7 375.5,367.2 					"/>
					<path class="st33" d="M383.8,378.7l3.8,5.1c0,0,0,0.1,0.1,0.1c0.1,0,3.9-0.7,3.9-0.7l8.4,12.1l-24.5-14.2L383.8,378.7z"/>
				</g>
			</g>
			<g>
				<g>
					<g>
						<polygon class="st30" points="524.8,334.5 544.6,345.9 544.6,334.8 524.8,323.4 						"/>
						<path class="st31" d="M524.8,334.4l6.6-2l-6.6-8.9v-0.1l0.2,0.1l9.7,13l9.7-1.8l0.2,0.1v0.1l-6.6,1.2l6.6,9.6v0.1l-0.1-0.1
							l-6.6-9.6l-3,0.6c-0.1-0.1-3.2-4.1-3.2-4.1l-6.6,2l-0.1-0.1V334.4z"/>
					</g>
					
						<linearGradient id="SVGID_00000053509584368790855500000009875792356281493930_" gradientUnits="userSpaceOnUse" x1="188.8528" y1="330.0038" x2="208.2742" y2="330.0038" gradientTransform="matrix(-1 0 0 1 733.2587 0)">
						<stop  offset="0" style="stop-color:#3F0ADF"/>
						<stop  offset="0.1536" style="stop-color:#4714E0"/>
						<stop  offset="0.4166" style="stop-color:#5D30E4"/>
						<stop  offset="0.7548" style="stop-color:#7F5CEB"/>
						<stop  offset="1" style="stop-color:#9C80F0"/>
					</linearGradient>
					<polygon style="opacity:0.2;fill:url(#SVGID_00000053509584368790855500000009875792356281493930_);" points="544.4,334.7 
						534.7,336.5 525,323.5 					"/>
					<path class="st33" d="M531.6,332.6l3,4.1c0.1,0.1,3.2-0.5,3.2-0.5l6.6,9.6L525,334.6L531.6,332.6z"/>
				</g>
			</g>
			<g>
				<g>
					<g>
						<polygon class="st30" points="495.2,401.4 515,412.8 515,401.7 495.2,390.3 						"/>
						<path class="st31" d="M495.2,401.3l6.6-2l-6.6-8.9v-0.1l0.2,0.1l9.7,13l9.7-1.8l0.2,0.1v0.1l-6.6,1.2l6.6,9.6v0.1l-0.1-0.1
							l-6.6-9.6l-3,0.6c-0.1-0.1-3.2-4.1-3.2-4.1l-6.6,2l-0.1-0.1V401.3z"/>
					</g>
					
						<linearGradient id="SVGID_00000041297535117102503670000000247669966482813580_" gradientUnits="userSpaceOnUse" x1="218.4578" y1="396.9126" x2="237.8791" y2="396.9126" gradientTransform="matrix(-1 0 0 1 733.2587 0)">
						<stop  offset="0" style="stop-color:#3F0ADF"/>
						<stop  offset="0.1536" style="stop-color:#4714E0"/>
						<stop  offset="0.4166" style="stop-color:#5D30E4"/>
						<stop  offset="0.7548" style="stop-color:#7F5CEB"/>
						<stop  offset="1" style="stop-color:#9C80F0"/>
					</linearGradient>
					<polygon style="opacity:0.2;fill:url(#SVGID_00000041297535117102503670000000247669966482813580_);" points="514.8,401.6 
						505.1,403.4 495.4,390.4 					"/>
					<path class="st33" d="M502,399.5l3,4.1c0.1,0.1,3.2-0.5,3.2-0.5l6.6,9.6l-19.4-11.2L502,399.5z"/>
				</g>
			</g>
			<g>
				<g>
					<g>
						<polygon class="st30" points="372.3,336.1 392,347.5 392,336.4 372.3,325 						"/>
						<path class="st31" d="M372.3,336l6.6-2l-6.6-8.9V325l0.2,0.1l9.7,13l9.7-1.8l0.2,0.1v0.1l-6.6,1.2l6.6,9.6v0.1l-0.1-0.1
							l-6.6-9.6l-3,0.6c-0.1-0.1-3.2-4.1-3.2-4.1l-6.6,2l-0.1-0.1V336z"/>
					</g>
					
						<linearGradient id="SVGID_00000085958835718059204320000018284906981457817268_" gradientUnits="userSpaceOnUse" x1="341.4043" y1="331.6311" x2="360.8255" y2="331.6311" gradientTransform="matrix(-1 0 0 1 733.2587 0)">
						<stop  offset="0" style="stop-color:#3F0ADF"/>
						<stop  offset="0.1536" style="stop-color:#4714E0"/>
						<stop  offset="0.4166" style="stop-color:#5D30E4"/>
						<stop  offset="0.7548" style="stop-color:#7F5CEB"/>
						<stop  offset="1" style="stop-color:#9C80F0"/>
					</linearGradient>
					<polygon style="opacity:0.2;fill:url(#SVGID_00000085958835718059204320000018284906981457817268_);" points="391.9,336.3 
						382.1,338.1 372.4,325.1 					"/>
					<path class="st33" d="M379,334.2l3,4.1c0.1,0.1,3.2-0.5,3.2-0.5l6.6,9.6l-19.4-11.2L379,334.2z"/>
				</g>
			</g>
			<g>
				<g>
					<g>
						<polygon class="st30" points="493.5,355.9 518.4,370.2 518.4,356.2 493.5,341.9 						"/>
						<path class="st31" d="M493.5,355.7l8.3-2.5l-8.3-11.2v-0.1l0.2,0.1l12.2,16.4l12.2-2.3l0.2,0.1v0.1L510,358l8.3,12.1v0.2
							l-0.2-0.1l-8.4-12.1l-3.8,0.7c-0.1,0-0.1-0.1-0.1-0.1l-3.8-5.1l-8.4,2.5l-0.2-0.1V355.7z"/>
					</g>
					
						<linearGradient id="SVGID_00000175319199714736060630000003668835287982182314_" gradientUnits="userSpaceOnUse" x1="215.0642" y1="350.2195" x2="239.5528" y2="350.2195" gradientTransform="matrix(-1 0 0 1 733.2587 0)">
						<stop  offset="0" style="stop-color:#3F0ADF"/>
						<stop  offset="0.1536" style="stop-color:#4714E0"/>
						<stop  offset="0.4166" style="stop-color:#5D30E4"/>
						<stop  offset="0.7548" style="stop-color:#7F5CEB"/>
						<stop  offset="1" style="stop-color:#9C80F0"/>
					</linearGradient>
					<polygon style="opacity:0.2;fill:url(#SVGID_00000175319199714736060630000003668835287982182314_);" points="518.2,356.1 
						506,358.4 493.7,342 					"/>
					<path class="st33" d="M502,353.5l3.8,5.1c0,0,0,0.1,0.1,0.1c0.1,0,3.9-0.7,3.9-0.7l8.4,12.1L493.7,356L502,353.5z"/>
				</g>
			</g>
			<g>
				<g>
					<g>
						<polygon class="st30" points="499.3,286.6 524.1,301 524.1,287 499.3,272.7 						"/>
						<path class="st31" d="M499.3,286.5l8.3-2.5l-8.3-11.2v-0.1l0.2,0.1l12.2,16.4l12.2-2.3l0.2,0.1v0.1l-8.3,1.6l8.3,12.1v0.2
							l-0.2-0.1l-8.4-12.1l-3.8,0.7c-0.1,0-0.1-0.1-0.1-0.1l-3.8-5.1l-8.4,2.5l-0.2-0.1V286.5z"/>
					</g>
					
						<linearGradient id="SVGID_00000081632067520874413890000013794553388009314731_" gradientUnits="userSpaceOnUse" x1="209.3114" y1="280.988" x2="233.8" y2="280.988" gradientTransform="matrix(-1 0 0 1 733.2587 0)">
						<stop  offset="0" style="stop-color:#3F0ADF"/>
						<stop  offset="0.1536" style="stop-color:#4714E0"/>
						<stop  offset="0.4166" style="stop-color:#5D30E4"/>
						<stop  offset="0.7548" style="stop-color:#7F5CEB"/>
						<stop  offset="1" style="stop-color:#9C80F0"/>
					</linearGradient>
					<polygon style="opacity:0.2;fill:url(#SVGID_00000081632067520874413890000013794553388009314731_);" points="523.9,286.9 
						511.7,289.2 499.5,272.8 					"/>
					<path class="st33" d="M507.8,284.3l3.8,5.1c0,0,0,0.1,0.1,0.1c0.1,0,3.9-0.7,3.9-0.7l8.4,12.1l-24.5-14.2L507.8,284.3z"/>
				</g>
			</g>
		</g>
	</g>
	<g>
		<g>
			<g>
				<path class="st1" d="M507.1,209.8l6.1,3.5v-1.5l-6.1-3.5V209.8z M505.1,207.2l-9.8-5.7v1.5l9.8,5.7V207.2z M493.3,200.4
					l-6.6-3.8v1.5l6.6,3.8V200.4z M484.7,195.4l-14-8.1v1.5l14,8.1V195.4z M502.5,211.2l10.6,6.1v-1.5l-10.6-6.1V211.2z
					 M489.9,203.9l10.6,6.1v-1.5l-10.6-6.1V203.9z M487.9,201.3l-4.4-2.6v1.5l4.4,2.6V201.3z M481.5,197.6l-10.8-6.2v1.5l10.8,6.2
					V197.6z M513.2,219.9l-6.1-3.5v1.5l6.1,3.5V219.9z M505.1,215.3l-9.8-5.7v1.5l9.8,5.7V215.3z M493.3,208.4l-6.6-3.8v1.5l6.6,3.8
					V208.4z M484.7,203.5l-14-8.1v1.5l14,8.1V203.5z"/>
			</g>
		</g>
		<g>
			<g>
				<path class="st1" d="M542.8,265.8l3.7,2.2v-1.5l-3.7-2.2V265.8z M540.8,263.2l-6.5-3.7v1.5l6.5,3.7V263.2z M532.3,258.3
					l-7.6-4.4v1.5l7.6,4.4V258.3z M538.2,267.3l8.3,4.8v-1.5l-8.3-4.8V267.3z M528.9,261.9l7.3,4.2v-1.5l-7.3-4.2V261.9z
					 M526.9,259.2l-2.3-1.3v1.5l2.3,1.3V259.2z M546.5,274.6l-3.7-2.2v1.5l3.7,2.2V274.6z M540.8,271.3l-6.5-3.7v1.5l6.5,3.7V271.3z
					 M532.3,266.4l-7.8-4.5v1.5l7.8,4.5V266.4z"/>
			</g>
		</g>
		<g>
			<g>
				<path class="st1" d="M260.2,137l10.9,6.3v-1.5l-10.9-6.3V137z M243.9,127.6l14.2,8.2v-1.5l-14.2-8.2V127.6z M264.9,143.8
					l6.3,3.6v-1.5l-6.3-3.6V143.8z M252.7,136.8l10.1,5.8v-1.5l-10.1-5.8V136.8z M250.7,134.1l-6.8-3.9v1.5l6.8,3.9V134.1z
					 M260.2,145.3l10.9,6.3v-1.5l-10.9-6.3V145.3z M243.9,135.9l14.2,8.2v-1.5l-14.2-8.2V135.9z M264.9,152.1l6.3,3.6v-1.5l-6.3-3.6
					V152.1z M262.8,149.4l-10.1-5.8v1.5l10.1,5.8V149.4z M250.7,142.4l-6.8-3.9v1.5l6.8,3.9V142.4z M260.2,153.6l10.9,6.3v-1.5
					l-10.9-6.3V153.6z M243.9,144.1l14.2,8.2v-1.5l-14.2-8.2V144.1z M271.1,162.5l-6.3-3.6v1.5l6.3,3.6V162.5z M262.8,157.7
					l-10.1-5.8v1.5l10.1,5.8V157.7z M250.7,150.7l-6.8-3.9v1.5l6.8,3.9V150.7z"/>
			</g>
		</g>
		<g>
			<g>
				<path class="st1" d="M260.2,171l10.9,6.3v-1.5l-10.9-6.3V171z M243.9,161.6l14.2,8.2v-1.5l-14.2-8.2V161.6z M264.9,177.8
					l6.3,3.6v-1.5l-6.3-3.6V177.8z M252.7,170.8l10.1,5.8v-1.5l-10.1-5.8V170.8z M250.7,168.1l-6.8-3.9v1.5l6.8,3.9V168.1z
					 M260.2,179.3l10.9,6.3v-1.5l-10.9-6.3V179.3z M243.9,169.9l14.2,8.2v-1.5l-14.2-8.2V169.9z M264.9,186.1l6.3,3.6v-1.5l-6.3-3.6
					V186.1z M262.8,183.4l-10.1-5.8v1.5l10.1,5.8V183.4z M250.7,176.4l-6.8-3.9v1.5l6.8,3.9V176.4z M260.2,187.6l10.9,6.3v-1.5
					l-10.9-6.3V187.6z M243.9,178.2l14.2,8.2v-1.5l-14.2-8.2V178.2z M271.1,196.5l-6.3-3.6v1.5l6.3,3.6V196.5z M262.8,191.7
					l-10.1-5.8v1.5l10.1,5.8V191.7z M250.7,184.7l-6.8-3.9v1.5l6.8,3.9V184.7z"/>
			</g>
		</g>
		<g>
			<g>
				<path class="st1" d="M503.3,230.3l10.9,6.3v-1.5l-10.9-6.3V230.3z M490.3,222.8l10.9,6.3v-1.5l-10.9-6.3V222.8z M483.7,218.9
					l4.6,2.6V220l-4.6-2.6V218.9z M470.6,209.8v1.5l11.1,6.4v-1.5L470.6,209.8z M508,237.1l6.3,3.6v-1.5l-6.3-3.6V237.1z
					 M495.9,230.1l10.1,5.8v-1.5l-10.1-5.8V230.1z M493.8,227.4l-6.8-3.9v1.5l6.8,3.9V227.4z M485,222.3l-14.4-8.3v1.5l14.4,8.3
					V222.3z M503.3,238.6l10.9,6.3v-1.5l-10.9-6.3V238.6z M490.3,231.1l10.9,6.3v-1.5l-10.9-6.3V231.1z M483.7,227.2l4.6,2.6v-1.5
					l-4.6-2.6V227.2z M481.7,224.5l-11.1-6.4v1.5l11.1,6.4V224.5z M508,245.4l6.3,3.6v-1.5l-6.3-3.6V245.4z M506,242.7l-10.1-5.8
					v1.5l10.1,5.8V242.7z M493.8,235.7l-6.8-3.9v1.5l6.8,3.9V235.7z M485,230.6l-14.4-8.3v1.5l14.4,8.3V230.6z M503.3,246.9
					l10.9,6.3v-1.5l-10.9-6.3V246.9z M490.3,239.3l10.9,6.3v-1.5l-10.9-6.3V239.3z M488.3,236.6l-4.6-2.6v1.5l4.6,2.6V236.6z
					 M481.7,232.8l-11.1-6.4v1.5l11.1,6.4V232.8z M514.3,255.8l-6.3-3.6v1.5l6.3,3.6V255.8z M506,251l-10.1-5.8v1.5l10.1,5.8V251z
					 M493.8,244l-6.8-3.9v1.5l6.8,3.9V244z M485,238.9l-14.4-8.3v1.5l14.4,8.3V238.9z"/>
			</g>
		</g>
	</g>
</g>
</svg>
