<?xml version="1.0" encoding="utf-8"?>
<!-- Generator: Adobe Illustrator 27.3.1, SVG Export Plug-In . SVG Version: 6.00 Build 0)  -->
<svg version="1.1" id="Camada_1" xmlns="http://www.w3.org/2000/svg" xmlns:xlink="http://www.w3.org/1999/xlink" x="0px" y="0px"
	 viewBox="0 0 630 630" style="enable-background:new 0 0 630 630;" xml:space="preserve">
<style type="text/css">
	.st0{fill:#F7DF1E;}
</style>
<path class="st0" d="M78.6,35h472.9c24.1,0,43.6,19.5,43.6,43.6v472.9c0,24.1-19.5,43.6-43.6,43.6H78.6C54.5,595,35,575.5,35,551.4
	V78.6C35,54.5,54.5,35,78.6,35z"/>
<path d="M411.2,472.5c11.3,18.4,26,32,51.9,32c21.8,0,35.7-10.9,35.7-26c0-18-14.3-24.4-38.3-34.9l-13.2-5.6
	c-38-16.2-63.2-36.4-63.2-79.3c0-39.5,30.1-69.5,77.1-69.5c33.5,0,57.5,11.6,74.8,42.1l-41,26.3c-9-16.2-18.8-22.6-33.9-22.6
	c-15.4,0-25.2,9.8-25.2,22.6c0,15.8,9.8,22.2,32.4,32l13.2,5.6c44.7,19.2,70,38.7,70,82.7c0,47.4-37.2,73.3-87.2,73.3
	c-48.9,0-80.4-23.3-95.9-53.8L411.2,472.5z M225.3,477.1c8.3,14.7,15.8,27.1,33.9,27.1c17.3,0,28.2-6.8,28.2-33.1V292.1H340v179.6
	c0,54.5-31.9,79.3-78.6,79.3c-42.1,0-66.5-21.8-78.9-48.1L225.3,477.1z"/>
</svg>
