<?xml version="1.0" encoding="utf-8"?>
<!-- Generator: Adobe Illustrator 27.3.1, SVG Export Plug-In . SVG Version: 6.00 Build 0)  -->
<svg version="1.1" id="Camada_1" xmlns="http://www.w3.org/2000/svg" xmlns:xlink="http://www.w3.org/1999/xlink" x="0px" y="0px"
	 viewBox="0 0 100 100" style="enable-background:new 0 0 100 100;" xml:space="preserve">
<style type="text/css">
	.st0{enable-background:new    ;}
	.st1{fill:url(#SVGID_1_);}
	.st2{fill:#197C51;}
	.st3{fill:url(#SVGID_00000172398429599657695020000012769365649737665412_);}
	.st4{fill:#131C18;}
	.st5{fill:#101014;}
	.st6{fill:url(#SVGID_00000062907339285847250980000015892037473678771346_);}
	.st7{fill:url(#SVGID_00000138562374625610964740000005673978394229148322_);}
	.st8{fill:#291B2A;}
	.st9{fill:#093A24;}
	.st10{opacity:0.2;fill:#7AEAB8;enable-background:new    ;}
	.st11{opacity:0.6;fill:#1CB771;}
	.st12{opacity:0.6;fill:#00E187;}
	.st13{fill:#0A2D1C;}
	.st14{clip-path:url(#SVGID_00000153673237138040268430000010711489653764972213_);fill:#AD852C;}
	.st15{opacity:0.3;}
	.st16{fill:#1CB771;}
	.st17{fill:#FFFFF7;}
	.st18{opacity:0.6;}
	.st19{opacity:0.2;fill:#DE78FF;enable-background:new    ;}
	.st20{opacity:0.8;fill:#197C51;enable-background:new    ;}
</style>
<g>
	<g>
		<g>
			<g>
				<g>
					<g>
						<g class="st0">
							
								<linearGradient id="SVGID_1_" gradientUnits="userSpaceOnUse" x1="10.71" y1="75.8456" x2="50.95" y2="75.8456" gradientTransform="matrix(1 0 0 -1 0 102)">
								<stop  offset="0" style="stop-color:#197C51"/>
								<stop  offset="1" style="stop-color:#7AEAB8"/>
							</linearGradient>
							<path class="st1" d="M50.7,14.7c-0.2,0-0.3,0-0.5,0.1L10.7,37.6l0.3,0.1l39.4-22.8c0.2-0.1,0.3-0.1,0.5-0.1L50.7,14.7z"/>
							<path class="st2" d="M19.1,74.4l-8.7-35.2l-0.3-0.1l8.7,35.2c0.1,0.4,0.3,0.6,0.6,0.7l0.3,0.1C19.4,75.1,19.2,74.8,19.1,74.4
								z"/>
							
								<linearGradient id="SVGID_00000082346025567679636430000013912131645149833352_" gradientUnits="userSpaceOnUse" x1="10.0722" y1="63.605" x2="11.0052" y2="63.605" gradientTransform="matrix(1 0 0 -1 0 102)">
								<stop  offset="0" style="stop-color:#1CB771"/>
								<stop  offset="1" style="stop-color:#7AEAB8"/>
							</linearGradient>
							<path style="fill:url(#SVGID_00000082346025567679636430000013912131645149833352_);" d="M11,37.6l-0.3-0.1
								c-0.5,0.3-0.8,1-0.6,1.6l0.3,0.1C10.3,38.6,10.5,37.9,11,37.6z"/>
							<path class="st4" d="M60.2,50.7l-8.7-35.2c-0.2-0.6-0.7-0.9-1.1-0.6L11,37.6c-0.5,0.3-0.8,1-0.6,1.6l8.7,35.2
								c0.1,0.6,0.7,0.9,1.1,0.6l39.4-22.8C60.1,52,60.4,51.3,60.2,50.7z"/>
							<polygon class="st5" points="58.5,48 50.7,15.9 11.3,38.6 19.2,70.7 							"/>
						</g>
						<g class="st0">
							
								<linearGradient id="SVGID_00000179618393932755602960000015794793179683830912_" gradientUnits="userSpaceOnUse" x1="47.5666" y1="21.895" x2="50.3627" y2="21.895" gradientTransform="matrix(1 0 0 -1 0 102)">
								<stop  offset="0" style="stop-color:#1CB771"/>
								<stop  offset="1" style="stop-color:#7AEAB8"/>
							</linearGradient>
							<path style="fill:url(#SVGID_00000179618393932755602960000015794793179683830912_);" d="M19.8,74.6v1.1
								c0,0.2,0.1,0.4,0.4,0.5l27.7,16c0.5,0.3,1.3,0.3,1.7,0l39.2-22.8c0.2-0.1,0.4-0.3,0.4-0.5v-1.1L19.8,74.6z"/>
							
								<linearGradient id="SVGID_00000121994906037060911910000015963009037489509790_" gradientUnits="userSpaceOnUse" x1="19.81" y1="30.8" x2="82.3618" y2="30.8" gradientTransform="matrix(1 0 0 -1 0 102)">
								<stop  offset="0" style="stop-color:#00FF99"/>
								<stop  offset="0.4557" style="stop-color:#7AEAB8"/>
								<stop  offset="1" style="stop-color:#C3F4DE"/>
							</linearGradient>
							<path style="fill:url(#SVGID_00000121994906037060911910000015963009037489509790_);" d="M88.8,67.3l-27.7-16
								c-0.5-0.3-1.3-0.3-1.7,0L20.2,74.1c-0.5,0.3-0.5,0.7,0,1l27.7,16c0.5,0.3,1.3,0.3,1.7,0l39.2-22.8
								C89.3,68,89.3,67.6,88.8,67.3z"/>
						</g>
						<g>
							<path class="st8" d="M56.8,56.2C56.8,56.2,56.8,56.1,56.8,56.2c0-0.1,0-0.1,0-0.1c0-0.1,0-0.2,0.1-0.2l1.8-1.1
								c0.2-0.1,0.5-0.1,0.7,0l1.5,0.9c0.1,0.1,0.1,0.1,0.1,0.2c0,0,0,0,0,0.1s0,0,0,0.1c0,0.1,0,0.2-0.1,0.2l-1.8,1.1
								c-0.2,0.1-0.5,0.1-0.7,0l-1.5-0.9C56.8,56.3,56.8,56.3,56.8,56.2z M59.8,54.7l1.5,0.9c0.2,0.1,0.5,0.1,0.7,0l1.8-1.1
								c0.1-0.1,0.1-0.1,0.1-0.2c0,0,0,0,0-0.1s0,0,0-0.1c0-0.1,0-0.2-0.1-0.2l-1.5-0.9c-0.2-0.1-0.5-0.1-0.7,0l-1.8,1.1
								c-0.1,0.1-0.1,0.1-0.1,0.2c0,0,0,0,0,0.1s0,0,0,0.1C59.7,54.5,59.7,54.6,59.8,54.7z M53.9,58.1l1.5,0.9
								c0.2,0.1,0.5,0.1,0.7,0l1.8-1.1c0.1-0.1,0.1-0.1,0.1-0.2c0,0,0,0,0-0.1s0,0,0-0.1c0-0.1,0-0.2-0.1-0.2l-1.5-0.9
								c-0.2-0.1-0.5-0.1-0.7,0l-1.8,1.1c-0.1,0.1-0.1,0.1-0.1,0.2c0,0,0,0,0,0.1s0,0,0,0.1C53.8,58,53.8,58,53.9,58.1z M31.6,77.2
								l1.5,0.9c0.2,0.1,0.5,0.1,0.7,0l1.8-1.1c0.1-0.1,0.1-0.1,0.1-0.2c0,0,0,0,0-0.1s0,0,0-0.1c0-0.1,0-0.2-0.1-0.2l-1.5-0.9
								c-0.2-0.1-0.5-0.1-0.7,0l-1.8,1.1c-0.1,0.1-0.1,0.1-0.1,0.2c0,0,0,0,0,0.1s0,0,0,0.1C31.5,77,31.5,77.1,31.6,77.2z
								 M38.1,67.2l1.5,0.9c0.2,0.1,0.5,0.1,0.7,0l1.8-1.1c0.1-0.1,0.1-0.1,0.1-0.2c0,0,0,0,0-0.1s0,0,0-0.1c0-0.1,0-0.2-0.1-0.2
								l-1.5-0.9c-0.2-0.1-0.5-0.1-0.7,0l-1.8,1.1C38,66.7,38,66.8,38,66.9c0,0,0,0,0,0.1s0,0,0,0.1C38,67.1,38,67.2,38.1,67.2z
								 M44,63.8l1.5,0.9c0.2,0.1,0.5,0.1,0.7,0l1.8-1.1c0.1-0.1,0.1-0.1,0.1-0.2c0,0,0,0,0-0.1s0,0,0-0.1c0-0.1,0-0.2-0.1-0.2
								l-1.5-0.9c-0.2-0.1-0.5-0.1-0.7,0L44,63.2c-0.1,0.1-0.1,0.1-0.1,0.2c0,0,0,0,0,0.1s0,0,0,0.1C43.9,63.7,43.9,63.7,44,63.8z
								 M50,60.4l1.5,0.9c0.2,0.1,0.5,0.1,0.7,0l2.8-1.6c0.1-0.1,0.1-0.1,0.1-0.2c0,0,0,0,0-0.1s0,0,0-0.1c0-0.1,0-0.2-0.1-0.2
								l-1.5-0.9c-0.2-0.1-0.5-0.1-0.7,0L50,59.8c-0.1,0.1-0.1,0.1-0.1,0.2c0,0,0,0,0,0.1s0,0,0,0.1C49.8,60.2,49.8,60.3,50,60.4z
								 M47,62.1l1.5,0.9c0.2,0.1,0.5,0.1,0.7,0l1.8-1.1c0.1-0.1,0.1-0.1,0.1-0.2c0,0,0,0,0-0.1s0,0,0-0.1c0-0.1,0-0.2-0.1-0.2
								l-1.5-0.9c-0.2-0.1-0.5-0.1-0.7,0L47,61.5c-0.1,0.1-0.1,0.1-0.1,0.2c0,0,0,0,0,0.1s0,0,0,0.1C46.9,62,46.9,62,47,62.1z
								 M41.1,65.5l1.5,0.9c0.2,0.1,0.5,0.1,0.7,0l1.8-1.1c0.1-0.1,0.1-0.1,0.1-0.2c0,0,0,0,0-0.1s0,0,0-0.1c0-0.1,0-0.2-0.1-0.2
								l-1.5-0.9c-0.2-0.1-0.5-0.1-0.7,0L41.1,65C41,65,40.9,65.1,41,65.2c0,0,0,0,0,0.1s0,0,0,0.1C40.9,65.4,41,65.4,41.1,65.5z
								 M53.7,61.4l1.5,0.9c0.2,0.1,0.5,0.1,0.7,0l1.8-1.1c0.1-0.1,0.1-0.1,0.1-0.2c0,0,0,0,0-0.1s0,0,0-0.1c0-0.1,0-0.2-0.1-0.2
								l-1.5-0.9c-0.2-0.1-0.5-0.1-0.7,0l-1.8,1.1c-0.1,0.1-0.1,0.1-0.1,0.2c0,0,0,0,0,0.1s0,0,0,0.1C53.5,61.2,53.6,61.3,53.7,61.4
								z M30,75.1l1.5,0.9c0.2,0.1,0.5,0.1,0.7,0l1.8-1.1c0.1-0.1,0.1-0.1,0.1-0.2c0,0,0,0,0-0.1s0,0,0-0.1c0-0.1,0-0.2-0.1-0.2
								l-1.5-0.9c-0.2-0.1-0.5-0.1-0.6,0L30,74.5c-0.1,0.1-0.1,0.1-0.1,0.2c0,0,0,0,0,0.1s0,0,0,0.1C29.9,74.9,29.9,75,30,75.1z
								 M50.7,63.1l1.5,0.9c0.2,0.1,0.5,0.1,0.7,0l1.8-1.1c0.1-0.1,0.1-0.1,0.1-0.2c0,0,0,0,0-0.1s0,0,0-0.1c0-0.1,0-0.2-0.1-0.2
								l-1.5-0.9c-0.2-0.1-0.5-0.1-0.7,0l-1.8,1.1c-0.1,0.1-0.1,0.1-0.1,0.2c0,0,0,0,0,0.1s0,0,0,0.1C50.6,62.9,50.6,63,50.7,63.1z
								 M47.8,64.8l1.5,0.9c0.2,0.1,0.5,0.1,0.7,0l1.8-1.1c0.1-0.1,0.1-0.1,0.1-0.2c0,0,0,0,0-0.1s0,0,0-0.1c0-0.1,0-0.2-0.1-0.2
								l-1.5-0.9c-0.2-0.1-0.5-0.1-0.7,0l-1.8,1.1c-0.1,0.1-0.1,0.1-0.1,0.2c0,0,0,0,0,0.1s0,0,0,0.1C47.6,64.7,47.7,64.7,47.8,64.8
								z M44.8,66.5l1.5,0.9c0.2,0.1,0.5,0.1,0.7,0l1.8-1.1c0.1-0.1,0.1-0.1,0.1-0.2c0,0,0,0,0-0.1s0,0,0-0.1c0-0.1,0-0.2-0.1-0.2
								l-1.5-0.9c-0.2-0.1-0.5-0.1-0.7,0l-1.8,1.1c-0.1,0.1-0.1,0.1-0.1,0.2c0,0,0,0,0,0.1s0,0,0,0.1C44.7,66.4,44.7,66.4,44.8,66.5
								z M33,73.3l1.5,0.9c0.2,0.1,0.5,0.1,0.7,0l1.8-1.1c0.1-0.1,0.1-0.1,0.1-0.2c0,0,0,0,0-0.1s0,0,0-0.1c0-0.1,0-0.2-0.1-0.2
								l-1.5-0.9c-0.2-0.1-0.5-0.1-0.6,0L33,72.8c-0.1,0.1-0.1,0.1-0.1,0.2c0,0,0,0,0,0.1s0,0,0,0.1C32.8,73.2,32.8,73.3,33,73.3z
								 M35.9,71.6l1.5,0.9c0.2,0.1,0.5,0.1,0.7,0l1.8-1.1c0.1-0.1,0.1-0.1,0.1-0.2c0,0,0,0,0-0.1s0,0,0-0.1c0-0.1,0-0.2-0.1-0.2
								c-2.3-1.3-1.5-1.3-4,0.2c-0.1,0.1-0.1,0.1-0.1,0.2c0,0,0,0,0,0.1s0,0,0,0.1C35.8,71.5,35.8,71.6,35.9,71.6z M38.9,69.9
								l1.5,0.9c0.2,0.1,0.5,0.1,0.7,0l1.8-1.1c0.1-0.1,0.1-0.1,0.1-0.2c0,0,0,0,0-0.1s0,0,0-0.1c0-0.1,0-0.2-0.1-0.2l-1.5-0.9
								c-0.2-0.1-0.5-0.1-0.7,0l-1.8,1.1c-0.1,0.1-0.1,0.1-0.1,0.2c0,0,0,0,0,0.1s0,0,0,0.1C38.7,69.8,38.8,69.9,38.9,69.9z
								 M41.8,68.2c1.5,0.9,1.8,1.1,2.2,0.9l1.8-1.1C46,68,46,67.9,46,67.8c0,0,0,0,0-0.1s0,0,0-0.1c0-0.1,0-0.2-0.1-0.2l-1.5-0.9
								c-0.2-0.1-0.5-0.1-0.7,0l-1.8,1.1c-0.1,0.1-0.1,0.1-0.1,0.2c0,0,0,0,0,0.1s0,0,0,0.1C41.7,68.1,41.7,68.2,41.8,68.2z
								 M36.5,79.5C36.5,79.5,36.5,79.4,36.5,79.5c0-0.1,0-0.1,0-0.1c0-0.1,0-0.2-0.1-0.2l-1.5-0.9c-0.2-0.1-0.5-0.1-0.7,0l-2.8,1.6
								c-0.1,0.1-0.1,0.1-0.1,0.2c0,0,0,0,0,0.1s0,0,0,0.1c0,0.1,0,0.2,0.1,0.2l1.5,0.9c0.2,0.1,0.5,0.1,0.7,0l2.8-1.6
								C36.5,79.6,36.6,79.6,36.5,79.5z M32.8,78.5C32.8,78.5,32.8,78.4,32.8,78.5c0-0.1,0-0.1,0-0.1c0-0.1,0-0.2-0.1-0.2l-1.5-0.9
								c-0.2-0.1-0.5-0.1-0.6,0l-1.8,1.1c-0.1,0.1-0.1,0.1-0.1,0.2c0,0,0,0,0,0.1s0,0,0,0.1c0,0.1,0,0.2,0.1,0.2l1.5,0.9
								c0.2,0.1,0.5,0.1,0.6,0l1.8-1.1C32.8,78.6,32.8,78.6,32.8,78.5z M35.2,68.9c2.2,1.3,1.5,1.3,4-0.2c0.1-0.1,0.1-0.1,0.1-0.2
								c0,0,0,0,0-0.1s0,0,0-0.1c0-0.1,0-0.2-0.1-0.2l-1.5-0.9c-0.2-0.1-0.5-0.1-0.7,0l-1.8,1.1c-0.1,0.1-0.1,0.1-0.1,0.2
								c0,0,0,0,0,0.1s0,0,0,0.1C35,68.8,35,68.9,35.2,68.9z M66.2,62.4C66.2,62.4,66.2,62.4,66.2,62.4c0-0.1,0-0.1,0-0.1
								c0-0.1,0-0.2-0.1-0.2l-1.5-0.9c-0.2-0.1-0.5-0.1-0.7,0L62,62.2c-0.1,0.1-0.1,0.1-0.1,0.2c0,0,0,0,0,0.1s0,0,0,0.1
								c0,0.1,0,0.2,0.1,0.2l1.5,0.9c0.2,0.1,0.5,0.1,0.7,0l1.8-1.1C66.2,62.6,66.2,62.5,66.2,62.4z M31.2,76.4
								C31.2,76.4,31.2,76.3,31.2,76.4c0-0.1,0-0.1,0-0.1c0-0.1,0-0.2-0.1-0.2l-1.5-0.9c-0.2-0.1-0.5-0.1-0.6,0l-2.8,1.6
								c-0.1,0.1-0.1,0.1-0.1,0.2c0,0,0,0,0,0.1s0,0,0,0.1c0,0.1,0,0.2,0.1,0.2l1.5,0.9c0.2,0.1,0.5,0.1,0.6,0l2.8-1.6
								C31.1,76.5,31.2,76.4,31.2,76.4z M32.2,70.6l1.5,0.9c0.2,0.1,0.5,0.1,0.7,0l1.8-1.1c0.1-0.1,0.1-0.1,0.1-0.2c0,0,0,0,0-0.1
								s0,0,0-0.1c0-0.1,0-0.2-0.1-0.2L34.7,69c-0.2-0.1-0.5-0.1-0.7,0l-1.8,1.1c-0.1,0.1-0.1,0.1-0.1,0.2c0,0,0,0,0,0.1s0,0,0,0.1
								C32.1,70.5,32.1,70.6,32.2,70.6z M29.2,72.3l1.5,0.9c0.2,0.1,0.5,0.1,0.6,0l1.8-1.1c0.1-0.1,0.1-0.1,0.1-0.2c0,0,0,0,0-0.1
								s0,0,0-0.1c0-0.1,0-0.2-0.1-0.2l-1.5-0.9c-0.2-0.1-0.5-0.1-0.6,0l-1.8,1.1c-0.1,0.1-0.1,0.1-0.1,0.2c0,0,0,0,0,0.1s0,0,0,0.1
								C29.1,72.2,29.1,72.3,29.2,72.3z M27.5,75.4C27.5,75.4,27.5,75.3,27.5,75.4c0-0.1,0-0.1,0-0.1c0-0.1,0-0.2-0.1-0.2l-1.5-0.9
								c-0.2-0.1-0.5-0.1-0.6,0l-1.8,1.1c-0.1,0.1-0.1,0.1-0.1,0.2c0,0,0,0,0,0.1s0,0,0,0.1c0,0.1,0,0.2,0.1,0.2l1.5,0.9
								c0.2,0.1,0.5,0.1,0.6,0l1.8-1.1C27.4,75.5,27.5,75.4,27.5,75.4z M26.3,74.1l1.5,0.9c0.2,0.1,0.5,0.1,0.6,0l1.8-1.1
								c0.1-0.1,0.1-0.1,0.1-0.2c0,0,0,0,0-0.1s0,0,0-0.1c0-0.1,0-0.2-0.1-0.2l-1.5-0.9c-0.2-0.1-0.5-0.1-0.6,0l-1.8,1.1
								c-0.1,0.1-0.1,0.1-0.1,0.2c0,0,0,0,0,0.1s0,0,0,0.1C26.1,73.9,26.2,74,26.3,74.1z M74.8,60.4c0-0.1,0-0.2-0.1-0.2l-1.5-0.9
								c-0.2-0.1-0.5-0.1-0.7,0l-1.8,1.1c-0.1,0.1-0.1,0.1-0.1,0.2c0,0,0,0,0,0.1s0,0,0,0.1c0,0.1,0,0.2,0.1,0.2l1.5,0.9
								c0.2,0.1,0.5,0.1,0.7,0l1.8-1.1c0.1-0.1,0.1-0.1,0.1-0.2C74.8,60.5,74.8,60.5,74.8,60.4C74.8,60.5,74.8,60.4,74.8,60.4z
								 M63.1,63.8l-1.5-0.9c-0.2-0.1-0.5-0.1-0.7,0L59,63.9c-0.1,0.1-0.1,0.1-0.1,0.2c0,0,0,0,0,0.1s0,0,0,0.1c0,0.1,0,0.2,0.1,0.2
								l1.5,0.9c0.2,0.1,0.5,0.1,0.7,0l1.8-1.1c0.1-0.1,0.1-0.1,0.1-0.2c0,0,0,0,0-0.1s0,0,0-0.1C63.2,63.9,63.2,63.8,63.1,63.8z
								 M69,60.3l-1.5-0.9c-0.2-0.1-0.5-0.1-0.7,0L65,60.5c-0.1,0.1-0.1,0.1-0.1,0.2c0,0,0,0,0,0.1s0,0,0,0.1c0,0.1,0,0.2,0.1,0.2
								l1.5,0.9c0.2,0.1,0.5,0.1,0.7,0l1.8-1.1c0.1-0.1,0.1-0.1,0.1-0.2c0,0,0,0,0-0.1s0,0,0-0.1C69.2,60.5,69.1,60.4,69,60.3z
								 M57.2,67.2l-1.5-0.9c-0.2-0.1-0.5-0.1-0.7,0l-1.8,1.1C53,67.4,53,67.5,53,67.6c0,0,0,0,0,0.1s0,0,0,0.1c0,0.1,0,0.2,0.1,0.2
								l1.5,0.9c0.2,0.1,0.5,0.1,0.7,0l1.8-1.1c0.1-0.1,0.1-0.1,0.1-0.2c0,0,0,0,0-0.1s0,0,0-0.1C57.3,67.3,57.2,67.2,57.2,67.2z
								 M67.8,59C67.8,59,67.8,59.1,67.8,59c0,0.1,0,0.1,0,0.1c0,0.1,0,0.2,0.1,0.2l1.5,0.9c0.2,0.1,0.5,0.1,0.7,0l1.8-1.1
								c0.1-0.1,0.1-0.1,0.1-0.2c0,0,0,0,0-0.1s0,0,0-0.1c0-0.1,0-0.2-0.1-0.2l-1.5-0.9c-0.2-0.1-0.5-0.1-0.7,0L68,58.8
								C67.8,58.9,67.8,59,67.8,59z M45.3,74l-1.5-0.9c-0.2-0.1-0.5-0.1-0.7,0l-1.8,1.1c-0.1,0.1-0.1,0.1-0.1,0.2c0,0,0,0,0,0.1
								s0,0,0,0.1c0,0.1,0,0.2,0.1,0.2l1.5,0.9c0.2,0.1,0.5,0.1,0.7,0l1.8-1.1c0.1-0.1,0.1-0.1,0.1-0.2c0,0,0,0,0-0.1s0,0,0-0.1
								C45.5,74.2,45.4,74.1,45.3,74z M51.2,70.6l-1.5-0.9c-0.2-0.1-0.5-0.1-0.7,0l-1.8,1.1c-0.1,0.1-0.1,0.1-0.1,0.2c0,0,0,0,0,0.1
								s0,0,0,0.1c0,0.1,0,0.2,0.1,0.2l1.5,0.9c0.2,0.1,0.5,0.1,0.7,0l1.8-1.1c0.1-0.1,0.1-0.1,0.1-0.2c0,0,0,0,0-0.1s0,0,0-0.1
								C51.4,70.7,51.3,70.7,51.2,70.6z M48.3,72.3l-1.5-0.9c-0.2-0.1-0.5-0.1-0.7,0l-1.8,1.1c-0.1,0.1-0.1,0.1-0.1,0.2
								c0,0,0,0,0,0.1s0,0,0,0.1c0,0.1,0,0.2,0.1,0.2l1.5,0.9c0.2,0.1,0.5,0.1,0.7,0l1.8-1.1c0.1-0.1,0.1-0.1,0.1-0.2c0,0,0,0,0-0.1
								s0,0,0-0.1C48.4,72.4,48.4,72.4,48.3,72.3z M42.3,75.7l-1.5-0.9c-0.2-0.1-0.5-0.1-0.7,0l-1.8,1.1c-0.1,0.1-0.1,0.1-0.1,0.2
								c0,0,0,0,0,0.1s0,0,0,0.1c0,0.1,0,0.2,0.1,0.2l1.5,0.9c0.2,0.1,0.5,0.1,0.7,0l1.8-1.1c0.1-0.1,0.1-0.1,0.1-0.2c0,0,0,0,0-0.1
								s0,0,0-0.1C42.5,75.9,42.5,75.8,42.3,75.7z M39.4,77.4l-1.5-0.9c-0.2-0.1-0.5-0.1-0.7,0l-1.8,1.1c-0.1,0.1-0.1,0.1-0.1,0.2
								c0,0,0,0,0,0.1s0,0,0,0.1c0,0.1,0,0.2,0.1,0.2l1.5,0.9c0.2,0.1,0.5,0.1,0.7,0l1.8-1.1c0.1-0.1,0.1-0.1,0.1-0.2c0,0,0,0,0-0.1
								s0,0,0-0.1C39.5,77.6,39.5,77.5,39.4,77.4z M54.2,68.9L52.6,68c-0.2-0.1-0.5-0.1-0.6,0L50.2,69c-0.1,0.1-0.1,0.1-0.1,0.2
								c0,0,0,0,0,0.1s0,0,0,0.1c0,0.1,0,0.2,0.1,0.2l1.5,0.9c0.2,0.1,0.5,0.1,0.7,0l1.8-1.1c0.1-0.1,0.1-0.1,0.1-0.2c0,0,0,0,0-0.1
								s0,0,0-0.1C54.3,69,54.3,68.9,54.2,68.9z M60.1,65.5l-1.5-0.9c-0.2-0.1-0.5-0.1-0.7,0l-1.8,1.1c-0.1,0.1-0.1,0.1-0.1,0.2
								c0,0,0,0,0,0.1s0,0,0,0.1c0,0.1,0,0.2,0.1,0.2l1.5,0.9c0.2,0.1,0.5,0.1,0.7,0l1.8-1.1c0.1-0.1,0.1-0.1,0.1-0.2c0,0,0,0,0-0.1
								s0,0,0-0.1C60.2,65.6,60.2,65.5,60.1,65.5z M44,77.8l-1.5-0.9c-0.2-0.1-0.5-0.1-0.7,0L40,78c-0.1,0.1-0.1,0.1-0.1,0.2
								c0,0,0,0,0,0.1s0,0,0,0.1c0,0.1,0,0.2,0.1,0.2l1.5,0.9c0.2,0.1,0.5,0.1,0.7,0l1.8-1.1c0.1-0.1,0.1-0.1,0.1-0.2c0,0,0,0,0-0.1
								s0,0,0-0.1C44.1,78,44.1,77.9,44,77.8z M47,76.1l-1.5-0.9c-0.2-0.1-0.5-0.1-0.7,0l-1.8,1.1c-0.1,0.1-0.1,0.1-0.1,0.2
								c0,0,0,0,0,0.1s0,0,0,0.1c0,0.1,0,0.2,0.1,0.2l1.5,0.9c0.2,0.1,0.5,0.1,0.7,0l1.8-1.1c0.1-0.1,0.1-0.1,0.1-0.2c0,0,0,0,0-0.1
								s0,0,0-0.1C47.1,76.2,47.1,76.2,47,76.1z M41,79.5l-1.5-0.9c-0.2-0.1-0.5-0.1-0.7,0L37,79.7c-0.1,0.1-0.1,0.1-0.1,0.2
								c0,0,0,0,0,0.1s0,0,0,0.1c0,0.1,0,0.2,0.1,0.2l1.5,0.9c0.2,0.1,0.5,0.1,0.7,0l1.8-1.1c0.1-0.1,0.1-0.1,0.1-0.2c0,0,0,0,0-0.1
								s0,0,0-0.1C41.2,79.7,41.2,79.6,41,79.5z M38.1,81.2l-1.5-0.9c-0.2-0.1-0.5-0.1-0.7,0l-1.8,1.1c-0.1,0.1-0.1,0.1-0.1,0.2
								c0,0,0,0,0,0.1s0,0,0,0.1c0,0.1,0,0.2,0.1,0.2l1.5,0.9c0.2,0.1,0.5,0.1,0.7,0l1.8-1.1c0.1-0.1,0.1-0.1,0.1-0.2c0,0,0,0,0-0.1
								s0,0,0-0.1C38.2,81.4,38.2,81.3,38.1,81.2z M60.3,62.2l-1.5-0.9c-0.2-0.1-0.5-0.1-0.7,0l-2.8,1.6c-0.1,0.1-0.1,0.1-0.1,0.2
								c0,0,0,0,0,0.1s0,0,0,0.1c0,0.1,0,0.2,0.1,0.2l1.5,0.9c0.2,0.1,0.5,0.1,0.7,0l2.8-1.6c0.1-0.1,0.1-0.1,0.1-0.2c0,0,0,0,0-0.1
								s0,0,0-0.1C60.5,62.3,60.4,62.3,60.3,62.2z M65.7,65.3l-1.5-0.9c-0.2-0.1-0.5-0.1-0.7,0L60.7,66c-0.1,0.1-0.1,0.1-0.1,0.2
								c0,0,0,0,0,0.1s0,0,0,0.1c0,0.1,0,0.2,0.1,0.2l1.5,0.9c0.2,0.1,0.5,0.1,0.7,0l2.8-1.6c0.1-0.1,0.1-0.1,0.1-0.2c0,0,0,0,0-0.1
								s0,0,0-0.1C65.8,65.5,65.8,65.4,65.7,65.3z M71.7,61.9L70.2,61c-0.2-0.1-0.5-0.1-0.7,0l-1.8,1.1c-0.1,0.1-0.1,0.1-0.1,0.2
								c0,0,0,0,0,0.1s0,0,0,0.1c0,0.1,0,0.2,0.1,0.2l1.5,0.9c0.2,0.1,0.5,0.1,0.7,0l1.8-1.1c0.1-0.1,0.1-0.1,0.1-0.2c0,0,0,0,0-0.1
								s0,0,0-0.1C71.9,62,71.8,62,71.7,61.9z M68.8,63.6l-1.5-0.9c-0.2-0.1-0.5-0.1-0.7,0l-1.8,1.1c-0.1,0.1-0.1,0.1-0.1,0.2
								c0,0,0,0,0,0.1s0,0,0,0.1c0,0.1,0,0.2,0.1,0.2l1.5,0.9c0.2,0.1,0.5,0.1,0.7,0l1.8-1.1c0.1-0.1,0.1-0.1,0.1-0.2c0,0,0,0,0-0.1
								s0,0,0-0.1C68.9,63.8,68.9,63.7,68.8,63.6z M61.8,67.6l-1.5-0.9c-0.2-0.1-0.5-0.1-0.7,0l-13.7,7.9c-0.1,0.1-0.1,0.1-0.1,0.2
								c0,0,0,0,0,0.1s0,0,0,0.1c0,0.1,0,0.2,0.1,0.2l1.5,0.9c0.2,0.1,0.5,0.1,0.7,0l13.7-7.9c0.1-0.1,0.1-0.1,0.1-0.2
								c0,0,0,0,0-0.1s0,0,0-0.1C62,67.7,61.9,67.6,61.8,67.6z M50.5,67.9L48.9,67c-0.2-0.1-0.5-0.1-0.7,0l-1.8,1.1
								c-0.1,0.1-0.1,0.1-0.1,0.2c0,0,0,0,0,0.1s0,0,0,0.1c0,0.1,0,0.2,0.1,0.2l1.6,0.9c0.2,0.1,0.5,0.1,0.7,0l1.8-1.1
								c0.1-0.1,0.1-0.1,0.1-0.2c0,0,0,0,0-0.1s0,0,0-0.1C50.6,68,50.6,67.9,50.5,67.9z M47.5,69.6L46,68.7c-0.2-0.1-0.5-0.1-0.7,0
								l-1.8,1.1c-0.1,0.1-0.1,0.1-0.1,0.2c0,0,0,0,0,0.1s0,0,0,0.1c0,0.1,0,0.2,0.1,0.2l1.5,0.9c0.2,0.1,0.5,0.1,0.7,0l1.8-1.1
								c0.1-0.1,0.1-0.1,0.1-0.2c0,0,0,0,0-0.1s0,0,0-0.1C47.7,69.7,47.6,69.7,47.5,69.6z M53.4,66.2l-1.5-0.9
								c-0.2-0.1-0.5-0.1-0.7,0l-1.8,1.1c-0.1,0.1-0.1,0.1-0.1,0.2c0,0,0,0,0,0.1s0,0,0,0.1c0,0.1,0,0.2,0.1,0.2l1.5,0.9
								c0.2,0.1,0.5,0.1,0.7,0l1.8-1.1c0.1-0.1,0.1-0.1,0.1-0.2c0,0,0,0,0-0.1s0,0,0-0.1C53.6,66.3,53.5,66.2,53.4,66.2z M62.4,55.9
								C62.4,55.9,62.4,55.9,62.4,55.9c0,0.1,0,0.1,0,0.1c0,0.1,0,0.2,0.1,0.2l1.5,0.9c0.2,0.1,0.5,0.1,0.7,0l1.8-1.1
								c0.1-0.1,0.1-0.1,0.1-0.2c0,0,0,0,0-0.1s0,0,0-0.1c0-0.1,0-0.2-0.1-0.2L65,54.6c-0.2-0.1-0.5-0.1-0.7,0l-1.8,1.1
								C62.4,55.8,62.4,55.8,62.4,55.9z M56.4,64.5l-1.5-0.9c-0.2-0.1-0.5-0.1-0.7,0l-1.8,1.1c-0.1,0.1-0.1,0.1-0.1,0.2
								c0,0,0,0,0,0.1s0,0,0,0.1c0,0.1,0,0.2,0.1,0.2l1.5,0.9c0.2,0.1,0.5,0.1,0.6,0l1.8-1.1c0.1-0.1,0.1-0.1,0.1-0.2c0,0,0,0,0-0.1
								s0,0,0-0.1C56.5,64.6,56.5,64.5,56.4,64.5z M44.6,71.3L43,70.4c-0.2-0.1-0.5-0.1-0.7,0l-1.8,1.1c-0.1,0.1-0.1,0.1-0.1,0.2
								c0,0,0,0,0,0.1s0,0,0,0.1c0,0.1,0,0.2,0.1,0.2l1.5,0.9c0.2,0.1,0.5,0.1,0.7,0l1.8-1.1c0.1-0.1,0.1-0.1,0.1-0.2c0,0,0,0,0-0.1
								s0,0,0-0.1C44.7,71.4,44.7,71.4,44.6,71.3z M38.6,74.7l-1.5-0.9c-0.2-0.1-0.5-0.1-0.6,0l-1.8,1.1c-0.1,0.1-0.1,0.1-0.1,0.2
								c0,0,0,0,0,0.1s0,0,0,0.1c0,0.1,0,0.2,0.1,0.2l1.5,0.9c0.2,0.1,0.5,0.1,0.7,0l1.8-1.1c0.1-0.1,0.1-0.1,0.1-0.2c0,0,0,0,0-0.1
								s0,0,0-0.1C38.8,74.9,38.7,74.8,38.6,74.7z M41.6,73l-1.5-0.9c-0.2-0.1-0.5-0.1-0.7,0l-1.8,1.1c-0.1,0.1-0.1,0.1-0.1,0.2
								c0,0,0,0,0,0.1s0,0,0,0.1c0,0.1,0,0.2,0.1,0.2l1.5,0.9c0.2,0.1,0.5,0.1,0.7,0l1.8-1.1c0.1-0.1,0.1-0.1,0.1-0.2c0,0,0,0,0-0.1
								s0,0,0-0.1C41.7,73.2,41.7,73.1,41.6,73z"/>
							<path class="st9" d="M27.3,75.3l-1.8,1.1c-0.2,0.1-0.5,0.1-0.6,0l-1.5-0.9c-0.2-0.1-0.2-0.3,0-0.4l1.8-1.1
								c0.2-0.1,0.5-0.1,0.6,0l1.5,0.9C27.5,75.1,27.5,75.2,27.3,75.3z M30.3,73.2l-1.5-0.9c-0.2-0.1-0.5-0.1-0.6,0l-1.8,1.1
								c-0.2,0.1-0.2,0.3,0,0.4l1.5,0.9c0.2,0.1,0.5,0.1,0.6,0l1.8-1.1C30.5,73.5,30.5,73.3,30.3,73.2z M33.3,71.5l-1.5-0.9
								c-0.2-0.1-0.5-0.1-0.6,0l-1.8,1.1c-0.2,0.1-0.2,0.3,0,0.4l1.5,0.9c0.2,0.1,0.5,0.1,0.6,0l1.8-1.1
								C33.4,71.8,33.4,71.6,33.3,71.5z M36.2,69.8l-1.5-0.9c-0.2-0.1-0.5-0.1-0.7,0L32.2,70c-0.2,0.1-0.2,0.3,0,0.4l1.5,0.9
								c0.2,0.1,0.5,0.1,0.7,0l1.8-1.1C36.4,70.1,36.4,69.9,36.2,69.8z M39.2,68.1l-1.5-0.9c-0.2-0.1-0.5-0.1-0.7,0l-1.8,1.1
								c-0.2,0.1-0.2,0.3,0,0.4l1.5,0.9c0.2,0.1,0.5,0.1,0.7,0l1.8-1.1C39.4,68.4,39.4,68.2,39.2,68.1z M42.1,66.4l-1.5-0.9
								c-0.2-0.1-0.5-0.1-0.7,0l-1.8,1.1c-0.2,0.1-0.2,0.3,0,0.4l1.5,0.9c0.2,0.1,0.5,0.1,0.7,0l1.8-1.1
								C42.3,66.7,42.3,66.5,42.1,66.4z M45.1,64.7l-1.5-0.9c-0.2-0.1-0.5-0.1-0.7,0l-1.8,1.1c-0.2,0.1-0.2,0.3,0,0.4l1.5,0.9
								c0.2,0.1,0.5,0.1,0.7,0l1.8-1.1C45.3,65,45.3,64.8,45.1,64.7z M48.1,63l-1.5-0.9c-0.2-0.1-0.5-0.1-0.7,0L44,63.2
								c-0.2,0.1-0.2,0.3,0,0.4l1.5,0.9c0.2,0.1,0.5,0.1,0.7,0l1.8-1.1C48.2,63.3,48.2,63.1,48.1,63z M51,61.3l-1.5-0.9
								c-0.2-0.1-0.5-0.1-0.7,0L47,61.5c-0.2,0.1-0.2,0.3,0,0.4l1.5,0.9c0.2,0.1,0.5,0.1,0.7,0l1.8-1.1C51.2,61.5,51.2,61.4,51,61.3
								z M54.9,59l-1.5-0.9c-0.2-0.1-0.5-0.1-0.7,0l-2.8,1.6c-0.2,0.1-0.2,0.3,0,0.4l1.6,0.9c0.2,0.1,0.5,0.1,0.7,0l2.8-1.6
								C55.1,59.3,55.1,59.1,54.9,59z M66.1,62l-1.5-0.9c-0.2-0.1-0.5-0.1-0.7,0L62,62.1c-0.2,0.1-0.2,0.3,0,0.4l1.5,0.9
								c0.2,0.1,0.5,0.1,0.7,0l1.8-1.1C66.2,62.2,66.2,62.1,66.1,62z M69,60.3l-1.5-0.9c-0.2-0.1-0.5-0.1-0.7,0L65,60.4
								c-0.2,0.1-0.2,0.3,0,0.4l1.5,0.9c0.2,0.1,0.5,0.1,0.7,0l1.8-1.1C69.2,60.5,69.2,60.4,69,60.3z M72,58.6l-1.5-0.9
								c-0.2-0.1-0.5-0.1-0.7,0l-1.8,1.1c-0.2,0.1-0.2,0.3,0,0.4l1.5,0.9c0.2,0.1,0.5,0.1,0.7,0l1.8-1.1
								C72.2,58.8,72.2,58.7,72,58.6z M68.8,63.5l-1.5-0.9c-0.2-0.1-0.5-0.1-0.7,0l-1.8,1.1c-0.2,0.1-0.2,0.3,0,0.4l1.5,0.9
								c0.2,0.1,0.5,0.1,0.7,0l1.8-1.1C68.9,63.8,68.9,63.6,68.8,63.5z M71.7,61.8l-1.5-0.9c-0.2-0.1-0.5-0.1-0.7,0L67.7,62
								c-0.2,0.1-0.2,0.3,0,0.4l1.5,0.9c0.2,0.1,0.5,0.1,0.6,0l1.8-1.1C71.9,62.1,71.9,61.9,71.7,61.8z M74.7,60.1l-1.5-0.9
								c-0.2-0.1-0.5-0.1-0.7,0l-1.8,1.1c-0.2,0.1-0.2,0.3,0,0.4l1.5,0.9c0.2,0.1,0.5,0.1,0.7,0l1.8-1.1
								C74.9,60.4,74.9,60.2,74.7,60.1z M31,75.9l-1.5-0.9c-0.2-0.1-0.5-0.1-0.6,0l-2.8,1.6c-0.2,0.1-0.2,0.3,0,0.4l1.5,0.9
								c0.2,0.1,0.5,0.1,0.6,0l2.8-1.6C31.2,76.2,31.2,76.1,31,75.9z M34,74.2l-1.5-0.9c-0.2-0.1-0.5-0.1-0.6,0L30,74.4
								c-0.2,0.1-0.2,0.3,0,0.4l1.5,0.9c0.2,0.1,0.5,0.1,0.7,0l1.8-1.1C34.2,74.5,34.2,74.3,34,74.2z M37,72.5l-1.5-0.9
								c-0.2-0.1-0.5-0.1-0.6,0L33,72.7c-0.2,0.1-0.2,0.3,0,0.4l1.5,0.9c0.2,0.1,0.5,0.1,0.7,0l1.8-1.1C37.2,72.8,37.2,72.6,37,72.5
								z M39.9,70.8l-1.5-0.9c-0.2-0.1-0.5-0.1-0.7,0L35.9,71c-0.2,0.1-0.2,0.3,0,0.4l1.5,0.9c0.2,0.1,0.5,0.1,0.7,0l1.8-1.1
								C40.1,71.1,40.1,70.9,39.9,70.8z M42.9,69.1l-1.5-0.9c-0.2-0.1-0.5-0.1-0.7,0l-1.8,1.1c-0.2,0.1-0.2,0.3,0,0.4l1.5,0.9
								c0.2,0.1,0.5,0.1,0.7,0l1.8-1.1C43.1,69.4,43.1,69.2,42.9,69.1z M45.8,67.4l-1.5-0.9c-0.2-0.1-0.5-0.1-0.7,0l-1.8,1.1
								c-0.2,0.1-0.2,0.3,0,0.4l1.5,0.9c0.2,0.1,0.5,0.1,0.7,0l1.8-1.1C46,67.7,46,67.5,45.8,67.4z M48.8,65.7l-1.5-0.9
								c-0.2-0.1-0.5-0.1-0.7,0l-1.8,1.1c-0.2,0.1-0.2,0.3,0,0.4l1.5,0.9c0.2,0.1,0.5,0.1,0.7,0l1.8-1.1C49,66,49,65.8,48.8,65.7z
								 M51.8,64l-1.5-0.9c-0.2-0.1-0.5-0.1-0.7,0l-1.8,1.1c-0.2,0.1-0.2,0.3,0,0.4l1.5,0.9c0.2,0.1,0.5,0.1,0.7,0l1.8-1.1
								C52,64.2,52,64.1,51.8,64z M54.7,62.3l-1.5-0.9c-0.2-0.1-0.5-0.1-0.7,0l-1.8,1.1c-0.2,0.1-0.2,0.3,0,0.4l1.5,0.9
								c0.2,0.1,0.5,0.1,0.7,0l1.8-1.1C54.9,62.5,54.9,62.4,54.7,62.3z M57.7,60.6l-1.5-0.9c-0.2-0.1-0.5-0.1-0.7,0l-1.8,1.1
								c-0.2,0.1-0.2,0.3,0,0.4l1.5,0.9c0.2,0.1,0.5,0.1,0.7,0l1.8-1.1C57.9,60.8,57.9,60.7,57.7,60.6z M32.7,78.1l-1.5-0.9
								c-0.2-0.1-0.5-0.1-0.6,0l-1.8,1.1c-0.2,0.1-0.2,0.3,0,0.4l1.5,0.9c0.2,0.1,0.5,0.1,0.6,0l1.8-1.1
								C32.9,78.3,32.9,78.2,32.7,78.1z M35.7,76.3l-1.5-0.9c-0.2-0.1-0.5-0.1-0.7,0l-1.8,1.1c-0.2,0.1-0.2,0.3,0,0.4l1.5,0.9
								c0.2,0.1,0.5,0.1,0.7,0l1.8-1.1C35.8,76.6,35.8,76.4,35.7,76.3z M38.6,74.6l-1.5-0.9c-0.2-0.1-0.5-0.1-0.6,0l-1.8,1.1
								c-0.2,0.1-0.2,0.3,0,0.4l1.5,0.9c0.2,0.1,0.5,0.1,0.7,0l1.8-1.1C38.8,74.9,38.8,74.7,38.6,74.6z M41.6,72.9L40.1,72
								c-0.2-0.1-0.5-0.1-0.7,0l-1.8,1.1c-0.2,0.1-0.2,0.3,0,0.4l1.5,0.9c0.2,0.1,0.5,0.1,0.7,0l1.8-1.1
								C41.8,73.2,41.8,73,41.6,72.9z M38.1,81.2l-1.5-0.9c-0.2-0.1-0.5-0.1-0.7,0l-1.8,1.1c-0.2,0.1-0.2,0.3,0,0.4l1.5,0.9
								c0.2,0.1,0.5,0.1,0.7,0l1.8-1.1C38.3,81.4,38.3,81.3,38.1,81.2z M41,79.4l-1.5-0.9c-0.2-0.1-0.5-0.1-0.7,0L37,79.6
								c-0.2,0.1-0.2,0.3,0,0.4l1.5,0.9c0.2,0.1,0.5,0.1,0.7,0l1.8-1.1C41.2,79.7,41.2,79.6,41,79.4z M44,77.7l-1.5-0.9
								c-0.2-0.1-0.5-0.1-0.7,0L40,77.9c-0.2,0.1-0.2,0.3,0,0.4l1.5,0.9c0.2,0.1,0.5,0.1,0.7,0l1.8-1.1C44.2,78,44.2,77.8,44,77.7z
								 M47,76l-1.5-0.9c-0.2-0.1-0.5-0.1-0.7,0l-1.8,1.1c-0.2,0.1-0.2,0.3,0,0.4l1.5,0.9c0.2,0.1,0.5,0.1,0.7,0l1.8-1.1
								C47.1,76.3,47.1,76.1,47,76z M65.7,65.2l-1.5-0.9c-0.2-0.1-0.5-0.1-0.7,0L60.7,66c-0.2,0.1-0.2,0.3,0,0.4l1.5,0.9
								c0.2,0.1,0.5,0.1,0.7,0l2.8-1.6C65.8,65.5,65.8,65.3,65.7,65.2z M44.6,71.2L43,70.3c-0.2-0.1-0.5-0.1-0.7,0l-1.8,1.1
								c-0.2,0.1-0.2,0.3,0,0.4l1.5,0.9c0.2,0.1,0.5,0.1,0.7,0l1.8-1.1C44.7,71.5,44.7,71.3,44.6,71.2z M47.5,69.5L46,68.6
								c-0.2-0.1-0.5-0.1-0.7,0l-1.8,1.1c-0.2,0.1-0.2,0.3,0,0.4l1.5,0.9c0.2,0.1,0.5,0.1,0.7,0l1.8-1.1
								C47.7,69.8,47.7,69.6,47.5,69.5z M50.5,67.8l-1.5-0.9c-0.2-0.1-0.5-0.1-0.7,0L46.5,68c-0.2,0.1-0.2,0.3,0,0.4l1.5,0.9
								c0.2,0.1,0.5,0.1,0.7,0l1.8-1.1C50.7,68.1,50.7,67.9,50.5,67.8z M53.4,66.1l-1.5-0.9c-0.2-0.1-0.5-0.1-0.7,0l-1.8,1.1
								c-0.2,0.1-0.2,0.3,0,0.4l1.5,0.9c0.2,0.1,0.5,0.1,0.7,0l1.8-1.1C53.6,66.4,53.6,66.2,53.4,66.1z M56.4,64.4l-1.5-0.9
								c-0.2-0.1-0.5-0.1-0.7,0l-1.8,1.1c-0.2,0.1-0.2,0.3,0,0.4l1.5,0.9c0.2,0.1,0.5,0.1,0.6,0l1.8-1.1
								C56.6,64.7,56.6,64.5,56.4,64.4z M60.3,62.1l-1.5-0.9c-0.2-0.1-0.5-0.1-0.7,0l-2.8,1.6c-0.2,0.1-0.2,0.3,0,0.4l1.5,0.9
								c0.2,0.1,0.5,0.1,0.7,0l2.8-1.6C60.5,62.4,60.5,62.2,60.3,62.1z M36.4,79.1l-1.5-0.9c-0.2-0.1-0.5-0.1-0.7,0l-2.8,1.6
								c-0.2,0.1-0.2,0.3,0,0.4L33,81c0.2,0.1,0.5,0.1,0.7,0l2.8-1.6C36.6,79.3,36.6,79.2,36.4,79.1z M39.4,77.3l-1.5-0.9
								c-0.2-0.1-0.5-0.1-0.7,0l-1.8,1.1c-0.2,0.1-0.2,0.3,0,0.4l1.5,0.9c0.2,0.1,0.5,0.1,0.7,0l1.8-1.1
								C39.6,77.6,39.6,77.4,39.4,77.3z M42.3,75.6l-1.5-0.9c-0.2-0.1-0.5-0.1-0.7,0l-1.8,1.1c-0.2,0.1-0.2,0.3,0,0.4l1.5,0.9
								c0.2,0.1,0.5,0.1,0.7,0l1.8-1.1C42.5,75.9,42.5,75.7,42.3,75.6z M45.3,73.9L43.8,73c-0.2-0.1-0.5-0.1-0.7,0l-1.8,1.1
								c-0.2,0.1-0.2,0.3,0,0.4l1.5,0.9c0.2,0.1,0.5,0.1,0.7,0l1.8-1.1C45.5,74.2,45.5,74,45.3,73.9z M48.3,72.2l-1.5-0.9
								c-0.2-0.1-0.5-0.1-0.7,0l-1.8,1.1c-0.2,0.1-0.2,0.3,0,0.4l1.5,0.9c0.2,0.1,0.5,0.1,0.7,0l1.8-1.1
								C48.5,72.5,48.5,72.3,48.3,72.2z M61.8,67.5l-1.5-0.9c-0.2-0.1-0.5-0.1-0.7,0l-13.7,7.9c-0.2,0.1-0.2,0.3,0,0.4l1.5,0.9
								c0.2,0.1,0.5,0.1,0.7,0l13.7-7.9C62,67.8,62,67.6,61.8,67.5z M51.2,70.5l-1.5-0.9c-0.2-0.1-0.5-0.1-0.7,0l-1.8,1.1
								c-0.2,0.1-0.2,0.3,0,0.4l1.5,0.9c0.2,0.1,0.5,0.1,0.7,0l1.8-1.1C51.4,70.8,51.4,70.6,51.2,70.5z M54.2,68.8l-1.5-0.9
								c-0.2-0.1-0.5-0.1-0.6,0L50.2,69c-0.2,0.1-0.2,0.3,0,0.4l1.5,0.9c0.2,0.1,0.5,0.1,0.7,0l1.8-1.1
								C54.4,69.1,54.4,68.9,54.2,68.8z M57.2,67.1l-1.5-0.9c-0.2-0.1-0.5-0.1-0.7,0l-1.8,1.1c-0.2,0.1-0.2,0.3,0,0.4l1.5,0.9
								c0.2,0.1,0.5,0.1,0.7,0l1.8-1.1C57.3,67.4,57.3,67.2,57.2,67.1z M60.1,65.4l-1.5-0.9c-0.2-0.1-0.5-0.1-0.7,0l-1.8,1.1
								c-0.2,0.1-0.2,0.3,0,0.4l1.5,0.9c0.2,0.1,0.5,0.1,0.7,0l1.8-1.1C60.3,65.7,60.3,65.5,60.1,65.4z M63.1,63.7l-1.5-0.9
								c-0.2-0.1-0.5-0.1-0.7,0L59,63.8c-0.2,0.1-0.2,0.3,0,0.4l1.5,0.9c0.2,0.1,0.5,0.1,0.7,0l1.8-1.1
								C63.2,63.9,63.2,63.8,63.1,63.7z M58,57.3l-1.5-0.9c-0.2-0.1-0.5-0.1-0.7,0l-1.8,1.1c-0.2,0.1-0.2,0.3,0,0.4l1.5,0.9
								c0.2,0.1,0.5,0.1,0.7,0l1.8-1.1C58.1,57.6,58.1,57.4,58,57.3z M60.9,55.6l-1.5-0.9c-0.2-0.1-0.5-0.1-0.7,0l-1.8,1.1
								c-0.2,0.1-0.2,0.3,0,0.4l1.5,0.9c0.2,0.1,0.5,0.1,0.7,0l1.8-1.1C61.1,55.9,61.1,55.7,60.9,55.6z M63.9,53.9L62.3,53
								c-0.2-0.1-0.5-0.1-0.7,0l-1.8,1.1c-0.2,0.1-0.2,0.3,0,0.4l1.5,0.9c0.2,0.1,0.5,0.1,0.7,0l1.8-1.1
								C64.1,54.2,64.1,54,63.9,53.9z M66.6,55.4L65,54.5c-0.2-0.1-0.5-0.1-0.7,0l-1.8,1.1c-0.2,0.1-0.2,0.3,0,0.4l1.5,0.9
								c0.2,0.1,0.5,0.1,0.7,0l1.8-1.1C66.8,55.7,66.8,55.5,66.6,55.4z"/>
						</g>
						<path class="st10" d="M74.5,74.5l-13.6,7.8c-0.3,0.2-0.8,0.2-1.1,0l-9-5.2c-0.3-0.2-0.3-0.5,0-0.6l13.6-7.8
							c0.3-0.2,0.8-0.2,1.1,0l9,5.2C74.8,74,74.8,74.3,74.5,74.5z"/>
						<path class="st11" d="M50.8,76.7l13.6-7.8c0.3-0.2,0.8-0.2,1.1,0l9,5.2c0.1,0.1,0.2,0.2,0.2,0.2c0-0.1,0-0.3-0.2-0.4l-9-5.2
							c-0.3-0.2-0.8-0.2-1.1,0l-13.6,7.8c-0.2,0.1-0.3,0.3-0.2,0.4C50.6,76.8,50.6,76.7,50.8,76.7z"/>
						<path class="st12" d="M59.8,51.8L21.2,74l-0.1,0l1.3,0.8L61,52.6l0.1,0L59.8,51.8z M22.5,74.7l-1.1-0.7l38.4-22.2l1.2,0.7
							L22.5,74.7z"/>
						<g>
							<path class="st8" d="M64.1,57.6l-2-1.2c-0.2-0.1-0.6-0.1-0.8,0l-4.7,2.7c-0.1,0.1-0.2,0.2-0.2,0.3c0,0,0,0,0,0.1s0,0,0,0.1
								c0,0.1,0,0.2,0.2,0.3l4,2.3c0.2,0.1,0.6,0.1,0.8,0l7.7-4.5c0.1-0.1,0.2-0.2,0.2-0.3c0,0,0,0,0-0.1s0,0,0-0.1
								c0-0.1,0-0.2-0.2-0.3l-1.5-0.9c-0.2-0.1-0.4-0.1-0.5,0l-2.6,1.5C64.4,57.6,64.2,57.6,64.1,57.6z"/>
							<path class="st13" d="M69.2,56.9L67.7,56c-0.2-0.1-0.4-0.1-0.5,0l-2.6,1.5c-0.1,0.1-0.3,0.1-0.4,0l-2-1.2
								c-0.2-0.1-0.6-0.1-0.8,0L56.6,59c-0.2,0.1-0.2,0.3,0,0.5l4,2.3c0.2,0.1,0.6,0.1,0.8,0l7.7-4.5C69.4,57.2,69.4,57,69.2,56.9z"
								/>
						</g>
					</g>
					<g>
						<g>
							<g>
								<path id="SVGID_00000161617255938142217850000004176431533201858987_" class="st8" d="M39.8,87.3l1.6,0.9
									c0.2,0.1,0.3,0,0.3-0.1s-0.2-0.4-0.3-0.5l-1.6-0.9c-0.2-0.1-0.3,0-0.3,0.1C39.5,87,39.7,87.2,39.8,87.3z"/>
							</g>
							<g>
								<defs>
									<path id="SVGID_00000043441721235183683440000007984019852374214845_" d="M39.8,87.3l1.6,0.9c0.2,0.1,0.3,0,0.3-0.1
										s-0.2-0.4-0.3-0.5l-1.6-0.9c-0.2-0.1-0.3,0-0.3,0.1C39.5,87,39.7,87.2,39.8,87.3z"/>
								</defs>
								<clipPath id="SVGID_00000106867380535175340210000004404690254708840117_">
									<use xlink:href="#SVGID_00000043441721235183683440000007984019852374214845_"  style="overflow:visible;"/>
								</clipPath>
								<path style="clip-path:url(#SVGID_00000106867380535175340210000004404690254708840117_);fill:#AD852C;" d="M41.2,88.1
									l0.2,0.1l0.8-0.4L42,87.6L41.2,88.1z M40.8,87.8l0.2,0.1l0.8-0.4l-0.2-0.1L40.8,87.8z M40.3,87.5l0.2,0.1l0.8-0.4L41.1,87
									L40.3,87.5z M39.8,87.2l0.2,0.1l0.8-0.4l-0.2-0.1L39.8,87.2z"/>
							</g>
						</g>
					</g>
				</g>
			</g>
			<g>
				<g class="st15">
					<g>
						<g>
							<g>
								<polygon class="st16" points="59.3,44.1 21.1,66 16.9,38.3 55.1,16.5 								"/>
								<polygon class="st2" points="17.8,39.6 18.5,44.2 55.4,23 54.7,18.4 								"/>
								<polygon class="st2" points="55.1,16.6 17,38.4 16.7,36.7 54.8,14.9 								"/>
							</g>
							<g>
								<polygon class="st9" points="52.3,17.8 51.3,18.3 51.2,17.3 52.1,16.8 								"/>
								<polygon class="st9" points="53.5,17.1 52.5,17.6 52.4,16.7 53.3,16.1 								"/>
								<path class="st17" d="M52.5,16.7l0.1,0.6l0.7-0.4l-0.1-0.6L52.5,16.7z M53.2,17l-0.4,0.2l-0.1-0.4l0.4-0.2L53.2,17z"/>
								<polygon class="st9" points="54.7,16.4 53.7,16.9 53.6,16 54.5,15.4 								"/>
								<polygon class="st17" points="53.8,16.1 54,16.2 53.8,16.6 53.9,16.7 54.2,16.3 54.5,16.4 54.5,16.2 54.2,16.1 54.4,15.7 
									54.3,15.7 54.1,16.1 53.8,16 								"/>
								<polygon class="st17" points="52.1,17.7 51.5,18 51.5,17.9 52.1,17.6 								"/>
							</g>
						</g>
					</g>
					<path class="st2" d="M17.8,39.6l3.8,25.3l25.8-14.8c0,0,11.2-6.4,11.2-6.4l-3.8-25.2L17.8,39.6z"/>
				</g>
				<g class="st18">
					<g>
						<g>
							<g>
								<polygon class="st16" points="64.8,43.4 25.7,66 22.8,37.3 61.9,14.7 								"/>
								<polygon class="st2" points="23.6,38.6 24.1,43.4 61.9,21.5 61.4,16.7 								"/>
								<polygon class="st2" points="61.9,14.8 22.8,37.4 22.7,35.6 61.7,13 								"/>
							</g>
							<g>
								<polygon class="st9" points="59,16 58.1,16.6 58,15.6 59,15.1 								"/>
								<polygon class="st9" points="60.3,15.3 59.3,15.9 59.2,14.9 60.2,14.3 								"/>
								<path class="st17" d="M59.4,15l0.1,0.7l0.7-0.4L60,14.6L59.4,15z M60,15.2l-0.4,0.3l0-0.4l0.4-0.3L60,15.2z"/>
								<polygon class="st9" points="61.5,14.6 60.5,15.2 60.4,14.2 61.4,13.6 								"/>
								<polygon class="st17" points="60.6,14.4 60.9,14.5 60.7,14.9 60.8,14.9 61,14.5 61.3,14.6 61.3,14.5 61.1,14.4 61.3,13.9 
									61.2,13.9 61,14.3 60.7,14.2 								"/>
								<polygon class="st17" points="58.9,16 58.2,16.4 58.2,16.2 58.8,15.9 								"/>
							</g>
						</g>
					</g>
					<path class="st2" d="M23.6,38.6l2.6,26.2l26.3-15.2c0,0,11.4-6.7,11.4-6.7l-2.7-26.2L23.6,38.6z"/>
				</g>
				<g>
					<g>
						<g>
							<polygon class="st19" points="71.1,42.4 30,66.2 30,35.9 71.1,12.2 							"/>
							<polygon class="st16" points="71.1,42.4 30,66.2 30,35.9 71.1,12.2 							"/>
							<polygon class="st20" points="30.6,37.4 30.6,64.9 70.4,41.9 70.4,14.4 							"/>
							<polygon class="st2" points="71.1,12.3 30,36 30,34.2 71.1,10.4 							"/>
						</g>
						<g>
							<polygon class="st9" points="68.1,13.6 67.1,14.2 67.1,13.1 68.1,12.5 							"/>
							<polygon class="st9" points="69.4,12.8 68.4,13.4 68.4,12.4 69.4,11.8 							"/>
							<path class="st17" d="M68.6,12.4v0.7l0.7-0.4V12L68.6,12.4z M69.1,12.7L68.7,13v-0.5l0.5-0.3V12.7z"/>
							<polygon class="st9" points="70.7,12.1 69.7,12.7 69.7,11.6 70.7,11 							"/>
							<polygon class="st17" points="69.8,11.8 70.1,11.9 69.8,12.4 69.9,12.4 70.2,11.9 70.5,12.1 70.6,11.9 70.3,11.8 70.6,11.4 
								70.5,11.3 70.2,11.8 69.9,11.6 							"/>
							<polygon class="st17" points="67.9,13.5 67.3,13.9 67.3,13.8 67.9,13.4 							"/>
						</g>
					</g>
				</g>
			</g>
		</g>
	</g>
</g>
</svg>
