<?xml version="1.0" encoding="utf-8"?>
<!-- Generator: Adobe Illustrator 27.3.1, SVG Export Plug-In . SVG Version: 6.00 Build 0)  -->
<svg version="1.1" id="Camada_1" xmlns="http://www.w3.org/2000/svg" xmlns:xlink="http://www.w3.org/1999/xlink" x="0px" y="0px"
	 viewBox="0 0 100 100" style="enable-background:new 0 0 100 100;" xml:space="preserve">
<style type="text/css">
	.st0{enable-background:new    ;}
	.st1{fill:url(#SVGID_1_);}
	.st2{fill:#8B3DCE;}
	.st3{fill:url(#SVGID_00000020394083530839291110000007171039447146887074_);}
	.st4{fill:#291B2A;}
	.st5{fill:#101014;}
	.st6{fill:url(#SVGID_00000091703963236051691000000000976275084377411773_);}
	.st7{fill:url(#SVGID_00000005242558411348882340000002417459073740590236_);}
	.st8{fill:#412B42;}
	.st9{opacity:0.2;fill:#F3BEFB;}
	.st10{opacity:0.6;fill:#CB89F0;}
	.st11{clip-path:url(#SVGID_00000123402753303858666440000015257251884087002278_);fill:#AD852C;}
	.st12{opacity:0.3;}
	.st13{fill:#7B38D4;}
	.st14{fill:#8821D8;}
	.st15{fill:#6811BC;}
	.st16{fill:#FFFFF7;}
	.st17{opacity:0.6;}
	.st18{opacity:0.2;fill:#DE78FF;}
	.st19{opacity:0.8;fill:#8821D8;}
</style>
<g id="_x34_">
	<g>
		<g>
			<g>
				<g>
					<g>
						<g>
							<g class="st0">
								<linearGradient id="SVGID_1_" gradientUnits="userSpaceOnUse" x1="10.7134" y1="26.1546" x2="50.9543" y2="26.1546">
									<stop  offset="0" style="stop-color:#8B3DCE"/>
									<stop  offset="1" style="stop-color:#CB89F0"/>
								</linearGradient>
								<path class="st1" d="M50.66,14.7c-0.16-0.03-0.34,0-0.52,0.1L10.71,37.56l0.29,0.06l39.43-22.77
									c0.17-0.1,0.35-0.13,0.52-0.1L50.66,14.7z"/>
								<path class="st2" d="M19.06,74.45l-8.66-35.22l-0.29-0.06l8.66,35.22c0.1,0.39,0.34,0.64,0.63,0.7l0.29,0.06
									C19.4,75.09,19.16,74.84,19.06,74.45z"/>
								
									<linearGradient id="SVGID_00000067203843006206315080000008666010773407985586_" gradientUnits="userSpaceOnUse" x1="10.0722" y1="38.3988" x2="11.0052" y2="38.3988">
									<stop  offset="0" style="stop-color:#8B3DCE"/>
									<stop  offset="1" style="stop-color:#CB89F0"/>
								</linearGradient>
								<path style="fill:url(#SVGID_00000067203843006206315080000008666010773407985586_);" d="M11.01,37.62l-0.29-0.06
									c-0.48,0.28-0.75,1-0.6,1.61l0.29,0.06C10.26,38.62,10.52,37.9,11.01,37.62z"/>
								<path class="st4" d="M60.24,50.68l-8.66-35.22c-0.15-0.61-0.66-0.88-1.14-0.61L11.01,37.62c-0.48,0.28-0.75,1-0.6,1.61
									l8.66,35.22c0.15,0.61,0.66,0.88,1.14,0.61l39.43-22.77C60.12,52.01,60.39,51.29,60.24,50.68z"/>
								<polygon class="st5" points="58.54,47.98 50.65,15.89 11.28,38.63 19.18,70.71 								"/>
							</g>
							<g class="st0">
								
									<linearGradient id="SVGID_00000103231148094912209840000006464217082313999767_" gradientUnits="userSpaceOnUse" x1="47.5666" y1="80.0978" x2="50.3627" y2="80.0978">
									<stop  offset="0" style="stop-color:#8B3DCE"/>
									<stop  offset="1" style="stop-color:#CB89F0"/>
								</linearGradient>
								<path style="fill:url(#SVGID_00000103231148094912209840000006464217082313999767_);" d="M19.81,74.59l0,1.09
									c0,0.18,0.12,0.37,0.36,0.51l27.69,15.99c0.48,0.28,1.26,0.28,1.74,0l39.17-22.77c0.24-0.14,0.36-0.32,0.36-0.5l0-1.09
									L19.81,74.59z"/>
								
									<linearGradient id="SVGID_00000181787409483881804210000013099700421192654720_" gradientUnits="userSpaceOnUse" x1="19.8122" y1="71.1986" x2="82.364" y2="71.1986">
									<stop  offset="0" style="stop-color:#F5ABFF"/>
									<stop  offset="0.4557" style="stop-color:#FFC5FF"/>
									<stop  offset="1" style="stop-color:#FFDEFF"/>
								</linearGradient>
								<path style="fill:url(#SVGID_00000181787409483881804210000013099700421192654720_);" d="M88.77,67.31L61.08,51.32
									c-0.48-0.28-1.26-0.28-1.74,0L20.17,74.08c-0.48,0.28-0.48,0.73,0,1.01l27.69,15.99c0.48,0.28,1.26,0.28,1.74,0l39.17-22.77
									C89.26,68.03,89.26,67.58,88.77,67.31z"/>
							</g>
							<g>
								<path class="st4" d="M56.76,56.18c0-0.02,0-0.04,0-0.06c0-0.02,0-0.04,0-0.06c-0.02-0.08,0.02-0.16,0.12-0.22l1.83-1.06
									c0.18-0.1,0.47-0.1,0.65,0l1.54,0.89c0.1,0.06,0.14,0.14,0.12,0.22c0,0.02,0,0.04,0,0.06c0,0.02,0,0.04,0,0.06
									c0.02,0.08-0.02,0.16-0.12,0.22l-1.83,1.06c-0.18,0.1-0.47,0.1-0.65,0l-1.54-0.89C56.78,56.34,56.75,56.26,56.76,56.18z
									 M59.85,54.69l1.54,0.89c0.18,0.1,0.47,0.1,0.65,0l1.83-1.06c0.1-0.06,0.14-0.14,0.12-0.22c0-0.02,0-0.04,0-0.06
									c0-0.02,0-0.04,0-0.06c0.02-0.08-0.02-0.16-0.12-0.22l-1.54-0.89c-0.18-0.1-0.47-0.1-0.65,0l-1.83,1.06
									c-0.1,0.06-0.14,0.14-0.12,0.22c0,0.02,0,0.04,0,0.06c0,0.02,0,0.04,0,0.06C59.71,54.55,59.74,54.63,59.85,54.69z
									 M53.93,58.11L55.47,59c0.18,0.1,0.47,0.1,0.65,0l1.83-1.06c0.1-0.06,0.14-0.14,0.12-0.22c0-0.02,0-0.04,0-0.06
									c0-0.02,0-0.04,0-0.06c0.02-0.08-0.02-0.16-0.12-0.22l-1.54-0.89c-0.18-0.1-0.47-0.1-0.65,0l-1.83,1.06
									c-0.1,0.06-0.14,0.14-0.12,0.22c0,0.02,0,0.04,0,0.06c0,0.02,0,0.04,0,0.06C53.79,57.97,53.82,58.05,53.93,58.11z
									 M31.65,77.16l1.54,0.89c0.18,0.1,0.47,0.1,0.65,0l1.83-1.06c0.1-0.06,0.14-0.14,0.12-0.22c0-0.02,0-0.04,0-0.06
									c0-0.02,0-0.04,0-0.06c0.02-0.08-0.02-0.16-0.12-0.22l-1.54-0.89c-0.18-0.1-0.47-0.1-0.65,0l-1.83,1.06
									c-0.1,0.06-0.14,0.14-0.12,0.22c0,0.02,0,0.04,0,0.06c0,0.02,0,0.04,0,0.06C31.52,77.02,31.55,77.1,31.65,77.16z
									 M38.12,67.22l1.54,0.89c0.18,0.1,0.47,0.1,0.65,0l1.83-1.06c0.1-0.06,0.14-0.14,0.12-0.22c0-0.02,0-0.04,0-0.06
									c0-0.02,0-0.04,0-0.06c0.02-0.08-0.02-0.16-0.12-0.22L40.6,65.6c-0.18-0.1-0.47-0.1-0.65,0l-1.83,1.06
									c-0.1,0.06-0.14,0.14-0.12,0.22c0,0.02,0,0.04,0,0.06c0,0.02,0,0.04,0,0.06C37.98,67.08,38.01,67.16,38.12,67.22z
									 M44.04,63.8l1.54,0.89c0.18,0.1,0.47,0.1,0.65,0l1.83-1.06c0.1-0.06,0.14-0.14,0.12-0.22c0-0.02,0-0.04,0-0.06
									c0-0.02,0-0.04,0-0.06c0.02-0.08-0.02-0.16-0.12-0.22l-1.54-0.89c-0.18-0.1-0.47-0.1-0.65,0l-1.83,1.06
									c-0.1,0.06-0.14,0.14-0.12,0.22c0,0.02,0,0.04,0,0.06c0,0.02,0,0.04,0,0.06C43.9,63.66,43.93,63.74,44.04,63.8z
									 M49.96,60.38l1.54,0.89c0.18,0.1,0.47,0.1,0.65,0l2.79-1.61c0.1-0.06,0.14-0.14,0.12-0.22c0-0.02,0-0.04,0-0.06
									c0-0.02,0-0.04,0-0.06c0.02-0.08-0.02-0.16-0.12-0.22l-1.54-0.89c-0.18-0.1-0.47-0.1-0.65,0l-2.79,1.61
									c-0.1,0.06-0.14,0.14-0.12,0.22c0,0.02,0,0.04,0,0.06c0,0.02,0,0.04,0,0.06C49.82,60.24,49.85,60.32,49.96,60.38z M47,62.09
									l1.54,0.89c0.18,0.1,0.47,0.1,0.65,0l1.83-1.06c0.1-0.06,0.14-0.14,0.12-0.22c0-0.02,0-0.04,0-0.06c0-0.02,0-0.04,0-0.06
									c0.02-0.08-0.02-0.16-0.12-0.22l-1.54-0.89c-0.18-0.1-0.47-0.1-0.65,0L47,61.53c-0.1,0.06-0.14,0.14-0.12,0.22
									c0,0.02,0,0.04,0,0.06c0,0.02,0,0.04,0,0.06C46.86,61.95,46.89,62.03,47,62.09z M41.08,65.51l1.54,0.89
									c0.18,0.1,0.47,0.1,0.65,0l1.83-1.06c0.1-0.06,0.14-0.14,0.12-0.22c0-0.02,0-0.04,0-0.06c0-0.02,0-0.04,0-0.06
									c0.02-0.08-0.02-0.16-0.12-0.22l-1.54-0.89c-0.18-0.1-0.47-0.1-0.65,0l-1.83,1.06c-0.1,0.06-0.14,0.14-0.12,0.22
									c0,0.02,0,0.04,0,0.06c0,0.02,0,0.04,0,0.06C40.94,65.37,40.97,65.45,41.08,65.51z M53.67,61.38l1.54,0.89
									c0.18,0.1,0.47,0.1,0.65,0l1.83-1.06c0.1-0.06,0.14-0.14,0.12-0.22c0-0.02,0-0.04,0-0.06c0-0.02,0-0.04,0-0.06
									c0.02-0.08-0.02-0.16-0.12-0.22l-1.54-0.89c-0.18-0.1-0.47-0.1-0.65,0l-1.83,1.06c-0.1,0.06-0.14,0.14-0.12,0.22
									c0,0.02,0,0.04,0,0.06c0,0.02,0,0.04,0,0.06C53.53,61.24,53.57,61.32,53.67,61.38z M29.99,75.05l1.54,0.89
									c0.18,0.1,0.47,0.1,0.65,0l1.83-1.06c0.1-0.06,0.14-0.14,0.12-0.22c0-0.02,0-0.04,0-0.06c0-0.02,0-0.04,0-0.06
									c0.02-0.08-0.02-0.16-0.12-0.22l-1.54-0.89c-0.18-0.1-0.47-0.1-0.65,0l-1.83,1.06c-0.1,0.06-0.14,0.14-0.12,0.22
									c0,0.02,0,0.04,0,0.06c0,0.02,0,0.04,0,0.06C29.85,74.91,29.88,74.99,29.99,75.05z M50.71,63.08l1.54,0.89
									c0.18,0.1,0.47,0.1,0.65,0l1.83-1.06c0.1-0.06,0.14-0.14,0.12-0.22c0-0.02,0-0.04,0-0.06c0-0.02,0-0.04,0-0.06
									c0.02-0.08-0.02-0.16-0.12-0.22l-1.54-0.89c-0.18-0.1-0.47-0.1-0.65,0l-1.83,1.06c-0.1,0.06-0.14,0.14-0.12,0.22
									c0,0.02,0,0.04,0,0.06c0,0.02,0,0.04,0,0.06C50.57,62.94,50.61,63.03,50.71,63.08z M47.75,64.79l1.54,0.89
									c0.18,0.1,0.47,0.1,0.65,0l1.83-1.06c0.1-0.06,0.14-0.14,0.12-0.22c0-0.02,0-0.04,0-0.06c0-0.02,0-0.04,0-0.06
									c0.02-0.08-0.02-0.16-0.12-0.22l-1.54-0.89c-0.18-0.1-0.47-0.1-0.65,0l-1.83,1.06c-0.1,0.06-0.14,0.14-0.12,0.22
									c0,0.02,0,0.04,0,0.06c0,0.02,0,0.04,0,0.06C47.61,64.65,47.65,64.73,47.75,64.79z M44.79,66.5l1.54,0.89
									c0.18,0.1,0.47,0.1,0.65,0l1.83-1.06c0.1-0.06,0.14-0.14,0.12-0.22c0-0.02,0-0.04,0-0.06c0-0.02,0-0.04,0-0.06
									c0.02-0.08-0.02-0.16-0.12-0.22l-1.54-0.89c-0.18-0.1-0.47-0.1-0.65,0l-1.83,1.06c-0.1,0.06-0.14,0.14-0.12,0.22
									c0,0.02,0,0.04,0,0.06c0,0.02,0,0.04,0,0.06C44.65,66.36,44.68,66.44,44.79,66.5z M32.95,73.34l1.54,0.89
									c0.18,0.1,0.47,0.1,0.65,0l1.83-1.06c0.1-0.06,0.14-0.14,0.12-0.22c0-0.02,0-0.04,0-0.06c0-0.02,0-0.04,0-0.06
									c0.02-0.08-0.02-0.16-0.12-0.22l-1.54-0.89c-0.18-0.1-0.47-0.1-0.64,0l-1.83,1.06c-0.1,0.06-0.14,0.14-0.12,0.22
									c0,0.02,0,0.04,0,0.06c0,0.02,0,0.04,0,0.06C32.81,73.2,32.84,73.28,32.95,73.34z M35.91,71.63l1.54,0.89
									c0.18,0.1,0.47,0.1,0.65,0l1.83-1.06c0.1-0.06,0.14-0.14,0.12-0.22c0-0.02,0-0.04,0-0.06c0-0.02,0-0.04,0-0.06
									c0.02-0.08-0.02-0.16-0.12-0.22c-2.27-1.31-1.5-1.29-4.02,0.17c-0.1,0.06-0.14,0.14-0.12,0.22c0,0.02,0,0.04,0,0.06
									c0,0.02,0,0.04,0,0.06C35.77,71.49,35.8,71.57,35.91,71.63z M38.87,69.92l1.54,0.89c0.18,0.1,0.47,0.1,0.65,0l1.83-1.06
									c0.1-0.06,0.14-0.14,0.12-0.22c0-0.02,0-0.04,0-0.06c0-0.02,0-0.04,0-0.06c0.02-0.08-0.02-0.16-0.12-0.22l-1.54-0.89
									c-0.18-0.1-0.47-0.1-0.65,0l-1.83,1.06c-0.1,0.06-0.14,0.14-0.12,0.22c0,0.02,0,0.04,0,0.06c0,0.02,0,0.04,0,0.06
									C38.73,69.78,38.76,69.86,38.87,69.92z M41.83,68.21c1.51,0.87,1.78,1.13,2.19,0.89l1.83-1.06c0.1-0.06,0.14-0.14,0.12-0.22
									c0-0.02,0-0.04,0-0.06c0-0.02,0-0.04,0-0.06c0.02-0.08-0.02-0.16-0.12-0.22l-1.54-0.89c-0.18-0.1-0.47-0.1-0.65,0
									l-1.83,1.06c-0.1,0.06-0.14,0.14-0.12,0.22c0,0.02,0,0.04,0,0.06c0,0.02,0,0.04,0,0.06C41.69,68.07,41.72,68.15,41.83,68.21
									z M36.55,79.48c0-0.02,0-0.04,0-0.06c0-0.02,0-0.04,0-0.06c0.02-0.08-0.02-0.16-0.12-0.22l-1.54-0.89
									c-0.18-0.1-0.47-0.1-0.65,0l-2.79,1.61c-0.1,0.06-0.14,0.14-0.12,0.22c0,0.02,0,0.04,0,0.06c0,0.02,0,0.04,0,0.06
									c-0.02,0.08,0.02,0.16,0.12,0.22l1.54,0.89c0.18,0.1,0.47,0.1,0.65,0l2.79-1.61C36.53,79.64,36.57,79.56,36.55,79.48z
									 M32.84,78.48c0-0.02,0-0.04,0-0.06c0-0.02,0-0.04,0-0.06c0.02-0.08-0.02-0.16-0.12-0.22l-1.54-0.89
									c-0.18-0.1-0.47-0.1-0.65,0l-1.83,1.06c-0.1,0.06-0.14,0.14-0.12,0.22c0,0.02,0,0.04,0,0.06c0,0.02,0,0.04,0,0.06
									c-0.02,0.08,0.02,0.16,0.12,0.22l1.54,0.89c0.18,0.1,0.47,0.1,0.64,0l1.83-1.06C32.82,78.64,32.85,78.56,32.84,78.48z
									 M35.16,68.93c2.22,1.28,1.45,1.31,4.02-0.17c0.1-0.06,0.14-0.14,0.12-0.22c0-0.02,0-0.04,0-0.06c0-0.02,0-0.04,0-0.06
									c0.02-0.08-0.02-0.16-0.12-0.22l-1.54-0.89c-0.18-0.1-0.47-0.1-0.65,0l-1.83,1.06c-0.1,0.06-0.14,0.14-0.12,0.22
									c0,0.02,0,0.04,0,0.06c0,0.02,0,0.04,0,0.06C35.02,68.79,35.05,68.87,35.16,68.93z M66.17,62.4c0-0.02,0-0.04,0-0.06
									c0-0.02,0-0.04,0-0.06c0.02-0.08-0.02-0.16-0.12-0.22l-1.54-0.89c-0.18-0.1-0.47-0.1-0.65,0l-1.83,1.06
									c-0.1,0.06-0.14,0.14-0.12,0.22c0,0.02,0,0.04,0,0.06c0,0.02,0,0.04,0,0.06c-0.02,0.08,0.02,0.16,0.12,0.22l1.54,0.89
									c0.18,0.1,0.47,0.1,0.65,0l1.83-1.06C66.15,62.56,66.19,62.48,66.17,62.4z M31.17,76.37c0-0.02,0-0.04,0-0.06
									c0-0.02,0-0.04,0-0.06c0.02-0.08-0.02-0.16-0.12-0.22l-1.54-0.89c-0.18-0.1-0.47-0.1-0.65,0l-2.79,1.61
									c-0.1,0.06-0.14,0.14-0.12,0.22c0,0.02,0,0.04,0,0.06c0,0.02,0,0.04,0,0.06c-0.02,0.08,0.02,0.16,0.12,0.22l1.54,0.89
									c0.18,0.1,0.47,0.1,0.65,0l2.79-1.61C31.15,76.53,31.19,76.45,31.17,76.37z M32.2,70.64l1.54,0.89c0.18,0.1,0.47,0.1,0.65,0
									l1.83-1.06c0.1-0.06,0.14-0.14,0.12-0.22c0-0.02,0-0.04,0-0.06c0-0.02,0-0.04,0-0.06c0.02-0.08-0.02-0.16-0.12-0.22
									l-1.54-0.89c-0.18-0.1-0.47-0.1-0.65,0l-1.83,1.06c-0.1,0.06-0.14,0.14-0.12,0.22c0,0.02,0,0.04,0,0.06
									c0,0.02,0,0.04,0,0.06C32.06,70.5,32.09,70.58,32.2,70.64z M29.24,72.34l1.54,0.89c0.18,0.1,0.47,0.1,0.65,0l1.83-1.06
									c0.1-0.06,0.14-0.14,0.12-0.22c0-0.02,0-0.04,0-0.06c0-0.02,0-0.04,0-0.06c0.02-0.08-0.02-0.16-0.12-0.22l-1.54-0.89
									c-0.18-0.1-0.47-0.1-0.65,0l-1.83,1.06c-0.1,0.06-0.14,0.14-0.12,0.22c0,0.02,0,0.04,0,0.06c0,0.02,0,0.04,0,0.06
									C29.1,72.2,29.13,72.29,29.24,72.34z M27.46,75.38c0-0.02,0-0.04,0-0.06c0-0.02,0-0.04,0-0.06
									c0.02-0.08-0.02-0.16-0.12-0.22l-1.54-0.89c-0.18-0.1-0.47-0.1-0.65,0l-1.83,1.06c-0.1,0.06-0.14,0.14-0.12,0.22
									c0,0.02,0,0.04,0,0.06c0,0.02,0,0.04,0,0.06c-0.02,0.08,0.02,0.16,0.12,0.22l1.54,0.89c0.18,0.1,0.47,0.1,0.65,0l1.83-1.06
									C27.44,75.54,27.48,75.45,27.46,75.38z M26.28,74.05l1.54,0.89c0.18,0.1,0.47,0.1,0.65,0l1.83-1.06
									c0.1-0.06,0.14-0.14,0.12-0.22c0-0.02,0-0.04,0-0.06c0-0.02,0-0.04,0-0.06c0.02-0.08-0.02-0.16-0.12-0.22l-1.54-0.89
									c-0.18-0.1-0.47-0.1-0.65,0l-1.83,1.06c-0.1,0.06-0.14,0.14-0.12,0.22c0,0.02,0,0.04,0,0.06c0,0.02,0,0.04,0,0.06
									C26.14,73.91,26.17,73.99,26.28,74.05z M74.8,60.42c0.02-0.08-0.02-0.16-0.12-0.22l-1.54-0.89c-0.18-0.1-0.47-0.1-0.65,0
									l-1.83,1.06c-0.1,0.06-0.14,0.14-0.12,0.22c0,0.02,0,0.04,0,0.06c0,0.02,0,0.04,0,0.06c-0.02,0.08,0.02,0.16,0.12,0.22
									l1.54,0.89c0.18,0.1,0.47,0.1,0.65,0l1.83-1.06c0.1-0.06,0.14-0.14,0.12-0.22c0-0.02,0-0.04,0-0.06
									C74.81,60.46,74.81,60.44,74.8,60.42z M63.07,63.75l-1.54-0.89c-0.18-0.1-0.47-0.1-0.65,0l-1.83,1.06
									c-0.1,0.06-0.14,0.14-0.12,0.22c0,0.02,0,0.04,0,0.06c0,0.02,0,0.04,0,0.06c-0.02,0.08,0.02,0.16,0.12,0.22l1.54,0.89
									c0.18,0.1,0.47,0.1,0.65,0l1.83-1.06c0.1-0.06,0.14-0.14,0.12-0.22c0-0.02,0-0.04,0-0.06c0-0.02,0-0.04,0-0.06
									C63.21,63.89,63.17,63.81,63.07,63.75z M69.01,60.35l-1.54-0.89c-0.18-0.1-0.47-0.1-0.65,0l-1.83,1.06
									c-0.1,0.06-0.14,0.14-0.12,0.22c0,0.02,0,0.04,0,0.06c0,0.02,0,0.04,0,0.06c-0.02,0.08,0.02,0.16,0.12,0.22l1.54,0.89
									c0.18,0.1,0.47,0.1,0.65,0l1.83-1.06c0.1-0.06,0.14-0.14,0.12-0.22c0-0.02,0-0.04,0-0.06c0-0.02,0-0.04,0-0.06
									C69.15,60.49,69.11,60.41,69.01,60.35z M57.15,67.17l-1.54-0.89c-0.18-0.1-0.47-0.1-0.65,0l-1.83,1.06
									c-0.1,0.06-0.14,0.14-0.12,0.22c0,0.02,0,0.04,0,0.06c0,0.02,0,0.04,0,0.06c-0.02,0.08,0.02,0.16,0.12,0.22l1.54,0.89
									c0.18,0.1,0.47,0.1,0.65,0l1.83-1.06c0.1-0.06,0.14-0.14,0.12-0.22c0-0.02,0-0.04,0-0.06c0-0.02,0-0.04,0-0.06
									C57.29,67.31,57.25,67.23,57.15,67.17z M67.83,59.02c0,0.02,0,0.04,0,0.06c0,0.02,0,0.04,0,0.06
									c-0.02,0.08,0.02,0.16,0.12,0.22l1.54,0.89c0.18,0.1,0.47,0.1,0.65,0l1.83-1.06c0.1-0.06,0.14-0.14,0.12-0.22
									c0-0.02,0-0.04,0-0.06c0-0.02,0-0.04,0-0.06c0.02-0.08-0.02-0.16-0.12-0.22l-1.54-0.89c-0.18-0.1-0.47-0.1-0.65,0
									l-1.83,1.06C67.85,58.87,67.81,58.95,67.83,59.02z M45.31,74.01l-1.54-0.89c-0.18-0.1-0.47-0.1-0.65,0l-1.83,1.06
									c-0.1,0.06-0.14,0.14-0.12,0.22c0,0.02,0,0.04,0,0.06c0,0.02,0,0.04,0,0.06c-0.02,0.08,0.02,0.16,0.12,0.22l1.54,0.89
									c0.18,0.1,0.47,0.1,0.65,0l1.83-1.06c0.1-0.06,0.14-0.14,0.12-0.22c0-0.02,0-0.04,0-0.06c0-0.02,0-0.04,0-0.06
									C45.45,74.15,45.41,74.07,45.31,74.01z M51.23,70.59l-1.54-0.89c-0.18-0.1-0.47-0.1-0.65,0l-1.83,1.06
									c-0.1,0.06-0.14,0.14-0.12,0.22c0,0.02,0,0.04,0,0.06c0,0.02,0,0.04,0,0.06c-0.02,0.08,0.02,0.16,0.12,0.22l1.54,0.89
									c0.18,0.1,0.47,0.1,0.65,0l1.83-1.06c0.1-0.06,0.14-0.14,0.12-0.22c0-0.02,0-0.04,0-0.06c0-0.02,0-0.04,0-0.06
									C51.37,70.73,51.33,70.65,51.23,70.59z M48.27,72.3l-1.54-0.89c-0.18-0.1-0.47-0.1-0.65,0l-1.83,1.06
									c-0.1,0.06-0.14,0.14-0.12,0.22c0,0.02,0,0.04,0,0.06c0,0.02,0,0.04,0,0.06c-0.02,0.08,0.02,0.16,0.12,0.22l1.54,0.89
									c0.18,0.1,0.47,0.1,0.65,0l1.83-1.06c0.1-0.06,0.14-0.14,0.12-0.22c0-0.02,0-0.04,0-0.06c0-0.02,0-0.04,0-0.06
									C48.41,72.44,48.37,72.36,48.27,72.3z M42.35,75.72l-1.54-0.89c-0.18-0.1-0.47-0.1-0.65,0l-1.83,1.06
									c-0.1,0.06-0.14,0.14-0.12,0.22c0,0.02,0,0.04,0,0.06c0,0.02,0,0.04,0,0.06c-0.02,0.08,0.02,0.16,0.12,0.22l1.54,0.89
									c0.18,0.1,0.47,0.1,0.65,0l1.83-1.06c0.1-0.06,0.14-0.14,0.12-0.22c0-0.02,0-0.04,0-0.06c0-0.02,0-0.04,0-0.06
									C42.49,75.86,42.45,75.78,42.35,75.72z M39.39,77.43l-1.54-0.89c-0.18-0.1-0.47-0.1-0.65,0l-1.83,1.06
									c-0.1,0.06-0.14,0.14-0.12,0.22c0,0.02,0,0.04,0,0.06c0,0.02,0,0.04,0,0.06c-0.02,0.08,0.02,0.16,0.12,0.22l1.54,0.89
									c0.18,0.1,0.47,0.1,0.65,0l1.83-1.06c0.1-0.06,0.14-0.14,0.12-0.22c0-0.02,0-0.04,0-0.06c0-0.02,0-0.04,0-0.06
									C39.53,77.57,39.49,77.49,39.39,77.43z M54.19,68.88l-1.54-0.89c-0.18-0.1-0.47-0.1-0.64,0l-1.83,1.06
									c-0.1,0.06-0.14,0.14-0.12,0.22c0,0.02,0,0.04,0,0.06c0,0.02,0,0.04,0,0.06c-0.02,0.08,0.02,0.16,0.12,0.22l1.54,0.89
									c0.18,0.1,0.47,0.1,0.65,0l1.83-1.06c0.1-0.06,0.14-0.14,0.12-0.22c0-0.02,0-0.04,0-0.06c0-0.02,0-0.04,0-0.06
									C54.33,69.02,54.29,68.94,54.19,68.88z M60.11,65.46l-1.54-0.89c-0.18-0.1-0.47-0.1-0.65,0l-1.83,1.06
									c-0.1,0.06-0.14,0.14-0.12,0.22c0,0.02,0,0.04,0,0.06c0,0.02,0,0.04,0,0.06c-0.02,0.08,0.02,0.16,0.12,0.22l1.54,0.89
									c0.18,0.1,0.47,0.1,0.65,0l1.83-1.06c0.1-0.06,0.14-0.14,0.12-0.22c0-0.02,0-0.04,0-0.06c0-0.02,0-0.04,0-0.06
									C60.25,65.6,60.21,65.52,60.11,65.46z M44,77.82l-1.54-0.89c-0.18-0.1-0.47-0.1-0.65,0l-1.83,1.06
									c-0.1,0.06-0.14,0.14-0.12,0.22c0,0.02,0,0.04,0,0.06c0,0.02,0,0.04,0,0.06c-0.02,0.08,0.02,0.16,0.12,0.22l1.54,0.89
									c0.18,0.1,0.47,0.1,0.65,0L44,78.38c0.1-0.06,0.14-0.14,0.12-0.22c0-0.02,0-0.04,0-0.06c0-0.02,0-0.04,0-0.06
									C44.14,77.96,44.11,77.88,44,77.82z M46.96,76.11l-1.54-0.89c-0.18-0.1-0.47-0.1-0.65,0l-1.83,1.06
									c-0.1,0.06-0.14,0.14-0.12,0.22c0,0.02,0,0.04,0,0.06c0,0.02,0,0.04,0,0.06c-0.02,0.08,0.02,0.16,0.12,0.22l1.54,0.89
									c0.18,0.1,0.47,0.1,0.65,0l1.83-1.06c0.1-0.06,0.14-0.14,0.12-0.22c0-0.02,0-0.04,0-0.06c0-0.02,0-0.04,0-0.06
									C47.1,76.25,47.07,76.17,46.96,76.11z M41.04,79.53l-1.54-0.89c-0.18-0.1-0.47-0.1-0.65,0l-1.83,1.06
									c-0.1,0.06-0.14,0.14-0.12,0.22c0,0.02,0,0.04,0,0.06c0,0.02,0,0.04,0,0.06c-0.02,0.08,0.02,0.16,0.12,0.22l1.54,0.89
									c0.18,0.1,0.47,0.1,0.65,0l1.83-1.06c0.1-0.06,0.14-0.14,0.12-0.22c0-0.02,0-0.04,0-0.06c0-0.02,0-0.04,0-0.06
									C41.18,79.67,41.15,79.59,41.04,79.53z M38.08,81.24l-1.54-0.89c-0.18-0.1-0.47-0.1-0.65,0l-1.83,1.06
									c-0.1,0.06-0.14,0.14-0.12,0.22c0,0.02,0,0.04,0,0.06c0,0.02,0,0.04,0,0.06c-0.02,0.08,0.02,0.16,0.12,0.22l1.54,0.89
									c0.18,0.1,0.47,0.1,0.65,0l1.83-1.06c0.1-0.06,0.14-0.14,0.12-0.22c0-0.02,0-0.04,0-0.06c0-0.02,0-0.04,0-0.06
									C38.22,81.38,38.19,81.3,38.08,81.24z M60.31,62.21l-1.54-0.89c-0.18-0.1-0.47-0.1-0.65,0l-2.79,1.61
									c-0.1,0.06-0.14,0.14-0.12,0.22c0,0.02,0,0.04,0,0.06c0,0.02,0,0.04,0,0.06c-0.02,0.08,0.02,0.16,0.12,0.22l1.54,0.89
									c0.18,0.1,0.47,0.1,0.65,0l2.79-1.61c0.1-0.06,0.14-0.14,0.12-0.22c0-0.02,0-0.04,0-0.06c0-0.02,0-0.04,0-0.06
									C60.45,62.35,60.41,62.27,60.31,62.21z M65.66,65.32l-1.54-0.89c-0.18-0.1-0.47-0.1-0.65,0l-2.79,1.61
									c-0.1,0.06-0.14,0.14-0.12,0.22c0,0.02,0,0.04,0,0.06c0,0.02,0,0.04,0,0.06c-0.02,0.08,0.02,0.16,0.12,0.22l1.54,0.89
									c0.18,0.1,0.47,0.1,0.65,0l2.79-1.61c0.1-0.06,0.14-0.14,0.12-0.22c0-0.02,0-0.04,0-0.06c0-0.02,0-0.04,0-0.06
									C65.8,65.46,65.77,65.38,65.66,65.32z M71.72,61.91l-1.54-0.89c-0.18-0.1-0.47-0.1-0.65,0l-1.83,1.06
									c-0.1,0.06-0.14,0.14-0.12,0.22c0,0.02,0,0.04,0,0.06c0,0.02,0,0.04,0,0.06c-0.02,0.08,0.02,0.16,0.12,0.22l1.54,0.89
									c0.18,0.1,0.47,0.1,0.65,0l1.83-1.06c0.1-0.06,0.14-0.14,0.12-0.22c0-0.02,0-0.04,0-0.06c0-0.02,0-0.04,0-0.06
									C71.86,62.05,71.82,61.97,71.72,61.91z M68.76,63.62l-1.54-0.89c-0.18-0.1-0.47-0.1-0.65,0l-1.83,1.06
									c-0.1,0.06-0.14,0.14-0.12,0.22c0,0.02,0,0.04,0,0.06c0,0.02,0,0.04,0,0.06c-0.02,0.08,0.02,0.16,0.12,0.22l1.54,0.89
									c0.18,0.1,0.47,0.1,0.65,0l1.83-1.06c0.1-0.06,0.14-0.14,0.12-0.22c0-0.02,0-0.04,0-0.06c0-0.02,0-0.04,0-0.06
									C68.9,63.76,68.86,63.68,68.76,63.62z M61.81,67.57l-1.54-0.89c-0.18-0.1-0.47-0.1-0.65,0l-13.71,7.92
									c-0.1,0.06-0.14,0.14-0.12,0.22c0,0.02,0,0.04,0,0.06c0,0.02,0,0.04,0,0.06c-0.02,0.08,0.02,0.16,0.12,0.22l1.54,0.89
									c0.18,0.1,0.47,0.1,0.65,0l13.71-7.92c0.1-0.06,0.14-0.14,0.12-0.22c0-0.02,0-0.04,0-0.06c0-0.02,0-0.04,0-0.06
									C61.95,67.71,61.92,67.63,61.81,67.57z M50.48,67.89L48.93,67c-0.18-0.1-0.47-0.1-0.65,0l-1.83,1.06
									c-0.1,0.06-0.14,0.14-0.12,0.22c0,0.02,0,0.04,0,0.06c0,0.02,0,0.04,0,0.06c-0.02,0.08,0.02,0.16,0.12,0.22L48,69.5
									c0.18,0.1,0.47,0.1,0.65,0l1.83-1.06c0.1-0.06,0.14-0.14,0.12-0.22c0-0.02,0-0.04,0-0.06c0-0.02,0-0.04,0-0.06
									C50.62,68.03,50.58,67.94,50.48,67.89z M47.52,69.59l-1.54-0.89c-0.18-0.1-0.47-0.1-0.65,0l-1.83,1.06
									c-0.1,0.06-0.14,0.14-0.12,0.22c0,0.02,0,0.04,0,0.06c0,0.02,0,0.04,0,0.06c-0.02,0.08,0.02,0.16,0.12,0.22l1.54,0.89
									c0.18,0.1,0.47,0.1,0.65,0l1.83-1.06c0.1-0.06,0.14-0.14,0.12-0.22c0-0.02,0-0.04,0-0.06c0-0.02,0-0.04,0-0.06
									C47.66,69.73,47.62,69.65,47.52,69.59z M53.44,66.18l-1.54-0.89c-0.18-0.1-0.47-0.1-0.65,0l-1.83,1.06
									c-0.1,0.06-0.14,0.14-0.12,0.22c0,0.02,0,0.04,0,0.06c0,0.02,0,0.04,0,0.06c-0.02,0.08,0.02,0.16,0.12,0.22l1.54,0.89
									c0.18,0.1,0.47,0.1,0.65,0l1.83-1.06c0.1-0.06,0.14-0.14,0.12-0.22c0-0.02,0-0.04,0-0.06c0-0.02,0-0.04,0-0.06
									C53.58,66.32,53.54,66.24,53.44,66.18z M62.42,55.9c0,0.02,0,0.04,0,0.06c0,0.02,0,0.04,0,0.06
									c-0.02,0.08,0.02,0.16,0.12,0.22l1.54,0.89c0.18,0.1,0.47,0.1,0.65,0l1.83-1.06c0.1-0.06,0.14-0.14,0.12-0.22
									c0-0.02,0-0.04,0-0.06c0-0.02,0-0.04,0-0.06c0.02-0.08-0.02-0.16-0.12-0.22l-1.54-0.89c-0.18-0.1-0.47-0.1-0.65,0
									l-1.83,1.06C62.44,55.75,62.41,55.83,62.42,55.9z M56.4,64.47l-1.54-0.89c-0.18-0.1-0.47-0.1-0.65,0l-1.83,1.06
									c-0.1,0.06-0.14,0.14-0.12,0.22c0,0.02,0,0.04,0,0.06c0,0.02,0,0.04,0,0.06c-0.02,0.08,0.02,0.16,0.12,0.22l1.54,0.89
									c0.18,0.1,0.47,0.1,0.64,0l1.83-1.06c0.1-0.06,0.14-0.14,0.12-0.22c0-0.02,0-0.04,0-0.06c0-0.02,0-0.04,0-0.06
									C56.54,64.61,56.5,64.53,56.4,64.47z M44.56,71.3l-1.54-0.89c-0.18-0.1-0.47-0.1-0.65,0l-1.83,1.06
									c-0.1,0.06-0.14,0.14-0.12,0.22c0,0.02,0,0.04,0,0.06c0,0.02,0,0.04,0,0.06c-0.02,0.08,0.02,0.16,0.12,0.22l1.54,0.89
									c0.18,0.1,0.47,0.1,0.65,0l1.83-1.06c0.1-0.06,0.14-0.14,0.12-0.22c0-0.02,0-0.04,0-0.06c0-0.02,0-0.04,0-0.06
									C44.7,71.44,44.66,71.36,44.56,71.3z M38.64,74.72l-1.54-0.89c-0.18-0.1-0.47-0.1-0.64,0l-1.83,1.06
									c-0.1,0.06-0.14,0.14-0.12,0.22c0,0.02,0,0.04,0,0.06c0,0.02,0,0.04,0,0.06c-0.02,0.08,0.02,0.16,0.12,0.22l1.54,0.89
									c0.18,0.1,0.47,0.1,0.65,0l1.83-1.06c0.1-0.06,0.14-0.14,0.12-0.22c0-0.02,0-0.04,0-0.06c0-0.02,0-0.04,0-0.06
									C38.77,74.86,38.74,74.78,38.64,74.72z M41.6,73.01l-1.54-0.89c-0.18-0.1-0.47-0.1-0.65,0l-1.83,1.06
									c-0.1,0.06-0.14,0.14-0.12,0.22c0,0.02,0,0.04,0,0.06c0,0.02,0,0.04,0,0.06c-0.02,0.08,0.02,0.16,0.12,0.22l1.54,0.89
									c0.18,0.1,0.47,0.1,0.65,0l1.83-1.06c0.1-0.06,0.14-0.14,0.12-0.22c0-0.02,0-0.04,0-0.06c0-0.02,0-0.04,0-0.06
									C41.74,73.15,41.7,73.07,41.6,73.01z"/>
								<path class="st8" d="M27.34,75.33l-1.83,1.06c-0.18,0.1-0.47,0.1-0.65,0l-1.54-0.89c-0.18-0.1-0.18-0.27,0-0.37l1.83-1.06
									c0.18-0.1,0.47-0.1,0.65,0l1.54,0.89C27.51,75.06,27.51,75.22,27.34,75.33z M30.3,73.24l-1.54-0.89
									c-0.18-0.1-0.47-0.1-0.65,0l-1.83,1.06c-0.18,0.1-0.18,0.27,0,0.37l1.54,0.89c0.18,0.1,0.47,0.1,0.65,0l1.83-1.06
									C30.47,73.51,30.47,73.35,30.3,73.24z M33.26,71.53l-1.54-0.89c-0.18-0.1-0.47-0.1-0.65,0l-1.83,1.06
									c-0.18,0.1-0.18,0.27,0,0.37l1.54,0.89c0.18,0.1,0.47,0.1,0.65,0l1.83-1.06C33.43,71.8,33.43,71.64,33.26,71.53z
									 M36.22,69.83l-1.54-0.89c-0.18-0.1-0.47-0.1-0.65,0l-1.83,1.06c-0.18,0.1-0.18,0.27,0,0.37l1.54,0.89
									c0.18,0.1,0.47,0.1,0.65,0l1.83-1.06C36.39,70.1,36.39,69.93,36.22,69.83z M39.18,68.12l-1.54-0.89
									c-0.18-0.1-0.47-0.1-0.65,0l-1.83,1.06c-0.18,0.1-0.18,0.27,0,0.37l1.54,0.89c0.18,0.1,0.47,0.1,0.65,0l1.83-1.06
									C39.36,68.39,39.36,68.22,39.18,68.12z M42.14,66.41l-1.54-0.89c-0.18-0.1-0.47-0.1-0.65,0l-1.83,1.06
									c-0.18,0.1-0.18,0.27,0,0.37l1.54,0.89c0.18,0.1,0.47,0.1,0.65,0l1.83-1.06C42.32,66.68,42.32,66.51,42.14,66.41z
									 M45.1,64.7l-1.54-0.89c-0.18-0.1-0.47-0.1-0.65,0l-1.83,1.06c-0.18,0.1-0.18,0.27,0,0.37l1.54,0.89
									c0.18,0.1,0.47,0.1,0.65,0l1.83-1.06C45.28,64.97,45.28,64.8,45.1,64.7z M48.06,62.99l-1.54-0.89c-0.18-0.1-0.47-0.1-0.65,0
									l-1.83,1.06c-0.18,0.1-0.18,0.27,0,0.37l1.54,0.89c0.18,0.1,0.47,0.1,0.65,0l1.83-1.06C48.24,63.26,48.24,63.09,48.06,62.99
									z M51.02,61.28l-1.54-0.89c-0.18-0.1-0.47-0.1-0.65,0L47,61.45c-0.18,0.1-0.18,0.27,0,0.37l1.54,0.89
									c0.18,0.1,0.47,0.1,0.65,0l1.83-1.06C51.2,61.55,51.2,61.38,51.02,61.28z M54.93,59.02l-1.54-0.89
									c-0.18-0.1-0.47-0.1-0.65,0l-2.79,1.61c-0.18,0.1-0.18,0.27,0,0.37L51.5,61c0.18,0.1,0.47,0.1,0.65,0l2.79-1.61
									C55.11,59.29,55.11,59.12,54.93,59.02z M66.05,61.97l-1.54-0.89c-0.18-0.1-0.47-0.1-0.65,0l-1.83,1.06
									c-0.18,0.1-0.18,0.27,0,0.37l1.54,0.89c0.18,0.1,0.47,0.1,0.65,0l1.83-1.06C66.23,62.24,66.23,62.08,66.05,61.97z
									 M69.01,60.27l-1.54-0.89c-0.18-0.1-0.47-0.1-0.65,0l-1.83,1.06c-0.18,0.1-0.18,0.27,0,0.37l1.54,0.89
									c0.18,0.1,0.47,0.1,0.65,0l1.83-1.06C69.19,60.54,69.19,60.37,69.01,60.27z M71.97,58.56l-1.54-0.89
									c-0.18-0.1-0.47-0.1-0.65,0l-1.83,1.06c-0.18,0.1-0.18,0.27,0,0.37l1.54,0.89c0.18,0.1,0.47,0.1,0.65,0l1.83-1.06
									C72.15,58.83,72.15,58.66,71.97,58.56z M68.76,63.54l-1.54-0.89c-0.18-0.1-0.47-0.1-0.65,0l-1.83,1.06
									c-0.18,0.1-0.18,0.27,0,0.37l1.54,0.89c0.18,0.1,0.47,0.1,0.65,0l1.83-1.06C68.94,63.81,68.94,63.64,68.76,63.54z
									 M71.72,61.83l-1.54-0.89c-0.18-0.1-0.47-0.1-0.65,0L67.7,62c-0.18,0.1-0.18,0.27,0,0.37l1.54,0.89
									c0.18,0.1,0.47,0.1,0.64,0l1.83-1.06C71.9,62.1,71.9,61.93,71.72,61.83z M74.68,60.12l-1.54-0.89c-0.18-0.1-0.47-0.1-0.65,0
									l-1.83,1.06c-0.18,0.1-0.18,0.27,0,0.37l1.54,0.89c0.18,0.1,0.47,0.1,0.65,0l1.83-1.06C74.86,60.39,74.86,60.22,74.68,60.12
									z M31.05,75.95l-1.54-0.89c-0.18-0.1-0.47-0.1-0.65,0l-2.79,1.61c-0.18,0.1-0.18,0.27,0,0.37l1.54,0.89
									c0.18,0.1,0.47,0.1,0.65,0l2.79-1.61C31.23,76.22,31.23,76.05,31.05,75.95z M34.01,74.24l-1.54-0.89
									c-0.18-0.1-0.47-0.1-0.65,0l-1.83,1.06c-0.18,0.1-0.18,0.27,0,0.37l1.54,0.89c0.18,0.1,0.47,0.1,0.65,0l1.83-1.06
									C34.19,74.51,34.19,74.34,34.01,74.24z M36.97,72.53l-1.54-0.89c-0.18-0.1-0.47-0.1-0.64,0l-1.83,1.06
									c-0.18,0.1-0.18,0.27,0,0.37l1.54,0.89c0.18,0.1,0.47,0.1,0.65,0l1.83-1.06C37.15,72.8,37.15,72.63,36.97,72.53z
									 M39.93,70.82l-1.54-0.89c-0.18-0.1-0.47-0.1-0.65,0l-1.83,1.06c-0.18,0.1-0.18,0.27,0,0.37l1.54,0.89
									c0.18,0.1,0.47,0.1,0.65,0l1.83-1.06C40.11,71.09,40.11,70.92,39.93,70.82z M42.89,69.11l-1.54-0.89
									c-0.18-0.1-0.47-0.1-0.65,0l-1.83,1.06c-0.18,0.1-0.18,0.27,0,0.37l1.54,0.89c0.18,0.1,0.47,0.1,0.65,0l1.83-1.06
									C43.07,69.38,43.07,69.21,42.89,69.11z M45.85,67.4l-1.54-0.89c-0.18-0.1-0.47-0.1-0.65,0l-1.83,1.06
									c-0.18,0.1-0.18,0.27,0,0.37l1.54,0.89c0.18,0.1,0.47,0.1,0.65,0l1.83-1.06C46.03,67.67,46.03,67.5,45.85,67.4z
									 M48.81,65.69l-1.54-0.89c-0.18-0.1-0.47-0.1-0.65,0l-1.83,1.06c-0.18,0.1-0.18,0.27,0,0.37l1.54,0.89
									c0.18,0.1,0.47,0.1,0.65,0l1.83-1.06C48.99,65.96,48.99,65.8,48.81,65.69z M51.77,63.98l-1.54-0.89
									c-0.18-0.1-0.47-0.1-0.65,0l-1.83,1.06c-0.18,0.1-0.18,0.27,0,0.37l1.54,0.89c0.18,0.1,0.47,0.1,0.65,0l1.83-1.06
									C51.95,64.25,51.95,64.09,51.77,63.98z M54.73,62.27l-1.54-0.89c-0.18-0.1-0.47-0.1-0.65,0l-1.83,1.06
									c-0.18,0.1-0.18,0.27,0,0.37l1.54,0.89c0.18,0.1,0.47,0.1,0.65,0l1.83-1.06C54.91,62.54,54.91,62.38,54.73,62.27z
									 M57.69,60.57l-1.54-0.89c-0.18-0.1-0.47-0.1-0.65,0l-1.83,1.06c-0.18,0.1-0.18,0.27,0,0.37L55.21,62
									c0.18,0.1,0.47,0.1,0.65,0l1.83-1.06C57.87,60.84,57.87,60.67,57.69,60.57z M32.72,78.06l-1.54-0.89
									c-0.18-0.1-0.47-0.1-0.65,0l-1.83,1.06c-0.18,0.1-0.18,0.27,0,0.37l1.54,0.89c0.18,0.1,0.47,0.1,0.64,0l1.83-1.06
									C32.89,78.33,32.89,78.16,32.72,78.06z M35.68,76.35l-1.54-0.89c-0.18-0.1-0.47-0.1-0.65,0l-1.83,1.06
									c-0.18,0.1-0.18,0.27,0,0.37l1.54,0.89c0.18,0.1,0.47,0.1,0.65,0l1.83-1.06C35.85,76.62,35.85,76.45,35.68,76.35z
									 M38.64,74.64l-1.54-0.89c-0.18-0.1-0.47-0.1-0.64,0l-1.83,1.06c-0.18,0.1-0.18,0.27,0,0.37l1.54,0.89
									c0.18,0.1,0.47,0.1,0.65,0l1.83-1.06C38.81,74.91,38.81,74.74,38.64,74.64z M41.6,72.93l-1.54-0.89
									c-0.18-0.1-0.47-0.1-0.65,0l-1.83,1.06c-0.18,0.1-0.18,0.27,0,0.37l1.54,0.89c0.18,0.1,0.47,0.1,0.65,0l1.83-1.06
									C41.77,73.2,41.77,73.03,41.6,72.93z M38.08,81.16l-1.54-0.89c-0.18-0.1-0.47-0.1-0.65,0l-1.83,1.06
									c-0.18,0.1-0.18,0.27,0,0.37l1.54,0.89c0.18,0.1,0.47,0.1,0.65,0l1.83-1.06C38.26,81.43,38.26,81.26,38.08,81.16z
									 M41.04,79.45l-1.54-0.89c-0.18-0.1-0.47-0.1-0.65,0l-1.83,1.06c-0.18,0.1-0.18,0.27,0,0.37l1.54,0.89
									c0.18,0.1,0.47,0.1,0.65,0l1.83-1.06C41.22,79.72,41.22,79.55,41.04,79.45z M44,77.74l-1.54-0.89c-0.18-0.1-0.47-0.1-0.65,0
									l-1.83,1.06c-0.18,0.1-0.18,0.27,0,0.37l1.54,0.89c0.18,0.1,0.47,0.1,0.65,0L44,78.11C44.18,78.01,44.18,77.84,44,77.74z
									 M46.96,76.03l-1.54-0.89c-0.18-0.1-0.47-0.1-0.65,0l-1.83,1.06c-0.18,0.1-0.18,0.27,0,0.37l1.54,0.89
									c0.18,0.1,0.47,0.1,0.65,0l1.83-1.06C47.14,76.3,47.14,76.13,46.96,76.03z M65.66,65.24l-1.54-0.89
									c-0.18-0.1-0.47-0.1-0.65,0l-2.79,1.61c-0.18,0.1-0.18,0.27,0,0.37l1.54,0.89c0.18,0.1,0.47,0.1,0.65,0l2.79-1.61
									C65.84,65.5,65.84,65.34,65.66,65.24z M44.56,71.22l-1.54-0.89c-0.18-0.1-0.47-0.1-0.65,0l-1.83,1.06
									c-0.18,0.1-0.18,0.27,0,0.37l1.54,0.89c0.18,0.1,0.47,0.1,0.65,0l1.83-1.06C44.73,71.49,44.73,71.32,44.56,71.22z
									 M47.52,69.51l-1.54-0.89c-0.18-0.1-0.47-0.1-0.65,0l-1.83,1.06c-0.18,0.1-0.18,0.27,0,0.37l1.54,0.89
									c0.18,0.1,0.47,0.1,0.65,0l1.83-1.06C47.69,69.78,47.69,69.62,47.52,69.51z M50.48,67.8l-1.54-0.89
									c-0.18-0.1-0.47-0.1-0.65,0l-1.83,1.06c-0.18,0.1-0.18,0.27,0,0.37L48,69.23c0.18,0.1,0.47,0.1,0.65,0l1.83-1.06
									C50.65,68.07,50.65,67.91,50.48,67.8z M53.44,66.09l-1.54-0.89c-0.18-0.1-0.47-0.1-0.65,0l-1.83,1.06
									c-0.18,0.1-0.18,0.27,0,0.37l1.54,0.89c0.18,0.1,0.47,0.1,0.65,0l1.83-1.06C53.61,66.36,53.61,66.2,53.44,66.09z
									 M56.4,64.39l-1.54-0.89c-0.18-0.1-0.47-0.1-0.65,0l-1.83,1.06c-0.18,0.1-0.18,0.27,0,0.37l1.54,0.89
									c0.18,0.1,0.47,0.1,0.64,0l1.83-1.06C56.58,64.66,56.58,64.49,56.4,64.39z M60.31,62.13l-1.54-0.89
									c-0.18-0.1-0.47-0.1-0.65,0l-2.79,1.61c-0.18,0.1-0.18,0.27,0,0.37l1.54,0.89c0.18,0.1,0.47,0.1,0.65,0l2.79-1.61
									C60.49,62.4,60.49,62.23,60.31,62.13z M36.43,79.05l-1.54-0.89c-0.18-0.1-0.47-0.1-0.65,0l-2.79,1.61
									c-0.18,0.1-0.18,0.27,0,0.37l1.54,0.89c0.18,0.1,0.47,0.1,0.65,0l2.79-1.61C36.6,79.32,36.6,79.16,36.43,79.05z
									 M39.39,77.34l-1.54-0.89c-0.18-0.1-0.47-0.1-0.65,0l-1.83,1.06c-0.18,0.1-0.18,0.27,0,0.37l1.54,0.89
									c0.18,0.1,0.47,0.1,0.65,0l1.83-1.06C39.56,77.61,39.56,77.45,39.39,77.34z M42.35,75.64l-1.54-0.89
									c-0.18-0.1-0.47-0.1-0.65,0l-1.83,1.06c-0.18,0.1-0.18,0.27,0,0.37l1.54,0.89c0.18,0.1,0.47,0.1,0.65,0l1.83-1.06
									C42.53,75.9,42.53,75.74,42.35,75.64z M45.31,73.93l-1.54-0.89c-0.18-0.1-0.47-0.1-0.65,0l-1.83,1.06
									c-0.18,0.1-0.18,0.27,0,0.37l1.54,0.89c0.18,0.1,0.47,0.1,0.65,0l1.83-1.06C45.49,74.2,45.49,74.03,45.31,73.93z
									 M48.27,72.22l-1.54-0.89c-0.18-0.1-0.47-0.1-0.65,0l-1.83,1.06c-0.18,0.1-0.18,0.27,0,0.37l1.54,0.89
									c0.18,0.1,0.47,0.1,0.65,0l1.83-1.06C48.45,72.49,48.45,72.32,48.27,72.22z M61.81,67.49l-1.54-0.89
									c-0.18-0.1-0.47-0.1-0.65,0l-13.71,7.92c-0.18,0.1-0.18,0.27,0,0.37l1.54,0.89c0.18,0.1,0.47,0.1,0.65,0l13.71-7.92
									C61.99,67.76,61.99,67.59,61.81,67.49z M51.23,70.51l-1.54-0.89c-0.18-0.1-0.47-0.1-0.65,0l-1.83,1.06
									c-0.18,0.1-0.18,0.27,0,0.37l1.54,0.89c0.18,0.1,0.47,0.1,0.65,0l1.83-1.06C51.41,70.78,51.41,70.61,51.23,70.51z
									 M54.19,68.8l-1.54-0.89c-0.18-0.1-0.47-0.1-0.64,0l-1.83,1.06c-0.18,0.1-0.18,0.27,0,0.37l1.54,0.89
									c0.18,0.1,0.47,0.1,0.65,0l1.83-1.06C54.37,69.07,54.37,68.9,54.19,68.8z M57.15,67.09l-1.54-0.89
									c-0.18-0.1-0.47-0.1-0.65,0l-1.83,1.06c-0.18,0.1-0.18,0.27,0,0.37l1.54,0.89c0.18,0.1,0.47,0.1,0.65,0l1.83-1.06
									C57.33,67.36,57.33,67.19,57.15,67.09z M60.11,65.38l-1.54-0.89c-0.18-0.1-0.47-0.1-0.65,0l-1.83,1.06
									c-0.18,0.1-0.18,0.27,0,0.37l1.54,0.89c0.18,0.1,0.47,0.1,0.65,0l1.83-1.06C60.29,65.65,60.29,65.48,60.11,65.38z
									 M63.07,63.67l-1.54-0.89c-0.18-0.1-0.47-0.1-0.65,0l-1.83,1.06c-0.18,0.1-0.18,0.27,0,0.37l1.54,0.89
									c0.18,0.1,0.47,0.1,0.65,0l1.83-1.06C63.25,63.94,63.25,63.77,63.07,63.67z M57.95,57.3l-1.54-0.89
									c-0.18-0.1-0.47-0.1-0.65,0l-1.83,1.06c-0.18,0.1-0.18,0.27,0,0.37l1.54,0.89c0.18,0.1,0.47,0.1,0.65,0l1.83-1.06
									C58.13,57.57,58.13,57.4,57.95,57.3z M60.91,55.59l-1.54-0.89c-0.18-0.1-0.47-0.1-0.65,0l-1.83,1.06
									c-0.18,0.1-0.18,0.27,0,0.37l1.54,0.89c0.18,0.1,0.47,0.1,0.65,0l1.83-1.06C61.09,55.86,61.09,55.69,60.91,55.59z
									 M63.87,53.88l-1.54-0.89c-0.18-0.1-0.47-0.1-0.65,0l-1.83,1.06c-0.18,0.1-0.18,0.27,0,0.37l1.54,0.89
									c0.18,0.1,0.47,0.1,0.65,0l1.83-1.06C64.05,54.15,64.05,53.98,63.87,53.88z M66.57,55.44l-1.54-0.89
									c-0.18-0.1-0.47-0.1-0.65,0l-1.83,1.06c-0.18,0.1-0.18,0.27,0,0.37l1.54,0.89c0.18,0.1,0.47,0.1,0.65,0l1.83-1.06
									C66.75,55.71,66.75,55.54,66.57,55.44z"/>
							</g>
							<path class="st9" d="M74.48,74.5l-13.6,7.85c-0.31,0.18-0.8,0.18-1.11,0l-9.02-5.21c-0.31-0.18-0.31-0.46,0-0.64l13.6-7.85
								c0.31-0.18,0.8-0.18,1.11,0l9.02,5.21C74.79,74.04,74.79,74.32,74.48,74.5z"/>
							<path class="st10" d="M50.76,76.67l13.6-7.85c0.31-0.18,0.8-0.18,1.11,0l9.02,5.21c0.12,0.07,0.19,0.15,0.22,0.24
								c0.04-0.14-0.03-0.29-0.22-0.4l-9.02-5.21c-0.31-0.18-0.8-0.18-1.11,0l-13.6,7.85c-0.19,0.11-0.26,0.26-0.22,0.4
								C50.57,76.82,50.64,76.74,50.76,76.67z"/>
							<path class="st10" d="M59.77,51.8L21.24,74.04l-0.06,0.04l1.32,0.76l38.53-22.24l0.06-0.04L59.77,51.8z M22.5,74.74
								l-1.15-0.66l38.42-22.18l1.15,0.66L22.5,74.74z"/>
							<g>
								<path class="st4" d="M64.11,57.56l-2.03-1.17c-0.22-0.13-0.58-0.13-0.8,0l-4.65,2.68c-0.12,0.07-0.17,0.17-0.16,0.26
									c0,0.02,0,0.04,0,0.06c0,0.02,0,0.04,0,0.06c-0.02,0.09,0.03,0.19,0.16,0.26l4.05,2.34c0.22,0.13,0.58,0.13,0.8,0l7.71-4.45
									c0.12-0.07,0.17-0.17,0.16-0.26c0-0.02,0-0.04,0-0.06c0-0.02,0-0.04,0-0.06c0.02-0.09-0.03-0.19-0.16-0.26l-1.51-0.87
									c-0.15-0.08-0.39-0.09-0.53,0l-2.59,1.47C64.44,57.63,64.23,57.63,64.11,57.56z"/>
								<path class="st8" d="M69.19,56.88l-1.51-0.87c-0.15-0.08-0.39-0.09-0.53,0l-2.59,1.47c-0.13,0.07-0.33,0.07-0.45,0
									l-2.03-1.17c-0.22-0.13-0.58-0.13-0.8,0l-4.65,2.68c-0.22,0.13-0.22,0.34,0,0.46l4.05,2.34c0.22,0.13,0.58,0.13,0.8,0
									l7.71-4.45C69.41,57.21,69.41,57,69.19,56.88z"/>
							</g>
						</g>
						<g>
							<g>
								<defs>
									<path id="SVGID_00000161617255938142217850000004176431533201858987_" d="M39.84,87.34l1.59,0.91
										c0.18,0.11,0.33,0.04,0.33-0.14c0-0.18-0.15-0.42-0.33-0.53l-1.59-0.91c-0.18-0.11-0.33-0.04-0.33,0.14
										C39.51,87,39.66,87.24,39.84,87.34z"/>
								</defs>
								<use xlink:href="#SVGID_00000161617255938142217850000004176431533201858987_"  style="overflow:visible;fill:#291B2A;"/>
								<clipPath id="SVGID_00000041279037559474875620000007687614272366047879_">
									<use xlink:href="#SVGID_00000161617255938142217850000004176431533201858987_"  style="overflow:visible;"/>
								</clipPath>
								<path style="clip-path:url(#SVGID_00000041279037559474875620000007687614272366047879_);fill:#AD852C;" d="M41.25,88.05
									l0.22,0.13l0.78-0.45l-0.22-0.13L41.25,88.05z M40.76,87.77l0.22,0.13l0.78-0.45l-0.22-0.13L40.76,87.77z M40.28,87.49
									l0.22,0.13l0.78-0.45l-0.22-0.13L40.28,87.49z M39.79,87.21l0.22,0.13l0.78-0.45l-0.22-0.13L39.79,87.21z"/>
							</g>
						</g>
					</g>
				</g>
				<g>
					<g class="st12">
						<g>
							<g>
								<g>
									<polygon class="st13" points="59.26,44.09 21.14,65.96 16.94,38.34 55.07,16.47 									"/>
									<polygon class="st14" points="17.8,39.58 18.49,44.19 55.4,23.02 54.7,18.42 									"/>
									<polygon class="st14" points="55.08,16.56 16.95,38.43 16.69,36.72 54.82,14.85 									"/>
								</g>
								<g>
									<polygon class="st15" points="52.28,17.75 51.32,18.3 51.17,17.34 52.14,16.79 									"/>
									<polygon class="st15" points="53.48,17.06 52.51,17.62 52.37,16.66 53.33,16.11 									"/>
									<path class="st16" d="M52.54,16.72l0.1,0.65L53.3,17l-0.1-0.65L52.54,16.72z M53.17,16.95l-0.43,0.25l-0.07-0.43l0.43-0.25
										L53.17,16.95z"/>
									<polygon class="st15" points="54.67,16.38 53.71,16.93 53.56,15.97 54.53,15.42 									"/>
									<polygon class="st16" points="53.76,16.12 54.05,16.23 53.84,16.63 53.93,16.66 54.15,16.26 54.45,16.37 54.52,16.24 
										54.22,16.13 54.44,15.73 54.34,15.69 54.12,16.1 53.83,15.99 									"/>
									<polygon class="st16" points="52.09,17.69 51.48,18.05 51.46,17.93 52.07,17.58 									"/>
								</g>
							</g>
						</g>
						<path class="st14" d="M17.8,39.58l3.84,25.26l25.75-14.77c0-0.02,11.15-6.41,11.15-6.41L54.7,18.42L17.8,39.58z"/>
					</g>
					<g class="st17">
						<g>
							<g>
								<g>
									<polygon class="st13" points="64.79,43.36 25.73,65.96 22.83,37.33 61.9,14.72 									"/>
									<polygon class="st14" points="23.63,38.62 24.11,43.39 61.91,21.52 61.43,16.74 									"/>
									<polygon class="st14" points="61.9,14.82 22.84,37.42 22.66,35.64 61.73,13.04 									"/>
								</g>
								<g>
									<polygon class="st15" points="59.05,16.04 58.06,16.62 57.96,15.62 58.95,15.05 									"/>
									<polygon class="st15" points="60.28,15.33 59.29,15.91 59.19,14.91 60.18,14.34 									"/>
									<path class="st16" d="M59.36,14.98l0.07,0.68l0.68-0.39l-0.07-0.68L59.36,14.98z M59.98,15.22l-0.44,0.26l-0.05-0.45
										l0.44-0.26L59.98,15.22z"/>
									<polygon class="st15" points="61.5,14.62 60.51,15.2 60.41,14.2 61.4,13.63 									"/>
									<polygon class="st16" points="60.6,14.36 60.89,14.47 60.65,14.89 60.75,14.92 60.99,14.5 61.28,14.62 61.35,14.48 
										61.06,14.37 61.3,13.95 61.21,13.91 60.97,14.33 60.68,14.22 									"/>
									<polygon class="st16" points="58.86,15.99 58.23,16.35 58.21,16.23 58.85,15.87 									"/>
								</g>
							</g>
						</g>
						<path class="st14" d="M23.63,38.62l2.65,26.19l26.35-15.25c0-0.02,11.45-6.65,11.45-6.65l-2.65-26.17L23.63,38.62z"/>
					</g>
					<g>
						<g>
							<g>
								<polygon class="st18" points="71.11,42.42 29.95,66.18 29.95,35.94 71.11,12.18 								"/>
								<polygon class="st13" points="71.11,42.42 29.95,66.18 29.95,35.94 71.11,12.18 								"/>
								<polygon class="st19" points="30.62,37.39 30.62,64.95 70.44,41.94 70.44,14.4 								"/>
								<polygon class="st14" points="71.11,12.27 29.95,36.04 29.95,34.16 71.11,10.4 								"/>
							</g>
							<g>
								<polygon class="st15" points="68.13,13.57 67.08,14.18 67.08,13.13 68.13,12.52 								"/>
								<polygon class="st15" points="69.43,12.82 68.38,13.43 68.38,12.38 69.43,11.77 								"/>
								<path class="st16" d="M68.55,12.45v0.72l0.72-0.41v-0.72L68.55,12.45z M69.14,12.7l-0.47,0.27V12.5l0.47-0.27V12.7z"/>
								<polygon class="st15" points="70.73,12.07 69.68,12.68 69.68,11.63 70.73,11.02 								"/>
								<polygon class="st16" points="69.85,11.79 70.13,11.91 69.85,12.35 69.94,12.39 70.22,11.94 70.5,12.06 70.59,11.92 
									70.31,11.8 70.59,11.36 70.5,11.32 70.22,11.76 69.94,11.65 								"/>
								<polygon class="st16" points="67.95,13.51 67.28,13.9 67.28,13.77 67.95,13.38 								"/>
							</g>
						</g>
					</g>
				</g>
			</g>
		</g>
	</g>
</g>
</svg>
