<?xml version="1.0" encoding="utf-8"?>
<!-- Generator: Adobe Illustrator 27.3.1, SVG Export Plug-In . SVG Version: 6.00 Build 0)  -->
<svg version="1.1" id="Camada_1" xmlns="http://www.w3.org/2000/svg" xmlns:xlink="http://www.w3.org/1999/xlink" x="0px" y="0px"
	 viewBox="0 0 100 100" style="enable-background:new 0 0 100 100;" xml:space="preserve">
<style type="text/css">
	.st0{fill:#2C0142;}
	.st1{enable-background:new    ;}
	.st2{fill:url(#SVGID_1_);}
	.st3{fill:#CA88EF;}
	.st4{fill:url(#SVGID_00000073694959859279655890000018369382878006441123_);}
	.st5{fill:#8B3DCE;}
	.st6{fill:url(#SVGID_00000108272253235521381070000001219301070164344496_);}
	.st7{fill:#CB89F0;}
	.st8{fill:#101014;}
	.st9{fill:#8821D8;}
	.st10{fill:url(#SVGID_00000126316131965407890530000010176217892361916035_);}
	.st11{fill:url(#SVGID_00000025422026431375955860000007988708977976495789_);}
	.st12{fill:url(#SVGID_00000074444028660372499220000016985226610517038482_);}
	.st13{fill:#FFFFFF;}
	.st14{fill:url(#SVGID_00000007414043840873608910000009238454926960654525_);}
	.st15{opacity:0.6;fill:#B879D9;}
	.st16{clip-path:url(#SVGID_00000121959761613874670180000005548659070078375052_);enable-background:new    ;}
	.st17{fill:#FFD0FF;}
	.st18{opacity:0.5;fill:#CCCECE;}
	.st19{fill:url(#SVGID_00000098917573622980482360000012480327750436051134_);}
	.st20{opacity:0.3;}
	.st21{opacity:0.2;fill:#DE78FF;}
	.st22{fill:#7B38D4;}
	.st23{opacity:0.8;fill:#8821D8;}
	.st24{fill:#6811BC;}
	.st25{fill:#FFFFF7;}
	.st26{opacity:0.6;}
	.st27{opacity:0.8;clip-path:url(#SVGID_00000008127738162005790500000007026111724373639615_);}
	.st28{opacity:0.6;fill:#C68FD1;}
	.st29{fill:#C68FD1;}
	.st30{fill:#FFDDFF;}
</style>
<g id="_x31_3">
	<g>
		<g>
			<g>
				<path class="st0" d="M40.58,96.2c-0.1,0.06-0.21,0.09-0.33,0.09c-0.34,0.02-1.08,0.04-1.26-0.07l-10.71-6.18
					c-0.29-0.17-0.29-0.44,0-0.6l33.41-19.29c0.49-0.28,1.28-0.28,1.76,0l10.71,6.18C74.45,76.49,43,94.79,40.58,96.2z"/>
				<path class="st0" d="M82.78,64.8c-2.2-0.73-6.32-0.95-8.06,0.13c-2.8,1.73-0.96,3.36,1.32,4.75c5.64,3.45,7.5,3.59,10.64,2.15
					c0.93-0.43,1.48-1.11,1.48-1.78C88.15,69.38,86.65,66.09,82.78,64.8z"/>
			</g>
			<g>
				<g class="st1">
					<linearGradient id="SVGID_1_" gradientUnits="userSpaceOnUse" x1="35.371" y1="70.2144" x2="53.9229" y2="70.2144">
						<stop  offset="0" style="stop-color:#F5ABFF"/>
						<stop  offset="1" style="stop-color:#FFC5FF"/>
					</linearGradient>
					<polygon class="st2" points="48.45,64.84 35.37,72.43 40.84,75.59 53.92,68 					"/>
					<path class="st3" d="M54,68.09c-0.01-0.03-0.03-0.05-0.04-0.07c-0.03-0.03-13.11,7.56-13.11,7.56c0.05,0.05,0.06,0.07,0.07,0.1
						c0.09,0.2,0.08,0.63-0.02,0.69l13.08-7.59C54.08,68.73,54.09,68.3,54,68.09z"/>
					
						<linearGradient id="SVGID_00000109751109000773033550000000068453506036871823_" gradientUnits="userSpaceOnUse" x1="42.7859" y1="63.1112" x2="44.8591" y2="66.702">
						<stop  offset="0" style="stop-color:#B578D7"/>
						<stop  offset="1" style="stop-color:#CB89F0"/>
					</linearGradient>
					<path style="fill:url(#SVGID_00000109751109000773033550000000068453506036871823_);" d="M47.39,63.58
						c-0.24-0.55-0.29-1.08-0.12-1.45l3.56-7.87l-13.08,7.59l-3.56,7.87c-0.17,0.36-0.13,0.89,0.12,1.44c0.13,0.3,0.3,0.57,0.5,0.79
						c0.17,0.19,0.36,0.35,0.56,0.47l13.08-7.59c-0.2-0.12-0.39-0.28-0.56-0.47C47.69,64.14,47.52,63.87,47.39,63.58z"/>
					<path class="st5" d="M40.84,75.59l-5.47-3.16c-0.44-0.25-0.82-0.71-1.06-1.26c-0.24-0.55-0.29-1.08-0.12-1.45l3.56-7.87
						l0.02-0.14l0.02-7.66c0-0.22-0.15-0.48-0.34-0.59c-0.18-0.11-0.33-0.02-0.33,0.2l-0.02,7.59l-3.54,7.81
						c-0.25,0.56-0.18,1.39,0.19,2.22c0.35,0.82,0.96,1.55,1.62,1.93l5.47,3.16C41.02,76.48,41.03,75.7,40.84,75.59z"/>
					<path class="st5" d="M50.82,46.2c-0.03-0.07-0.07-0.14-0.13-0.2c-0.05-0.05-0.1-0.1-0.16-0.13c-0.09-0.05-0.17-0.06-0.23-0.02
						l-13.08,7.59c0.06-0.03,0.14-0.03,0.23,0.02c0.06,0.03,0.11,0.08,0.16,0.13c0.05,0.06,0.09,0.13,0.13,0.2
						c0.04,0.09,0.06,0.18,0.06,0.26l-0.02,7.66l-0.02,0.14l13.08-7.59l0.02-0.14l0.02-7.66C50.88,46.38,50.86,46.29,50.82,46.2z"/>
				</g>
				<g id="_x31__2_">
					<polygon class="st5" points="16.74,77.95 15.7,77.34 15.68,36.44 16.73,37.05 					"/>
					
						<linearGradient id="SVGID_00000155837891841649408690000008232952229476801928_" gradientUnits="userSpaceOnUse" x1="15.6793" y1="21.0266" x2="71.1662" y2="21.0266">
						<stop  offset="0" style="stop-color:#F5ABFF"/>
						<stop  offset="0.4557" style="stop-color:#FFC5FF"/>
						<stop  offset="1" style="stop-color:#FFDEFF"/>
					</linearGradient>
					<polygon style="fill:url(#SVGID_00000155837891841649408690000008232952229476801928_);" points="16.73,37.05 15.68,36.44 
						70.12,5.01 71.17,5.62 					"/>
					<polygon class="st7" points="71.17,5.62 71.18,46.52 16.74,77.95 16.73,37.05 					"/>
					<polygon class="st8" points="16.96,37.24 70.92,6.08 70.91,41.52 16.96,72.67 					"/>
				</g>
				<path class="st9" d="M47.52,57.98l-1.92,1.11c-0.26,0.15-0.48,0.06-0.48-0.2c0-0.26,0.21-0.6,0.48-0.75l1.92-1.11
					c0.26-0.15,0.48-0.06,0.48,0.2C48,57.49,47.78,57.83,47.52,57.98z"/>
			</g>
			<g>
				
					<linearGradient id="SVGID_00000058589258986961335850000001122039500092787867_" gradientUnits="userSpaceOnUse" x1="41.3339" y1="82.8453" x2="39.3828" y2="82.8453">
					<stop  offset="0" style="stop-color:#B879D9"/>
					<stop  offset="1" style="stop-color:#8B3DCE"/>
				</linearGradient>
				<path style="fill:url(#SVGID_00000058589258986961335850000001122039500092787867_);" d="M74.13,75.71l-10.71-6.18
					c-0.29-0.17-0.76-0.17-1.04,0L28.97,88.82c-0.14,0.08-0.21,0.18-0.22,0.29l0,0.57c0,0.11,0.07,0.22,0.22,0.3l10.71,6.18
					c0.29,0.17,0.76,0.17,1.04,0l33.41-19.29c0.14-0.08,0.22-0.19,0.22-0.3v-0.55C74.35,75.91,74.28,75.8,74.13,75.71z"/>
				<g>
					
						<linearGradient id="SVGID_00000129922883468662437020000005569999670611796132_" gradientUnits="userSpaceOnUse" x1="28.7507" y1="82.5676" x2="74.348" y2="82.5676">
						<stop  offset="0" style="stop-color:#F5ABFF"/>
						<stop  offset="0.4557" style="stop-color:#FFC5FF"/>
						<stop  offset="1" style="stop-color:#FFDEFF"/>
					</linearGradient>
					<path style="fill:url(#SVGID_00000129922883468662437020000005569999670611796132_);" d="M74.13,76.32L40.72,95.61
						c-0.29,0.17-0.76,0.17-1.04,0l-10.71-6.18c-0.29-0.17-0.29-0.44,0-0.6l33.41-19.29c0.29-0.17,0.76-0.17,1.04,0l10.71,6.18
						C74.42,75.88,74.42,76.15,74.13,76.32z"/>
					
						<linearGradient id="SVGID_00000136370740629793488320000017861287964577252772_" gradientUnits="userSpaceOnUse" x1="31.3193" y1="82.616" x2="71.1326" y2="82.616">
						<stop  offset="0" style="stop-color:#B578D7"/>
						<stop  offset="1" style="stop-color:#CB89F0"/>
					</linearGradient>
					<path style="fill:url(#SVGID_00000136370740629793488320000017861287964577252772_);" d="M57.63,73.45
						c-0.01-0.15,0.01-0.21,0.09-0.26l1.37-0.79c0.13-0.08,0.35-0.08,0.48,0l1.15,0.67c0.08,0.04,0.1,0.1,0.09,0.16
						c0.01,0.15-0.01,0.21-0.09,0.26l-1.37,0.79c-0.13,0.08-0.35,0.08-0.48,0l-1.15-0.67C57.65,73.57,57.62,73.51,57.63,73.45z
						 M59.94,72.34L61.09,73c0.13,0.08,0.35,0.08,0.48,0l1.37-0.79c0.08-0.04,0.1-0.1,0.09-0.16c0.01-0.15-0.01-0.21-0.09-0.26
						l-1.15-0.67c-0.13-0.08-0.35-0.08-0.48,0l-1.37,0.79c-0.08,0.04-0.1,0.1-0.09,0.16C59.84,72.23,59.86,72.29,59.94,72.34z
						 M55.51,74.9l1.15,0.67c0.13,0.08,0.35,0.08,0.48,0l1.37-0.79c0.08-0.04,0.1-0.1,0.09-0.16c0.01-0.15-0.01-0.21-0.09-0.26
						l-1.15-0.67c-0.13-0.08-0.35-0.08-0.48,0l-1.37,0.79c-0.08,0.04-0.1,0.1-0.09,0.16C55.41,74.79,55.43,74.85,55.51,74.9z
						 M37.65,89.84l1.15,0.67c0.13,0.08,0.35,0.08,0.48,0l1.37-0.79c0.08-0.04,0.1-0.1,0.09-0.16c0.01-0.15-0.01-0.21-0.09-0.26
						l-1.15-0.67c-0.13-0.08-0.35-0.08-0.48,0l-1.37,0.79c-0.08,0.04-0.1,0.1-0.09,0.16C37.55,89.74,37.58,89.8,37.65,89.84z
						 M42.49,82.4l1.15,0.67c0.13,0.08,0.35,0.08,0.48,0l1.37-0.79c0.08-0.04,0.1-0.1,0.09-0.16c0.01-0.15-0.01-0.21-0.09-0.26
						l-1.15-0.67c-0.13-0.08-0.35-0.08-0.48,0l-1.37,0.79c-0.08,0.04-0.1,0.1-0.09,0.16C42.39,82.3,42.41,82.36,42.49,82.4z
						 M46.92,79.84l1.15,0.67c0.13,0.08,0.35,0.08,0.48,0l1.37-0.79c0.08-0.04,0.1-0.1,0.09-0.16c0.01-0.15-0.01-0.21-0.09-0.26
						l-1.15-0.67c-0.13-0.08-0.35-0.08-0.48,0l-1.37,0.79c-0.08,0.04-0.1,0.1-0.09,0.16C46.82,79.74,46.84,79.8,46.92,79.84z
						 M51.35,77.29l1.15,0.67c0.13,0.08,0.35,0.08,0.48,0l2.09-1.2c0.08-0.04,0.1-0.1,0.09-0.16c0.01-0.15-0.01-0.21-0.09-0.26
						l-1.15-0.67c-0.13-0.08-0.35-0.08-0.48,0l-2.09,1.2c-0.08,0.04-0.1,0.1-0.09,0.16C51.25,77.18,51.27,77.24,51.35,77.29z
						 M49.13,78.56l1.15,0.67c0.13,0.08,0.35,0.08,0.48,0l1.37-0.79c0.08-0.04,0.1-0.1,0.09-0.16c0.01-0.15-0.01-0.21-0.09-0.26
						l-1.15-0.67c-0.13-0.08-0.35-0.08-0.48,0l-1.37,0.79c-0.08,0.04-0.1,0.1-0.09,0.16C49.03,78.46,49.06,78.52,49.13,78.56z
						 M44.7,81.12l1.15,0.67c0.13,0.08,0.35,0.08,0.48,0L47.71,81c0.08-0.04,0.1-0.1,0.09-0.16c0.01-0.15-0.01-0.21-0.09-0.26
						l-1.15-0.67c-0.13-0.08-0.35-0.08-0.48,0L44.7,80.7c-0.08,0.04-0.1,0.1-0.09,0.16C44.6,81.02,44.63,81.08,44.7,81.12z
						 M54.13,78.03l1.15,0.67c0.13,0.08,0.35,0.08,0.48,0l1.37-0.79c0.08-0.04,0.1-0.1,0.09-0.16c0.01-0.15-0.01-0.21-0.09-0.26
						l-1.15-0.67c-0.13-0.08-0.35-0.08-0.48,0l-1.37,0.79c-0.08,0.04-0.1,0.1-0.09,0.16C54.02,77.93,54.05,77.99,54.13,78.03z
						 M36.41,88.26l1.15,0.67c0.13,0.08,0.35,0.08,0.48,0l1.37-0.79c0.08-0.04,0.1-0.1,0.09-0.16c0.01-0.15-0.01-0.21-0.09-0.26
						l-1.15-0.67c-0.13-0.08-0.35-0.08-0.48,0l-1.37,0.79c-0.08,0.04-0.1,0.1-0.09,0.16C36.3,88.16,36.33,88.22,36.41,88.26z
						 M51.91,79.31l1.15,0.67c0.13,0.08,0.35,0.08,0.48,0l1.37-0.79c0.08-0.04,0.1-0.1,0.09-0.16c0.01-0.15-0.01-0.21-0.09-0.26
						l-1.15-0.67c-0.13-0.08-0.35-0.08-0.48,0l-1.37,0.79c-0.08,0.04-0.1,0.1-0.09,0.16C51.81,79.2,51.83,79.26,51.91,79.31z
						 M49.7,80.59l1.15,0.67c0.13,0.08,0.35,0.08,0.48,0l1.37-0.79c0.08-0.04,0.1-0.1,0.09-0.16c0.01-0.15-0.01-0.21-0.09-0.26
						l-1.15-0.67c-0.13-0.08-0.35-0.08-0.48,0l-1.37,0.79c-0.08,0.04-0.1,0.1-0.09,0.16C49.59,80.48,49.62,80.54,49.7,80.59z
						 M47.48,81.87l1.15,0.67c0.13,0.08,0.35,0.08,0.48,0l1.37-0.79c0.08-0.04,0.1-0.1,0.09-0.16c0.01-0.15-0.01-0.21-0.09-0.26
						l-1.15-0.67c-0.13-0.08-0.35-0.08-0.48,0l-1.37,0.79c-0.08,0.04-0.1,0.1-0.09,0.16C47.38,81.76,47.4,81.82,47.48,81.87z
						 M38.62,86.98l1.15,0.67c0.13,0.08,0.35,0.08,0.48,0l1.37-0.79c0.08-0.04,0.1-0.1,0.09-0.16c0.01-0.15-0.01-0.21-0.09-0.26
						l-1.15-0.67c-0.13-0.08-0.35-0.08-0.48,0l-1.37,0.79c-0.08,0.04-0.1,0.1-0.09,0.16C38.52,86.88,38.54,86.94,38.62,86.98z
						 M40.84,85.7l1.15,0.67c0.13,0.08,0.35,0.08,0.48,0l1.37-0.79c0.08-0.04,0.1-0.1,0.09-0.16c0.01-0.15-0.01-0.21-0.09-0.26
						c-1.7-0.98-1.12-0.96-3.01,0.13c-0.08,0.04-0.1,0.1-0.09,0.16C40.73,85.6,40.76,85.66,40.84,85.7z M43.05,84.42l1.15,0.67
						c0.13,0.08,0.35,0.08,0.48,0l1.37-0.79c0.08-0.04,0.1-0.1,0.09-0.16c0.01-0.15-0.01-0.21-0.09-0.26l-1.15-0.67
						c-0.13-0.08-0.35-0.08-0.48,0L43.05,84c-0.08,0.04-0.1,0.1-0.09,0.16C42.95,84.32,42.97,84.38,43.05,84.42z M45.27,83.15
						c1.13,0.65,1.33,0.84,1.64,0.67l1.37-0.79c0.08-0.04,0.1-0.1,0.09-0.16c0.01-0.15-0.01-0.21-0.09-0.26l-1.15-0.67
						c-0.13-0.08-0.35-0.08-0.48,0l-1.37,0.79c-0.08,0.04-0.1,0.1-0.09,0.16C45.16,83.04,45.19,83.1,45.27,83.15z M41.32,91.58
						c0.01-0.15-0.01-0.21-0.09-0.26l-1.15-0.67c-0.13-0.08-0.35-0.08-0.48,0l-2.09,1.2c-0.08,0.04-0.1,0.1-0.09,0.16
						c-0.01,0.15,0.01,0.21,0.09,0.26l1.15,0.67c0.13,0.08,0.35,0.08,0.48,0l2.09-1.2C41.3,91.69,41.33,91.63,41.32,91.58z
						 M38.54,90.83c0.01-0.15-0.01-0.21-0.09-0.26l-1.15-0.67c-0.13-0.08-0.35-0.08-0.48,0l-1.37,0.79c-0.08,0.04-0.1,0.1-0.09,0.16
						c-0.01,0.15,0.01,0.21,0.09,0.26l1.15,0.67c0.13,0.08,0.35,0.08,0.48,0l1.37-0.79C38.53,90.95,38.55,90.89,38.54,90.83z
						 M40.27,83.68c1.66,0.96,1.09,0.98,3.01-0.13c0.08-0.04,0.1-0.1,0.09-0.16c0.01-0.15-0.01-0.21-0.09-0.26l-1.15-0.67
						c-0.13-0.08-0.35-0.08-0.48,0l-1.37,0.79c-0.08,0.04-0.1,0.1-0.09,0.16C40.17,83.58,40.2,83.64,40.27,83.68z M64.67,78.11
						c0.01-0.15-0.01-0.21-0.09-0.26l-1.15-0.67c-0.13-0.08-0.35-0.08-0.48,0l-1.37,0.79c-0.08,0.04-0.1,0.1-0.09,0.16
						c-0.01,0.15,0.01,0.21,0.09,0.26l1.15,0.67c0.13,0.08,0.35,0.08,0.48,0l1.37-0.79C64.66,78.23,64.69,78.17,64.67,78.11z
						 M37.29,89.25c0.01-0.15-0.01-0.21-0.09-0.26l-1.15-0.67c-0.13-0.08-0.35-0.08-0.48,0l-2.09,1.2c-0.08,0.04-0.1,0.1-0.09,0.16
						c-0.01,0.15,0.01,0.21,0.09,0.26l1.15,0.67c0.13,0.08,0.35,0.08,0.48,0l2.09-1.2C37.28,89.37,37.3,89.31,37.29,89.25z
						 M38.06,84.96l1.15,0.67c0.13,0.08,0.35,0.08,0.48,0l1.37-0.79c0.08-0.04,0.1-0.1,0.09-0.16c0.01-0.15-0.01-0.21-0.09-0.26
						l-1.15-0.67c-0.13-0.08-0.35-0.08-0.48,0l-1.37,0.79c-0.08,0.04-0.1,0.1-0.09,0.16C37.96,84.85,37.98,84.91,38.06,84.96z
						 M35.84,86.24L37,86.9c0.13,0.08,0.35,0.08,0.48,0l1.37-0.79c0.08-0.04,0.1-0.1,0.09-0.16c0.01-0.15-0.01-0.21-0.09-0.26
						l-1.15-0.67c-0.13-0.08-0.35-0.08-0.48,0l-1.37,0.79c-0.08,0.04-0.1,0.1-0.09,0.16C35.74,86.13,35.77,86.19,35.84,86.24z
						 M34.51,88.51c0.01-0.15-0.01-0.21-0.09-0.26l-1.15-0.67c-0.13-0.08-0.35-0.08-0.48,0l-1.37,0.79c-0.08,0.04-0.1,0.1-0.09,0.16
						c-0.01,0.15,0.01,0.21,0.09,0.26l1.15,0.67c0.13,0.08,0.35,0.08,0.48,0l1.37-0.79C34.5,88.62,34.53,88.56,34.51,88.51z
						 M33.63,87.52l1.15,0.67c0.13,0.08,0.35,0.08,0.48,0l1.37-0.79c0.08-0.04,0.1-0.1,0.09-0.16c0.01-0.15-0.01-0.21-0.09-0.26
						l-1.15-0.67c-0.13-0.08-0.35-0.08-0.48,0l-1.37,0.79c-0.08,0.04-0.1,0.1-0.09,0.16C33.53,87.41,33.55,87.47,33.63,87.52z
						 M71.13,76.63c0.01-0.06-0.01-0.12-0.09-0.16l-1.15-0.67c-0.13-0.08-0.35-0.08-0.48,0l-1.37,0.79c-0.08,0.04-0.1,0.1-0.09,0.16
						c-0.01,0.15,0.01,0.21,0.09,0.26l1.15,0.67c0.13,0.08,0.35,0.08,0.48,0l1.37-0.79c0.08-0.04,0.1-0.1,0.09-0.16
						C71.13,76.66,71.13,76.64,71.13,76.63z M63.13,74.49l-1.52-0.88c-0.17-0.1-0.43-0.1-0.6,0l-3.48,2.01
						c-0.09,0.05-0.13,0.13-0.12,0.2c-0.01,0.16,0.02,0.24,0.12,0.29l3.03,1.75c0.17,0.1,0.43,0.1,0.6,0l5.77-3.33
						c0.09-0.05,0.13-0.13,0.12-0.2c0.01-0.16-0.02-0.24-0.12-0.29l-1.13-0.65c-0.11-0.06-0.29-0.06-0.4,0l-1.94,1.1
						C63.37,74.54,63.22,74.54,63.13,74.49z M61.16,79.81l-1.15-0.67c-0.13-0.08-0.35-0.08-0.48,0l-1.37,0.79
						c-0.08,0.04-0.1,0.1-0.09,0.16c-0.01,0.15,0.01,0.21,0.09,0.26l1.15,0.67c0.13,0.08,0.35,0.08,0.48,0l1.37-0.79
						c0.08-0.04,0.1-0.1,0.09-0.16C61.27,79.91,61.24,79.85,61.16,79.81z M66.8,76.57l-1.15-0.67c-0.13-0.08-0.35-0.08-0.48,0
						l-1.37,0.79c-0.08,0.04-0.1,0.1-0.09,0.16c-0.01,0.15,0.01,0.21,0.09,0.26l1.15,0.67c0.13,0.08,0.35,0.08,0.48,0l1.37-0.79
						c0.08-0.04,0.1-0.1,0.09-0.16C66.9,76.68,66.87,76.62,66.8,76.57z M56.73,82.37l-1.15-0.67c-0.13-0.08-0.35-0.08-0.48,0
						l-1.37,0.79c-0.08,0.04-0.1,0.1-0.09,0.16c-0.01,0.15,0.01,0.21,0.09,0.26l1.15,0.67c0.13,0.08,0.35,0.08,0.48,0l1.37-0.79
						c0.08-0.04,0.1-0.1,0.09-0.16C56.83,82.47,56.81,82.41,56.73,82.37z M65.91,75.58c-0.01,0.15,0.01,0.21,0.09,0.26l1.15,0.67
						c0.13,0.08,0.35,0.08,0.48,0l1.37-0.79c0.08-0.04,0.1-0.1,0.09-0.16c0.01-0.15-0.01-0.21-0.09-0.26l-1.15-0.67
						c-0.13-0.08-0.35-0.08-0.48,0L66,75.42C65.93,75.46,65.9,75.52,65.91,75.58z M47.87,87.48l-1.15-0.67
						c-0.13-0.08-0.35-0.08-0.48,0l-1.37,0.79c-0.08,0.04-0.1,0.1-0.09,0.16c-0.01,0.15,0.01,0.21,0.09,0.26l1.15,0.67
						c0.13,0.08,0.35,0.08,0.48,0l1.37-0.79c0.08-0.04,0.1-0.1,0.09-0.16C47.97,87.59,47.95,87.53,47.87,87.48z M52.3,84.92
						l-1.15-0.67c-0.13-0.08-0.35-0.08-0.48,0l-1.37,0.79c-0.08,0.04-0.1,0.1-0.09,0.16c-0.01,0.15,0.01,0.21,0.09,0.26l1.15,0.67
						c0.13,0.08,0.35,0.08,0.48,0l1.37-0.79c0.08-0.04,0.1-0.1,0.09-0.16C52.4,85.03,52.38,84.97,52.3,84.92z M50.09,86.2
						l-1.15-0.67c-0.13-0.08-0.35-0.08-0.48,0l-1.37,0.79c-0.08,0.04-0.1,0.1-0.09,0.16c-0.01,0.15,0.01,0.21,0.09,0.26l1.15,0.67
						c0.13,0.08,0.35,0.08,0.48,0l1.37-0.79c0.08-0.04,0.1-0.1,0.09-0.16C50.19,86.31,50.16,86.25,50.09,86.2z M45.66,88.76
						l-1.15-0.67c-0.13-0.08-0.35-0.08-0.48,0l-1.37,0.79c-0.08,0.04-0.1,0.1-0.09,0.16c-0.01,0.15,0.01,0.21,0.09,0.26l1.15,0.67
						c0.13,0.08,0.35,0.08,0.48,0l1.37-0.79c0.08-0.04,0.1-0.1,0.09-0.16C45.76,88.87,45.73,88.81,45.66,88.76z M43.44,90.04
						l-1.15-0.67c-0.13-0.08-0.35-0.08-0.48,0l-1.37,0.79c-0.08,0.04-0.1,0.1-0.09,0.16c-0.01,0.15,0.01,0.21,0.09,0.26l1.15,0.67
						c0.13,0.08,0.35,0.08,0.48,0l1.37-0.79c0.08-0.04,0.1-0.1,0.09-0.16C43.54,90.14,43.52,90.08,43.44,90.04z M54.52,83.65
						l-1.15-0.67c-0.13-0.08-0.35-0.08-0.48,0l-1.37,0.79c-0.08,0.04-0.1,0.1-0.09,0.16c-0.01,0.15,0.01,0.21,0.09,0.26l1.15,0.67
						c0.13,0.08,0.35,0.08,0.48,0l1.37-0.79c0.08-0.04,0.1-0.1,0.09-0.16C54.62,83.75,54.59,83.69,54.52,83.65z M58.95,81.09
						l-1.15-0.67c-0.13-0.08-0.35-0.08-0.48,0l-1.37,0.79c-0.08,0.04-0.1,0.1-0.09,0.16c-0.01,0.15,0.01,0.21,0.09,0.26l1.15,0.67
						c0.13,0.08,0.35,0.08,0.48,0l1.37-0.79c0.08-0.04,0.1-0.1,0.09-0.16C59.05,81.19,59.02,81.13,58.95,81.09z M46.9,90.34
						l-1.15-0.67c-0.13-0.08-0.35-0.08-0.48,0l-1.37,0.79c-0.08,0.04-0.1,0.1-0.09,0.16c-0.01,0.15,0.01,0.21,0.09,0.26l1.15,0.67
						c0.13,0.08,0.35,0.08,0.48,0l1.37-0.79c0.08-0.04,0.1-0.1,0.09-0.16C47,90.44,46.97,90.38,46.9,90.34z M49.11,89.06l-1.15-0.67
						c-0.13-0.08-0.35-0.08-0.48,0l-1.37,0.79c-0.08,0.04-0.1,0.1-0.09,0.16C46,89.5,46.02,89.56,46.1,89.6l1.15,0.67
						c0.13,0.08,0.35,0.08,0.48,0l1.37-0.79c0.08-0.04,0.1-0.1,0.09-0.16C49.21,89.16,49.19,89.1,49.11,89.06z M44.68,91.61
						l-1.15-0.67c-0.13-0.08-0.35-0.08-0.48,0l-1.37,0.79c-0.08,0.04-0.1,0.1-0.09,0.16c-0.01,0.15,0.01,0.21,0.09,0.26l1.15,0.67
						c0.13,0.08,0.35,0.08,0.48,0l1.37-0.79c0.08-0.04,0.1-0.1,0.09-0.16C44.78,91.72,44.76,91.66,44.68,91.61z M42.46,92.89
						l-1.15-0.67c-0.13-0.08-0.35-0.08-0.48,0l-1.37,0.79c-0.08,0.04-0.1,0.1-0.09,0.16c-0.01,0.15,0.01,0.21,0.09,0.26l1.15,0.67
						c0.13,0.08,0.35,0.08,0.48,0l1.37-0.79c0.08-0.04,0.1-0.1,0.09-0.16C42.57,93,42.54,92.94,42.46,92.89z M59.1,78.65l-1.15-0.67
						c-0.13-0.08-0.35-0.08-0.48,0l-2.09,1.2c-0.08,0.04-0.1,0.1-0.09,0.16c-0.01,0.15,0.01,0.21,0.09,0.26l1.15,0.67
						c0.13,0.08,0.35,0.08,0.48,0l2.09-1.2c0.08-0.04,0.1-0.1,0.09-0.16C59.2,78.76,59.17,78.7,59.1,78.65z M63.1,80.98l-1.15-0.67
						c-0.13-0.08-0.35-0.08-0.48,0l-2.09,1.2c-0.08,0.04-0.1,0.1-0.09,0.16c-0.01,0.15,0.01,0.21,0.09,0.26l1.15,0.67
						c0.13,0.08,0.35,0.08,0.48,0l2.09-1.2c0.08-0.04,0.1-0.1,0.09-0.16C63.21,81.08,63.18,81.02,63.1,80.98z M68.82,77.74
						l-1.15-0.67c-0.13-0.08-0.35-0.08-0.48,0l-1.37,0.79c-0.08,0.04-0.1,0.1-0.09,0.16c-0.01,0.15,0.01,0.21,0.09,0.26l1.15,0.67
						c0.13,0.08,0.35,0.08,0.48,0l1.37-0.79c0.08-0.04,0.1-0.1,0.09-0.16C68.93,77.85,68.9,77.79,68.82,77.74z M66.61,79.02
						l-1.15-0.67c-0.13-0.08-0.35-0.08-0.48,0l-1.37,0.79c-0.08,0.04-0.1,0.1-0.09,0.16c-0.01,0.15,0.01,0.21,0.09,0.26l1.15,0.67
						c0.13,0.08,0.35,0.08,0.48,0l1.37-0.79c0.08-0.04,0.1-0.1,0.09-0.16C66.71,79.13,66.68,79.07,66.61,79.02z M60.22,82.66
						L59.07,82c-0.13-0.08-0.35-0.08-0.48,0l-10.26,5.92c-0.08,0.04-0.1,0.1-0.09,0.16c-0.01,0.15,0.01,0.21,0.09,0.26l1.15,0.67
						c0.13,0.08,0.35,0.08,0.48,0l10.26-5.92c0.08-0.04,0.1-0.1,0.09-0.16C60.33,82.77,60.3,82.71,60.22,82.66z M51.74,82.9
						l-1.15-0.67c-0.13-0.08-0.35-0.08-0.48,0l-1.37,0.79c-0.08,0.04-0.1,0.1-0.09,0.16c-0.01,0.15,0.01,0.21,0.09,0.26l1.15,0.67
						c0.13,0.08,0.35,0.08,0.48,0l1.37-0.79c0.08-0.04,0.1-0.1,0.09-0.16C51.84,83.01,51.82,82.95,51.74,82.9z M49.52,84.18
						l-1.15-0.67c-0.13-0.08-0.35-0.08-0.48,0l-1.37,0.79c-0.08,0.04-0.1,0.1-0.09,0.16c-0.01,0.15,0.01,0.21,0.09,0.26l1.15,0.67
						c0.13,0.08,0.35,0.08,0.48,0l1.37-0.79c0.08-0.04,0.1-0.1,0.09-0.16C49.63,84.28,49.6,84.22,49.52,84.18z M53.95,81.62
						l-1.15-0.67c-0.13-0.08-0.35-0.08-0.48,0l-1.37,0.79c-0.08,0.04-0.1,0.1-0.09,0.16c-0.01,0.15,0.01,0.21,0.09,0.26l1.15,0.67
						c0.13,0.08,0.35,0.08,0.48,0l1.37-0.79c0.08-0.04,0.1-0.1,0.09-0.16C54.06,81.73,54.03,81.67,53.95,81.62z M61.87,73.25
						c-0.01,0.15,0.01,0.21,0.09,0.26l1.15,0.67c0.13,0.08,0.35,0.08,0.48,0l1.37-0.79c0.08-0.04,0.1-0.1,0.09-0.16
						c0.01-0.15-0.01-0.21-0.09-0.26l-1.15-0.67c-0.13-0.08-0.35-0.08-0.48,0l-1.37,0.79C61.88,73.13,61.86,73.19,61.87,73.25z
						 M56.17,80.34l-1.15-0.67c-0.13-0.08-0.35-0.08-0.48,0l-1.37,0.79c-0.08,0.04-0.1,0.1-0.09,0.16
						c-0.01,0.15,0.01,0.21,0.09,0.26l1.15,0.67c0.13,0.08,0.35,0.08,0.48,0l1.37-0.79c0.08-0.04,0.1-0.1,0.09-0.16
						C56.27,80.45,56.25,80.39,56.17,80.34z M47.31,85.46l-1.15-0.67c-0.13-0.08-0.35-0.08-0.48,0l-1.37,0.79
						c-0.08,0.04-0.1,0.1-0.09,0.16C44.2,85.9,44.22,85.96,44.3,86l1.15,0.67c0.13,0.08,0.35,0.08,0.48,0l1.37-0.79
						c0.08-0.04,0.1-0.1,0.09-0.16C47.41,85.56,47.39,85.5,47.31,85.46z M42.88,88.02l-1.15-0.67c-0.13-0.08-0.35-0.08-0.48,0
						l-1.37,0.79c-0.08,0.04-0.1,0.1-0.09,0.16c-0.01,0.15,0.01,0.21,0.09,0.26l1.15,0.67c0.13,0.08,0.35,0.08,0.48,0l1.37-0.79
						c0.08-0.04,0.1-0.1,0.09-0.16C42.98,88.12,42.96,88.06,42.88,88.02z M45.09,86.74l-1.15-0.67c-0.13-0.08-0.35-0.08-0.48,0
						l-1.37,0.79c-0.08,0.04-0.1,0.1-0.09,0.16c-0.01,0.15,0.01,0.21,0.09,0.26l1.15,0.67c0.13,0.08,0.35,0.08,0.48,0l1.37-0.79
						c0.08-0.04,0.1-0.1,0.09-0.16C45.2,86.84,45.17,86.78,45.09,86.74z"/>
					<path class="st13" d="M34.42,88.47l-1.37,0.79c-0.13,0.08-0.35,0.08-0.48,0l-1.15-0.67c-0.13-0.08-0.13-0.2,0-0.28l1.37-0.79
						c0.13-0.08,0.35-0.08,0.48,0l1.15,0.67C34.56,88.27,34.56,88.39,34.42,88.47z M36.64,86.91l-1.15-0.67
						c-0.13-0.08-0.35-0.08-0.48,0l-1.37,0.79c-0.13,0.08-0.13,0.2,0,0.28l1.15,0.67c0.13,0.08,0.35,0.08,0.48,0l1.37-0.79
						C36.77,87.11,36.77,86.99,36.64,86.91z M38.85,85.63l-1.15-0.67c-0.13-0.08-0.35-0.08-0.48,0l-1.37,0.79
						c-0.13,0.08-0.13,0.2,0,0.28L37,86.7c0.13,0.08,0.35,0.08,0.48,0l1.37-0.79C38.99,85.83,38.99,85.71,38.85,85.63z M41.07,84.35
						l-1.15-0.67c-0.13-0.08-0.35-0.08-0.48,0l-1.37,0.79c-0.13,0.08-0.13,0.2,0,0.28l1.15,0.67c0.13,0.08,0.35,0.08,0.48,0
						l1.37-0.79C41.2,84.55,41.2,84.43,41.07,84.35z M43.28,83.07l-1.15-0.67c-0.13-0.08-0.35-0.08-0.48,0l-1.37,0.79
						c-0.13,0.08-0.13,0.2,0,0.28l1.15,0.67c0.13,0.08,0.35,0.08,0.48,0l1.37-0.79C43.42,83.28,43.42,83.15,43.28,83.07z
						 M45.5,81.79l-1.15-0.67c-0.13-0.08-0.35-0.08-0.48,0l-1.37,0.79c-0.13,0.08-0.13,0.2,0,0.28l1.15,0.67
						c0.13,0.08,0.35,0.08,0.48,0l1.37-0.79C45.63,82,45.63,81.87,45.5,81.79z M47.71,80.52l-1.15-0.67c-0.13-0.08-0.35-0.08-0.48,0
						l-1.37,0.79c-0.13,0.08-0.13,0.2,0,0.28l1.15,0.67c0.13,0.08,0.35,0.08,0.48,0l1.37-0.79C47.85,80.72,47.85,80.59,47.71,80.52z
						 M49.93,79.24l-1.15-0.67c-0.13-0.08-0.35-0.08-0.48,0l-1.37,0.79c-0.13,0.08-0.13,0.2,0,0.28l1.15,0.67
						c0.13,0.08,0.35,0.08,0.48,0l1.37-0.79C50.06,79.44,50.06,79.31,49.93,79.24z M52.14,77.96l-1.15-0.67
						c-0.13-0.08-0.35-0.08-0.48,0l-1.37,0.79c-0.13,0.08-0.13,0.2,0,0.28l1.15,0.67c0.13,0.08,0.35,0.08,0.48,0l1.37-0.79
						C52.28,78.16,52.28,78.04,52.14,77.96z M55.07,76.27l-1.15-0.67c-0.13-0.08-0.35-0.08-0.48,0l-2.09,1.2
						c-0.13,0.08-0.13,0.2,0,0.28l1.15,0.67c0.13,0.08,0.35,0.08,0.48,0l2.09-1.2C55.21,76.47,55.21,76.34,55.07,76.27z
						 M64.58,77.79l-1.15-0.67c-0.13-0.08-0.35-0.08-0.48,0l-1.37,0.79c-0.13,0.08-0.13,0.2,0,0.28l1.15,0.67
						c0.13,0.08,0.35,0.08,0.48,0l1.37-0.79C64.72,77.99,64.72,77.87,64.58,77.79z M66.8,76.51l-1.15-0.67
						c-0.13-0.08-0.35-0.08-0.48,0l-1.37,0.79c-0.13,0.08-0.13,0.2,0,0.28l1.15,0.67c0.13,0.08,0.35,0.08,0.48,0l1.37-0.79
						C66.93,76.71,66.93,76.59,66.8,76.51z M69.01,75.23l-1.15-0.67c-0.13-0.08-0.35-0.08-0.48,0L66,75.36
						c-0.13,0.08-0.13,0.2,0,0.28l1.15,0.67c0.13,0.08,0.35,0.08,0.48,0l1.37-0.79C69.15,75.43,69.15,75.31,69.01,75.23z
						 M66.61,78.96l-1.15-0.67c-0.13-0.08-0.35-0.08-0.48,0l-1.37,0.79c-0.13,0.08-0.13,0.2,0,0.28l1.15,0.67
						c0.13,0.08,0.35,0.08,0.48,0l1.37-0.79C66.74,79.16,66.74,79.04,66.61,78.96z M68.82,77.68l-1.15-0.67
						c-0.13-0.08-0.35-0.08-0.48,0l-1.37,0.79c-0.13,0.08-0.13,0.2,0,0.28l1.15,0.67c0.13,0.08,0.35,0.08,0.48,0l1.37-0.79
						C68.96,77.88,68.96,77.76,68.82,77.68z M71.04,76.4l-1.15-0.67c-0.13-0.08-0.35-0.08-0.48,0l-1.37,0.79
						c-0.13,0.08-0.13,0.2,0,0.28l1.15,0.67c0.13,0.08,0.35,0.08,0.48,0l1.37-0.79C71.17,76.6,71.17,76.48,71.04,76.4z M37.2,88.93
						l-1.15-0.67c-0.13-0.08-0.35-0.08-0.48,0l-2.09,1.2c-0.13,0.08-0.13,0.2,0,0.28l1.15,0.67c0.13,0.08,0.35,0.08,0.48,0l2.09-1.2
						C37.33,89.14,37.33,89.01,37.2,88.93z M39.41,87.65l-1.15-0.67c-0.13-0.08-0.35-0.08-0.48,0l-1.37,0.79
						c-0.13,0.08-0.13,0.2,0,0.28l1.15,0.67c0.13,0.08,0.35,0.08,0.48,0l1.37-0.79C39.55,87.86,39.55,87.73,39.41,87.65z
						 M41.63,86.38l-1.15-0.67c-0.13-0.08-0.35-0.08-0.48,0l-1.37,0.79c-0.13,0.08-0.13,0.2,0,0.28l1.15,0.67
						c0.13,0.08,0.35,0.08,0.48,0l1.37-0.79C41.76,86.58,41.76,86.45,41.63,86.38z M43.85,85.1l-1.15-0.67
						c-0.13-0.08-0.35-0.08-0.48,0l-1.37,0.79c-0.13,0.08-0.13,0.2,0,0.28l1.15,0.67c0.13,0.08,0.35,0.08,0.48,0l1.37-0.79
						C43.98,85.3,43.98,85.17,43.85,85.1z M46.06,83.82l-1.15-0.67c-0.13-0.08-0.35-0.08-0.48,0l-1.37,0.79
						c-0.13,0.08-0.13,0.2,0,0.28l1.15,0.67c0.13,0.08,0.35,0.08,0.48,0l1.37-0.79C46.19,84.02,46.19,83.9,46.06,83.82z
						 M48.28,82.54l-1.15-0.67c-0.13-0.08-0.35-0.08-0.48,0l-1.37,0.79c-0.13,0.08-0.13,0.2,0,0.28l1.15,0.67
						c0.13,0.08,0.35,0.08,0.48,0l1.37-0.79C48.41,82.74,48.41,82.62,48.28,82.54z M50.49,81.26l-1.15-0.67
						c-0.13-0.08-0.35-0.08-0.48,0l-1.37,0.79c-0.13,0.08-0.13,0.2,0,0.28l1.15,0.67c0.13,0.08,0.35,0.08,0.48,0l1.37-0.79
						C50.62,81.46,50.62,81.34,50.49,81.26z M52.71,79.98l-1.15-0.67c-0.13-0.08-0.35-0.08-0.48,0l-1.37,0.79
						c-0.13,0.08-0.13,0.2,0,0.28l1.15,0.67c0.13,0.08,0.35,0.08,0.48,0l1.37-0.79C52.84,80.18,52.84,80.06,52.71,79.98z
						 M54.92,78.7l-1.15-0.67c-0.13-0.08-0.35-0.08-0.48,0l-1.37,0.79c-0.13,0.08-0.13,0.2,0,0.28l1.15,0.67
						c0.13,0.08,0.35,0.08,0.48,0l1.37-0.79C55.05,78.9,55.05,78.78,54.92,78.7z M57.14,77.42l-1.15-0.67
						c-0.13-0.08-0.35-0.08-0.48,0l-1.37,0.79c-0.13,0.08-0.13,0.2,0,0.28l1.15,0.67c0.13,0.08,0.35,0.08,0.48,0l1.37-0.79
						C57.27,77.63,57.27,77.5,57.14,77.42z M38.45,90.51l-1.15-0.67c-0.13-0.08-0.35-0.08-0.48,0l-1.37,0.79
						c-0.13,0.08-0.13,0.2,0,0.28l1.15,0.67c0.13,0.08,0.35,0.08,0.48,0l1.37-0.79C38.58,90.71,38.58,90.59,38.45,90.51z
						 M40.66,89.23l-1.15-0.67c-0.13-0.08-0.35-0.08-0.48,0l-1.37,0.79c-0.13,0.08-0.13,0.2,0,0.28l1.15,0.67
						c0.13,0.08,0.35,0.08,0.48,0l1.37-0.79C40.8,89.44,40.8,89.31,40.66,89.23z M42.88,87.96l-1.15-0.67
						c-0.13-0.08-0.35-0.08-0.48,0l-1.37,0.79c-0.13,0.08-0.13,0.2,0,0.28l1.15,0.67c0.13,0.08,0.35,0.08,0.48,0l1.37-0.79
						C43.01,88.16,43.01,88.03,42.88,87.96z M45.09,86.68l-1.15-0.67c-0.13-0.08-0.35-0.08-0.48,0l-1.37,0.79
						c-0.13,0.08-0.13,0.2,0,0.28l1.15,0.67c0.13,0.08,0.35,0.08,0.48,0l1.37-0.79C45.23,86.88,45.23,86.75,45.09,86.68z
						 M42.46,92.83l-1.15-0.67c-0.13-0.08-0.35-0.08-0.48,0l-1.37,0.79c-0.13,0.08-0.13,0.2,0,0.28l1.15,0.67
						c0.13,0.08,0.35,0.08,0.48,0l1.37-0.79C42.6,93.03,42.6,92.91,42.46,92.83z M44.68,91.55l-1.15-0.67
						c-0.13-0.08-0.35-0.08-0.48,0l-1.37,0.79c-0.13,0.08-0.13,0.2,0,0.28l1.15,0.67c0.13,0.08,0.35,0.08,0.48,0l1.37-0.79
						C44.81,91.76,44.81,91.63,44.68,91.55z M46.9,90.27l-1.15-0.67c-0.13-0.08-0.35-0.08-0.48,0l-1.37,0.79
						c-0.13,0.08-0.13,0.2,0,0.28l1.15,0.67c0.13,0.08,0.35,0.08,0.48,0l1.37-0.79C47.03,90.48,47.03,90.35,46.9,90.27z M49.11,89
						l-1.15-0.67c-0.13-0.08-0.35-0.08-0.48,0l-1.37,0.79c-0.13,0.08-0.13,0.2,0,0.28l1.15,0.67c0.13,0.08,0.35,0.08,0.48,0
						l1.37-0.79C49.24,89.2,49.24,89.07,49.11,89z M63.1,80.92l-1.15-0.67c-0.13-0.08-0.35-0.08-0.48,0l-2.09,1.2
						c-0.13,0.08-0.13,0.2,0,0.28l1.15,0.67c0.13,0.08,0.35,0.08,0.48,0l2.09-1.2C63.23,81.12,63.23,80.99,63.1,80.92z M47.31,85.4
						l-1.15-0.67c-0.13-0.08-0.35-0.08-0.48,0l-1.37,0.79c-0.13,0.08-0.13,0.2,0,0.28l1.15,0.67c0.13,0.08,0.35,0.08,0.48,0
						l1.37-0.79C47.44,85.6,47.44,85.47,47.31,85.4z M49.52,84.12l-1.15-0.67c-0.13-0.08-0.35-0.08-0.48,0l-1.37,0.79
						c-0.13,0.08-0.13,0.2,0,0.28l1.15,0.67c0.13,0.08,0.35,0.08,0.48,0l1.37-0.79C49.66,84.32,49.66,84.2,49.52,84.12z
						 M51.74,82.84l-1.15-0.67c-0.13-0.08-0.35-0.08-0.48,0l-1.37,0.79c-0.13,0.08-0.13,0.2,0,0.28l1.15,0.67
						c0.13,0.08,0.35,0.08,0.48,0l1.37-0.79C51.87,83.04,51.87,82.92,51.74,82.84z M53.95,81.56l-1.15-0.67
						c-0.13-0.08-0.35-0.08-0.48,0l-1.37,0.79c-0.13,0.08-0.13,0.2,0,0.28l1.15,0.67c0.13,0.08,0.35,0.08,0.48,0l1.37-0.79
						C54.09,81.76,54.09,81.64,53.95,81.56z M56.17,80.28l-1.15-0.67c-0.13-0.08-0.35-0.08-0.48,0l-1.37,0.79
						c-0.13,0.08-0.13,0.2,0,0.28l1.15,0.67c0.13,0.08,0.35,0.08,0.48,0l1.37-0.79C56.3,80.48,56.3,80.36,56.17,80.28z M59.1,78.59
						l-1.15-0.67c-0.13-0.08-0.35-0.08-0.48,0l-2.09,1.2c-0.13,0.08-0.13,0.2,0,0.28l1.15,0.67c0.13,0.08,0.35,0.08,0.48,0l2.09-1.2
						C59.23,78.79,59.23,78.67,59.1,78.59z M41.23,91.26l-1.15-0.67c-0.13-0.08-0.35-0.08-0.48,0l-2.09,1.2
						c-0.13,0.08-0.13,0.2,0,0.28l1.15,0.67c0.13,0.08,0.35,0.08,0.48,0l2.09-1.2C41.36,91.46,41.36,91.33,41.23,91.26z
						 M43.44,89.98l-1.15-0.67c-0.13-0.08-0.35-0.08-0.48,0l-1.37,0.79c-0.13,0.08-0.13,0.2,0,0.28l1.15,0.67
						c0.13,0.08,0.35,0.08,0.48,0l1.37-0.79C43.57,90.18,43.57,90.06,43.44,89.98z M45.66,88.7l-1.15-0.67
						c-0.13-0.08-0.35-0.08-0.48,0l-1.37,0.79c-0.13,0.08-0.13,0.2,0,0.28l1.15,0.67c0.13,0.08,0.35,0.08,0.48,0l1.37-0.79
						C45.79,88.9,45.79,88.78,45.66,88.7z M47.87,87.42l-1.15-0.67c-0.13-0.08-0.35-0.08-0.48,0l-1.37,0.79
						c-0.13,0.08-0.13,0.2,0,0.28l1.15,0.67c0.13,0.08,0.35,0.08,0.48,0l1.37-0.79C48,87.62,48,87.5,47.87,87.42z M50.09,86.14
						l-1.15-0.67c-0.13-0.08-0.35-0.08-0.48,0l-1.37,0.79c-0.13,0.08-0.13,0.2,0,0.28l1.15,0.67c0.13,0.08,0.35,0.08,0.48,0
						l1.37-0.79C50.22,86.34,50.22,86.22,50.09,86.14z M60.22,82.6l-1.15-0.67c-0.13-0.08-0.35-0.08-0.48,0l-10.26,5.92
						c-0.13,0.08-0.13,0.2,0,0.28l1.15,0.67c0.13,0.08,0.35,0.08,0.48,0l10.26-5.92C60.36,82.8,60.36,82.68,60.22,82.6z M52.3,84.86
						l-1.15-0.67c-0.13-0.08-0.35-0.08-0.48,0l-1.37,0.79c-0.13,0.08-0.13,0.2,0,0.28l1.15,0.67c0.13,0.08,0.35,0.08,0.48,0
						l1.37-0.79C52.43,85.06,52.43,84.94,52.3,84.86z M54.52,83.58l-1.15-0.67c-0.13-0.08-0.35-0.08-0.48,0l-1.37,0.79
						c-0.13,0.08-0.13,0.2,0,0.28l1.15,0.67c0.13,0.08,0.35,0.08,0.48,0l1.37-0.79C54.65,83.79,54.65,83.66,54.52,83.58z
						 M56.73,82.31l-1.15-0.67c-0.13-0.08-0.35-0.08-0.48,0l-1.37,0.79c-0.13,0.08-0.13,0.2,0,0.28l1.15,0.67
						c0.13,0.08,0.35,0.08,0.48,0l1.37-0.79C56.86,82.51,56.86,82.38,56.73,82.31z M58.95,81.03l-1.15-0.67
						c-0.13-0.08-0.35-0.08-0.48,0l-1.37,0.79c-0.13,0.08-0.13,0.2,0,0.28l1.15,0.67c0.13,0.08,0.35,0.08,0.48,0l1.37-0.79
						C59.08,81.23,59.08,81.1,58.95,81.03z M61.16,79.75l-1.15-0.67c-0.13-0.08-0.35-0.08-0.48,0l-1.37,0.79
						c-0.13,0.08-0.13,0.2,0,0.28l1.15,0.67c0.13,0.08,0.35,0.08,0.48,0l1.37-0.79C61.29,79.95,61.29,79.82,61.16,79.75z
						 M58.52,74.29l-1.15-0.67c-0.13-0.08-0.35-0.08-0.48,0l-1.37,0.79c-0.13,0.08-0.13,0.2,0,0.28l1.15,0.67
						c0.13,0.08,0.35,0.08,0.48,0l1.37-0.79C58.65,74.49,58.65,74.37,58.52,74.29z M60.73,73.01l-1.15-0.67
						c-0.13-0.08-0.35-0.08-0.48,0l-1.37,0.79c-0.13,0.08-0.13,0.2,0,0.28l1.15,0.67c0.13,0.08,0.35,0.08,0.48,0l1.37-0.79
						C60.87,73.21,60.87,73.09,60.73,73.01z M62.95,71.73l-1.15-0.67c-0.13-0.08-0.35-0.08-0.48,0l-1.37,0.79
						c-0.13,0.08-0.13,0.2,0,0.28l1.15,0.67c0.13,0.08,0.35,0.08,0.48,0l1.37-0.79C63.08,71.93,63.08,71.81,62.95,71.73z
						 M64.97,72.9l-1.15-0.67c-0.13-0.08-0.35-0.08-0.48,0l-1.37,0.79c-0.13,0.08-0.13,0.2,0,0.28l1.15,0.67
						c0.13,0.08,0.35,0.08,0.48,0l1.37-0.79C65.1,73.1,65.1,72.98,64.97,72.9z M66.93,73.98l-1.13-0.65c-0.11-0.06-0.29-0.06-0.4,0
						l-1.94,1.1c-0.09,0.05-0.24,0.05-0.34,0l-1.52-0.88c-0.17-0.1-0.43-0.1-0.6,0l-3.48,2.01c-0.17,0.1-0.17,0.25,0,0.35l3.03,1.75
						c0.17,0.1,0.43,0.1,0.6,0l5.77-3.33C67.1,74.23,67.1,74.07,66.93,73.98z"/>
				</g>
			</g>
			<g>
				<g>
					
						<linearGradient id="SVGID_00000121264372414852536220000010926365626334532026_" gradientUnits="userSpaceOnUse" x1="77.1147" y1="70.827" x2="83.9203" y2="66.0894">
						<stop  offset="0" style="stop-color:#C685EA"/>
						<stop  offset="0.1812" style="stop-color:#DE98FF"/>
						<stop  offset="0.4089" style="stop-color:#F5ABFF"/>
						<stop  offset="0.6881" style="stop-color:#FFC5FF"/>
						<stop  offset="1" style="stop-color:#FFDEFF"/>
					</linearGradient>
					<path style="fill:url(#SVGID_00000121264372414852536220000010926365626334532026_);" d="M88.09,69.05
						c-0.47-1.21-2.26-3.54-4.96-4.57c-2.16-0.82-4.89-1.67-8.14,0.21c-0.13,0.07-0.24,0.15-0.35,0.23
						c-1.17,0.86-1.14,2.31,0.12,3.19c2.3,1.61,5.09,3.13,5.09,3.13c0.69,0.37,1.42,0.68,2.19,0.87c1.86,0.47,3.51,0.3,4.91-0.51
						c0.88-0.51,1.32-1.19,1.32-1.86C88.27,69.6,88.21,69.36,88.09,69.05z"/>
				</g>
				<path class="st15" d="M79,65.02l-0.91-0.5c-0.27-0.13-0.66-0.16-1.03,0.16c-0.22,0.19-0.12,0.27,0.14,0.4l0.92,0.43
					c0.27,0.13,0.71,0.17,0.96,0C79.32,65.35,79.27,65.15,79,65.02z"/>
				<g>
					<defs>
						<path id="SVGID_00000103971683692246254650000016977152054466610864_" d="M76.98,64.87c0,0,1.08,0.63,1.63,0.67
							c0.19,0.02,0.36-0.05,0.39-0.07c0.13-0.07,0.21-0.2,0.16-0.47l-0.23-1.16c0,0-1.04-0.92-1.51-0.38
							C76.95,64,76.82,64.52,76.98,64.87z"/>
					</defs>
					<clipPath id="SVGID_00000052822384801846694770000000759621785286069915_">
						<use xlink:href="#SVGID_00000103971683692246254650000016977152054466610864_"  style="overflow:visible;"/>
					</clipPath>
					<g style="clip-path:url(#SVGID_00000052822384801846694770000000759621785286069915_);enable-background:new    ;">
						<path class="st17" d="M78.41,64.28c-0.31-0.17-0.61-0.18-0.9-0.03l1.32,2.1C79.47,65.86,79.15,64.73,78.41,64.28z"/>
						<path class="st5" d="M78.81,65.31c-0.16-0.42-0.46-0.77-0.76-0.95c-0.15-0.09-0.3-0.13-0.44-0.12
							c-0.07,0.01-0.13,0.03-0.19,0.06c-0.08,0.05-0.29,0.18-0.38,0.51c-0.22,0.8,0.7,2.14,1.63,1.64
							C78.94,66.29,79.01,65.83,78.81,65.31z"/>
						<path class="st18" d="M78.16,65.55c-0.1-0.26-0.29-0.48-0.48-0.59c-0.09-0.05-0.19-0.08-0.28-0.07
							c-0.26,0.02-0.35,0.36-0.2,0.75c0.1,0.26,0.29,0.48,0.48,0.59c0.09,0.05,0.19,0.08,0.27,0.07
							C78.22,66.28,78.31,65.94,78.16,65.55z"/>
						
							<linearGradient id="SVGID_00000142145478892354443140000012191163269090008200_" gradientUnits="userSpaceOnUse" x1="77.4177" y1="65.3223" x2="79.0165" y2="65.3223">
							<stop  offset="0" style="stop-color:#B578D7"/>
							<stop  offset="1" style="stop-color:#CB89F0"/>
						</linearGradient>
						<path style="fill:url(#SVGID_00000142145478892354443140000012191163269090008200_);" d="M78.9,65.26
							c-0.01-0.03-0.02-0.06-0.04-0.09c-0.09-0.2-0.21-0.38-0.34-0.53c-0.12-0.14-0.25-0.25-0.39-0.33
							c-0.15-0.09-0.3-0.13-0.44-0.12c-0.07,0.01-0.13,0.03-0.19,0.06l-0.09,0.05c0.05-0.03,0.12-0.05,0.19-0.06
							c0.14-0.01,0.29,0.03,0.44,0.12c0.13,0.08,0.27,0.19,0.39,0.33c0.13,0.15,0.25,0.33,0.34,0.53c0.01,0.03,0.03,0.06,0.04,0.09
							c0.2,0.52,0.13,0.98-0.14,1.14l0.09-0.05C79.03,66.24,79.1,65.78,78.9,65.26z"/>
					</g>
				</g>
				<path class="st15" d="M87.11,71c-1.4,0.81-3.05,0.98-4.91,0.51c-0.76-0.19-1.49-0.5-2.19-0.87c0,0-2.79-1.51-5.09-3.13
					c-0.7-0.49-1.01-1.15-0.96-1.79c-0.39,0.8-0.12,1.75,0.79,2.39c2.3,1.61,5.09,3.13,5.09,3.13c0.69,0.37,1.42,0.68,2.19,0.87
					c1.86,0.47,3.51,0.3,4.91-0.51c0.82-0.48,1.26-1.1,1.31-1.72C88.05,70.28,87.67,70.67,87.11,71z"/>
				<path class="st15" d="M87.03,71.28c-1.4,0.81-3.05,0.98-4.91,0.51c-0.76-0.19-1.49-0.5-2.19-0.87c0,0-2.79-1.51-5.09-3.13
					c-0.74-0.52-1.06-1.24-0.94-1.92c-0.28,0.76,0,1.63,0.86,2.24c2.3,1.61,5.09,3.13,5.09,3.13c0.69,0.37,1.42,0.68,2.19,0.87
					c1.86,0.47,3.51,0.3,4.91-0.51c0.76-0.44,1.19-1.01,1.29-1.59C88.06,70.47,87.66,70.92,87.03,71.28z"/>
			</g>
		</g>
		<g>
			<g class="st20">
				<g>
					<g>
						<polygon class="st21" points="72.12,42.16 18.85,72.91 18.85,40.22 72.12,9.47 						"/>
						<polygon class="st22" points="72.12,42.16 18.85,72.91 18.85,40.22 72.12,9.47 						"/>
						<polygon class="st23" points="19.57,40.64 19.57,71.77 71.4,41.83 71.4,10.71 						"/>
						<polygon class="st9" points="72.12,9.57 18.85,40.32 18.85,38.31 72.12,7.56 						"/>
					</g>
					<g>
						<polygon class="st24" points="68.92,10.96 67.79,11.61 67.79,10.49 68.92,9.84 						"/>
						<polygon class="st24" points="70.31,10.16 69.19,10.81 69.19,9.68 70.31,9.03 						"/>
						<path class="st25" d="M69.37,9.76v0.77l0.77-0.44V9.31L69.37,9.76z M70,10.03l-0.5,0.29v-0.5L70,9.52V10.03z"/>
						<polygon class="st24" points="71.71,9.35 70.58,10 70.58,8.88 71.71,8.23 						"/>
						<polygon class="st25" points="70.77,9.05 71.07,9.18 70.77,9.65 70.86,9.69 71.16,9.22 71.46,9.34 71.56,9.19 71.26,9.06 
							71.56,8.59 71.46,8.55 71.16,9.02 70.86,8.9 						"/>
						<polygon class="st25" points="68.72,10.9 68,11.31 68,11.18 68.72,10.76 						"/>
					</g>
				</g>
			</g>
			<g class="st26">
				<g>
					<g>
						<polygon class="st21" points="74.9,43.77 21.63,74.52 21.63,41.82 74.9,11.07 						"/>
						<polygon class="st22" points="74.9,43.77 21.63,74.52 21.63,41.82 74.9,11.07 						"/>
						<polygon class="st23" points="22.35,42.24 22.35,73.38 74.18,43.43 74.18,12.32 						"/>
						<polygon class="st9" points="74.9,11.17 21.63,41.93 21.63,39.91 74.9,9.16 						"/>
					</g>
					<g>
						<polygon class="st24" points="71.7,12.57 70.57,13.22 70.57,12.09 71.7,11.44 						"/>
						<polygon class="st24" points="73.09,11.76 71.97,12.41 71.97,11.29 73.09,10.64 						"/>
						<path class="st25" d="M72.15,11.36v0.77l0.77-0.44v-0.77L72.15,11.36z M72.78,11.63l-0.5,0.29v-0.5l0.5-0.29V11.63z"/>
						<polygon class="st24" points="74.49,10.96 73.36,11.61 73.36,10.48 74.49,9.83 						"/>
						<polygon class="st25" points="73.55,10.65 73.85,10.78 73.55,11.25 73.64,11.29 73.94,10.82 74.24,10.95 74.34,10.8 
							74.04,10.67 74.34,10.19 74.24,10.15 73.94,10.63 73.64,10.5 						"/>
						<polygon class="st25" points="71.5,12.5 70.78,12.92 70.78,12.78 71.5,12.37 						"/>
					</g>
				</g>
			</g>
			<g>
				<g>
					<g>
						<polygon class="st21" points="78.01,45.56 24.74,76.32 24.74,43.62 78.01,12.87 						"/>
						<polygon class="st22" points="78.01,45.56 24.74,76.32 24.74,43.62 78.01,12.87 						"/>
						<polygon class="st23" points="25.46,44.04 25.46,75.18 77.29,45.23 77.29,14.11 						"/>
						<polygon class="st9" points="78.01,12.97 24.74,43.72 24.74,41.71 78.01,10.96 						"/>
					</g>
					<g>
						<polygon class="st24" points="74.81,14.36 73.69,15.01 73.69,13.89 74.81,13.24 						"/>
						<polygon class="st24" points="76.2,13.56 75.08,14.21 75.08,13.08 76.2,12.43 						"/>
						<path class="st25" d="M75.26,13.16v0.77l0.77-0.44v-0.77L75.26,13.16z M75.89,13.43l-0.5,0.29v-0.5l0.5-0.29V13.43z"/>
						<polygon class="st24" points="77.6,12.75 76.47,13.4 76.47,12.28 77.6,11.63 						"/>
						<polygon class="st25" points="76.66,12.45 76.96,12.58 76.66,13.05 76.75,13.09 77.05,12.62 77.36,12.74 77.45,12.59 
							77.15,12.47 77.45,11.99 77.36,11.95 77.05,12.42 76.75,12.3 						"/>
						<polygon class="st25" points="74.61,14.3 73.89,14.72 73.89,14.58 74.61,14.16 						"/>
					</g>
				</g>
			</g>
			<g>
				<g>
					<defs>
						<polygon id="SVGID_00000100374897414060912110000007416978043367345537_" points="23.88,-7.8 23.88,62.33 41.93,71.07 
							159.58,11.61 159.58,-60.82 140.61,-75.2 						"/>
					</defs>
					<clipPath id="SVGID_00000011742623272488757590000010414811237453830285_">
						<use xlink:href="#SVGID_00000100374897414060912110000007416978043367345537_"  style="overflow:visible;"/>
					</clipPath>
					<g style="opacity:0.8;clip-path:url(#SVGID_00000011742623272488757590000010414811237453830285_);">
						<path class="st28" d="M33.21,35.39c0.42-0.24,0.77-0.78,0.77-1.21c0-0.42-0.34-0.57-0.77-0.32c-0.42,0.24-0.77,0.78-0.77,1.21
							C32.44,35.49,32.79,35.64,33.21,35.39z M33.1,41.84c0.42-0.24,0.77-0.78,0.77-1.21c0-0.42-0.34-0.57-0.77-0.32
							c-0.42,0.24-0.77,0.78-0.77,1.21C32.33,41.94,32.67,42.08,33.1,41.84z M33.17,38.66c0.42-0.24,0.77-0.78,0.77-1.21
							c0-0.42-0.34-0.57-0.77-0.32c-0.42,0.24-0.77,0.78-0.77,1.21C32.4,38.76,32.74,38.91,33.17,38.66z M31.97,50.27
							c0.1,0.15,0.15,0.36,0.16,0.61v3.88c-0.01,0.27-0.06,0.55-0.16,0.81c-0.08,0.23-0.21,0.47-0.38,0.71
							c-0.18,0.25-0.42,0.47-0.74,0.65s-0.57,0.25-0.75,0.21c-0.18-0.03-0.3-0.13-0.38-0.27c-0.1-0.15-0.15-0.36-0.16-0.62v-3.88
							c0.01-0.26,0.06-0.54,0.16-0.8c0.08-0.23,0.2-0.47,0.38-0.71c0.18-0.24,0.43-0.47,0.75-0.66s0.56-0.24,0.74-0.21
							C31.77,50.03,31.89,50.14,31.97,50.27z M31.17,51.45c0-0.18-0.04-0.28-0.13-0.34c-0.04-0.02-0.12,0-0.2,0.04
							c-0.17,0.1-0.25,0.27-0.29,0.41c-0.03,0.09-0.04,0.17-0.04,0.26v3.88c0,0.19,0.04,0.29,0.13,0.33
							c0.04,0.02,0.11,0.01,0.19-0.04c0.17-0.1,0.25-0.25,0.29-0.41c0.03-0.08,0.04-0.16,0.04-0.26V51.45z M33.35,49.17
							c-0.17,0.28-0.41,0.62-0.82,0.94v0.62l0.65-0.37v5.16l0.97-0.56v-6.58l-0.58,0.34C33.51,48.86,33.44,49.01,33.35,49.17z
							 M42.47,28.9l-7.14,4.12v0.77l7.14-4.12V28.9z M43.64,28.99l2.97-1.71v-0.77l-2.97,1.71V28.99z M35.33,37.03l3.9-2.25v-0.77
							l-3.9,2.25V37.03z M49.18,28.27l-8.78,5.07v0.77l8.78-5.07V28.27z M55.2,24.79l-4.84,2.79v0.77l4.84-2.79V24.79z M41.67,35.85
							l-6.34,3.66v0.77l6.34-3.66V35.85z M48.04,32.17l-5.21,3.01v0.77l5.21-3.01V32.17z M59.97,35.83L63,34.08v-0.39l-3.03,1.75
							V35.83z M53.24,39.32l-6.79,3.92v0.39l6.79-3.92V39.32z M53.04,38.27v-0.39l-3.77,2.18v0.39L53.04,38.27z M48.74,40.36
							l-8.68,5.01v0.39l8.68-5.01V40.36z M56.61,35.82l-3.03,1.75v0.39l3.03-1.75V35.82z M36.3,49.49l9.62-5.55v-0.39L36.3,49.1
							V49.49z M57.14,35.9l6.83-3.94v-0.39l-6.83,3.94V35.9z M36.35,47.51v0.39l3.18-1.83v-0.39L36.35,47.51z M59.44,35.74
							l-5.67,3.27v0.39l5.67-3.27V35.74z M41.81,49.42l8.68-5.01v-0.39l-8.68,5.01V49.42z M36.37,52.57l4.91-2.84v-0.39l-4.91,2.84
							V52.57z M55.33,41.62l3.49-2.01v-0.39l-3.49,2.01V41.62z M51.03,44.1l3.77-2.18v-0.39l-3.77,2.18V44.1z M49.97,42.77
							l-13.69,7.9v0.39l13.69-7.9V42.77z M57.29,38.54l-6.79,3.92v0.39l6.79-3.92V38.54z M57.82,38.62l3.66-2.11v-0.39l-3.66,2.11
							V38.62z"/>
						<path class="st29" d="M38.86,38.66c0.42-0.24,0.77-0.78,0.77-1.21c0-0.42-0.34-0.57-0.77-0.32c-0.42,0.24-0.77,0.78-0.77,1.21
							C38.09,38.76,38.44,38.9,38.86,38.66z M38.75,45.1c0.42-0.24,0.77-0.78,0.77-1.21c0-0.42-0.34-0.57-0.77-0.32
							c-0.42,0.24-0.77,0.78-0.77,1.21C37.98,45.2,38.33,45.35,38.75,45.1z M38.82,41.92c0.42-0.24,0.77-0.78,0.77-1.21
							c0-0.42-0.34-0.57-0.77-0.32c-0.42,0.24-0.77,0.78-0.77,1.21C38.05,42.02,38.4,42.17,38.82,41.92z M37.63,53.54
							c0.1,0.15,0.15,0.36,0.16,0.61v3.88c-0.01,0.27-0.06,0.55-0.16,0.81c-0.08,0.22-0.21,0.47-0.38,0.71
							c-0.18,0.25-0.42,0.47-0.74,0.65c-0.32,0.19-0.57,0.25-0.75,0.21c-0.18-0.03-0.3-0.13-0.38-0.27
							c-0.1-0.15-0.15-0.36-0.16-0.62v-3.88c0.01-0.26,0.06-0.54,0.16-0.8c0.08-0.23,0.2-0.47,0.38-0.71
							c0.18-0.24,0.43-0.47,0.75-0.66c0.32-0.19,0.56-0.24,0.74-0.21C37.42,53.3,37.55,53.4,37.63,53.54z M36.82,54.71
							c0-0.18-0.04-0.28-0.13-0.34c-0.04-0.02-0.12,0-0.2,0.04c-0.17,0.1-0.25,0.27-0.29,0.41c-0.03,0.09-0.04,0.17-0.04,0.26v3.88
							c0,0.19,0.04,0.29,0.13,0.33c0.05,0.02,0.11,0.01,0.19-0.04c0.17-0.1,0.25-0.25,0.29-0.41c0.03-0.08,0.04-0.16,0.04-0.26
							V54.71z M39,52.44c-0.17,0.28-0.41,0.62-0.82,0.94v0.62l0.64-0.37v5.16l0.97-0.56v-6.58l-0.58,0.34
							C39.16,52.12,39.09,52.28,39,52.44z M48.13,32.16l-7.14,4.12v0.77l7.14-4.12V32.16z M49.29,32.25l2.97-1.71v-0.77l-2.97,1.71
							V32.25z M40.98,40.29l3.9-2.25v-0.77l-3.9,2.25V40.29z M54.83,31.53l-8.78,5.07v0.77l8.78-5.07V31.53z M60.85,28.06
							l-4.84,2.79v0.77l4.84-2.79V28.06z M47.32,39.11l-6.34,3.66v0.77l6.34-3.66V39.11z M53.7,35.43l-5.21,3.01v0.77l5.21-3.01
							V35.43z M65.62,39.09l3.03-1.75v-0.39l-3.03,1.75V39.09z M58.89,42.58L52.1,46.5v0.39l6.79-3.92V42.58z M58.7,41.53v-0.39
							l-3.77,2.18v0.39L58.7,41.53z M54.39,43.62l-8.68,5.01v0.39l8.68-5.01V43.62z M62.26,39.08l-3.03,1.75v0.39l3.03-1.75V39.08z
							 M41.95,52.76l9.62-5.55v-0.39l-9.62,5.55V52.76z M62.79,39.17l6.83-3.94v-0.39l-6.83,3.94V39.17z M42,50.78v0.39l3.18-1.83
							v-0.39L42,50.78z M65.09,39.01l-5.67,3.27v0.39l5.67-3.27V39.01z M47.47,52.69l8.68-5.01v-0.39l-8.68,5.01V52.69z
							 M42.02,55.83L46.93,53V52.6l-4.91,2.84V55.83z M60.98,44.88l3.49-2.01v-0.39l-3.49,2.01V44.88z M56.68,47.37l3.77-2.18V44.8
							l-3.77,2.18V47.37z M55.62,46.03l-13.69,7.9v0.39l13.69-7.9V46.03z M62.94,41.8l-6.79,3.92v0.39l6.79-3.92V41.8z M63.47,41.89
							l3.66-2.11v-0.39l-3.66,2.11V41.89z"/>
					</g>
				</g>
				<g>
					<g>
						<g>
							<g>
								<path class="st30" d="M45.27,40.71c0,0.42-0.34,0.96-0.77,1.21c-0.42,0.24-0.77,0.1-0.77-0.32c0-0.42,0.34-0.96,0.77-1.21
									C44.93,40.14,45.27,40.29,45.27,40.71z"/>
							</g>
							<g>
								<g>
									<path class="st30" d="M45.16,47.16c0,0.42-0.34,0.96-0.77,1.21c-0.42,0.24-0.77,0.1-0.77-0.32c0-0.42,0.34-0.96,0.77-1.21
										C44.82,46.59,45.16,46.73,45.16,47.16z"/>
								</g>
							</g>
							<g>
								<path class="st30" d="M45.23,43.98c0,0.42-0.34,0.96-0.77,1.21c-0.42,0.24-0.77,0.1-0.77-0.32c0-0.42,0.34-0.96,0.77-1.21
									C44.89,43.41,45.23,43.56,45.23,43.98z"/>
							</g>
						</g>
						<g>
							<path class="st30" d="M43.44,61.29c-0.01,0.27-0.06,0.55-0.16,0.81c-0.08,0.22-0.21,0.47-0.38,0.71
								c-0.18,0.25-0.42,0.47-0.74,0.65c-0.32,0.19-0.57,0.25-0.75,0.21c-0.18-0.03-0.3-0.13-0.38-0.27
								c-0.1-0.15-0.15-0.36-0.16-0.62V58.9c0.01-0.26,0.06-0.54,0.16-0.8c0.08-0.23,0.2-0.47,0.38-0.71
								c0.18-0.24,0.43-0.47,0.75-0.66s0.56-0.24,0.74-0.21c0.18,0.03,0.3,0.14,0.38,0.27c0.1,0.15,0.15,0.36,0.16,0.61V61.29z
								 M42.47,57.97c0-0.18-0.04-0.28-0.13-0.34c-0.05-0.02-0.12,0-0.2,0.04c-0.17,0.1-0.25,0.27-0.29,0.41
								c-0.03,0.09-0.04,0.17-0.04,0.26v3.88c0,0.19,0.04,0.29,0.13,0.33c0.04,0.02,0.11,0.01,0.19-0.04
								c0.17-0.1,0.25-0.25,0.29-0.41c0.03-0.08,0.04-0.16,0.04-0.26V57.97z"/>
							<path class="st30" d="M43.84,57.25v-0.62c0.4-0.31,0.64-0.66,0.82-0.94c0.09-0.16,0.16-0.32,0.21-0.46l0.58-0.34v6.58
								l-0.97,0.56v-5.16L43.84,57.25z"/>
						</g>
					</g>
					<polygon class="st30" points="53.77,36.19 46.63,40.31 46.63,39.54 53.77,35.42 					"/>
					<polygon class="st30" points="57.91,33.8 54.94,35.51 54.94,34.74 57.91,33.03 					"/>
					<polygon class="st30" points="50.53,41.3 46.63,43.55 46.63,42.79 50.53,40.53 					"/>
					<polygon class="st30" points="60.48,35.56 51.7,40.62 51.7,39.86 60.48,34.79 					"/>
					<polygon class="st30" points="66.5,32.08 61.66,34.88 61.66,34.11 66.5,31.32 					"/>
					<polygon class="st30" points="52.97,43.14 46.63,46.8 46.63,46.03 52.97,42.37 					"/>
					<polygon class="st30" points="59.34,39.46 54.14,42.46 54.14,41.7 59.34,38.69 					"/>
					<g>
						<path class="st30" d="M71.27,42.35l3.03-1.75v-0.39l-3.03,1.75V42.35z M57.75,50.16l6.79-3.92v-0.39l-6.79,3.92V50.16z
							 M65.07,45.93l5.67-3.27v-0.39l-5.67,3.27V45.93z M57.22,50.46v-0.39l-9.62,5.55v0.39L57.22,50.46z M47.65,54.43l3.18-1.83
							v-0.39l-3.18,1.83V54.43z M68.44,42.43l6.83-3.94v-0.39l-6.83,3.94V42.43z M64.88,44.48l3.03-1.75v-0.39l-3.03,1.75V44.48z
							 M60.57,46.97l3.77-2.18V44.4l-3.77,2.18V46.97z M51.36,52.29l8.68-5.01v-0.39l-8.68,5.01V52.29z"/>
						<path class="st30" d="M72.79,42.64v0.39l-3.66,2.11v-0.39L72.79,42.64z M62.33,50.24v0.39l3.77-2.18v-0.39L62.33,50.24z
							 M68.59,45.06l-6.79,3.92v0.39l6.79-3.92V45.06z M70.12,45.74l-3.49,2.01v0.39l3.49-2.01V45.74z M61.27,49.68v-0.39
							l-13.69,7.9v0.39L61.27,49.68z M52.58,56.26v-0.39l-4.91,2.84v0.39L52.58,56.26z M61.8,50.54l-8.68,5.01v0.39l8.68-5.01V50.54
							z"/>
					</g>
				</g>
			</g>
		</g>
	</g>
</g>
</svg>
