<?xml version="1.0" encoding="utf-8"?>
<!-- Generator: Adobe Illustrator 27.3.1, SVG Export Plug-In . SVG Version: 6.00 Build 0)  -->
<svg version="1.1" id="Camada_1" xmlns="http://www.w3.org/2000/svg" xmlns:xlink="http://www.w3.org/1999/xlink" x="0px" y="0px"
	 viewBox="0 0 100 100" style="enable-background:new 0 0 100 100;" xml:space="preserve">
<style type="text/css">
	.st0{fill:#03301B;}
	.st1{enable-background:new    ;}
	.st2{fill:url(#SVGID_1_);}
	.st3{fill:#00E187;}
	.st4{fill:url(#SVGID_00000161606403945809672680000008230252401906572944_);}
	.st5{fill:#08663C;}
	.st6{fill:url(#SVGID_00000147910909265399715430000006927110309738840972_);}
	.st7{fill:#00FF99;}
	.st8{fill:#101014;}
	.st9{fill:#1CB771;}
	.st10{fill:url(#SVGID_00000112626858700351859290000004048010247381855664_);}
	.st11{fill:url(#SVGID_00000152979189440350720340000002388393036481592745_);}
	.st12{fill:url(#SVGID_00000131340351871421674790000001694016890325064108_);}
	.st13{fill:#FFFFFF;}
	.st14{fill:url(#SVGID_00000076579169228309372000000000352925746047894959_);}
	.st15{opacity:0.6;fill:#B879D9;enable-background:new    ;}
	.st16{clip-path:url(#SVGID_00000173157158976839206730000001043815614043263388_);enable-background:new    ;}
	.st17{fill:#7AEAB8;}
	.st18{opacity:0.5;fill:#CCCECE;enable-background:new    ;}
	.st19{fill:url(#SVGID_00000005233633919640478180000001673424520419586994_);}
	.st20{opacity:0.6;fill:#00FF99;}
	.st21{opacity:0.6;fill:#1CB771;}
	.st22{opacity:0.3;}
	.st23{opacity:0.2;fill:#DE78FF;enable-background:new    ;}
	.st24{opacity:0.8;fill:#1CB771;enable-background:new    ;}
	.st25{fill:#086639;}
	.st26{fill:#FFFFF7;}
	.st27{opacity:0.6;}
	.st28{opacity:0.8;}
	.st29{opacity:0.6;fill:#46A377;enable-background:new    ;}
	.st30{fill:#46A377;}
	.st31{fill:#C3F4DE;}
</style>
<g id="_x31_3">
	<g>
		<g>
			<g>
				<path class="st0" d="M40.7,96c-0.1,0.1-0.2,0.1-0.3,0.1c-0.3,0-1.1,0-1.3-0.1l-10.7-6.2c-0.3-0.2-0.3-0.4,0-0.6L61.8,70
					c0.5-0.3,1.3-0.3,1.8,0l10.7,6.2C74.6,76.3,43.1,94.6,40.7,96z"/>
				<path class="st0" d="M82.9,64.6c-2.2-0.7-6.3-1-8.1,0.1c-2.8,1.7-1,3.4,1.3,4.8c5.6,3.4,7.5,3.6,10.6,2.2
					c0.9-0.4,1.5-1.1,1.5-1.8C88.3,69.2,86.8,65.9,82.9,64.6z"/>
			</g>
			<g>
				<g class="st1">
					
						<linearGradient id="SVGID_1_" gradientUnits="userSpaceOnUse" x1="35.4733" y1="29.9378" x2="54.0233" y2="29.9378" gradientTransform="matrix(1 0 0 -1 0 100)">
						<stop  offset="0" style="stop-color:#00E187"/>
						<stop  offset="1" style="stop-color:#00FF99"/>
					</linearGradient>
					<polygon class="st2" points="48.6,64.7 35.5,72.3 40.9,75.4 54,67.8 					"/>
					<path class="st3" d="M54.1,67.9C54.1,67.9,54.1,67.9,54.1,67.9C54,67.8,41,75.4,41,75.4c0,0.1,0.1,0.1,0.1,0.1
						c0.1,0.2,0.1,0.6,0,0.7l13.1-7.6C54.2,68.6,54.2,68.1,54.1,67.9z"/>
					
						<linearGradient id="SVGID_00000088831362226649981270000016744810182252375431_" gradientUnits="userSpaceOnUse" x1="42.8919" y1="37.0432" x2="44.9651" y2="33.4524" gradientTransform="matrix(1 0 0 -1 0 100)">
						<stop  offset="0" style="stop-color:#00E187"/>
						<stop  offset="1" style="stop-color:#00FF99"/>
					</linearGradient>
					<path style="fill:url(#SVGID_00000088831362226649981270000016744810182252375431_);" d="M47.5,63.4c-0.2-0.5-0.3-1.1-0.1-1.5
						l3.6-7.9l-13.1,7.6l-3.6,7.9c-0.2,0.4-0.1,0.9,0.1,1.4c0.1,0.3,0.3,0.6,0.5,0.8c0.2,0.2,0.4,0.3,0.6,0.5l13.1-7.6
						c-0.2-0.1-0.4-0.3-0.6-0.5C47.8,64,47.6,63.7,47.5,63.4z"/>
					<path class="st5" d="M40.9,75.4l-5.5-3.2C35,72,34.7,71.6,34.4,71s-0.3-1.1-0.1-1.4l3.6-7.9l0-0.1l0-7.7c0-0.2-0.2-0.5-0.3-0.6
						c-0.2-0.1-0.3,0-0.3,0.2l0,7.6l-3.5,7.8c-0.2,0.6-0.2,1.4,0.2,2.2c0.3,0.8,1,1.6,1.6,1.9l5.5,3.2
						C41.1,76.3,41.1,75.5,40.9,75.4z"/>
					<path class="st5" d="M50.9,46c0-0.1-0.1-0.1-0.1-0.2c0,0-0.1-0.1-0.2-0.1c-0.1,0-0.2-0.1-0.2,0l-13.1,7.6c0.1,0,0.1,0,0.2,0
						c0.1,0,0.1,0.1,0.2,0.1c0,0.1,0.1,0.1,0.1,0.2c0,0.1,0.1,0.2,0.1,0.3l0,7.7l0,0.1l13.1-7.6l0-0.1l0-7.7
						C51,46.2,51,46.1,50.9,46z"/>
				</g>
				<g id="_x31__2_">
					<polygon class="st5" points="16.8,77.8 15.8,77.2 15.8,36.3 16.8,36.9 					"/>
					
						<linearGradient id="SVGID_00000074413196322618751070000002405197456606019228_" gradientUnits="userSpaceOnUse" x1="15.7833" y1="79.1228" x2="71.2733" y2="79.1228" gradientTransform="matrix(1 0 0 -1 0 100)">
						<stop  offset="0" style="stop-color:#00FF99"/>
						<stop  offset="0.4557" style="stop-color:#7AEAB8"/>
						<stop  offset="1" style="stop-color:#C3F4DE"/>
					</linearGradient>
					<polygon style="fill:url(#SVGID_00000074413196322618751070000002405197456606019228_);" points="16.8,36.9 15.8,36.3 
						70.2,4.9 71.3,5.5 					"/>
					<polygon class="st7" points="71.3,5.5 71.3,46.4 16.8,77.8 16.8,36.9 					"/>
					<polygon class="st8" points="17.1,37.1 71,5.9 71,41.4 17.1,72.5 					"/>
				</g>
				<path class="st9" d="M47.6,57.8l-1.9,1.1c-0.3,0.2-0.5,0.1-0.5-0.2c0-0.3,0.2-0.6,0.5-0.8l1.9-1.1c0.3-0.2,0.5-0.1,0.5,0.2
					S47.9,57.7,47.6,57.8z"/>
			</g>
			<g>
				
					<linearGradient id="SVGID_00000091706740472575206740000001965609881459095999_" gradientUnits="userSpaceOnUse" x1="41.4372" y1="17.3078" x2="39.4861" y2="17.3078" gradientTransform="matrix(1 0 0 -1 0 100)">
					<stop  offset="0" style="stop-color:#00E187"/>
					<stop  offset="1" style="stop-color:#197C51"/>
				</linearGradient>
				<path style="fill:url(#SVGID_00000091706740472575206740000001965609881459095999_);" d="M74.2,75.6l-10.7-6.2
					c-0.3-0.2-0.8-0.2-1,0L29.1,88.7c-0.1,0.1-0.2,0.2-0.2,0.3v0.6c0,0.1,0.1,0.2,0.2,0.3L39.8,96c0.3,0.2,0.8,0.2,1,0l33.4-19.3
					c0.1-0.1,0.2-0.2,0.2-0.3v-0.6C74.5,75.8,74.4,75.6,74.2,75.6z"/>
				<g>
					
						<linearGradient id="SVGID_00000146488473854926598880000009408146765136296888_" gradientUnits="userSpaceOnUse" x1="28.8558" y1="17.5778" x2="74.4508" y2="17.5778" gradientTransform="matrix(1 0 0 -1 0 100)">
						<stop  offset="0" style="stop-color:#00FF99"/>
						<stop  offset="0.4557" style="stop-color:#7AEAB8"/>
						<stop  offset="1" style="stop-color:#C3F4DE"/>
					</linearGradient>
					<path style="fill:url(#SVGID_00000146488473854926598880000009408146765136296888_);" d="M74.2,76.2L40.8,95.5
						c-0.3,0.2-0.8,0.2-1,0l-10.7-6.2c-0.3-0.2-0.3-0.4,0-0.6l33.4-19.3c0.3-0.2,0.8-0.2,1,0l10.7,6.2C74.5,75.7,74.5,76,74.2,76.2z
						"/>
					
						<linearGradient id="SVGID_00000103260813351437865650000005954226843124502937_" gradientUnits="userSpaceOnUse" x1="31.431" y1="17.5428" x2="71.2357" y2="17.5428" gradientTransform="matrix(1 0 0 -1 0 100)">
						<stop  offset="0" style="stop-color:#197C51"/>
						<stop  offset="1" style="stop-color:#1CB771"/>
					</linearGradient>
					<path style="fill:url(#SVGID_00000103260813351437865650000005954226843124502937_);" d="M57.7,73.3c0-0.2,0-0.2,0.1-0.3
						l1.4-0.8c0.1-0.1,0.3-0.1,0.5,0l1.2,0.7c0.1,0,0.1,0.1,0.1,0.2c0,0.2,0,0.2-0.1,0.3l-1.4,0.8c-0.1,0.1-0.3,0.1-0.5,0l-1.2-0.7
						C57.8,73.4,57.7,73.4,57.7,73.3z M60,72.2l1.2,0.7c0.1,0.1,0.3,0.1,0.5,0l1.4-0.8c0.1,0,0.1-0.1,0.1-0.2c0-0.2,0-0.2-0.1-0.3
						L61.9,71c-0.1-0.1-0.3-0.1-0.5,0L60,71.8c-0.1,0-0.1,0.1-0.1,0.2C59.9,72.1,60,72.1,60,72.2z M55.6,74.7l1.2,0.7
						c0.1,0.1,0.3,0.1,0.5,0l1.4-0.8c0.1,0,0.1-0.1,0.1-0.2c0-0.2,0-0.2-0.1-0.3l-1.2-0.7c-0.1-0.1-0.3-0.1-0.5,0l-1.4,0.8
						c-0.1,0-0.1,0.1-0.1,0.2C55.5,74.6,55.5,74.7,55.6,74.7z M37.8,89.7l1.2,0.7c0.1,0.1,0.3,0.1,0.5,0l1.4-0.8
						c0.1,0,0.1-0.1,0.1-0.2c0-0.2,0-0.2-0.1-0.3l-1.2-0.7c-0.1-0.1-0.3-0.1-0.5,0l-1.4,0.8c-0.1,0-0.1,0.1-0.1,0.2
						C37.7,89.6,37.7,89.6,37.8,89.7z M42.6,82.2l1.2,0.7c0.1,0.1,0.3,0.1,0.5,0l1.4-0.8c0.1,0,0.1-0.1,0.1-0.2c0-0.2,0-0.2-0.1-0.3
						L44.4,81C44.3,81,44.1,81,44,81l-1.4,0.8c-0.1,0-0.1,0.1-0.1,0.2C42.5,82.1,42.5,82.2,42.6,82.2z M47,79.7l1.2,0.7
						c0.1,0.1,0.3,0.1,0.5,0l1.4-0.8c0.1,0,0.1-0.1,0.1-0.2c0-0.2,0-0.2-0.1-0.3l-1.2-0.7c-0.1-0.1-0.3-0.1-0.5,0L47,79.3
						c-0.1,0-0.1,0.1-0.1,0.2C46.9,79.6,46.9,79.6,47,79.7z M51.5,77.1l1.2,0.7c0.1,0.1,0.3,0.1,0.5,0l2.1-1.2
						c0.1,0,0.1-0.1,0.1-0.2c0-0.2,0-0.2-0.1-0.3L54,75.5c-0.1-0.1-0.3-0.1-0.5,0l-2.1,1.2c-0.1,0-0.1,0.1-0.1,0.2
						C51.4,77,51.4,77.1,51.5,77.1z M49.2,78.4l1.2,0.7c0.1,0.1,0.3,0.1,0.5,0l1.4-0.8c0.1,0,0.1-0.1,0.1-0.2c0-0.2,0-0.2-0.1-0.3
						l-1.2-0.7c-0.1-0.1-0.3-0.1-0.5,0L49.2,78c-0.1,0-0.1,0.1-0.1,0.2C49.1,78.3,49.2,78.4,49.2,78.4z M44.8,81l1.2,0.7
						c0.1,0.1,0.3,0.1,0.5,0l1.4-0.8c0.1,0,0.1-0.1,0.1-0.2c0-0.2,0-0.2-0.1-0.3l-1.2-0.7c-0.1-0.1-0.3-0.1-0.5,0l-1.4,0.8
						c-0.1,0-0.1,0.1-0.1,0.2C44.7,80.9,44.7,80.9,44.8,81z M54.2,77.9l1.2,0.7c0.1,0.1,0.3,0.1,0.5,0l1.4-0.8
						c0.1,0,0.1-0.1,0.1-0.2c0-0.2,0-0.2-0.1-0.3l-1.2-0.7c-0.1-0.1-0.3-0.1-0.5,0l-1.4,0.8c-0.1,0-0.1,0.1-0.1,0.2
						C54.1,77.8,54.2,77.8,54.2,77.9z M36.5,88.1l1.2,0.7c0.1,0.1,0.3,0.1,0.5,0l1.4-0.8c0.1,0,0.1-0.1,0.1-0.2c0-0.2,0-0.2-0.1-0.3
						l-1.2-0.7c-0.1-0.1-0.3-0.1-0.5,0l-1.4,0.8c-0.1,0-0.1,0.1-0.1,0.2C36.4,88,36.4,88.1,36.5,88.1z M52,79.2l1.2,0.7
						c0.1,0.1,0.3,0.1,0.5,0L55,79c0.1,0,0.1-0.1,0.1-0.2c0-0.2,0-0.2-0.1-0.3l-1.2-0.7c-0.1-0.1-0.3-0.1-0.5,0L52,78.7
						c-0.1,0-0.1,0.1-0.1,0.2C51.9,79,51.9,79.1,52,79.2z M49.8,80.4l1.2,0.7c0.1,0.1,0.3,0.1,0.5,0l1.4-0.8c0.1,0,0.1-0.1,0.1-0.2
						c0-0.2,0-0.2-0.1-0.3l-1.2-0.7c-0.1-0.1-0.3-0.1-0.5,0L49.8,80c-0.1,0-0.1,0.1-0.1,0.2C49.7,80.3,49.7,80.4,49.8,80.4z
						 M47.6,81.7l1.2,0.7c0.1,0.1,0.3,0.1,0.5,0l1.4-0.8c0.1,0,0.1-0.1,0.1-0.2c0-0.2,0-0.2-0.1-0.3l-1.2-0.7
						c-0.1-0.1-0.3-0.1-0.5,0l-1.4,0.8c-0.1,0-0.1,0.1-0.1,0.2C47.5,81.6,47.5,81.7,47.6,81.7z M38.7,86.8l1.2,0.7
						c0.1,0.1,0.3,0.1,0.5,0l1.4-0.8c0.1,0,0.1-0.1,0.1-0.2c0-0.2,0-0.2-0.1-0.3l-1.2-0.7c-0.1-0.1-0.3-0.1-0.5,0l-1.4,0.8
						c-0.1,0-0.1,0.1-0.1,0.2C38.6,86.7,38.6,86.8,38.7,86.8z M40.9,85.5l1.2,0.7c0.1,0.1,0.3,0.1,0.5,0l1.4-0.8
						c0.1,0,0.1-0.1,0.1-0.2c0-0.2,0-0.2-0.1-0.3c-1.7-1-1.1-1-3,0.1c-0.1,0-0.1,0.1-0.1,0.2C40.8,85.4,40.9,85.5,40.9,85.5z
						 M43.2,84.3l1.2,0.7c0.1,0.1,0.3,0.1,0.5,0l1.4-0.8c0.1,0,0.1-0.1,0.1-0.2c0-0.2,0-0.2-0.1-0.3L45,83.1c-0.1-0.1-0.3-0.1-0.5,0
						l-1.4,0.8c-0.1,0-0.1,0.1-0.1,0.2C43.1,84.2,43.1,84.2,43.2,84.3z M45.4,83c1.1,0.7,1.3,0.8,1.6,0.7l1.4-0.8
						c0.1,0,0.1-0.1,0.1-0.2c0-0.2,0-0.2-0.1-0.3l-1.2-0.7c-0.1-0.1-0.3-0.1-0.5,0l-1.4,0.8c-0.1,0-0.1,0.1-0.1,0.2
						C45.3,82.9,45.3,82.9,45.4,83z M41.4,91.4c0-0.2,0-0.2-0.1-0.3l-1.2-0.7c-0.1-0.1-0.3-0.1-0.5,0l-2.1,1.2
						c-0.1,0-0.1,0.1-0.1,0.2c0,0.2,0,0.2,0.1,0.3l1.2,0.7c0.1,0.1,0.3,0.1,0.5,0l2.1-1.2C41.4,91.5,41.4,91.5,41.4,91.4z
						 M38.6,90.7c0-0.2,0-0.2-0.1-0.3l-1.2-0.7c-0.1-0.1-0.3-0.1-0.5,0l-1.4,0.8c-0.1,0-0.1,0.1-0.1,0.2c0,0.2,0,0.2,0.1,0.3
						l1.2,0.7c0.1,0.1,0.3,0.1,0.5,0l1.4-0.8C38.6,90.8,38.7,90.7,38.6,90.7z M40.4,83.5c1.7,1,1.1,1,3-0.1c0.1,0,0.1-0.1,0.1-0.2
						c0-0.2,0-0.2-0.1-0.3l-1.2-0.7c-0.1-0.1-0.3-0.1-0.5,0l-1.4,0.8c-0.1,0-0.1,0.1-0.1,0.2C40.3,83.4,40.3,83.5,40.4,83.5z
						 M64.8,78c0-0.2,0-0.2-0.1-0.3L63.5,77c-0.1-0.1-0.3-0.1-0.5,0l-1.4,0.8c-0.1,0-0.1,0.1-0.1,0.2c0,0.2,0,0.2,0.1,0.3l1.2,0.7
						c0.1,0.1,0.3,0.1,0.5,0l1.4-0.8C64.8,78.1,64.8,78,64.8,78z M37.4,89.1c0-0.2,0-0.2-0.1-0.3l-1.2-0.7c-0.1-0.1-0.3-0.1-0.5,0
						l-2.1,1.2c-0.1,0-0.1,0.1-0.1,0.2c0,0.2,0,0.2,0.1,0.3l1.2,0.7c0.1,0.1,0.3,0.1,0.5,0l2.1-1.2C37.4,89.2,37.4,89.2,37.4,89.1z
						 M38.2,84.8l1.2,0.7c0.1,0.1,0.3,0.1,0.5,0l1.4-0.8c0.1,0,0.1-0.1,0.1-0.2c0-0.2,0-0.2-0.1-0.3L40,83.6c-0.1-0.1-0.3-0.1-0.5,0
						l-1.4,0.8c-0.1,0-0.1,0.1-0.1,0.2C38.1,84.7,38.1,84.8,38.2,84.8z M35.9,86.1l1.2,0.7c0.1,0.1,0.3,0.1,0.5,0L39,86
						c0.1,0,0.1-0.1,0.1-0.2c0-0.2,0-0.2-0.1-0.3l-1.2-0.7c-0.1-0.1-0.3-0.1-0.5,0L36,85.7c-0.1,0-0.1,0.1-0.1,0.2
						C35.8,86,35.9,86,35.9,86.1z M34.6,88.4c0-0.2,0-0.2-0.1-0.3l-1.2-0.7c-0.1-0.1-0.3-0.1-0.5,0l-1.4,0.8c-0.1,0-0.1,0.1-0.1,0.2
						c0,0.2,0,0.2,0.1,0.3l1.1,0.7c0.1,0.1,0.3,0.1,0.5,0l1.4-0.8C34.6,88.5,34.6,88.4,34.6,88.4z M33.7,87.4l1.2,0.7
						c0.1,0.1,0.3,0.1,0.5,0l1.4-0.8c0.1,0,0.1-0.1,0.1-0.2c0-0.2,0-0.2-0.1-0.3l-1.2-0.7c-0.1-0.1-0.3-0.1-0.5,0l-1.4,0.8
						c-0.1,0-0.1,0.1-0.1,0.2C33.6,87.3,33.7,87.3,33.7,87.4z M71.2,76.5c0-0.1,0-0.1-0.1-0.2L70,75.6c-0.1-0.1-0.3-0.1-0.5,0
						l-1.4,0.8c-0.1,0-0.1,0.1-0.1,0.2c0,0.2,0,0.2,0.1,0.3l1.2,0.7c0.1,0.1,0.3,0.1,0.5,0l1.4-0.8C71.2,76.7,71.2,76.6,71.2,76.5
						C71.2,76.5,71.2,76.5,71.2,76.5z M63.2,74.3l-1.5-0.9c-0.2-0.1-0.4-0.1-0.6,0l-3.5,2c-0.1,0.1-0.1,0.1-0.1,0.2
						c0,0.2,0,0.2,0.1,0.3l3,1.8c0.2,0.1,0.4,0.1,0.6,0l5.8-3.3c0.1-0.1,0.1-0.1,0.1-0.2c0-0.2,0-0.2-0.1-0.3l-1.1-0.7
						c-0.1-0.1-0.3-0.1-0.4,0l-1.9,1.1C63.5,74.4,63.3,74.4,63.2,74.3z M61.3,79.7L60.1,79c-0.1-0.1-0.3-0.1-0.5,0l-1.4,0.8
						c-0.1,0-0.1,0.1-0.1,0.2c0,0.2,0,0.2,0.1,0.3l1.2,0.7c0.1,0.1,0.3,0.1,0.5,0l1.4-0.8c0.1,0,0.1-0.1,0.1-0.2
						C61.4,79.8,61.3,79.7,61.3,79.7z M66.9,76.4l-1.2-0.7c-0.1-0.1-0.3-0.1-0.5,0l-1.4,0.8c-0.1,0-0.1,0.1-0.1,0.2
						c0,0.2,0,0.2,0.1,0.3l1.1,0.7c0.1,0.1,0.3,0.1,0.5,0l1.4-0.8c0.1,0,0.1-0.1,0.1-0.2C67,76.5,67,76.5,66.9,76.4z M56.8,82.2
						l-1.2-0.7c-0.1-0.1-0.3-0.1-0.5,0l-1.4,0.8c-0.1,0-0.1,0.1-0.1,0.2c0,0.2,0,0.2,0.1,0.3l1.2,0.7c0.1,0.1,0.3,0.1,0.5,0l1.4-0.8
						c0.1,0,0.1-0.1,0.1-0.2C56.9,82.3,56.9,82.3,56.8,82.2z M66,75.4c0,0.2,0,0.2,0.1,0.3l1.2,0.7c0.1,0.1,0.3,0.1,0.5,0l1.4-0.8
						c0.1,0,0.1-0.1,0.1-0.2c0-0.2,0-0.2-0.1-0.3L68,74.5c-0.1-0.1-0.3-0.1-0.5,0l-1.4,0.8C66,75.3,66,75.4,66,75.4z M48,87.3
						l-1.2-0.7c-0.1-0.1-0.3-0.1-0.5,0L45,87.4c-0.1,0-0.1,0.1-0.1,0.2c0,0.2,0,0.2,0.1,0.3l1.2,0.7c0.1,0.1,0.3,0.1,0.5,0l1.4-0.8
						c0.1,0,0.1-0.1,0.1-0.2C48.1,87.4,48.1,87.4,48,87.3z M52.4,84.8l-1.2-0.7c-0.1-0.1-0.3-0.1-0.5,0l-1.4,0.8
						c-0.1,0-0.1,0.1-0.1,0.2c0,0.2,0,0.2,0.1,0.3l1.2,0.7c0.1,0.1,0.3,0.1,0.5,0l1.4-0.8c0.1,0,0.1-0.1,0.1-0.2
						C52.5,84.9,52.5,84.8,52.4,84.8z M50.2,86L49,85.4c-0.1-0.1-0.3-0.1-0.5,0l-1.4,0.8c-0.1,0-0.1,0.1-0.1,0.2
						c0,0.2,0,0.2,0.1,0.3l1.2,0.7c0.1,0.1,0.3,0.1,0.5,0l1.4-0.8c0.1,0,0.1-0.1,0.1-0.2C50.3,86.2,50.3,86.1,50.2,86z M45.8,88.6
						l-1.2-0.7c-0.1-0.1-0.3-0.1-0.5,0l-1.4,0.8c-0.1,0-0.1,0.1-0.1,0.2c0,0.2,0,0.2,0.1,0.3l1.2,0.7c0.1,0.1,0.3,0.1,0.5,0l1.4-0.8
						c0.1,0,0.1-0.1,0.1-0.2C45.9,88.7,45.8,88.7,45.8,88.6z M43.5,89.9l-1.2-0.7c-0.1-0.1-0.3-0.1-0.5,0L40.5,90
						c-0.1,0-0.1,0.1-0.1,0.2c0,0.2,0,0.2,0.1,0.3l1.2,0.7c0.1,0.1,0.3,0.1,0.5,0l1.4-0.8c0.1,0,0.1-0.1,0.1-0.2
						C43.6,90,43.6,89.9,43.5,89.9z M54.6,83.5l-1.2-0.7c-0.1-0.1-0.3-0.1-0.5,0l-1.4,0.8c-0.1,0-0.1,0.1-0.1,0.2
						c0,0.2,0,0.2,0.1,0.3l1.2,0.7c0.1,0.1,0.3,0.1,0.5,0l1.4-0.8c0.1,0,0.1-0.1,0.1-0.2C54.7,83.6,54.7,83.5,54.6,83.5z M59.1,80.9
						l-1.2-0.7c-0.1-0.1-0.3-0.1-0.5,0l-1.4,0.8c-0.1,0-0.1,0.1-0.1,0.2c0,0.2,0,0.2,0.1,0.3l1.2,0.7c0.1,0.1,0.3,0.1,0.5,0l1.4-0.8
						c0.1,0,0.1-0.1,0.1-0.2C59.2,81,59.1,81,59.1,80.9z M47,90.2l-1.2-0.7c-0.1-0.1-0.3-0.1-0.5,0L44,90.3c-0.1,0-0.1,0.1-0.1,0.2
						c0,0.2,0,0.2,0.1,0.3l1.2,0.7c0.1,0.1,0.3,0.1,0.5,0l1.4-0.8c0.1,0,0.1-0.1,0.1-0.2C47.1,90.3,47.1,90.2,47,90.2z M49.2,88.9
						l-1.2-0.7c-0.1-0.1-0.3-0.1-0.5,0L46.2,89c-0.1,0-0.1,0.1-0.1,0.2c0,0.2,0,0.2,0.1,0.3l1.2,0.7c0.1,0.1,0.3,0.1,0.5,0l1.4-0.8
						c0.1,0,0.1-0.1,0.1-0.2C49.3,89,49.3,88.9,49.2,88.9z M44.8,91.5l-1.2-0.7c-0.1-0.1-0.3-0.1-0.5,0l-1.4,0.8
						c-0.1,0-0.1,0.1-0.1,0.2c0,0.2,0,0.2,0.1,0.3l1.2,0.7c0.1,0.1,0.3,0.1,0.5,0l1.4-0.8c0.1,0,0.1-0.1,0.1-0.2
						C44.9,91.6,44.9,91.5,44.8,91.5z M42.6,92.7l-1.2-0.7c-0.1-0.1-0.3-0.1-0.5,0l-1.4,0.8c-0.1,0-0.1,0.1-0.1,0.2
						c0,0.2,0,0.2,0.1,0.3l1.2,0.7c0.1,0.1,0.3,0.1,0.5,0l1.4-0.8c0.1,0,0.1-0.1,0.1-0.2C42.7,92.8,42.6,92.8,42.6,92.7z M59.2,78.5
						l-1.2-0.7c-0.1-0.1-0.3-0.1-0.5,0L55.5,79c-0.1,0-0.1,0.1-0.1,0.2c0,0.2,0,0.2,0.1,0.3l1.2,0.7c0.1,0.1,0.3,0.1,0.5,0l2.1-1.2
						c0.1,0,0.1-0.1,0.1-0.2C59.3,78.6,59.3,78.5,59.2,78.5z M63.2,80.8l-1.2-0.7c-0.1-0.1-0.3-0.1-0.5,0l-2.1,1.2
						c-0.1,0-0.1,0.1-0.1,0.2c0,0.2,0,0.2,0.1,0.3l1.2,0.7c0.1,0.1,0.3,0.1,0.5,0l2.1-1.2c0.1,0,0.1-0.1,0.1-0.2
						C63.3,80.9,63.3,80.9,63.2,80.8z M68.9,77.6l-1.2-0.7c-0.1-0.1-0.3-0.1-0.5,0l-1.4,0.8c-0.1,0-0.1,0.1-0.1,0.2
						c0,0.2,0,0.2,0.1,0.3l1.2,0.7c0.1,0.1,0.3,0.1,0.5,0l1.4-0.8c0.1,0,0.1-0.1,0.1-0.2C69,77.7,69,77.6,68.9,77.6z M66.7,78.9
						l-1.2-0.7c-0.1-0.1-0.3-0.1-0.5,0L63.7,79c-0.1,0-0.1,0.1-0.1,0.2c0,0.2,0,0.2,0.1,0.3l1.1,0.7c0.1,0.1,0.3,0.1,0.5,0l1.4-0.8
						c0.1,0,0.1-0.1,0.1-0.2C66.8,79,66.8,78.9,66.7,78.9z M60.3,82.5l-1.2-0.7c-0.1-0.1-0.3-0.1-0.5,0l-10.3,5.9
						c-0.1,0-0.1,0.1-0.1,0.2c0,0.2,0,0.2,0.1,0.3l1.2,0.7c0.1,0.1,0.3,0.1,0.5,0l10.3-5.9c0.1,0,0.1-0.1,0.1-0.2
						C60.4,82.6,60.4,82.6,60.3,82.5z M51.8,82.7l-1.2-0.7c-0.1-0.1-0.3-0.1-0.5,0l-1.4,0.8c-0.1,0-0.1,0.1-0.1,0.2
						c0,0.2,0,0.2,0.1,0.3L50,84c0.1,0.1,0.3,0.1,0.5,0l1.4-0.8c0.1,0,0.1-0.1,0.1-0.2C51.9,82.9,51.9,82.8,51.8,82.7z M49.6,84
						l-1.2-0.7c-0.1-0.1-0.3-0.1-0.5,0l-1.4,0.8c-0.1,0-0.1,0.1-0.1,0.2c0,0.2,0,0.2,0.1,0.3l1.2,0.7c0.1,0.1,0.3,0.1,0.5,0l1.4-0.8
						c0.1,0,0.1-0.1,0.1-0.2C49.7,84.1,49.7,84.1,49.6,84z M54.1,81.5l-1.2-0.7c-0.1-0.1-0.3-0.1-0.5,0l-1.4,0.8
						c-0.1,0-0.1,0.1-0.1,0.2c0,0.2,0,0.2,0.1,0.3l1.2,0.7c0.1,0.1,0.3,0.1,0.5,0l1.4-0.8c0.1,0,0.1-0.1,0.1-0.2
						C54.2,81.6,54.1,81.5,54.1,81.5z M62,73.1c0,0.2,0,0.2,0.1,0.3l1.2,0.7c0.1,0.1,0.3,0.1,0.5,0l1.4-0.8c0.1,0,0.1-0.1,0.1-0.2
						c0-0.2,0-0.2-0.1-0.3l-1.2-0.7c-0.1-0.1-0.3-0.1-0.5,0l-1.4,0.8C62,73,62,73,62,73.1z M56.3,80.2l-1.2-0.7
						c-0.1-0.1-0.3-0.1-0.5,0l-1.4,0.8c-0.1,0-0.1,0.1-0.1,0.2c0,0.2,0,0.2,0.1,0.3l1.2,0.7c0.1,0.1,0.3,0.1,0.5,0l1.4-0.8
						c0.1,0,0.1-0.1,0.1-0.2C56.4,80.3,56.4,80.2,56.3,80.2z M47.4,85.3l-1.2-0.7c-0.1-0.1-0.3-0.1-0.5,0l-1.4,0.8
						c-0.1,0-0.1,0.1-0.1,0.2c0,0.2,0,0.2,0.1,0.3l1.2,0.7c0.1,0.1,0.3,0.1,0.5,0l1.4-0.8c0.1,0,0.1-0.1,0.1-0.2
						C47.5,85.4,47.5,85.3,47.4,85.3z M43,87.9l-1.2-0.7c-0.1-0.1-0.3-0.1-0.5,0L40,88c-0.1,0-0.1,0.1-0.1,0.2c0,0.2,0,0.2,0.1,0.3
						l1.2,0.7c0.1,0.1,0.3,0.1,0.5,0l1.4-0.8c0.1,0,0.1-0.1,0.1-0.2C43.1,88,43.1,87.9,43,87.9z M45.2,86.6L44,85.9
						c-0.1-0.1-0.3-0.1-0.5,0l-1.4,0.8c-0.1,0-0.1,0.1-0.1,0.2c0,0.2,0,0.2,0.1,0.3l1.2,0.7c0.1,0.1,0.3,0.1,0.5,0l1.4-0.8
						c0.1,0,0.1-0.1,0.1-0.2C45.3,86.7,45.3,86.6,45.2,86.6z"/>
					<path class="st13" d="M34.5,88.3l-1.4,0.8c-0.1,0.1-0.3,0.1-0.5,0l-1.1-0.7c-0.1-0.1-0.1-0.2,0-0.3l1.4-0.8
						c0.1-0.1,0.3-0.1,0.5,0l1.2,0.7C34.7,88.1,34.7,88.2,34.5,88.3z M36.7,86.8l-1.2-0.7c-0.1-0.1-0.3-0.1-0.5,0l-1.4,0.8
						c-0.1,0.1-0.1,0.2,0,0.3l1.2,0.7c0.1,0.1,0.3,0.1,0.5,0l1.4-0.8C36.9,87,36.9,86.8,36.7,86.8z M39,85.5l-1.2-0.7
						c-0.1-0.1-0.3-0.1-0.5,0L36,85.6c-0.1,0.1-0.1,0.2,0,0.3l1.2,0.7c0.1,0.1,0.3,0.1,0.5,0l1.4-0.8C39.1,85.7,39.1,85.6,39,85.5z
						 M41.2,84.2L40,83.5c-0.1-0.1-0.3-0.1-0.5,0l-1.4,0.8c-0.1,0.1-0.1,0.2,0,0.3l1.2,0.7c0.1,0.1,0.3,0.1,0.5,0l1.4-0.8
						C41.3,84.4,41.3,84.3,41.2,84.2z M43.4,82.9l-1.2-0.7c-0.1-0.1-0.3-0.1-0.5,0L40.4,83c-0.1,0.1-0.1,0.2,0,0.3l1.2,0.7
						c0.1,0.1,0.3,0.1,0.5,0l1.4-0.8C43.5,83.1,43.5,83,43.4,82.9z M45.6,81.6L44.5,81c-0.1-0.1-0.3-0.1-0.5,0l-1.4,0.8
						c-0.1,0.1-0.1,0.2,0,0.3l1.2,0.7c0.1,0.1,0.3,0.1,0.5,0l1.4-0.8C45.7,81.8,45.7,81.7,45.6,81.6z M47.8,80.4l-1.2-0.7
						c-0.1-0.1-0.3-0.1-0.5,0l-1.4,0.8c-0.1,0.1-0.1,0.2,0,0.3l1.2,0.7c0.1,0.1,0.3,0.1,0.5,0l1.4-0.8C48,80.6,48,80.4,47.8,80.4z
						 M50,79.1l-1.2-0.7c-0.1-0.1-0.3-0.1-0.5,0L47,79.2c-0.1,0.1-0.1,0.2,0,0.3l1.2,0.7c0.1,0.1,0.3,0.1,0.5,0l1.4-0.8
						C50.2,79.3,50.2,79.2,50,79.1z M52.2,77.8l-1.2-0.7c-0.1-0.1-0.3-0.1-0.5,0l-1.4,0.8c-0.1,0.1-0.1,0.2,0,0.3l1.2,0.7
						c0.1,0.1,0.3,0.1,0.5,0l1.4-0.8C52.4,78,52.4,77.9,52.2,77.8z M55.2,76.1L54,75.4c-0.1-0.1-0.3-0.1-0.5,0l-2.1,1.2
						c-0.1,0.1-0.1,0.2,0,0.3l1.2,0.7c0.1,0.1,0.3,0.1,0.5,0l2.1-1.2C55.3,76.3,55.3,76.2,55.2,76.1z M64.7,77.6L63.5,77
						c-0.1-0.1-0.3-0.1-0.5,0l-1.4,0.8c-0.1,0.1-0.1,0.2,0,0.3l1.2,0.7c0.1,0.1,0.3,0.1,0.5,0l1.4-0.8
						C64.8,77.8,64.8,77.7,64.7,77.6z M66.9,76.4l-1.2-0.7c-0.1-0.1-0.3-0.1-0.5,0l-1.4,0.8c-0.1,0.1-0.1,0.2,0,0.3l1.1,0.7
						c0.1,0.1,0.3,0.1,0.5,0l1.4-0.8C67,76.6,67,76.4,66.9,76.4z M69.1,75.1L68,74.4c-0.1-0.1-0.3-0.1-0.5,0l-1.4,0.8
						c-0.1,0.1-0.1,0.2,0,0.3l1.2,0.7c0.1,0.1,0.3,0.1,0.5,0l1.4-0.8C69.3,75.3,69.3,75.2,69.1,75.1z M66.7,78.8l-1.2-0.7
						c-0.1-0.1-0.3-0.1-0.5,0l-1.4,0.8c-0.1,0.1-0.1,0.2,0,0.3l1.1,0.7c0.1,0.1,0.3,0.1,0.5,0l1.4-0.8C66.8,79,66.8,78.9,66.7,78.8z
						 M68.9,77.5l-1.2-0.7c-0.1-0.1-0.3-0.1-0.5,0l-1.4,0.8c-0.1,0.1-0.1,0.2,0,0.3l1.2,0.7c0.1,0.1,0.3,0.1,0.5,0l1.4-0.8
						C69.1,77.7,69.1,77.6,68.9,77.5z M71.1,76.2L70,75.6c-0.1-0.1-0.3-0.1-0.5,0l-1.4,0.8c-0.1,0.1-0.1,0.2,0,0.3l1.2,0.7
						c0.1,0.1,0.3,0.1,0.5,0l1.4-0.8C71.3,76.4,71.3,76.3,71.1,76.2z M37.3,88.8l-1.2-0.7c-0.1-0.1-0.3-0.1-0.5,0l-2.1,1.2
						c-0.1,0.1-0.1,0.2,0,0.3l1.2,0.7c0.1,0.1,0.3,0.1,0.5,0l2.1-1.2C37.4,89,37.4,88.9,37.3,88.8z M39.5,87.5l-1.2-0.7
						c-0.1-0.1-0.3-0.1-0.5,0l-1.4,0.8c-0.1,0.1-0.1,0.2,0,0.3l1.2,0.7c0.1,0.1,0.3,0.1,0.5,0l1.4-0.8
						C39.7,87.7,39.7,87.6,39.5,87.5z M41.7,86.2l-1.2-0.7c-0.1-0.1-0.3-0.1-0.5,0l-1.4,0.8c-0.1,0.1-0.1,0.2,0,0.3l1.2,0.7
						c0.1,0.1,0.3,0.1,0.5,0l1.4-0.8C41.9,86.4,41.9,86.3,41.7,86.2z M44,84.9l-1.2-0.7c-0.1-0.1-0.3-0.1-0.5,0L41,85.1
						c-0.1,0.1-0.1,0.2,0,0.3l1.2,0.7c0.1,0.1,0.3,0.1,0.5,0l1.4-0.8C44.1,85.1,44.1,85,44,84.9z M46.2,83.7L45,83
						c-0.1-0.1-0.3-0.1-0.5,0l-1.4,0.8c-0.1,0.1-0.1,0.2,0,0.3l1.2,0.7c0.1,0.1,0.3,0.1,0.5,0l1.4-0.8
						C46.3,83.9,46.3,83.7,46.2,83.7z M48.4,82.4l-1.2-0.7c-0.1-0.1-0.3-0.1-0.5,0l-1.4,0.8c-0.1,0.1-0.1,0.2,0,0.3l1.2,0.7
						c0.1,0.1,0.3,0.1,0.5,0l1.4-0.8C48.5,82.6,48.5,82.5,48.4,82.4z M50.6,81.1l-1.2-0.7c-0.1-0.1-0.3-0.1-0.5,0l-1.4,0.8
						c-0.1,0.1-0.1,0.2,0,0.3l1.2,0.7c0.1,0.1,0.3,0.1,0.5,0l1.4-0.8C50.7,81.3,50.7,81.2,50.6,81.1z M52.8,79.8l-1.2-0.7
						c-0.1-0.1-0.3-0.1-0.5,0l-1.4,0.8c-0.1,0.1-0.1,0.2,0,0.3l1.2,0.7c0.1,0.1,0.3,0.1,0.5,0l1.4-0.8C52.9,80,52.9,79.9,52.8,79.8z
						 M55,78.5l-1.2-0.7c-0.1-0.1-0.3-0.1-0.5,0L52,78.7c-0.1,0.1-0.1,0.2,0,0.3l1.2,0.7c0.1,0.1,0.3,0.1,0.5,0l1.4-0.8
						C55.2,78.7,55.2,78.6,55,78.5z M57.2,77.3l-1.2-0.7c-0.1-0.1-0.3-0.1-0.5,0l-1.4,0.8c-0.1,0.1-0.1,0.2,0,0.3l1.2,0.7
						c0.1,0.1,0.3,0.1,0.5,0l1.4-0.8C57.4,77.5,57.4,77.3,57.2,77.3z M38.6,90.4l-1.2-0.7c-0.1-0.1-0.3-0.1-0.5,0l-1.4,0.8
						c-0.1,0.1-0.1,0.2,0,0.3l1.2,0.7c0.1,0.1,0.3,0.1,0.5,0l1.4-0.8C38.7,90.6,38.7,90.4,38.6,90.4z M40.8,89.1l-1.2-0.7
						c-0.1-0.1-0.3-0.1-0.5,0l-1.4,0.8c-0.1,0.1-0.1,0.2,0,0.3l1.2,0.7c0.1,0.1,0.3,0.1,0.5,0l1.4-0.8
						C40.9,89.3,40.9,89.2,40.8,89.1z M43,87.8l-1.2-0.7c-0.1-0.1-0.3-0.1-0.5,0L40,87.9c-0.1,0.1-0.1,0.2,0,0.3l1.2,0.7
						c0.1,0.1,0.3,0.1,0.5,0l1.4-0.8C43.1,88,43.1,87.9,43,87.8z M45.2,86.5L44,85.9c-0.1-0.1-0.3-0.1-0.5,0l-1.4,0.8
						c-0.1,0.1-0.1,0.2,0,0.3l1.2,0.7c0.1,0.1,0.3,0.1,0.5,0l1.4-0.8C45.3,86.7,45.3,86.6,45.2,86.5z M42.6,92.7L41.4,92
						c-0.1-0.1-0.3-0.1-0.5,0l-1.4,0.8c-0.1,0.1-0.1,0.2,0,0.3l1.2,0.7c0.1,0.1,0.3,0.1,0.5,0l1.4-0.8
						C42.7,92.9,42.7,92.8,42.6,92.7z M44.8,91.4l-1.2-0.7c-0.1-0.1-0.3-0.1-0.5,0l-1.4,0.8c-0.1,0.1-0.1,0.2,0,0.3l1.2,0.7
						c0.1,0.1,0.3,0.1,0.5,0l1.4-0.8C44.9,91.6,44.9,91.5,44.8,91.4z M47,90.1l-1.2-0.7c-0.1-0.1-0.3-0.1-0.5,0L44,90.2
						c-0.1,0.1-0.1,0.2,0,0.3l1.2,0.7c0.1,0.1,0.3,0.1,0.5,0l1.4-0.8C47.1,90.3,47.1,90.2,47,90.1z M49.2,88.8l-1.2-0.7
						c-0.1-0.1-0.3-0.1-0.5,0L46.2,89c-0.1,0.1-0.1,0.2,0,0.3l1.2,0.7c0.1,0.1,0.3,0.1,0.5,0l1.4-0.8C49.3,89,49.3,88.9,49.2,88.8z
						 M63.2,80.8l-1.2-0.7c-0.1-0.1-0.3-0.1-0.5,0l-2.1,1.2c-0.1,0.1-0.1,0.2,0,0.3l1.2,0.7c0.1,0.1,0.3,0.1,0.5,0l2.1-1.2
						C63.3,81,63.3,80.8,63.2,80.8z M47.4,85.2l-1.2-0.7c-0.1-0.1-0.3-0.1-0.5,0l-1.4,0.8c-0.1,0.1-0.1,0.2,0,0.3l1.2,0.7
						c0.1,0.1,0.3,0.1,0.5,0l1.4-0.8C47.5,85.4,47.5,85.3,47.4,85.2z M49.6,84l-1.2-0.7c-0.1-0.1-0.3-0.1-0.5,0l-1.4,0.8
						c-0.1,0.1-0.1,0.2,0,0.3l1.2,0.7c0.1,0.1,0.3,0.1,0.5,0l1.4-0.8C49.8,84.2,49.8,84,49.6,84z M51.8,82.7L50.7,82
						c-0.1-0.1-0.3-0.1-0.5,0l-1.4,0.8c-0.1,0.1-0.1,0.2,0,0.3l1.2,0.7c0.1,0.1,0.3,0.1,0.5,0l1.4-0.8C52,82.9,52,82.8,51.8,82.7z
						 M54.1,81.4l-1.2-0.7c-0.1-0.1-0.3-0.1-0.5,0l-1.4,0.8c-0.1,0.1-0.1,0.2,0,0.3l1.2,0.7c0.1,0.1,0.3,0.1,0.5,0l1.4-0.8
						C54.2,81.6,54.2,81.5,54.1,81.4z M56.3,80.1l-1.2-0.7c-0.1-0.1-0.3-0.1-0.5,0l-1.4,0.8c-0.1,0.1-0.1,0.2,0,0.3l1.2,0.7
						c0.1,0.1,0.3,0.1,0.5,0l1.4-0.8C56.4,80.3,56.4,80.2,56.3,80.1z M59.2,78.4l-1.2-0.7c-0.1-0.1-0.3-0.1-0.5,0L55.5,79
						c-0.1,0.1-0.1,0.2,0,0.3l1.2,0.7c0.1,0.1,0.3,0.1,0.5,0l2.1-1.2C59.3,78.6,59.3,78.5,59.2,78.4z M41.3,91.1l-1.2-0.7
						c-0.1-0.1-0.3-0.1-0.5,0l-2.1,1.2c-0.1,0.1-0.1,0.2,0,0.3l1.2,0.7c0.1,0.1,0.3,0.1,0.5,0l2.1-1.2
						C41.5,91.3,41.5,91.2,41.3,91.1z M43.5,89.8l-1.2-0.7c-0.1-0.1-0.3-0.1-0.5,0l-1.4,0.8c-0.1,0.1-0.1,0.2,0,0.3l1.2,0.7
						c0.1,0.1,0.3,0.1,0.5,0l1.4-0.8C43.7,90,43.7,89.9,43.5,89.8z M45.8,88.5l-1.2-0.7c-0.1-0.1-0.3-0.1-0.5,0l-1.4,0.8
						c-0.1,0.1-0.1,0.2,0,0.3l1.2,0.7c0.1,0.1,0.3,0.1,0.5,0l1.4-0.8C45.9,88.7,45.9,88.6,45.8,88.5z M48,87.3l-1.2-0.7
						c-0.1-0.1-0.3-0.1-0.5,0L45,87.4c-0.1,0.1-0.1,0.2,0,0.3l1.2,0.7c0.1,0.1,0.3,0.1,0.5,0l1.4-0.8C48.1,87.5,48.1,87.3,48,87.3z
						 M50.2,86L49,85.3c-0.1-0.1-0.3-0.1-0.5,0l-1.4,0.8c-0.1,0.1-0.1,0.2,0,0.3l1.2,0.7c0.1,0.1,0.3,0.1,0.5,0l1.4-0.8
						C50.3,86.2,50.3,86.1,50.2,86z M60.3,82.4l-1.2-0.7c-0.1-0.1-0.3-0.1-0.5,0l-10.3,5.9c-0.1,0.1-0.1,0.2,0,0.3l1.2,0.7
						c0.1,0.1,0.3,0.1,0.5,0l10.3-5.9C60.5,82.6,60.5,82.5,60.3,82.4z M52.4,84.7L51.3,84c-0.1-0.1-0.3-0.1-0.5,0l-1.4,0.8
						c-0.1,0.1-0.1,0.2,0,0.3l1.2,0.7c0.1,0.1,0.3,0.1,0.5,0l1.4-0.8C52.5,84.9,52.5,84.8,52.4,84.7z M54.6,83.4l-1.2-0.7
						c-0.1-0.1-0.3-0.1-0.5,0l-1.4,0.8c-0.1,0.1-0.1,0.2,0,0.3l1.2,0.7c0.1,0.1,0.3,0.1,0.5,0l1.4-0.8
						C54.8,83.6,54.8,83.5,54.6,83.4z M56.8,82.2l-1.2-0.7c-0.1-0.1-0.3-0.1-0.5,0l-1.4,0.8c-0.1,0.1-0.1,0.2,0,0.3l1.2,0.7
						c0.1,0.1,0.3,0.1,0.5,0l1.4-0.8C57,82.4,57,82.2,56.8,82.2z M59.1,80.9l-1.2-0.7c-0.1-0.1-0.3-0.1-0.5,0L56.1,81
						c-0.1,0.1-0.1,0.2,0,0.3l1.2,0.7c0.1,0.1,0.3,0.1,0.5,0l1.4-0.8C59.2,81.1,59.2,80.9,59.1,80.9z M61.3,79.6l-1.2-0.7
						c-0.1-0.1-0.3-0.1-0.5,0l-1.4,0.8c-0.1,0.1-0.1,0.2,0,0.3l1.2,0.7c0.1,0.1,0.3,0.1,0.5,0l1.4-0.8
						C61.4,79.8,61.4,79.7,61.3,79.6z M58.6,74.1l-1.2-0.7c-0.1-0.1-0.3-0.1-0.5,0l-1.4,0.8c-0.1,0.1-0.1,0.2,0,0.3l1.2,0.7
						c0.1,0.1,0.3,0.1,0.5,0l1.4-0.8C58.8,74.3,58.8,74.2,58.6,74.1z M60.8,72.9l-1.2-0.7c-0.1-0.1-0.3-0.1-0.5,0L57.8,73
						c-0.1,0.1-0.1,0.2,0,0.3l1.2,0.7c0.1,0.1,0.3,0.1,0.5,0l1.4-0.8C61,73.1,61,72.9,60.8,72.9z M63.1,71.6l-1.2-0.7
						c-0.1-0.1-0.3-0.1-0.5,0l-1.4,0.8c-0.1,0.1-0.1,0.2,0,0.3l1.2,0.7c0.1,0.1,0.3,0.1,0.5,0l1.4-0.8
						C63.2,71.8,63.2,71.7,63.1,71.6z M65.1,72.7l-1.2-0.7c-0.1-0.1-0.3-0.1-0.5,0l-1.4,0.8c-0.1,0.1-0.1,0.2,0,0.3l1.2,0.7
						c0.1,0.1,0.3,0.1,0.5,0l1.4-0.8C65.2,72.9,65.2,72.8,65.1,72.7z M67,73.8l-1.1-0.7c-0.1-0.1-0.3-0.1-0.4,0l-1.9,1.1
						c-0.1,0.1-0.2,0.1-0.3,0l-1.5-0.9c-0.2-0.1-0.4-0.1-0.6,0l-3.5,2c-0.2,0.1-0.2,0.2,0,0.3l3,1.8c0.2,0.1,0.4,0.1,0.6,0l5.8-3.3
						C67.2,74.1,67.2,73.9,67,73.8z"/>
				</g>
			</g>
			<g>
				<g>
					
						<linearGradient id="SVGID_00000150084697742899753550000009852607888308271547_" gradientUnits="userSpaceOnUse" x1="77.219" y1="29.3244" x2="84.0246" y2="34.062" gradientTransform="matrix(1 0 0 -1 0 100)">
						<stop  offset="0" style="stop-color:#1CB771"/>
						<stop  offset="0.1812" style="stop-color:#00E187"/>
						<stop  offset="0.4089" style="stop-color:#00E187"/>
						<stop  offset="0.6881" style="stop-color:#7AEAB8"/>
						<stop  offset="1" style="stop-color:#C3F4DE"/>
					</linearGradient>
					<path style="fill:url(#SVGID_00000150084697742899753550000009852607888308271547_);" d="M88.2,68.9c-0.5-1.2-2.3-3.5-5-4.6
						c-2.2-0.8-4.9-1.7-8.1,0.2c-0.1,0.1-0.2,0.2-0.3,0.2c-1.2,0.9-1.1,2.3,0.1,3.2c2.3,1.6,5.1,3.1,5.1,3.1
						c0.7,0.4,1.4,0.7,2.2,0.9c1.9,0.5,3.5,0.3,4.9-0.5c0.9-0.5,1.3-1.2,1.3-1.9C88.4,69.4,88.3,69.2,88.2,68.9z"/>
				</g>
				<path class="st15" d="M79.1,64.9l-0.9-0.5c-0.3-0.1-0.7-0.2-1,0.2c-0.2,0.2-0.1,0.3,0.1,0.4l0.9,0.4c0.3,0.1,0.7,0.2,1,0
					C79.4,65.2,79.4,65,79.1,64.9z"/>
				<g>
					<g>
						<defs>
							<path id="SVGID_00000000186414136987844690000008015943784803574149_" d="M77.1,64.7c0,0,1.1,0.6,1.6,0.7
								c0.2,0,0.4-0.1,0.4-0.1c0.1-0.1,0.2-0.2,0.2-0.5L79,63.7c0,0-1-0.9-1.5-0.4C77.1,63.8,76.9,64.4,77.1,64.7z"/>
						</defs>
						<clipPath id="SVGID_00000134970589499631127180000008427934951356801975_">
							<use xlink:href="#SVGID_00000000186414136987844690000008015943784803574149_"  style="overflow:visible;"/>
						</clipPath>
						<g style="clip-path:url(#SVGID_00000134970589499631127180000008427934951356801975_);enable-background:new    ;">
							<path class="st17" d="M78.5,64.1c-0.3-0.2-0.6-0.2-0.9,0l1.3,2.1C79.6,65.7,79.3,64.6,78.5,64.1z"/>
							<path class="st5" d="M78.9,65.2c-0.2-0.4-0.5-0.8-0.8-0.9c-0.2-0.1-0.3-0.1-0.4-0.1c-0.1,0-0.1,0-0.2,0.1
								c-0.1,0.1-0.3,0.2-0.4,0.5c-0.2,0.8,0.7,2.1,1.6,1.6C79,66.1,79.1,65.7,78.9,65.2z"/>
							<path class="st18" d="M78.3,65.4c-0.1-0.3-0.3-0.5-0.5-0.6c-0.1-0.1-0.2-0.1-0.3-0.1c-0.3,0-0.3,0.4-0.2,0.8
								c0.1,0.3,0.3,0.5,0.5,0.6c0.1,0.1,0.2,0.1,0.3,0.1C78.3,66.1,78.4,65.8,78.3,65.4z"/>
							
								<linearGradient id="SVGID_00000130616597374358792870000012575381581459878029_" gradientUnits="userSpaceOnUse" x1="77.521" y1="34.8336" x2="79.1198" y2="34.8336" gradientTransform="matrix(1 0 0 -1 0 100)">
								<stop  offset="0" style="stop-color:#1CB771"/>
								<stop  offset="1" style="stop-color:#00E187"/>
							</linearGradient>
							<path style="fill:url(#SVGID_00000130616597374358792870000012575381581459878029_);" d="M79,65.1C79,65.1,79,65,79,65.1
								c-0.1-0.3-0.2-0.5-0.4-0.6c-0.1-0.1-0.2-0.2-0.4-0.3c-0.2-0.1-0.3-0.1-0.4-0.1c-0.1,0-0.1,0-0.2,0.1l-0.1,0.1
								c0.1,0,0.1-0.1,0.2-0.1c0.1,0,0.3,0,0.4,0.1c0.1,0.1,0.3,0.2,0.4,0.3c0.1,0.2,0.2,0.3,0.3,0.5C78.9,65.1,78.9,65.1,79,65.1
								c0.1,0.6,0,1-0.2,1.2l0.1-0.1C79.1,66.1,79.2,65.6,79,65.1z"/>
						</g>
					</g>
				</g>
				<path class="st20" d="M87.2,70.8c-1.4,0.8-3.1,1-4.9,0.5c-0.8-0.2-1.5-0.5-2.2-0.9c0,0-2.8-1.5-5.1-3.1c-0.7-0.5-1-1.2-1-1.8
					c-0.4,0.8-0.1,1.8,0.8,2.4c2.3,1.6,5.1,3.1,5.1,3.1c0.7,0.4,1.4,0.7,2.2,0.9c1.9,0.5,3.5,0.3,4.9-0.5c0.8-0.5,1.3-1.1,1.3-1.7
					C88.2,70.1,87.8,70.5,87.2,70.8z"/>
				<path class="st21" d="M87.1,71.1c-1.4,0.8-3.1,1-4.9,0.5c-0.8-0.2-1.5-0.5-2.2-0.9c0,0-2.8-1.5-5.1-3.1
					c-0.7-0.5-1.1-1.2-0.9-1.9c-0.3,0.8,0,1.6,0.9,2.2c2.3,1.6,5.1,3.1,5.1,3.1c0.7,0.4,1.4,0.7,2.2,0.9c1.9,0.5,3.5,0.3,4.9-0.5
					c0.8-0.4,1.2-1,1.3-1.6C88.2,70.3,87.8,70.8,87.1,71.1z"/>
			</g>
		</g>
		<g>
			<g class="st22">
				<g>
					<g>
						<polygon class="st23" points="72.2,42 19,72.8 19,40.1 72.2,9.3 						"/>
						<polygon class="st3" points="72.2,42 19,72.8 19,40.1 72.2,9.3 						"/>
						<polygon class="st24" points="19.7,40.5 19.7,71.6 71.5,41.7 71.5,10.6 						"/>
						<polygon class="st9" points="72.2,9.4 19,40.2 19,38.2 72.2,7.4 						"/>
					</g>
					<g>
						<polygon class="st25" points="69,10.8 67.9,11.5 67.9,10.3 69,9.7 						"/>
						<polygon class="st25" points="70.4,10 69.3,10.7 69.3,9.5 70.4,8.9 						"/>
						<path class="st26" d="M69.5,9.6v0.8l0.8-0.4V9.2L69.5,9.6z M70.1,9.9l-0.5,0.3V9.7l0.5-0.3V9.9z"/>
						<polygon class="st25" points="71.8,9.2 70.7,9.8 70.7,8.7 71.8,8.1 						"/>
						<polygon class="st26" points="70.9,8.9 71.2,9 70.9,9.5 71,9.5 71.3,9.1 71.6,9.2 71.7,9 71.4,8.9 71.7,8.4 71.6,8.4 
							71.3,8.9 71,8.7 						"/>
						<polygon class="st26" points="68.8,10.7 68.1,11.2 68.1,11 68.8,10.6 						"/>
					</g>
				</g>
			</g>
			<g class="st27">
				<g>
					<g>
						<polygon class="st23" points="75,43.6 21.7,74.4 21.7,41.7 75,10.9 						"/>
						<polygon class="st3" points="75,43.6 21.7,74.4 21.7,41.7 75,10.9 						"/>
						<polygon class="st24" points="22.5,42.1 22.5,73.2 74.3,43.3 74.3,12.2 						"/>
						<polygon class="st9" points="75,11 21.7,41.8 21.7,39.8 75,9 						"/>
					</g>
					<g>
						<polygon class="st25" points="71.8,12.4 70.7,13.1 70.7,11.9 71.8,11.3 						"/>
						<polygon class="st25" points="73.2,11.6 72.1,12.3 72.1,11.1 73.2,10.5 						"/>
						<path class="st26" d="M72.3,11.2V12l0.8-0.4v-0.8L72.3,11.2z M72.9,11.5l-0.5,0.3v-0.5l0.5-0.3V11.5z"/>
						<polygon class="st25" points="74.6,10.8 73.5,11.5 73.5,10.3 74.6,9.7 						"/>
						<polygon class="st26" points="73.7,10.5 74,10.6 73.7,11.1 73.7,11.1 74,10.7 74.3,10.8 74.4,10.6 74.1,10.5 74.4,10 74.3,10 
							74,10.5 73.7,10.3 						"/>
						<polygon class="st26" points="71.6,12.3 70.9,12.8 70.9,12.6 71.6,12.2 						"/>
					</g>
				</g>
			</g>
			<g>
				<g>
					<g>
						<polygon class="st23" points="78.1,45.4 24.8,76.2 24.8,43.5 78.1,12.7 						"/>
						<polygon class="st3" points="78.1,45.4 24.8,76.2 24.8,43.5 78.1,12.7 						"/>
						<polygon class="st24" points="25.6,43.9 25.6,75 77.4,45.1 77.4,14 						"/>
						<polygon class="st9" points="78.1,12.8 24.8,43.6 24.8,41.6 78.1,10.8 						"/>
					</g>
					<g>
						<polygon class="st25" points="74.9,14.2 73.8,14.9 73.8,13.7 74.9,13.1 						"/>
						<polygon class="st25" points="76.3,13.4 75.2,14.1 75.2,12.9 76.3,12.3 						"/>
						<path class="st26" d="M75.4,13v0.8l0.8-0.4v-0.8L75.4,13z M76,13.3l-0.5,0.3v-0.5l0.5-0.3V13.3z"/>
						<polygon class="st25" points="77.7,12.6 76.6,13.2 76.6,12.1 77.7,11.5 						"/>
						<polygon class="st26" points="76.8,12.3 77.1,12.4 76.8,12.9 76.9,12.9 77.2,12.5 77.5,12.6 77.6,12.4 77.3,12.3 77.6,11.8 
							77.5,11.8 77.2,12.3 76.9,12.1 						"/>
						<polygon class="st26" points="74.7,14.1 74,14.6 74,14.4 74.7,14 						"/>
					</g>
				</g>
			</g>
			<g>
				<g>
					<g>
						<g class="st28">
							<path class="st29" d="M33.3,35.2c0.4-0.2,0.8-0.8,0.8-1.2c0-0.4-0.3-0.6-0.8-0.3c-0.4,0.2-0.8,0.8-0.8,1.2
								C32.5,35.3,32.9,35.5,33.3,35.2z M33.2,41.7c0.4-0.2,0.8-0.8,0.8-1.2c0-0.4-0.3-0.6-0.8-0.3c-0.4,0.2-0.8,0.8-0.8,1.2
								C32.4,41.8,32.8,41.9,33.2,41.7z M33.3,38.5c0.4-0.2,0.8-0.8,0.8-1.2c0-0.4-0.3-0.6-0.8-0.3c-0.4,0.2-0.8,0.8-0.8,1.2
								C32.5,38.6,32.8,38.8,33.3,38.5z M32.1,50.1c0.1,0.2,0.2,0.4,0.2,0.6v3.9c0,0.3-0.1,0.5-0.2,0.8c-0.1,0.2-0.2,0.5-0.4,0.7
								c-0.2,0.2-0.4,0.5-0.7,0.7S30.4,57,30.2,57c-0.2,0-0.3-0.1-0.4-0.3c-0.1-0.2-0.1-0.4-0.2-0.6v-3.9c0-0.3,0.1-0.5,0.2-0.8
								c0.1-0.2,0.2-0.5,0.4-0.7c0.2-0.2,0.4-0.5,0.8-0.7s0.6-0.2,0.7-0.2C31.9,49.9,32,50,32.1,50.1z M31.3,51.3
								c0-0.2,0-0.3-0.1-0.3c0,0-0.1,0-0.2,0c-0.2,0.1-0.2,0.3-0.3,0.4c0,0.1,0,0.2,0,0.3v3.9c0,0.2,0,0.3,0.1,0.3c0,0,0.1,0,0.2,0
								c0.2-0.1,0.2-0.2,0.3-0.4c0-0.1,0-0.2,0-0.3L31.3,51.3L31.3,51.3z M33.5,49c-0.2,0.3-0.4,0.6-0.8,0.9v0.6l0.7-0.4v5.2l1-0.6
								v-6.6l-0.6,0.3C33.6,48.7,33.5,48.9,33.5,49z M42.6,28.7l-7.1,4.1v0.8l7.1-4.1V28.7z M43.7,28.8l3-1.7v-0.8l-3,1.7V28.8z
								 M35.4,36.9l3.9-2.2v-0.8l-3.9,2.2V36.9z M49.3,28.1l-8.8,5.1V34l8.8-5.1V28.1z M55.3,24.6l-4.8,2.8v0.8l4.8-2.8V24.6z
								 M41.8,35.7l-6.3,3.7v0.8l6.3-3.7V35.7z M48.1,32l-5.2,3v0.8l5.2-3V32z M60.1,35.7l3-1.8v-0.4l-3,1.8V35.7z M53.3,39.2
								l-6.8,3.9v0.4l6.8-3.9V39.2z M53.1,38.1v-0.4l-3.8,2.2v0.4L53.1,38.1z M48.8,40.2l-8.7,5v0.4l8.7-5V40.2z M56.7,35.7l-3,1.8
								v0.4l3-1.8V35.7z M36.4,49.3l9.6-5.5v-0.4l-9.6,5.5V49.3z M57.2,35.7l6.8-3.9v-0.4l-6.8,3.9V35.7z M36.5,47.4v0.4l3.2-1.8
								v-0.4L36.5,47.4z M59.5,35.6l-5.7,3.3v0.4l5.7-3.3C59.5,36,59.5,35.6,59.5,35.6z M41.9,49.3l8.7-5v-0.4l-8.7,5V49.3z
								 M36.5,52.4l4.9-2.8v-0.4L36.5,52V52.4z M55.4,41.5l3.5-2v-0.4l-3.5,2V41.5z M51.1,43.9l3.8-2.2v-0.4l-3.8,2.2V43.9z
								 M50.1,42.6l-13.7,7.9v0.4L50.1,43V42.6z M57.4,38.4l-6.8,3.9v0.4l6.8-3.9V38.4z M57.9,38.5l3.7-2.1V36l-3.7,2.1V38.5z"/>
							<path class="st30" d="M39,38.5c0.4-0.2,0.8-0.8,0.8-1.2c0-0.4-0.3-0.6-0.8-0.3c-0.4,0.2-0.8,0.8-0.8,1.2
								C38.2,38.6,38.5,38.7,39,38.5z M38.9,44.9c0.4-0.2,0.8-0.8,0.8-1.2c0-0.4-0.3-0.6-0.8-0.3c-0.4,0.2-0.8,0.8-0.8,1.2
								C38.1,45,38.4,45.2,38.9,44.9z M38.9,41.8c0.4-0.2,0.8-0.8,0.8-1.2c0-0.4-0.3-0.6-0.8-0.3c-0.4,0.2-0.8,0.8-0.8,1.2
								C38.2,41.9,38.5,42,38.9,41.8z M37.7,53.4c0.1,0.2,0.2,0.4,0.2,0.6v3.9c0,0.3-0.1,0.5-0.2,0.8c-0.1,0.2-0.2,0.5-0.4,0.7
								c-0.2,0.2-0.4,0.5-0.7,0.7c-0.3,0.2-0.6,0.2-0.8,0.2c-0.2,0-0.3-0.1-0.4-0.3c-0.1-0.2-0.2-0.4-0.2-0.6v-3.9
								c0-0.3,0.1-0.5,0.2-0.8c0.1-0.2,0.2-0.5,0.4-0.7c0.2-0.2,0.4-0.5,0.8-0.7s0.6-0.2,0.7-0.2C37.5,53.1,37.7,53.2,37.7,53.4z
								 M36.9,54.6c0-0.2,0-0.3-0.1-0.3c0,0-0.1,0-0.2,0c-0.2,0.1-0.2,0.3-0.3,0.4c0,0.1,0,0.2,0,0.3v3.9c0,0.2,0,0.3,0.1,0.3
								c0,0,0.1,0,0.2,0c0.2-0.1,0.2-0.2,0.3-0.4c0-0.1,0-0.2,0-0.3L36.9,54.6L36.9,54.6z M39.1,52.3c-0.2,0.3-0.4,0.6-0.8,0.9v0.6
								l0.6-0.4v5.2l1-0.6v-6.6l-0.6,0.3C39.3,52,39.2,52.1,39.1,52.3z M48.2,32l-7.1,4.1v0.8l7.1-4.1V32z M49.4,32.1l3-1.7v-0.8
								l-3,1.7V32.1z M41.1,40.1l3.9-2.2v-0.8l-3.9,2.2V40.1z M54.9,31.4l-8.8,5.1v0.8l8.8-5.1V31.4z M61,27.9l-4.8,2.8v0.8l4.8-2.8
								V27.9z M47.4,39l-6.3,3.7v0.8l6.3-3.7V39z M53.8,35.3l-5.2,3v0.8l5.2-3V35.3z M65.7,38.9l3-1.8v-0.4l-3,1.8V38.9z M59,42.4
								l-6.8,3.9v0.4l6.8-3.9V42.4z M58.8,41.4V41L55,43.2v0.4L58.8,41.4z M54.5,43.5l-8.7,5v0.4l8.7-5V43.5z M62.4,38.9l-3,1.8v0.4
								l3-1.8V38.9z M42.1,52.6l9.6-5.5v-0.4l-9.6,5.5V52.6z M62.9,39l6.8-3.9v-0.4l-6.8,3.9V39z M42.1,50.6V51l3.2-1.8v-0.4
								L42.1,50.6z M65.2,38.9l-5.7,3.3v0.4l5.7-3.3V38.9z M47.6,52.5l8.7-5v-0.4l-8.7,5V52.5z M42.1,55.7l4.9-2.8v-0.4l-4.9,2.8
								V55.7z M61.1,44.7l3.5-2v-0.4l-3.5,2V44.7z M56.8,47.2l3.8-2.2v-0.4l-3.8,2.2V47.2z M55.7,45.9L42,53.8v0.4l13.7-7.9V45.9z
								 M63,41.6l-6.8,3.9V46L63,42V41.6z M63.6,41.7l3.7-2.1v-0.4l-3.7,2.1C63.6,41.3,63.6,41.7,63.6,41.7z"/>
						</g>
					</g>
				</g>
				<g>
					<g>
						<g>
							<g>
								<path class="st31" d="M45.4,40.6c0,0.4-0.3,1-0.8,1.2c-0.4,0.2-0.8,0.1-0.8-0.3s0.3-1,0.8-1.2S45.4,40.1,45.4,40.6z"/>
							</g>
							<g>
								<g>
									<path class="st31" d="M45.3,47c0,0.4-0.3,1-0.8,1.2c-0.4,0.2-0.8,0.1-0.8-0.3s0.3-1,0.8-1.2S45.3,46.6,45.3,47z"/>
								</g>
							</g>
							<g>
								<path class="st31" d="M45.3,43.8c0,0.4-0.3,1-0.8,1.2c-0.4,0.2-0.8,0.1-0.8-0.3s0.3-1,0.8-1.2S45.3,43.4,45.3,43.8z"/>
							</g>
						</g>
						<g>
							<path class="st31" d="M43.5,61.1c0,0.3-0.1,0.5-0.2,0.8c-0.1,0.2-0.2,0.5-0.4,0.7c-0.2,0.2-0.4,0.5-0.7,0.7
								c-0.3,0.2-0.6,0.2-0.8,0.2c-0.2,0-0.3-0.1-0.4-0.3C41,63.1,41,62.9,41,62.6v-3.9c0-0.3,0.1-0.5,0.2-0.8
								c0.1-0.2,0.2-0.5,0.4-0.7c0.2-0.2,0.4-0.5,0.8-0.7s0.6-0.2,0.7-0.2c0.2,0,0.3,0.1,0.4,0.3c0.1,0.2,0.2,0.4,0.2,0.6V61.1z
								 M42.6,57.8c0-0.2,0-0.3-0.1-0.3c0,0-0.1,0-0.2,0c-0.2,0.1-0.2,0.3-0.3,0.4c0,0.1,0,0.2,0,0.3v3.9c0,0.2,0,0.3,0.1,0.3
								c0,0,0.1,0,0.2,0c0.2-0.1,0.2-0.2,0.3-0.4c0-0.1,0-0.2,0-0.3L42.6,57.8L42.6,57.8z"/>
							<path class="st31" d="M43.9,57.1v-0.6c0.4-0.3,0.6-0.7,0.8-0.9c0.1-0.2,0.2-0.3,0.2-0.5l0.6-0.3v6.6l-1,0.6v-5.2L43.9,57.1z"
								/>
						</g>
					</g>
					<polygon class="st31" points="53.9,36 46.7,40.2 46.7,39.4 53.9,35.3 					"/>
					<polygon class="st31" points="58,33.6 55,35.4 55,34.6 58,32.9 					"/>
					<polygon class="st31" points="50.6,41.1 46.7,43.4 46.7,42.6 50.6,40.4 					"/>
					<polygon class="st31" points="60.6,35.4 51.8,40.5 51.8,39.7 60.6,34.6 					"/>
					<polygon class="st31" points="66.6,31.9 61.8,34.7 61.8,34 66.6,31.2 					"/>
					<polygon class="st31" points="53.1,43 46.7,46.6 46.7,45.9 53.1,42.2 					"/>
					<polygon class="st31" points="59.4,39.3 54.2,42.3 54.2,41.5 59.4,38.5 					"/>
					<g>
						<path class="st31" d="M71.4,42.2l3-1.8v-0.4l-3,1.8V42.2z M57.9,50l6.8-3.9v-0.4l-6.8,3.9V50z M65.2,45.8l5.7-3.3v-0.4
							l-5.7,3.3V45.8z M57.3,50.3v-0.4l-9.6,5.5v0.4L57.3,50.3z M47.8,54.3l3.2-1.8v-0.4l-3.2,1.8V54.3z M68.5,42.3l6.8-3.9v-0.4
							l-6.8,3.9V42.3z M65,44.3l3-1.8v-0.4l-3,1.8V44.3z M60.7,46.8l3.8-2.2v-0.4l-3.8,2.2C60.7,46.4,60.7,46.8,60.7,46.8z
							 M51.5,52.1l8.7-5v-0.4l-8.7,5V52.1z"/>
						<path class="st31" d="M72.9,42.5v0.4L69.2,45v-0.4L72.9,42.5z M62.4,50.1v0.4l3.8-2.2v-0.4L62.4,50.1z M68.7,44.9l-6.8,3.9
							v0.4l6.8-3.9V44.9z M70.2,45.6l-3.5,2V48l3.5-2V45.6z M61.4,49.5v-0.4L47.7,57v0.4L61.4,49.5z M52.7,56.1v-0.4l-4.9,2.8v0.4
							L52.7,56.1z M61.9,50.4l-8.7,5v0.4l8.7-5V50.4z"/>
					</g>
				</g>
			</g>
		</g>
	</g>
</g>
</svg>
