<?xml version="1.0" encoding="utf-8"?>
<!-- Generator: Adobe Illustrator 27.3.1, SVG Export Plug-In . SVG Version: 6.00 Build 0)  -->
<svg version="1.1" id="Camada_1" xmlns="http://www.w3.org/2000/svg" xmlns:xlink="http://www.w3.org/1999/xlink" x="0px" y="0px"
	 viewBox="0 0 100 100" style="enable-background:new 0 0 100 100;" xml:space="preserve">
<style type="text/css">
	.st0{fill:#342135;}
	.st1{fill:url(#SVGID_1_);}
	.st2{fill:url(#SVGID_00000167373879707937608310000006710996729370791315_);}
	.st3{fill:url(#SVGID_00000082352882937860448160000016955201395701625472_);}
	.st4{fill:url(#SVGID_00000115514591851573252210000017662133498369973639_);}
	.st5{fill:url(#SVGID_00000120546359635920611450000014091809227518843029_);}
	.st6{fill:url(#SVGID_00000147914162064743843840000003597566608949523894_);}
	.st7{fill:url(#SVGID_00000122687115787052479540000009239535272736289210_);}
	.st8{fill:url(#SVGID_00000156564154200377679580000016373578531069047680_);}
	.st9{fill:url(#SVGID_00000182523387500867017370000007891896400892387765_);}
	.st10{fill:url(#SVGID_00000043439803333636035940000010791383322259801022_);}
	.st11{fill:url(#SVGID_00000121271762711998267760000000453041788930422711_);}
	.st12{fill:url(#SVGID_00000003813799608841150820000018325576517875147689_);}
	.st13{fill:url(#SVGID_00000059296922196953295990000013149001295981577640_);}
	.st14{fill:url(#SVGID_00000135666887093769368940000000948523483050007944_);}
	.st15{fill:url(#SVGID_00000176760260266819772770000000595425623316355973_);}
	.st16{fill:url(#SVGID_00000123438716694526360920000018049430115370233488_);}
	.st17{fill:url(#SVGID_00000013893778459784466200000007202244264092963472_);}
	.st18{fill:url(#SVGID_00000094598712906221062600000016348119303522693786_);}
	.st19{fill:url(#SVGID_00000168795484410477190640000002793408698318228147_);}
	.st20{fill:url(#SVGID_00000159447881977706000900000014889307842763978405_);}
	.st21{fill:#412B42;}
	.st22{fill:#E198F7;}
	.st23{opacity:0.6;fill:#9B68AD;}
	.st24{opacity:0.6;fill:#B46ACC;}
	.st25{fill:#2C1F2D;}
</style>
<g id="_x32_">
	<g>
		<g id="_x31__4_">
			<g>
				<path class="st0" d="M53.75,86c-2.1-1.26-5.57-1.29-7.73-0.08c-1.18,0.66-1.73,1.56-1.65,2.45c0.57,4.21,5.59,5.1,8.56,3.46
					c1.41-0.85,2.14-1.91,2.35-3.42C55.38,87.54,54.87,86.67,53.75,86z"/>
				<linearGradient id="SVGID_1_" gradientUnits="userSpaceOnUse" x1="39.1106" y1="87.0753" x2="60.5838" y2="87.0753">
					<stop  offset="0" style="stop-color:#7425B7"/>
					<stop  offset="1" style="stop-color:#A755D6"/>
				</linearGradient>
				<path class="st1" d="M57.33,87c-4.25,2.39-11.05,2.32-15.18-0.15c-2.03-1.21-3.04-2.78-3.04-4.35c0.04,1.2,0.18,4.84,4.47,7.47
					c0.97,0.59,6.11,3.39,12.28,0.15c4.48-2.59,4.66-6.33,4.72-7.56C60.58,84.18,59.49,85.79,57.33,87z"/>
				
					<linearGradient id="SVGID_00000096755358568955555720000017006279575052538292_" gradientUnits="userSpaceOnUse" x1="38.3906" y1="81.0296" x2="61.3123" y2="81.0296">
					<stop  offset="0" style="stop-color:#BC77E8"/>
					<stop  offset="0.4631" style="stop-color:#F5ABFF"/>
					<stop  offset="1" style="stop-color:#FDD3FF"/>
				</linearGradient>
				<path style="fill:url(#SVGID_00000096755358568955555720000017006279575052538292_);" d="M58.07,76.42
					c-4.41-2.64-11.67-2.71-16.21-0.16c-4.54,2.55-4.64,6.75-0.23,9.39c3.07,1.84,7.53,2.43,11.48,1.76
					c1.72-0.29,3.35-0.82,4.73-1.6c1.11-0.62,1.95-1.34,2.53-2.11C62.16,81.3,61.4,78.41,58.07,76.42z"/>
				
					<linearGradient id="SVGID_00000096744404666566912840000002976337167717903515_" gradientUnits="userSpaceOnUse" x1="37.9778" y1="81.8169" x2="61.7257" y2="81.8169">
					<stop  offset="0" style="stop-color:#8B3DCE"/>
					<stop  offset="1" style="stop-color:#CB89F0"/>
				</linearGradient>
				<path style="fill:url(#SVGID_00000096744404666566912840000002976337167717903515_);" d="M58.19,76.41
					c-6.03-3.75-18.16-2.23-19.96,3.81c-2.17,7.27,10.55,11.84,19.72,7.09C63.49,83.92,62.38,79.02,58.19,76.41z M57.84,85.81
					c-4.54,2.55-11.79,2.47-16.21-0.16c-4.41-2.64-4.31-6.84,0.23-9.39c4.54-2.55,11.79-2.47,16.21,0.16
					C62.48,79.06,62.38,83.26,57.84,85.81z"/>
				
					<linearGradient id="SVGID_00000003788816162393150420000008594071507432116905_" gradientUnits="userSpaceOnUse" x1="39.1108" y1="83.4239" x2="60.5998" y2="83.4239">
					<stop  offset="0" style="stop-color:#7425B7"/>
					<stop  offset="1" style="stop-color:#A755D6"/>
				</linearGradient>
				<path style="fill:url(#SVGID_00000003788816162393150420000008594071507432116905_);" d="M57.34,84.09
					c-4.26,2.39-11.06,2.32-15.19-0.15c-2.03-1.21-3.04-2.77-3.04-4.33l0,1.42c0,1.56,1.01,3.12,3.04,4.33
					c4.13,2.47,10.93,2.54,15.18,0.15c2.15-1.21,3.24-2.81,3.25-4.42l0.01-1.42C60.59,81.27,59.5,82.88,57.34,84.09z"/>
				
					<linearGradient id="SVGID_00000118374783391190024610000001422952702877365911_" gradientUnits="userSpaceOnUse" x1="38.3988" y1="78.1101" x2="61.3206" y2="78.1101">
					<stop  offset="0" style="stop-color:#BC77E8"/>
					<stop  offset="0.4631" style="stop-color:#F5ABFF"/>
					<stop  offset="1" style="stop-color:#FDD3FF"/>
				</linearGradient>
				<path style="fill:url(#SVGID_00000118374783391190024610000001422952702877365911_);" d="M58.08,73.5
					c-4.41-2.64-11.67-2.71-16.21-0.16c-4.54,2.55-4.64,6.75-0.23,9.39c4.41,2.64,11.67,2.71,16.21,0.16
					C62.39,80.34,62.49,76.14,58.08,73.5z"/>
				
					<linearGradient id="SVGID_00000120527311459428835390000003761938011442571929_" gradientUnits="userSpaceOnUse" x1="37.9861" y1="78.8973" x2="61.7339" y2="78.8973">
					<stop  offset="0" style="stop-color:#8B3DCE"/>
					<stop  offset="1" style="stop-color:#CB89F0"/>
				</linearGradient>
				<path style="fill:url(#SVGID_00000120527311459428835390000003761938011442571929_);" d="M58.19,73.49
					c-6.03-3.75-18.16-2.23-19.96,3.81c-2.17,7.27,10.55,11.84,19.72,7.09C63.5,81,62.39,76.1,58.19,73.49z M57.85,82.89
					c-1.44,0.81-3.16,1.35-4.97,1.64c-3.89,0.61-8.23,0-11.24-1.8c-4.41-2.64-4.31-6.84,0.23-9.39c4.54-2.55,11.79-2.47,16.21,0.16
					c3.16,1.89,4,4.58,2.56,6.89C60.07,81.3,59.14,82.16,57.85,82.89z"/>
				
					<linearGradient id="SVGID_00000079449345601891802990000004740099250814581422_" gradientUnits="userSpaceOnUse" x1="39.1072" y1="80.4988" x2="60.6163" y2="80.4988">
					<stop  offset="0" style="stop-color:#7425B7"/>
					<stop  offset="1" style="stop-color:#A755D6"/>
				</linearGradient>
				<path style="fill:url(#SVGID_00000079449345601891802990000004740099250814581422_);" d="M57.36,81.17
					c-4.26,2.39-11.07,2.32-15.2-0.15c-2.04-1.22-3.05-2.79-3.04-4.36l0,1.42c0,1.57,1.01,3.14,3.04,4.36
					c4.14,2.47,10.95,2.54,15.2,0.15c2.16-1.21,3.25-2.83,3.26-4.45l0-1.42C60.61,78.34,59.52,79.95,57.36,81.17z"/>
				
					<linearGradient id="SVGID_00000111186553762286626440000008250126140974024599_" gradientUnits="userSpaceOnUse" x1="38.4071" y1="75.1906" x2="61.3289" y2="75.1906">
					<stop  offset="0" style="stop-color:#BC77E8"/>
					<stop  offset="0.4631" style="stop-color:#F5ABFF"/>
					<stop  offset="1" style="stop-color:#FDD3FF"/>
				</linearGradient>
				<path style="fill:url(#SVGID_00000111186553762286626440000008250126140974024599_);" d="M58.09,70.58
					c-4.41-2.64-11.67-2.71-16.21-0.16c-4.54,2.55-4.64,6.75-0.23,9.39c4.41,2.64,11.67,2.71,16.21,0.16
					C62.4,77.42,62.5,73.22,58.09,70.58z"/>
				
					<linearGradient id="SVGID_00000174601125908918869040000000064410038377811858_" gradientUnits="userSpaceOnUse" x1="37.9943" y1="75.9778" x2="61.7422" y2="75.9778">
					<stop  offset="0" style="stop-color:#8B3DCE"/>
					<stop  offset="1" style="stop-color:#CB89F0"/>
				</linearGradient>
				<path style="fill:url(#SVGID_00000174601125908918869040000000064410038377811858_);" d="M58.2,70.57
					c-6.03-3.75-18.16-2.23-19.96,3.81c-2.17,7.27,10.55,11.84,19.72,7.09C63.51,78.08,62.4,73.18,58.2,70.57z M57.86,79.97
					c-1.48,0.83-3.25,1.38-5.12,1.66c-3.85,0.57-8.12-0.05-11.09-1.82c-4.41-2.64-4.31-6.84,0.23-9.39
					c4.54-2.55,11.79-2.47,16.21,0.16c3.28,1.96,4.07,4.79,2.38,7.16C59.89,78.55,59.02,79.31,57.86,79.97z"/>
				
					<linearGradient id="SVGID_00000006687004562286173730000017469080283840652470_" gradientUnits="userSpaceOnUse" x1="39.1036" y1="77.5917" x2="60.6403" y2="77.5917">
					<stop  offset="0" style="stop-color:#7425B7"/>
					<stop  offset="1" style="stop-color:#A755D6"/>
				</linearGradient>
				<path style="fill:url(#SVGID_00000006687004562286173730000017469080283840652470_);" d="M57.38,78.26
					c-4.26,2.39-11.08,2.32-15.23-0.15c-2.03-1.21-3.04-2.78-3.05-4.34l0,1.42c0,1.56,1.02,3.13,3.04,4.34
					c4.14,2.48,10.95,2.55,15.22,0.15c2.16-1.21,3.25-2.82,3.26-4.43l0.01-1.42C60.63,75.44,59.54,77.05,57.38,78.26z"/>
				
					<linearGradient id="SVGID_00000085961025858029419140000014408838819117343638_" gradientUnits="userSpaceOnUse" x1="38.0025" y1="73.0583" x2="61.7544" y2="73.0583">
					<stop  offset="0" style="stop-color:#8B3DCE"/>
					<stop  offset="1" style="stop-color:#CB89F0"/>
				</linearGradient>
				<path style="fill:url(#SVGID_00000085961025858029419140000014408838819117343638_);" d="M58.21,67.65
					c-6.03-3.75-18.16-2.23-19.96,3.81c-2.17,7.27,10.55,11.84,19.72,7.09c0.02-0.01,0.05-0.05,0.08-0.08
					c-0.02,0.03-0.03,0.05-0.05,0.06C63.52,75.16,62.4,70.26,58.21,67.65z M57.86,77.05c-4.54,2.55-11.79,2.47-16.21-0.16
					c-4.41-2.64-4.31-6.84,0.23-9.39c4.54-2.55,11.79-2.47,16.21,0.16C62.51,70.3,62.4,74.5,57.86,77.05z"/>
				
					<linearGradient id="SVGID_00000031894304030149260540000004889795531304407945_" gradientUnits="userSpaceOnUse" x1="38.4154" y1="72.271" x2="61.3371" y2="72.271">
					<stop  offset="0" style="stop-color:#BC77E8"/>
					<stop  offset="0.4631" style="stop-color:#F5ABFF"/>
					<stop  offset="1" style="stop-color:#FDD3FF"/>
				</linearGradient>
				<path style="fill:url(#SVGID_00000031894304030149260540000004889795531304407945_);" d="M58.09,67.66
					c-4.41-2.64-11.67-2.71-16.21-0.16c-4.26,2.39-4.61,6.23-1,8.87c0.24,0.18,0.5,0.35,0.77,0.51c2.89,1.73,7.01,2.36,10.79,1.86
					c1.98-0.26,3.86-0.82,5.42-1.7c0.32-0.18,0.61-0.36,0.88-0.55C62.4,73.92,62.2,70.11,58.09,67.66z"/>
				
					<linearGradient id="SVGID_00000137099354981026692140000000288056216225437837_" gradientUnits="userSpaceOnUse" x1="35.1759" y1="74.1167" x2="64.6132" y2="74.1167">
					<stop  offset="0" style="stop-color:#7425B7"/>
					<stop  offset="1" style="stop-color:#A755D6"/>
				</linearGradient>
				<path style="fill:url(#SVGID_00000137099354981026692140000000288056216225437837_);" d="M60.2,75.03
					c-0.87,0.49-1.82,0.89-2.82,1.23l0.01-1.55c-4.27,2.39-11.09,2.33-15.24-0.15c-2.03-1.22-3.05-2.79-3.05-4.35l0,2.05
					c0,1.16,0.56,2.32,1.67,3.34c-0.52-0.24-1.03-0.49-1.51-0.78c-2.4-1.43-3.75-3.22-4.09-5.04c0.26,1.64,1.18,3.76,4.42,5.75
					c0.42,0.26,0.9,0.51,1.43,0.75c0.58,0.26,1.23,0.5,1.92,0.73c4.03,1.98,9.93,1.99,13.95-0.02c0.99-0.33,1.99-0.74,2.96-1.25
					c3.71-2.13,4.53-4.56,4.74-5.98C64.28,71.69,62.8,73.57,60.2,75.03z"/>
				
					<linearGradient id="SVGID_00000078753165794190152550000003284083670866376370_" gradientUnits="userSpaceOnUse" x1="44.6115" y1="54.7896" x2="55.3231" y2="73.3427">
					<stop  offset="0" style="stop-color:#BC77E8"/>
					<stop  offset="0.4631" style="stop-color:#F5ABFF"/>
					<stop  offset="1" style="stop-color:#FDD3FF"/>
				</linearGradient>
				<path style="fill:url(#SVGID_00000078753165794190152550000003284083670866376370_);" d="M60.52,57.91
					c-5.7-3.41-15.07-3.5-20.93-0.21c-3.22,1.8-4.71,4.25-4.46,6.66c0.21,1.98,1.59,4.41,4.16,5.95c5.7,3.41,15.07,3.5,20.93,0.21
					c2.71-1.52,4.2-3.98,4.45-6.01C64.96,62.16,63.58,59.74,60.52,57.91z"/>
				
					<linearGradient id="SVGID_00000176042891538253451490000004833329107683798969_" gradientUnits="userSpaceOnUse" x1="35.0823" y1="70.6274" x2="64.7038" y2="70.6274">
					<stop  offset="0" style="stop-color:#8B3DCE"/>
					<stop  offset="1" style="stop-color:#CB89F0"/>
				</linearGradient>
				<path style="fill:url(#SVGID_00000176042891538253451490000004833329107683798969_);" d="M60.22,70.03
					c-5.86,3.29-15.23,3.2-20.93-0.21c-2.8-1.68-4.19-3.84-4.19-6l-0.01,5c-0.01,2.16,1.39,4.32,4.19,6
					c5.7,3.41,15.07,3.5,20.93,0.21c2.98-1.67,4.48-3.9,4.49-6.13l0.01-5C64.7,66.13,63.2,68.36,60.22,70.03z"/>
				<g>
					
						<linearGradient id="SVGID_00000054264045727063983940000015227400701124869780_" gradientUnits="userSpaceOnUse" x1="52.7259" y1="79.6819" x2="60.5389" y2="79.6819">
						<stop  offset="0" style="stop-color:#FAC3FF"/>
						<stop  offset="1" style="stop-color:#FEEDFF"/>
					</linearGradient>
					<path style="fill:url(#SVGID_00000054264045727063983940000015227400701124869780_);" d="M60.47,77.74c0,0-0.28,0.49-0.89,1.06
						c-0.61,0.58-1.54,1.21-2.55,1.68c-1.02,0.45-2.1,0.76-2.91,0.93c-0.82,0.16-1.37,0.21-1.37,0.21s0.55-0.1,1.35-0.3
						c0.81-0.19,1.87-0.52,2.86-1c1.01-0.44,1.95-1.04,2.56-1.59C60.14,78.19,60.47,77.74,60.47,77.74z"/>
					
						<linearGradient id="SVGID_00000079463293762034416390000009923030248065328050_" gradientUnits="userSpaceOnUse" x1="52.8654" y1="82.4528" x2="60.7167" y2="82.4528">
						<stop  offset="0" style="stop-color:#FAC3FF"/>
						<stop  offset="1" style="stop-color:#FEEDFF"/>
					</linearGradient>
					<path style="fill:url(#SVGID_00000079463293762034416390000009923030248065328050_);" d="M60.64,80.38c0,0-0.26,0.51-0.85,1.13
						c-0.59,0.61-1.53,1.29-2.55,1.79c-1.03,0.49-2.13,0.81-2.96,0.99c-0.83,0.18-1.4,0.23-1.4,0.23s0.56-0.1,1.38-0.32
						c0.82-0.21,1.9-0.55,2.9-1.06c1.02-0.47,1.96-1.11,2.56-1.7C60.34,80.87,60.64,80.38,60.64,80.38z"/>
					
						<linearGradient id="SVGID_00000159470047248059930050000015238024065159689121_" gradientUnits="userSpaceOnUse" x1="53.0986" y1="85.5457" x2="60.4397" y2="85.5457">
						<stop  offset="0" style="stop-color:#FAC3FF"/>
						<stop  offset="1" style="stop-color:#FEEDFF"/>
					</linearGradient>
					<path style="fill:url(#SVGID_00000159470047248059930050000015238024065159689121_);" d="M53.11,87.4c0,0,0.51-0.11,1.26-0.31
						c0.75-0.2,1.74-0.52,2.67-0.98c0.94-0.42,1.82-0.99,2.41-1.5c0.59-0.5,0.91-0.92,0.91-0.92s-0.28,0.45-0.85,0.99
						c-0.57,0.54-1.45,1.14-2.39,1.59c-0.96,0.44-1.96,0.74-2.73,0.91C53.63,87.35,53.11,87.4,53.11,87.4z"/>
					
						<linearGradient id="SVGID_00000018197357809033045070000005916487770463599797_" gradientUnits="userSpaceOnUse" x1="52.432" y1="77.6197" x2="58.7964" y2="77.6197">
						<stop  offset="0" style="stop-color:#FAC3FF"/>
						<stop  offset="1" style="stop-color:#FEEDFF"/>
					</linearGradient>
					<path style="fill:url(#SVGID_00000018197357809033045070000005916487770463599797_);" d="M52.44,78.75c0,0,0.41-0.09,1.03-0.21
						c0.62-0.13,1.44-0.34,2.22-0.63c0.8-0.25,1.57-0.6,2.13-0.9c0.55-0.31,0.92-0.52,0.92-0.52s-0.34,0.25-0.87,0.6
						c-0.55,0.32-1.32,0.69-2.12,0.98c-0.81,0.26-1.64,0.45-2.26,0.55C52.87,78.72,52.44,78.75,52.44,78.75z"/>
				</g>
			</g>
			
				<radialGradient id="SVGID_00000095307643286445501710000003640103490043258754_" cx="60.4717" cy="22.2127" r="60.4973" gradientUnits="userSpaceOnUse">
				<stop  offset="0" style="stop-color:#FFFFFF"/>
				<stop  offset="0.1153" style="stop-color:#FFEDF4"/>
				<stop  offset="0.37" style="stop-color:#FFC9E0"/>
				<stop  offset="0.6099" style="stop-color:#FFB0D1"/>
				<stop  offset="0.8266" style="stop-color:#FFA0C8"/>
				<stop  offset="1" style="stop-color:#FF9BC5"/>
			</radialGradient>
			<path style="fill:url(#SVGID_00000095307643286445501710000003640103490043258754_);" d="M56.03,8.18
				c-21.27-5.23-38.34,17.09-27.39,36c1.22,2.04,2.29,3.73,3.22,5.3c-0.93-1.57-2-3.27-3.22-5.3c6.03,9.98,6.52,10.8,6.8,19.2
				c0.16,7.28,15.4,11.08,24.54,5.95c1.66-0.93,2.85-2.04,3.57-3.22c0.52-0.85,0.79-1.75,0.81-2.71c0.34-8.61,0.94-9.23,6.94-19.13
				C80.02,29.34,71.33,11.94,56.03,8.18z"/>
			<path class="st21" d="M58.82,58.86c-4.79-2.86-12.67-2.94-17.59-0.18s-5.04,7.33-0.25,10.19c4.79,2.86,12.67,2.94,17.59,0.18
				S63.61,61.72,58.82,58.86z"/>
			<g>
				<g>
					<path class="st22" d="M44.8,44.25c-0.05,0-0.09-0.03-0.11-0.1c-0.03-0.07-0.05-0.14-0.08-0.22c-0.03-0.09-0.06-0.18-0.09-0.24
						c-0.06-0.02-0.09,0.01-0.12,0.08c-0.02-0.1,0.03-0.16,0.08-0.16c0.03,0,0.06,0.01,0.09,0.06c0.04,0.07,0.07,0.16,0.09,0.25
						c0.02,0.07,0.05,0.15,0.07,0.21c0.02,0.04,0.04,0.06,0.06,0.06c0.02,0,0.04-0.02,0.05-0.05c0.05-0.12,0.08-0.26,0.11-0.41
						c0.02-0.07,0.03-0.15,0.05-0.22c0.04-0.14,0.11-0.3,0.17-0.33c0.1,0.04,0.14,0.18,0.19,0.33c0.04,0.12,0.1,0.29,0.13,0.3
						c0.08-0.08,0.13-0.32,0.18-0.53c0.07-0.32,0.11-0.5,0.2-0.51c0.06,0,0.12,0.08,0.18,0.28c0.01,0.04,0.02,0.08,0.03,0.11
						c0.03,0.11,0.06,0.22,0.11,0.24c0.02-0.02,0.09-0.14,0.13-0.33c0.02-0.07,0.03-0.13,0.04-0.19c0.04-0.16,0.07-0.31,0.12-0.43
						c0.02-0.04,0.05-0.07,0.09-0.07c0.05,0,0.1,0.05,0.13,0.12c0.02,0.06,0.04,0.13,0.06,0.19c0.03,0.1,0.06,0.19,0.1,0.26
						c0.04,0.01,0.09-0.03,0.12-0.13c0.03-0.11,0.06-0.22,0.09-0.34c0.02-0.11,0.05-0.22,0.08-0.32c0.03-0.12,0.09-0.2,0.15-0.21
						c0.02,0,0.05,0.01,0.07,0.03c0.06,0.1,0.12,0.22,0.16,0.33c0.04,0.09,0.09,0.2,0.12,0.22c0.09-0.18,0.14-0.42,0.18-0.61
						c0.05-0.25,0.09-0.42,0.18-0.4c0.13,0.02,0.16,0.21,0.19,0.39c0.02,0.11,0.04,0.24,0.08,0.26c0.14-0.07,0.17-0.25,0.2-0.45
						c0.03-0.2,0.06-0.42,0.17-0.57c0.02-0.03,0.05-0.04,0.07-0.04c0.06,0.01,0.08,0.09,0.13,0.25c0.04,0.13,0.09,0.3,0.16,0.37
						c0.03-0.04,0.09-0.22,0.13-0.39c0.05-0.16,0.1-0.35,0.16-0.51c0.02-0.07,0.07-0.1,0.11-0.11c0.04,0,0.08,0.03,0.1,0.08
						c0.03,0.07,0.06,0.15,0.08,0.23c0.03,0.08,0.05,0.17,0.09,0.24c0.06,0.03,0.09,0.01,0.11-0.05c0.04-0.12,0.07-0.25,0.1-0.38
						c0.02-0.08,0.04-0.17,0.06-0.26c0.03-0.12,0.1-0.26,0.16-0.27c0.11,0.08,0.14,0.19,0.18,0.31c0.01,0.05,0.03,0.09,0.04,0.14
						c0.04,0.11,0.08,0.16,0.11,0.16c0.07-0.1,0.12-0.31,0.16-0.51c0.07-0.3,0.11-0.49,0.19-0.52c0.12,0.04,0.16,0.17,0.21,0.33
						c0.03,0.12,0.09,0.31,0.14,0.31c0.05,0,0.13-0.33,0.17-0.5c0.05-0.2,0.09-0.39,0.14-0.49c0.02-0.04,0.05-0.05,0.07-0.04
						c0.05,0,0.11,0.07,0.14,0.16c0.02,0.05,0.04,0.11,0.05,0.16c0.03,0.11,0.07,0.21,0.11,0.27c0.03,0,0.08-0.06,0.12-0.19
						c0.03-0.1,0.05-0.2,0.07-0.29c0.03-0.13,0.06-0.25,0.09-0.36c0.03-0.09,0.08-0.15,0.14-0.16c0.02,0,0.05,0,0.08,0.05
						c0.04,0.07,0.07,0.17,0.1,0.27c0.02,0.07,0.04,0.14,0.07,0.2c0.02,0.04,0.04,0.07,0.07,0.07c0.02,0,0.04-0.02,0.05-0.04
						c0.07-0.18,0.13-0.4,0.18-0.57c0.07-0.25,0.1-0.37,0.15-0.4c0.15,0.06,0.19,0.25,0.23,0.41c0.02,0.09,0.05,0.22,0.08,0.23
						c0.14-0.12,0.16-0.32,0.19-0.52c0.03-0.2,0.05-0.41,0.18-0.52c0.03-0.03,0.06-0.04,0.09-0.03c0.06,0.02,0.09,0.13,0.12,0.28
						c0.03,0.15,0.07,0.33,0.16,0.37c0.03-0.01,0.08-0.2,0.11-0.36c0.05-0.18,0.1-0.41,0.18-0.59c0.02-0.05,0.05-0.07,0.09-0.07
						c0.05,0,0.1,0.04,0.12,0.11c0.03,0.06,0.05,0.13,0.07,0.2c0.03,0.1,0.06,0.19,0.1,0.26c0.05,0.02,0.09-0.03,0.12-0.11
						c0.04-0.11,0.06-0.23,0.09-0.35c0.02-0.1,0.05-0.2,0.08-0.3c0.02,0.11,0,0.22-0.02,0.32c-0.03,0.12-0.06,0.24-0.09,0.35
						c-0.03,0.1-0.08,0.16-0.14,0.17c-0.03,0-0.06-0.01-0.08-0.05c-0.04-0.07-0.07-0.17-0.1-0.27c-0.02-0.07-0.04-0.13-0.07-0.19
						c-0.02-0.06-0.05-0.08-0.07-0.08c-0.12,0.22-0.18,0.44-0.22,0.62c-0.06,0.25-0.1,0.37-0.15,0.39
						c-0.15-0.05-0.19-0.24-0.23-0.41c-0.02-0.1-0.05-0.22-0.08-0.24c-0.14,0.12-0.17,0.31-0.19,0.51c-0.03,0.2-0.05,0.41-0.17,0.53
						c-0.03,0.03-0.06,0.04-0.09,0.03c-0.06-0.02-0.09-0.12-0.12-0.27c-0.03-0.15-0.07-0.33-0.16-0.38
						c-0.02,0.02-0.07,0.21-0.11,0.36c-0.05,0.18-0.1,0.4-0.18,0.58c-0.02,0.05-0.06,0.08-0.1,0.08c-0.05,0-0.09-0.04-0.12-0.11
						c-0.03-0.06-0.05-0.13-0.07-0.2c-0.03-0.1-0.06-0.19-0.1-0.26c-0.05-0.02-0.09,0.02-0.12,0.1c-0.04,0.11-0.06,0.23-0.09,0.36
						c-0.02,0.1-0.05,0.2-0.07,0.29c-0.04,0.13-0.1,0.22-0.16,0.23c-0.11-0.09-0.14-0.2-0.18-0.32c-0.02-0.05-0.03-0.11-0.05-0.16
						c-0.03-0.09-0.08-0.12-0.1-0.13c-0.07,0.1-0.11,0.3-0.16,0.49c-0.08,0.34-0.13,0.54-0.22,0.54c-0.1,0-0.14-0.16-0.19-0.35
						c-0.03-0.12-0.07-0.27-0.12-0.29c-0.07,0.02-0.13,0.28-0.17,0.48c-0.05,0.21-0.1,0.42-0.16,0.52
						c-0.02,0.03-0.05,0.03-0.06,0.03c-0.06-0.01-0.12-0.11-0.15-0.2c-0.02-0.05-0.03-0.1-0.04-0.14c-0.03-0.11-0.07-0.22-0.12-0.27
						c-0.02,0-0.08,0.09-0.12,0.24c-0.02,0.09-0.04,0.17-0.06,0.26c-0.03,0.14-0.06,0.27-0.1,0.39c-0.03,0.08-0.07,0.12-0.12,0.13
						c-0.04,0-0.07-0.02-0.09-0.07c-0.03-0.07-0.06-0.16-0.09-0.24c-0.02-0.08-0.05-0.15-0.08-0.22c-0.01-0.03-0.03-0.05-0.05-0.05
						c-0.02,0-0.05,0.03-0.06,0.07c-0.06,0.16-0.12,0.35-0.16,0.51c-0.09,0.31-0.13,0.42-0.18,0.43c-0.13-0.09-0.18-0.26-0.23-0.42
						c-0.02-0.08-0.06-0.21-0.09-0.21c-0.12,0.15-0.15,0.37-0.18,0.56c-0.03,0.22-0.06,0.41-0.18,0.48
						c-0.03,0.02-0.07,0.02-0.09,0.01c-0.07-0.03-0.09-0.16-0.11-0.3c-0.03-0.15-0.06-0.33-0.14-0.34c-0.04,0-0.09,0.21-0.12,0.36
						c-0.04,0.19-0.09,0.43-0.18,0.61c-0.02,0.03-0.04,0.04-0.05,0.04c-0.05,0-0.09-0.08-0.17-0.26c-0.05-0.11-0.1-0.23-0.16-0.32
						c-0.03,0-0.08,0.05-0.12,0.16c-0.03,0.1-0.06,0.21-0.08,0.32c-0.03,0.11-0.05,0.23-0.09,0.34c-0.03,0.1-0.09,0.18-0.14,0.18
						c-0.02,0-0.05,0-0.07-0.04c-0.04-0.07-0.07-0.17-0.1-0.27c-0.02-0.06-0.04-0.13-0.06-0.19c-0.02-0.06-0.06-0.09-0.08-0.09
						c-0.09,0.15-0.12,0.29-0.16,0.45c-0.01,0.06-0.03,0.13-0.04,0.19c-0.03,0.12-0.1,0.33-0.17,0.37
						c-0.11-0.03-0.15-0.14-0.19-0.28c-0.01-0.04-0.02-0.07-0.03-0.11c-0.08-0.23-0.12-0.24-0.12-0.24c-0.05,0-0.11,0.28-0.15,0.46
						c-0.05,0.23-0.1,0.47-0.18,0.55c-0.03,0.03-0.05,0.03-0.06,0.03c-0.07-0.01-0.11-0.14-0.17-0.33c-0.04-0.12-0.09-0.26-0.13-0.3
						c-0.03,0.02-0.09,0.12-0.13,0.29c-0.02,0.07-0.04,0.15-0.05,0.22c-0.03,0.15-0.07,0.29-0.12,0.42
						C44.89,44.21,44.85,44.25,44.8,44.25C44.8,44.25,44.8,44.25,44.8,44.25z"/>
				</g>
				<g>
					<path class="st23" d="M51.95,52.02c0-0.06-0.01-0.15-0.04-0.24l-0.95-2.81c0.07,0.21-0.04,0.44-0.33,0.6
						c-0.45,0.25-1.18,0.25-1.62-0.02c-0.27-0.16-0.37-0.39-0.3-0.59l-0.96,2.81c-0.03,0.09-0.04,0.18-0.04,0.27
						c0-0.03,0.01,11.78,0.01,11.78c0,0.31,0.2,0.62,0.6,0.86c0.82,0.49,2.16,0.5,3,0.03c0.43-0.24,0.64-0.56,0.64-0.88L51.95,52.02
						z"/>
					<path class="st24" d="M50.66,48.64c-0.44-0.26-1.17-0.27-1.62-0.02s-0.46,0.68-0.02,0.94c0.44,0.26,1.17,0.27,1.62,0.02
						S51.1,48.9,50.66,48.64z"/>
					<g>
						<g>
							<path class="st25" d="M49.35,49.49c-0.09,0-0.16-0.07-0.16-0.16V46.9l-4.38-0.2c-0.08,0-0.14-0.06-0.15-0.13l-0.55-3.01
								c-0.02-0.09,0.04-0.17,0.13-0.19c0.09-0.02,0.17,0.04,0.19,0.13l0.53,2.88l4.41,0.2c0.09,0,0.16,0.08,0.16,0.16v2.57
								C49.51,49.41,49.44,49.49,49.35,49.49z"/>
						</g>
						<g>
							<path class="st25" d="M50.24,48.97c-0.09,0-0.16-0.07-0.16-0.16v-2.57c0-0.04,0.01-0.08,0.04-0.1l4.51-5.41l0.54-3.6
								c0.01-0.09,0.09-0.16,0.19-0.14c0.09,0.01,0.15,0.1,0.14,0.19l-0.55,3.65c0,0.03-0.02,0.06-0.04,0.08l-4.5,5.4v2.52
								C50.41,48.89,50.34,48.97,50.24,48.97z"/>
						</g>
					</g>
				</g>
			</g>
		</g>
	</g>
</g>
</svg>
