<?xml version="1.0" encoding="utf-8"?>
<!-- Generator: Adobe Illustrator 27.3.1, SVG Export Plug-In . SVG Version: 6.00 Build 0)  -->
<svg version="1.1" id="Camada_1" xmlns="http://www.w3.org/2000/svg" xmlns:xlink="http://www.w3.org/1999/xlink" x="0px" y="0px"
	 viewBox="0 0 100 100" style="enable-background:new 0 0 100 100;" xml:space="preserve">
<style type="text/css">
	.st0{fill:#033F25;}
	.st1{fill:url(#SVGID_1_);}
	.st2{fill:url(#SVGID_00000036932022549565626050000008639984550514270604_);}
	.st3{fill:url(#SVGID_00000076561538298719760850000009755235426040187281_);}
	.st4{fill:url(#SVGID_00000083087337695234075780000006185255515697485444_);}
	.st5{fill:url(#SVGID_00000181770944301559523160000001114028653671078799_);}
	.st6{fill:url(#SVGID_00000002344039499558632930000010862758274274389647_);}
	.st7{fill:url(#SVGID_00000007400646839510947560000010816754819382610869_);}
	.st8{fill:url(#SVGID_00000000210401818344345120000000651790653169794461_);}
	.st9{fill:url(#SVGID_00000090983845421710307010000003610742518611091354_);}
	.st10{fill:url(#SVGID_00000065055786176633651750000013069244699505413258_);}
	.st11{fill:url(#SVGID_00000046301552395997913880000004361187842492061870_);}
	.st12{fill:url(#SVGID_00000067221316369635403100000000665575744406705593_);}
	.st13{fill:url(#SVGID_00000029736262373334018150000000856292698453584830_);}
	.st14{fill:url(#SVGID_00000024721741508682895780000002914406973058324131_);}
	.st15{fill:url(#SVGID_00000166674280527844995600000000125813460756978828_);}
	.st16{fill:url(#SVGID_00000096047968229527533930000012778693756069781673_);}
	.st17{fill:url(#SVGID_00000158718663187762670600000014317111952335025067_);}
	.st18{fill:url(#SVGID_00000161620086469626484150000012210888559975379611_);}
	.st19{fill:url(#SVGID_00000119815286558716069370000011139166129129148815_);}
	.st20{fill:url(#SVGID_00000134961337662540528760000017341546779273629340_);}
	.st21{fill:#04B76A;}
	.st22{opacity:0.6;fill:#1B774D;}
	.st23{opacity:0.6;fill:#409B6F;}
	.st24{fill:#2C1F2D;}
</style>
<path class="st0" d="M53.8,86c-2.1-1.3-5.6-1.3-7.7-0.1c-1.2,0.7-1.7,1.6-1.7,2.4c0.6,4.2,5.6,5.1,8.6,3.5c1.4-0.8,2.1-1.9,2.3-3.4
	C55.4,87.5,54.9,86.7,53.8,86z"/>
<linearGradient id="SVGID_1_" gradientUnits="userSpaceOnUse" x1="39.11" y1="12.9219" x2="60.58" y2="12.9219" gradientTransform="matrix(1 0 0 -1 0 100)">
	<stop  offset="0" style="stop-color:#197C51"/>
	<stop  offset="1" style="stop-color:#1CB771"/>
</linearGradient>
<path class="st1" d="M57.3,87c-4.2,2.4-11,2.3-15.2-0.2c-2-1.2-3-2.8-3-4.3c0,1.2,0.2,4.8,4.5,7.5c1,0.6,6.1,3.4,12.3,0.2
	c4.5-2.6,4.7-6.3,4.7-7.6C60.6,84.2,59.5,85.8,57.3,87z"/>
<linearGradient id="SVGID_00000040572854887949479770000009801697875821881258_" gradientUnits="userSpaceOnUse" x1="38.3876" y1="18.9649" x2="61.3115" y2="18.9649" gradientTransform="matrix(1 0 0 -1 0 100)">
	<stop  offset="0" style="stop-color:#00FF99"/>
	<stop  offset="0.4631" style="stop-color:#7AEAB8"/>
	<stop  offset="1" style="stop-color:#C3F4DE"/>
</linearGradient>
<path style="fill:url(#SVGID_00000040572854887949479770000009801697875821881258_);" d="M58.1,76.4c-4.4-2.6-11.7-2.7-16.2-0.2
	c-4.5,2.6-4.6,6.8-0.2,9.4c3.1,1.8,7.5,2.4,11.5,1.8c1.7-0.3,3.3-0.8,4.7-1.6c1.1-0.6,2-1.3,2.5-2.1C62.2,81.3,61.4,78.4,58.1,76.4z
	"/>
<linearGradient id="SVGID_00000041276499604148224350000009358265264558856340_" gradientUnits="userSpaceOnUse" x1="37.9851" y1="18.1865" x2="61.726" y2="18.1865" gradientTransform="matrix(1 0 0 -1 0 100)">
	<stop  offset="0" style="stop-color:#1CB771"/>
	<stop  offset="1" style="stop-color:#7AEAB8"/>
</linearGradient>
<path style="fill:url(#SVGID_00000041276499604148224350000009358265264558856340_);" d="M58.2,76.4c-6-3.8-18.2-2.2-20,3.8
	c-2.2,7.3,10.5,11.8,19.7,7.1C63.5,83.9,62.4,79,58.2,76.4z M57.8,85.8c-4.5,2.6-11.8,2.5-16.2-0.2c-4.4-2.6-4.3-6.8,0.2-9.4
	s11.8-2.5,16.2,0.2C62.5,79.1,62.4,83.3,57.8,85.8z"/>
<linearGradient id="SVGID_00000178204649134318016020000001513746290859069346_" gradientUnits="userSpaceOnUse" x1="39.11" y1="16.5658" x2="60.59" y2="16.5658" gradientTransform="matrix(1 0 0 -1 0 100)">
	<stop  offset="0" style="stop-color:#197C51"/>
	<stop  offset="1" style="stop-color:#1CB771"/>
</linearGradient>
<path style="fill:url(#SVGID_00000178204649134318016020000001513746290859069346_);" d="M57.3,84.1c-4.3,2.4-11.1,2.3-15.2-0.2
	c-2-1.2-3-2.8-3-4.3V81c0,1.6,1,3.1,3,4.3c4.1,2.5,10.9,2.5,15.2,0.2c2.2-1.2,3.2-2.8,3.2-4.4l0-1.4C60.6,81.3,59.5,82.9,57.3,84.1z
	"/>
<linearGradient id="SVGID_00000176760547009424714680000006998009526027660432_" gradientUnits="userSpaceOnUse" x1="38.3976" y1="21.885" x2="61.3224" y2="21.885" gradientTransform="matrix(1 0 0 -1 0 100)">
	<stop  offset="0" style="stop-color:#00FF99"/>
	<stop  offset="0.4631" style="stop-color:#7AEAB8"/>
	<stop  offset="1" style="stop-color:#C3F4DE"/>
</linearGradient>
<path style="fill:url(#SVGID_00000176760547009424714680000006998009526027660432_);" d="M58.1,73.5c-4.4-2.6-11.7-2.7-16.2-0.2
	c-4.5,2.6-4.6,6.8-0.2,9.4s11.7,2.7,16.2,0.2C62.4,80.3,62.5,76.1,58.1,73.5z"/>
<linearGradient id="SVGID_00000057109165600141324880000007109024771871524749_" gradientUnits="userSpaceOnUse" x1="37.9851" y1="21.1065" x2="61.7335" y2="21.1065" gradientTransform="matrix(1 0 0 -1 0 100)">
	<stop  offset="0" style="stop-color:#1CB771"/>
	<stop  offset="1" style="stop-color:#7AEAB8"/>
</linearGradient>
<path style="fill:url(#SVGID_00000057109165600141324880000007109024771871524749_);" d="M58.2,73.5c-6-3.8-18.2-2.2-20,3.8
	c-2.2,7.3,10.5,11.8,19.7,7.1C63.5,81,62.4,76.1,58.2,73.5z M57.8,82.9c-1.4,0.8-3.2,1.3-5,1.6c-3.9,0.6-8.2,0-11.2-1.8
	c-4.4-2.6-4.3-6.8,0.2-9.4s11.8-2.5,16.2,0.2c3.2,1.9,4,4.6,2.6,6.9C60.1,81.3,59.1,82.2,57.8,82.9z"/>
<linearGradient id="SVGID_00000134960056862816173750000004319608976409791121_" gradientUnits="userSpaceOnUse" x1="39.1199" y1="19.5008" x2="60.62" y2="19.5008" gradientTransform="matrix(1 0 0 -1 0 100)">
	<stop  offset="0" style="stop-color:#197C51"/>
	<stop  offset="1" style="stop-color:#1CB771"/>
</linearGradient>
<path style="fill:url(#SVGID_00000134960056862816173750000004319608976409791121_);" d="M57.4,81.2c-4.3,2.4-11.1,2.3-15.2-0.2
	c-2-1.2-3-2.8-3-4.4v1.4c0,1.6,1,3.1,3,4.4c4.1,2.5,11,2.5,15.2,0.2c2.2-1.2,3.2-2.8,3.3-4.4v-1.4C60.6,78.3,59.5,79.9,57.4,81.2z"
	/>
<linearGradient id="SVGID_00000169525503492432062480000012478119309868046229_" gradientUnits="userSpaceOnUse" x1="38.4076" y1="24.805" x2="61.3324" y2="24.805" gradientTransform="matrix(1 0 0 -1 0 100)">
	<stop  offset="0" style="stop-color:#00FF99"/>
	<stop  offset="0.4631" style="stop-color:#7AEAB8"/>
	<stop  offset="1" style="stop-color:#C3F4DE"/>
</linearGradient>
<path style="fill:url(#SVGID_00000169525503492432062480000012478119309868046229_);" d="M58.1,70.6c-4.4-2.6-11.7-2.7-16.2-0.2
	c-4.5,2.6-4.6,6.8-0.2,9.4s11.7,2.7,16.2,0.2C62.4,77.4,62.5,73.2,58.1,70.6z"/>
<linearGradient id="SVGID_00000080884772867833230660000003166610627355099065_" gradientUnits="userSpaceOnUse" x1="37.9952" y1="24.0265" x2="61.7435" y2="24.0265" gradientTransform="matrix(1 0 0 -1 0 100)">
	<stop  offset="0" style="stop-color:#1CB771"/>
	<stop  offset="1" style="stop-color:#7AEAB8"/>
</linearGradient>
<path style="fill:url(#SVGID_00000080884772867833230660000003166610627355099065_);" d="M58.2,70.6c-6-3.8-18.2-2.2-20,3.8
	c-2.2,7.3,10.5,11.8,19.7,7.1C63.5,78.1,62.4,73.2,58.2,70.6z M57.9,80c-1.5,0.8-3.2,1.4-5.1,1.7c-3.8,0.6-8.1-0.1-11.1-1.8
	c-4.4-2.6-4.3-6.8,0.2-9.4c4.5-2.6,11.8-2.5,16.2,0.2c3.3,2,4.1,4.8,2.4,7.2C59.9,78.6,59,79.3,57.9,80z"/>
<linearGradient id="SVGID_00000057118271288281542140000015257755857234766740_" gradientUnits="userSpaceOnUse" x1="39.1" y1="22.397" x2="60.63" y2="22.397" gradientTransform="matrix(1 0 0 -1 0 100)">
	<stop  offset="0" style="stop-color:#197C51"/>
	<stop  offset="1" style="stop-color:#1CB771"/>
</linearGradient>
<path style="fill:url(#SVGID_00000057118271288281542140000015257755857234766740_);" d="M57.4,78.3c-4.3,2.4-11.1,2.3-15.2-0.2
	c-2-1.2-3-2.8-3-4.3v1.4c0,1.6,1,3.1,3,4.3c4.1,2.5,11,2.6,15.2,0.2c2.2-1.2,3.2-2.8,3.3-4.4l0-1.4C60.6,75.4,59.5,77.1,57.4,78.3z"
	/>
<linearGradient id="SVGID_00000157284081189363004560000010946633845473388963_" gradientUnits="userSpaceOnUse" x1="38.0051" y1="26.9465" x2="61.7542" y2="26.9465" gradientTransform="matrix(1 0 0 -1 0 100)">
	<stop  offset="0" style="stop-color:#1CB771"/>
	<stop  offset="1" style="stop-color:#7AEAB8"/>
</linearGradient>
<path style="fill:url(#SVGID_00000157284081189363004560000010946633845473388963_);" d="M58.2,67.7c-6-3.8-18.2-2.2-20,3.8
	c-2.2,7.3,10.5,11.8,19.7,7.1c0,0,0-0.1,0.1-0.1c0,0,0,0.1,0,0.1C63.5,75.2,62.4,70.3,58.2,67.7z M57.9,77.1
	c-4.5,2.6-11.8,2.5-16.2-0.2c-4.4-2.6-4.3-6.8,0.2-9.4s11.8-2.5,16.2,0.2C62.5,70.3,62.4,74.5,57.9,77.1z"/>
<linearGradient id="SVGID_00000027581232223503909810000018333727030712059059_" gradientUnits="userSpaceOnUse" x1="38.407" y1="27.7305" x2="61.3375" y2="27.7305" gradientTransform="matrix(1 0 0 -1 0 100)">
	<stop  offset="0" style="stop-color:#00FF99"/>
	<stop  offset="0.4631" style="stop-color:#7AEAB8"/>
	<stop  offset="1" style="stop-color:#C3F4DE"/>
</linearGradient>
<path style="fill:url(#SVGID_00000027581232223503909810000018333727030712059059_);" d="M58.1,67.7C53.7,65,46.4,65,41.9,67.5
	c-4.3,2.4-4.6,6.2-1,8.9c0.2,0.2,0.5,0.3,0.8,0.5c2.9,1.7,7,2.4,10.8,1.9c2-0.3,3.9-0.8,5.4-1.7c0.3-0.2,0.6-0.4,0.9-0.6
	C62.4,73.9,62.2,70.1,58.1,67.7z"/>
<linearGradient id="SVGID_00000075161138173550821160000013153145099117767811_" gradientUnits="userSpaceOnUse" x1="35.17" y1="25.8719" x2="64.59" y2="25.8719" gradientTransform="matrix(1 0 0 -1 0 100)">
	<stop  offset="0" style="stop-color:#197C51"/>
	<stop  offset="1" style="stop-color:#1CB771"/>
</linearGradient>
<path style="fill:url(#SVGID_00000075161138173550821160000013153145099117767811_);" d="M60.2,75c-0.9,0.5-1.8,0.9-2.8,1.2l0-1.6
	c-4.3,2.4-11.1,2.3-15.2-0.2c-2-1.2-3-2.8-3-4.3v2.1c0,1.2,0.6,2.3,1.7,3.3c-0.5-0.2-1-0.5-1.5-0.8c-2.4-1.4-3.8-3.2-4.1-5
	c0.3,1.6,1.2,3.8,4.4,5.8c0.4,0.3,0.9,0.5,1.4,0.8c0.6,0.3,1.2,0.5,1.9,0.7c4,2,9.9,2,14,0c1-0.3,2-0.7,3-1.2c3.7-2.1,4.5-4.6,4.7-6
	C64.3,71.7,62.8,73.6,60.2,75z"/>
<linearGradient id="SVGID_00000073694687608675111850000000287462364057310379_" gradientUnits="userSpaceOnUse" x1="44.6177" y1="45.2043" x2="55.3275" y2="26.6544" gradientTransform="matrix(1 0 0 -1 0 100)">
	<stop  offset="0" style="stop-color:#00FF99"/>
	<stop  offset="0.4631" style="stop-color:#7AEAB8"/>
	<stop  offset="1" style="stop-color:#C3F4DE"/>
</linearGradient>
<path style="fill:url(#SVGID_00000073694687608675111850000000287462364057310379_);" d="M60.5,57.9c-5.7-3.4-15.1-3.5-20.9-0.2
	c-3.2,1.8-4.7,4.2-4.5,6.7c0.2,2,1.6,4.4,4.2,5.9c5.7,3.4,15.1,3.5,20.9,0.2c2.7-1.5,4.2-4,4.4-6C65,62.2,63.6,59.7,60.5,57.9z"/>
<linearGradient id="SVGID_00000106863457217103346980000005735733496094433197_" gradientUnits="userSpaceOnUse" x1="35.09" y1="29.3706" x2="64.71" y2="29.3706" gradientTransform="matrix(1 0 0 -1 0 100)">
	<stop  offset="0" style="stop-color:#1CB771"/>
	<stop  offset="1" style="stop-color:#7AEAB8"/>
</linearGradient>
<path style="fill:url(#SVGID_00000106863457217103346980000005735733496094433197_);" d="M60.2,70c-5.9,3.3-15.2,3.2-20.9-0.2
	c-2.8-1.7-4.2-3.8-4.2-6l0,5c0,2.2,1.4,4.3,4.2,6c5.7,3.4,15.1,3.5,20.9,0.2c3-1.7,4.5-3.9,4.5-6.1l0-5C64.7,66.1,63.2,68.4,60.2,70
	z"/>
<g>
	
		<linearGradient id="SVGID_00000158748092008362080780000001871171394038951084_" gradientUnits="userSpaceOnUse" x1="52.7259" y1="20.32" x2="60.5389" y2="20.32" gradientTransform="matrix(1 0 0 -1 0 100)">
		<stop  offset="0" style="stop-color:#A8EACC"/>
		<stop  offset="1" style="stop-color:#EBF8E7"/>
	</linearGradient>
	<path style="fill:url(#SVGID_00000158748092008362080780000001871171394038951084_);" d="M60.5,77.7c0,0-0.3,0.5-0.9,1.1
		C59,79.4,58,80,57,80.5c-1,0.4-2.1,0.8-2.9,0.9c-0.8,0.2-1.4,0.2-1.4,0.2s0.5-0.1,1.3-0.3c0.8-0.2,1.9-0.5,2.9-1c1-0.4,2-1,2.6-1.6
		C60.1,78.2,60.5,77.7,60.5,77.7z"/>
	
		<linearGradient id="SVGID_00000168807146315540363010000002583913344974918040_" gradientUnits="userSpaceOnUse" x1="52.8654" y1="17.55" x2="60.7167" y2="17.55" gradientTransform="matrix(1 0 0 -1 0 100)">
		<stop  offset="0" style="stop-color:#A8EACC"/>
		<stop  offset="1" style="stop-color:#EBF8E7"/>
	</linearGradient>
	<path style="fill:url(#SVGID_00000168807146315540363010000002583913344974918040_);" d="M60.6,80.4c0,0-0.3,0.5-0.8,1.1
		c-0.6,0.6-1.5,1.3-2.5,1.8c-1,0.5-2.1,0.8-3,1c-0.8,0.2-1.4,0.2-1.4,0.2s0.6-0.1,1.4-0.3c0.8-0.2,1.9-0.6,2.9-1.1
		c1-0.5,2-1.1,2.6-1.7C60.3,80.9,60.6,80.4,60.6,80.4z"/>
	
		<linearGradient id="SVGID_00000105413497988479163850000014677575621942250890_" gradientUnits="userSpaceOnUse" x1="53.0986" y1="14.455" x2="60.4397" y2="14.455" gradientTransform="matrix(1 0 0 -1 0 100)">
		<stop  offset="0" style="stop-color:#A8EACC"/>
		<stop  offset="1" style="stop-color:#EBF8E7"/>
	</linearGradient>
	<path style="fill:url(#SVGID_00000105413497988479163850000014677575621942250890_);" d="M53.1,87.4c0,0,0.5-0.1,1.3-0.3
		s1.7-0.5,2.7-1c0.9-0.4,1.8-1,2.4-1.5c0.6-0.5,0.9-0.9,0.9-0.9s-0.3,0.4-0.8,1s-1.5,1.1-2.4,1.6c-1,0.4-2,0.7-2.7,0.9
		C53.6,87.3,53.1,87.4,53.1,87.4z"/>
	
		<linearGradient id="SVGID_00000125586563388129328600000017644026497513840548_" gradientUnits="userSpaceOnUse" x1="52.432" y1="22.38" x2="58.7964" y2="22.38" gradientTransform="matrix(1 0 0 -1 0 100)">
		<stop  offset="0" style="stop-color:#7AEAB8"/>
		<stop  offset="1" style="stop-color:#EBF8E7"/>
	</linearGradient>
	<path style="fill:url(#SVGID_00000125586563388129328600000017644026497513840548_);" d="M52.4,78.8c0,0,0.4-0.1,1-0.2
		c0.6-0.1,1.4-0.3,2.2-0.6c0.8-0.2,1.6-0.6,2.1-0.9c0.5-0.3,0.9-0.5,0.9-0.5s-0.3,0.2-0.9,0.6c-0.5,0.3-1.3,0.7-2.1,1
		c-0.8,0.3-1.6,0.4-2.3,0.6C52.9,78.7,52.4,78.8,52.4,78.8z"/>
</g>
<radialGradient id="SVGID_00000108278787394124078150000001346080642562456502_" cx="60.4717" cy="77.7873" r="60.4973" gradientTransform="matrix(1 0 0 -1 0 100)" gradientUnits="userSpaceOnUse">
	<stop  offset="0" style="stop-color:#D7F4DB"/>
	<stop  offset="0.1153" style="stop-color:#C2F2CB"/>
	<stop  offset="0.37" style="stop-color:#7CE890"/>
	<stop  offset="0.6099" style="stop-color:#00BF51"/>
	<stop  offset="0.8266" style="stop-color:#00AD66"/>
	<stop  offset="1" style="stop-color:#00AA6B"/>
</radialGradient>
<path style="fill:url(#SVGID_00000108278787394124078150000001346080642562456502_);" d="M56,8.2C34.8,3,17.7,25.3,28.6,44.2
	c1.2,2,2.3,3.7,3.2,5.3c-0.9-1.6-2-3.3-3.2-5.3c6,10,6.5,10.8,6.8,19.2c0.2,7.3,15.4,11.1,24.5,6c1.7-0.9,2.8-2,3.6-3.2
	c0.5-0.8,0.8-1.8,0.8-2.7c0.3-8.6,0.9-9.2,6.9-19.1C80,29.3,71.3,11.9,56,8.2z"/>
<path class="st0" d="M58.8,58.9C54,56,46.2,55.9,41.2,58.7s-5,7.3-0.2,10.2s12.7,2.9,17.6,0.2S63.6,61.7,58.8,58.9z"/>
<g>
	<g>
		<path class="st21" d="M44.8,44.2c0,0-0.1,0-0.1-0.1c0-0.1,0-0.1-0.1-0.2c0-0.1-0.1-0.2-0.1-0.2c-0.1,0-0.1,0-0.1,0.1
			c0-0.1,0-0.2,0.1-0.2c0,0,0.1,0,0.1,0.1c0,0.1,0.1,0.2,0.1,0.2c0,0.1,0,0.2,0.1,0.2C44.8,44.2,44.8,44.2,44.8,44.2
			c0-0.1,0-0.1,0-0.1c0-0.1,0.1-0.3,0.1-0.4c0-0.1,0-0.2,0-0.2c0-0.1,0.1-0.3,0.2-0.3c0.1,0,0.1,0.2,0.2,0.3c0,0.1,0.1,0.3,0.1,0.3
			c0.1-0.1,0.1-0.3,0.2-0.5c0.1-0.3,0.1-0.5,0.2-0.5c0.1,0,0.1,0.1,0.2,0.3c0,0,0,0.1,0,0.1c0,0.1,0.1,0.2,0.1,0.2
			c0,0,0.1-0.1,0.1-0.3c0-0.1,0-0.1,0-0.2c0-0.2,0.1-0.3,0.1-0.4c0,0,0-0.1,0.1-0.1c0,0,0.1,0,0.1,0.1c0,0.1,0,0.1,0.1,0.2
			c0,0.1,0.1,0.2,0.1,0.3c0,0,0.1,0,0.1-0.1c0-0.1,0.1-0.2,0.1-0.3c0-0.1,0-0.2,0.1-0.3c0-0.1,0.1-0.2,0.2-0.2c0,0,0,0,0.1,0
			c0.1,0.1,0.1,0.2,0.2,0.3c0,0.1,0.1,0.2,0.1,0.2c0.1-0.2,0.1-0.4,0.2-0.6c0-0.2,0.1-0.4,0.2-0.4c0.1,0,0.2,0.2,0.2,0.4
			c0,0.1,0,0.2,0.1,0.3c0.1-0.1,0.2-0.2,0.2-0.5c0-0.2,0.1-0.4,0.2-0.6c0,0,0,0,0.1,0c0.1,0,0.1,0.1,0.1,0.2c0,0.1,0.1,0.3,0.2,0.4
			c0,0,0.1-0.2,0.1-0.4c0-0.2,0.1-0.3,0.2-0.5c0-0.1,0.1-0.1,0.1-0.1c0,0,0.1,0,0.1,0.1c0,0.1,0.1,0.2,0.1,0.2c0,0.1,0,0.2,0.1,0.2
			c0.1,0,0.1,0,0.1,0c0-0.1,0.1-0.2,0.1-0.4c0-0.1,0-0.2,0.1-0.3c0-0.1,0.1-0.3,0.2-0.3c0.1,0.1,0.1,0.2,0.2,0.3c0,0,0,0.1,0,0.1
			c0,0.1,0.1,0.2,0.1,0.2c0.1-0.1,0.1-0.3,0.2-0.5c0.1-0.3,0.1-0.5,0.2-0.5c0.1,0,0.2,0.2,0.2,0.3c0,0.1,0.1,0.3,0.1,0.3
			s0.1-0.3,0.2-0.5c0-0.2,0.1-0.4,0.1-0.5c0,0,0,0,0.1,0c0,0,0.1,0.1,0.1,0.2c0,0,0,0.1,0,0.2c0,0.1,0.1,0.2,0.1,0.3
			c0,0,0.1-0.1,0.1-0.2c0-0.1,0-0.2,0.1-0.3c0-0.1,0.1-0.2,0.1-0.4c0-0.1,0.1-0.2,0.1-0.2c0,0,0,0,0.1,0c0,0.1,0.1,0.2,0.1,0.3
			c0,0.1,0,0.1,0.1,0.2c0,0,0,0.1,0.1,0.1c0,0,0,0,0,0c0.1-0.2,0.1-0.4,0.2-0.6c0.1-0.2,0.1-0.4,0.2-0.4c0.2,0.1,0.2,0.2,0.2,0.4
			c0,0.1,0,0.2,0.1,0.2c0.1-0.1,0.2-0.3,0.2-0.5s0-0.4,0.2-0.5c0,0,0.1,0,0.1,0c0.1,0,0.1,0.1,0.1,0.3c0,0.2,0.1,0.3,0.2,0.4
			c0,0,0.1-0.2,0.1-0.4c0-0.2,0.1-0.4,0.2-0.6c0,0,0-0.1,0.1-0.1c0,0,0.1,0,0.1,0.1c0,0.1,0,0.1,0.1,0.2c0,0.1,0.1,0.2,0.1,0.3
			c0,0,0.1,0,0.1-0.1c0-0.1,0.1-0.2,0.1-0.3c0-0.1,0-0.2,0.1-0.3c0,0.1,0,0.2,0,0.3c0,0.1-0.1,0.2-0.1,0.3c0,0.1-0.1,0.2-0.1,0.2
			c0,0-0.1,0-0.1,0c0-0.1-0.1-0.2-0.1-0.3c0-0.1,0-0.1-0.1-0.2c0-0.1,0-0.1-0.1-0.1c-0.1,0.2-0.2,0.4-0.2,0.6
			c-0.1,0.2-0.1,0.4-0.2,0.4c-0.2,0-0.2-0.2-0.2-0.4c0-0.1,0-0.2-0.1-0.2c-0.1,0.1-0.2,0.3-0.2,0.5c0,0.2,0,0.4-0.2,0.5
			c0,0-0.1,0-0.1,0c-0.1,0-0.1-0.1-0.1-0.3s-0.1-0.3-0.2-0.4c0,0-0.1,0.2-0.1,0.4c0,0.2-0.1,0.4-0.2,0.6c0,0-0.1,0.1-0.1,0.1
			c0,0-0.1,0-0.1-0.1c0-0.1,0-0.1-0.1-0.2c0-0.1-0.1-0.2-0.1-0.3c0,0-0.1,0-0.1,0.1c0,0.1-0.1,0.2-0.1,0.4c0,0.1,0,0.2-0.1,0.3
			c0,0.1-0.1,0.2-0.2,0.2c-0.1-0.1-0.1-0.2-0.2-0.3c0,0,0-0.1,0-0.2c0-0.1-0.1-0.1-0.1-0.1c-0.1,0.1-0.1,0.3-0.2,0.5
			c-0.1,0.3-0.1,0.5-0.2,0.5c-0.1,0-0.1-0.2-0.2-0.3c0-0.1-0.1-0.3-0.1-0.3c-0.1,0-0.1,0.3-0.2,0.5c0,0.2-0.1,0.4-0.2,0.5
			c0,0,0,0-0.1,0c-0.1,0-0.1-0.1-0.2-0.2c0,0,0-0.1,0-0.1c0-0.1-0.1-0.2-0.1-0.3c0,0-0.1,0.1-0.1,0.2c0,0.1,0,0.2-0.1,0.3
			c0,0.1-0.1,0.3-0.1,0.4c0,0.1-0.1,0.1-0.1,0.1c0,0-0.1,0-0.1-0.1c0-0.1-0.1-0.2-0.1-0.2c0-0.1,0-0.2-0.1-0.2c0,0,0,0,0,0
			s0,0-0.1,0.1c-0.1,0.2-0.1,0.3-0.2,0.5c-0.1,0.3-0.1,0.4-0.2,0.4c-0.1-0.1-0.2-0.3-0.2-0.4c0-0.1-0.1-0.2-0.1-0.2
			c-0.1,0.2-0.2,0.4-0.2,0.6c0,0.2-0.1,0.4-0.2,0.5c0,0-0.1,0-0.1,0c-0.1,0-0.1-0.2-0.1-0.3c0-0.2-0.1-0.3-0.1-0.3
			c0,0-0.1,0.2-0.1,0.4c0,0.2-0.1,0.4-0.2,0.6c0,0,0,0,0,0c0,0-0.1-0.1-0.2-0.3c0-0.1-0.1-0.2-0.2-0.3c0,0-0.1,0-0.1,0.2
			c0,0.1-0.1,0.2-0.1,0.3c0,0.1,0,0.2-0.1,0.3c0,0.1-0.1,0.2-0.1,0.2c0,0,0,0-0.1,0c0-0.1-0.1-0.2-0.1-0.3c0-0.1,0-0.1-0.1-0.2
			c0-0.1-0.1-0.1-0.1-0.1c-0.1,0.2-0.1,0.3-0.2,0.5c0,0.1,0,0.1,0,0.2c0,0.1-0.1,0.3-0.2,0.4c-0.1,0-0.2-0.1-0.2-0.3
			c0,0,0-0.1,0-0.1c-0.1-0.2-0.1-0.2-0.1-0.2c0,0-0.1,0.3-0.2,0.5c0,0.2-0.1,0.5-0.2,0.5c0,0,0,0-0.1,0c-0.1,0-0.1-0.1-0.2-0.3
			c0-0.1-0.1-0.3-0.1-0.3c0,0-0.1,0.1-0.1,0.3c0,0.1,0,0.2,0,0.2c0,0.2-0.1,0.3-0.1,0.4C44.9,44.2,44.8,44.2,44.8,44.2L44.8,44.2z"
			/>
	</g>
	<g>
		<path class="st22" d="M52,52c0-0.1,0-0.2,0-0.2L51,49c0.1,0.2,0,0.4-0.3,0.6c-0.5,0.2-1.2,0.2-1.6,0c-0.3-0.2-0.4-0.4-0.3-0.6
			l-1,2.8c0,0.1,0,0.2,0,0.3c0,0,0,11.8,0,11.8c0,0.3,0.2,0.6,0.6,0.9c0.8,0.5,2.2,0.5,3,0c0.4-0.2,0.6-0.6,0.6-0.9L52,52z"/>
		<path class="st23" d="M50.7,48.6c-0.4-0.3-1.2-0.3-1.6,0s-0.5,0.7,0,0.9s1.2,0.3,1.6,0S51.1,48.9,50.7,48.6z"/>
		<g>
			<g>
				<path class="st24" d="M49.3,49.5c-0.1,0-0.2-0.1-0.2-0.2v-2.4l-4.4-0.2c-0.1,0-0.1-0.1-0.2-0.1l-0.5-3c0-0.1,0-0.2,0.1-0.2
					s0.2,0,0.2,0.1l0.5,2.9l4.4,0.2c0.1,0,0.2,0.1,0.2,0.2v2.6C49.5,49.4,49.4,49.5,49.3,49.5z"/>
			</g>
			<g>
				<path class="st24" d="M50.2,49c-0.1,0-0.2-0.1-0.2-0.2v-2.6c0,0,0-0.1,0-0.1l4.5-5.4l0.5-3.6c0-0.1,0.1-0.2,0.2-0.1
					c0.1,0,0.2,0.1,0.1,0.2L55,40.8c0,0,0,0.1,0,0.1l-4.5,5.4v2.5C50.4,48.9,50.3,49,50.2,49z"/>
			</g>
		</g>
	</g>
</g>
</svg>
